<?xml version="1.0" standalone="no"?>
 <!DOCTYPE svg PUBLIC "-//W3C//DTD SVG 1.1//EN" 
 "http://www.w3.org/Graphics/SVG/1.1/DTD/svg11.dtd"> 
<svg xmlns="http://www.w3.org/2000/svg" version="1.1" 
    width="21.0007cm" height="29.7002cm" viewBox="0 0 82680 116930 ">
<title>SVG Picture created as Switching_Scheme_Prototype_40106_SMD-F_Cu.svg date 2019/07/13 17:39:30 </title>
  <desc>Picture generated by PCBNEW </desc>
<g style="fill:#000000; fill-opacity:1;stroke:#000000; stroke-opacity:1;
stroke-linecap:round; stroke-linejoin:round; "
 transform="translate(0 0) scale(1 1)">
</g>
<g style="fill:#000000; fill-opacity:0.0; 
stroke:#000000; stroke-width:-0.000393701; stroke-opacity:1; 
stroke-linecap:round; stroke-linejoin:round;">
</g>
<g style="fill:#000000; fill-opacity:0.0; 
stroke:#000000; stroke-width:19.685; stroke-opacity:1; 
stroke-linecap:round; stroke-linejoin:round;">
</g>
<g style="fill:#000000; fill-opacity:0.0; 
stroke:#000000; stroke-width:59.0551; stroke-opacity:1; 
stroke-linecap:round; stroke-linejoin:round;">
<rect x="35435.9" y="99607.2" width="42519.7" height="12598.4" rx="0" />
</g>
<g style="fill:#000000; fill-opacity:0.0; 
stroke:#000000; stroke-width:19.685; stroke-opacity:1; 
stroke-linecap:round; stroke-linejoin:round;">
</g>
<g style="fill:#000000; fill-opacity:0.0; 
stroke:#000000; stroke-width:59.0551; stroke-opacity:1; 
stroke-linecap:round; stroke-linejoin:round;">
<rect x="3937.01" y="3937.01" width="74806" height="109056" rx="0" />
</g>
<g style="fill:#000000; fill-opacity:0.0; 
stroke:#000000; stroke-width:19.685; stroke-opacity:1; 
stroke-linecap:round; stroke-linejoin:round;">
</g>
<g style="fill:#000000; fill-opacity:0.0; 
stroke:#000000; stroke-width:59.0551; stroke-opacity:1; 
stroke-linecap:round; stroke-linejoin:round;">
<rect x="4724.41" y="4724.41" width="73231.2" height="107481" rx="0" />
</g>
<g style="fill:#000000; fill-opacity:0.0; 
stroke:#000000; stroke-width:19.685; stroke-opacity:1; 
stroke-linecap:round; stroke-linejoin:round;">
</g>
<g style="fill:#000000; fill-opacity:0.0; 
stroke:#000000; stroke-width:59.0551; stroke-opacity:1; 
stroke-linecap:round; stroke-linejoin:round;">
<path d="M23622 4724
L23622 3937
" />
</g>
<g style="fill:#000000; fill-opacity:0.0; 
stroke:#000000; stroke-width:19.685; stroke-opacity:1; 
stroke-linecap:round; stroke-linejoin:round;">
</g>
<g style="fill:#000000; fill-opacity:0.0; 
stroke:#000000; stroke-width:59.0551; stroke-opacity:1; 
stroke-linecap:round; stroke-linejoin:round;">
<path d="M43307 4724
L43307 3937
" />
</g>
<g style="fill:#000000; fill-opacity:0.0; 
stroke:#000000; stroke-width:19.685; stroke-opacity:1; 
stroke-linecap:round; stroke-linejoin:round;">
</g>
<g style="fill:#000000; fill-opacity:0.0; 
stroke:#000000; stroke-width:59.0551; stroke-opacity:1; 
stroke-linecap:round; stroke-linejoin:round;">
<path d="M62992 4724
L62992 3937
" />
</g>
<g style="fill:#000000; fill-opacity:0.0; 
stroke:#000000; stroke-width:19.685; stroke-opacity:1; 
stroke-linecap:round; stroke-linejoin:round;">
</g>
<g style="fill:#000000; fill-opacity:0.0; 
stroke:#000000; stroke-width:59.0551; stroke-opacity:1; 
stroke-linecap:round; stroke-linejoin:round;">
<path d="M14199 4562
L13906 4562
" />
<path d="M14052 4562
L14052 4050
L14004 4123
L13955 4172
L13906 4196
" />
</g>
<g style="fill:#000000; fill-opacity:0.0; 
stroke:#000000; stroke-width:19.685; stroke-opacity:1; 
stroke-linecap:round; stroke-linejoin:round;">
</g>
<g style="fill:#000000; fill-opacity:0.0; 
stroke:#000000; stroke-width:59.0551; stroke-opacity:1; 
stroke-linecap:round; stroke-linejoin:round;">
<path d="M33591 4099
L33615 4074
L33664 4050
L33786 4050
L33835 4074
L33859 4099
L33884 4147
L33884 4196
L33859 4269
L33567 4562
L33884 4562
" />
</g>
<g style="fill:#000000; fill-opacity:0.0; 
stroke:#000000; stroke-width:19.685; stroke-opacity:1; 
stroke-linecap:round; stroke-linejoin:round;">
</g>
<g style="fill:#000000; fill-opacity:0.0; 
stroke:#000000; stroke-width:59.0551; stroke-opacity:1; 
stroke-linecap:round; stroke-linejoin:round;">
<path d="M53252 4050
L53569 4050
L53398 4245
L53471 4245
L53520 4269
L53544 4294
L53569 4342
L53569 4464
L53544 4513
L53520 4537
L53471 4562
L53325 4562
L53276 4537
L53252 4513
" />
</g>
<g style="fill:#000000; fill-opacity:0.0; 
stroke:#000000; stroke-width:19.685; stroke-opacity:1; 
stroke-linecap:round; stroke-linejoin:round;">
</g>
<g style="fill:#000000; fill-opacity:0.0; 
stroke:#000000; stroke-width:59.0551; stroke-opacity:1; 
stroke-linecap:round; stroke-linejoin:round;">
<path d="M73205 4221
L73205 4562
" />
<path d="M73083 4026
L72961 4391
L73278 4391
" />
</g>
<g style="fill:#000000; fill-opacity:0.0; 
stroke:#000000; stroke-width:19.685; stroke-opacity:1; 
stroke-linecap:round; stroke-linejoin:round;">
</g>
<g style="fill:#000000; fill-opacity:0.0; 
stroke:#000000; stroke-width:59.0551; stroke-opacity:1; 
stroke-linecap:round; stroke-linejoin:round;">
<path d="M23622 112205
L23622 112992
" />
</g>
<g style="fill:#000000; fill-opacity:0.0; 
stroke:#000000; stroke-width:19.685; stroke-opacity:1; 
stroke-linecap:round; stroke-linejoin:round;">
</g>
<g style="fill:#000000; fill-opacity:0.0; 
stroke:#000000; stroke-width:59.0551; stroke-opacity:1; 
stroke-linecap:round; stroke-linejoin:round;">
<path d="M43307 112205
L43307 112992
" />
</g>
<g style="fill:#000000; fill-opacity:0.0; 
stroke:#000000; stroke-width:19.685; stroke-opacity:1; 
stroke-linecap:round; stroke-linejoin:round;">
</g>
<g style="fill:#000000; fill-opacity:0.0; 
stroke:#000000; stroke-width:59.0551; stroke-opacity:1; 
stroke-linecap:round; stroke-linejoin:round;">
<path d="M62992 112205
L62992 112992
" />
</g>
<g style="fill:#000000; fill-opacity:0.0; 
stroke:#000000; stroke-width:19.685; stroke-opacity:1; 
stroke-linecap:round; stroke-linejoin:round;">
</g>
<g style="fill:#000000; fill-opacity:0.0; 
stroke:#000000; stroke-width:59.0551; stroke-opacity:1; 
stroke-linecap:round; stroke-linejoin:round;">
<path d="M14199 112830
L13906 112830
" />
<path d="M14052 112830
L14052 112319
L14004 112392
L13955 112440
L13906 112465
" />
</g>
<g style="fill:#000000; fill-opacity:0.0; 
stroke:#000000; stroke-width:19.685; stroke-opacity:1; 
stroke-linecap:round; stroke-linejoin:round;">
</g>
<g style="fill:#000000; fill-opacity:0.0; 
stroke:#000000; stroke-width:59.0551; stroke-opacity:1; 
stroke-linecap:round; stroke-linejoin:round;">
<path d="M33591 112367
L33615 112343
L33664 112319
L33786 112319
L33835 112343
L33859 112367
L33884 112416
L33884 112465
L33859 112538
L33567 112830
L33884 112830
" />
</g>
<g style="fill:#000000; fill-opacity:0.0; 
stroke:#000000; stroke-width:19.685; stroke-opacity:1; 
stroke-linecap:round; stroke-linejoin:round;">
</g>
<g style="fill:#000000; fill-opacity:0.0; 
stroke:#000000; stroke-width:59.0551; stroke-opacity:1; 
stroke-linecap:round; stroke-linejoin:round;">
<path d="M53252 112319
L53569 112319
L53398 112513
L53471 112513
L53520 112538
L53544 112562
L53569 112611
L53569 112733
L53544 112782
L53520 112806
L53471 112830
L53325 112830
L53276 112806
L53252 112782
" />
</g>
<g style="fill:#000000; fill-opacity:0.0; 
stroke:#000000; stroke-width:19.685; stroke-opacity:1; 
stroke-linecap:round; stroke-linejoin:round;">
</g>
<g style="fill:#000000; fill-opacity:0.0; 
stroke:#000000; stroke-width:59.0551; stroke-opacity:1; 
stroke-linecap:round; stroke-linejoin:round;">
<path d="M73205 112489
L73205 112830
" />
<path d="M73083 112294
L72961 112660
L73278 112660
" />
</g>
<g style="fill:#000000; fill-opacity:0.0; 
stroke:#000000; stroke-width:19.685; stroke-opacity:1; 
stroke-linecap:round; stroke-linejoin:round;">
</g>
<g style="fill:#000000; fill-opacity:0.0; 
stroke:#000000; stroke-width:59.0551; stroke-opacity:1; 
stroke-linecap:round; stroke-linejoin:round;">
<path d="M3937 23622
L4724 23622
" />
</g>
<g style="fill:#000000; fill-opacity:0.0; 
stroke:#000000; stroke-width:19.685; stroke-opacity:1; 
stroke-linecap:round; stroke-linejoin:round;">
</g>
<g style="fill:#000000; fill-opacity:0.0; 
stroke:#000000; stroke-width:59.0551; stroke-opacity:1; 
stroke-linecap:round; stroke-linejoin:round;">
<path d="M3937 43307
L4724 43307
" />
</g>
<g style="fill:#000000; fill-opacity:0.0; 
stroke:#000000; stroke-width:19.685; stroke-opacity:1; 
stroke-linecap:round; stroke-linejoin:round;">
</g>
<g style="fill:#000000; fill-opacity:0.0; 
stroke:#000000; stroke-width:59.0551; stroke-opacity:1; 
stroke-linecap:round; stroke-linejoin:round;">
<path d="M3937 62992
L4724 62992
" />
</g>
<g style="fill:#000000; fill-opacity:0.0; 
stroke:#000000; stroke-width:19.685; stroke-opacity:1; 
stroke-linecap:round; stroke-linejoin:round;">
</g>
<g style="fill:#000000; fill-opacity:0.0; 
stroke:#000000; stroke-width:59.0551; stroke-opacity:1; 
stroke-linecap:round; stroke-linejoin:round;">
<path d="M3937 82677
L4724 82677
" />
</g>
<g style="fill:#000000; fill-opacity:0.0; 
stroke:#000000; stroke-width:19.685; stroke-opacity:1; 
stroke-linecap:round; stroke-linejoin:round;">
</g>
<g style="fill:#000000; fill-opacity:0.0; 
stroke:#000000; stroke-width:59.0551; stroke-opacity:1; 
stroke-linecap:round; stroke-linejoin:round;">
<path d="M3937 102362
L4724 102362
" />
</g>
<g style="fill:#000000; fill-opacity:0.0; 
stroke:#000000; stroke-width:19.685; stroke-opacity:1; 
stroke-linecap:round; stroke-linejoin:round;">
</g>
<g style="fill:#000000; fill-opacity:0.0; 
stroke:#000000; stroke-width:59.0551; stroke-opacity:1; 
stroke-linecap:round; stroke-linejoin:round;">
<path d="M4208 13864
L4452 13864
" />
<path d="M4160 14011
L4330 13499
L4501 14011
" />
</g>
<g style="fill:#000000; fill-opacity:0.0; 
stroke:#000000; stroke-width:19.685; stroke-opacity:1; 
stroke-linecap:round; stroke-linejoin:round;">
</g>
<g style="fill:#000000; fill-opacity:0.0; 
stroke:#000000; stroke-width:59.0551; stroke-opacity:1; 
stroke-linecap:round; stroke-linejoin:round;">
<path d="M4367 33428
L4440 33452
L4464 33476
L4489 33525
L4489 33598
L4464 33647
L4440 33671
L4391 33696
L4196 33696
L4196 33184
L4367 33184
L4416 33208
L4440 33233
L4464 33281
L4464 33330
L4440 33379
L4416 33403
L4367 33428
L4196 33428
" />
</g>
<g style="fill:#000000; fill-opacity:0.0; 
stroke:#000000; stroke-width:19.685; stroke-opacity:1; 
stroke-linecap:round; stroke-linejoin:round;">
</g>
<g style="fill:#000000; fill-opacity:0.0; 
stroke:#000000; stroke-width:59.0551; stroke-opacity:1; 
stroke-linecap:round; stroke-linejoin:round;">
<path d="M4489 53332
L4464 53356
L4391 53381
L4342 53381
L4269 53356
L4221 53308
L4196 53259
L4172 53161
L4172 53088
L4196 52991
L4221 52942
L4269 52893
L4342 52869
L4391 52869
L4464 52893
L4489 52918
" />
</g>
<g style="fill:#000000; fill-opacity:0.0; 
stroke:#000000; stroke-width:19.685; stroke-opacity:1; 
stroke-linecap:round; stroke-linejoin:round;">
</g>
<g style="fill:#000000; fill-opacity:0.0; 
stroke:#000000; stroke-width:59.0551; stroke-opacity:1; 
stroke-linecap:round; stroke-linejoin:round;">
<path d="M4196 73066
L4196 72554
L4318 72554
L4391 72578
L4440 72627
L4464 72676
L4489 72773
L4489 72846
L4464 72944
L4440 72993
L4391 73041
L4318 73066
L4196 73066
" />
</g>
<g style="fill:#000000; fill-opacity:0.0; 
stroke:#000000; stroke-width:19.685; stroke-opacity:1; 
stroke-linecap:round; stroke-linejoin:round;">
</g>
<g style="fill:#000000; fill-opacity:0.0; 
stroke:#000000; stroke-width:59.0551; stroke-opacity:1; 
stroke-linecap:round; stroke-linejoin:round;">
<path d="M4221 92483
L4391 92483
" />
<path d="M4464 92751
L4221 92751
L4221 92239
L4464 92239
" />
</g>
<g style="fill:#000000; fill-opacity:0.0; 
stroke:#000000; stroke-width:19.685; stroke-opacity:1; 
stroke-linecap:round; stroke-linejoin:round;">
</g>
<g style="fill:#000000; fill-opacity:0.0; 
stroke:#000000; stroke-width:59.0551; stroke-opacity:1; 
stroke-linecap:round; stroke-linejoin:round;">
<path d="M4403 112168
L4233 112168
" />
<path d="M4233 112436
L4233 111924
L4476 111924
" />
</g>
<g style="fill:#000000; fill-opacity:0.0; 
stroke:#000000; stroke-width:19.685; stroke-opacity:1; 
stroke-linecap:round; stroke-linejoin:round;">
</g>
<g style="fill:#000000; fill-opacity:0.0; 
stroke:#000000; stroke-width:59.0551; stroke-opacity:1; 
stroke-linecap:round; stroke-linejoin:round;">
<path d="M78742 23622
L77955 23622
" />
</g>
<g style="fill:#000000; fill-opacity:0.0; 
stroke:#000000; stroke-width:19.685; stroke-opacity:1; 
stroke-linecap:round; stroke-linejoin:round;">
</g>
<g style="fill:#000000; fill-opacity:0.0; 
stroke:#000000; stroke-width:59.0551; stroke-opacity:1; 
stroke-linecap:round; stroke-linejoin:round;">
<path d="M78742 43307
L77955 43307
" />
</g>
<g style="fill:#000000; fill-opacity:0.0; 
stroke:#000000; stroke-width:19.685; stroke-opacity:1; 
stroke-linecap:round; stroke-linejoin:round;">
</g>
<g style="fill:#000000; fill-opacity:0.0; 
stroke:#000000; stroke-width:59.0551; stroke-opacity:1; 
stroke-linecap:round; stroke-linejoin:round;">
<path d="M78742 62992
L77955 62992
" />
</g>
<g style="fill:#000000; fill-opacity:0.0; 
stroke:#000000; stroke-width:19.685; stroke-opacity:1; 
stroke-linecap:round; stroke-linejoin:round;">
</g>
<g style="fill:#000000; fill-opacity:0.0; 
stroke:#000000; stroke-width:59.0551; stroke-opacity:1; 
stroke-linecap:round; stroke-linejoin:round;">
<path d="M78742 82677
L77955 82677
" />
</g>
<g style="fill:#000000; fill-opacity:0.0; 
stroke:#000000; stroke-width:19.685; stroke-opacity:1; 
stroke-linecap:round; stroke-linejoin:round;">
</g>
<g style="fill:#000000; fill-opacity:0.0; 
stroke:#000000; stroke-width:59.0551; stroke-opacity:1; 
stroke-linecap:round; stroke-linejoin:round;">
<path d="M78742 102362
L77955 102362
" />
</g>
<g style="fill:#000000; fill-opacity:0.0; 
stroke:#000000; stroke-width:19.685; stroke-opacity:1; 
stroke-linecap:round; stroke-linejoin:round;">
</g>
<g style="fill:#000000; fill-opacity:0.0; 
stroke:#000000; stroke-width:59.0551; stroke-opacity:1; 
stroke-linecap:round; stroke-linejoin:round;">
<path d="M78227 13864
L78471 13864
" />
<path d="M78178 14011
L78349 13499
L78519 14011
" />
</g>
<g style="fill:#000000; fill-opacity:0.0; 
stroke:#000000; stroke-width:19.685; stroke-opacity:1; 
stroke-linecap:round; stroke-linejoin:round;">
</g>
<g style="fill:#000000; fill-opacity:0.0; 
stroke:#000000; stroke-width:59.0551; stroke-opacity:1; 
stroke-linecap:round; stroke-linejoin:round;">
<path d="M78385 33428
L78458 33452
L78483 33476
L78507 33525
L78507 33598
L78483 33647
L78458 33671
L78410 33696
L78215 33696
L78215 33184
L78385 33184
L78434 33208
L78458 33233
L78483 33281
L78483 33330
L78458 33379
L78434 33403
L78385 33428
L78215 33428
" />
</g>
<g style="fill:#000000; fill-opacity:0.0; 
stroke:#000000; stroke-width:19.685; stroke-opacity:1; 
stroke-linecap:round; stroke-linejoin:round;">
</g>
<g style="fill:#000000; fill-opacity:0.0; 
stroke:#000000; stroke-width:59.0551; stroke-opacity:1; 
stroke-linecap:round; stroke-linejoin:round;">
<path d="M78507 53332
L78483 53356
L78410 53381
L78361 53381
L78288 53356
L78239 53308
L78215 53259
L78190 53161
L78190 53088
L78215 52991
L78239 52942
L78288 52893
L78361 52869
L78410 52869
L78483 52893
L78507 52918
" />
</g>
<g style="fill:#000000; fill-opacity:0.0; 
stroke:#000000; stroke-width:19.685; stroke-opacity:1; 
stroke-linecap:round; stroke-linejoin:round;">
</g>
<g style="fill:#000000; fill-opacity:0.0; 
stroke:#000000; stroke-width:59.0551; stroke-opacity:1; 
stroke-linecap:round; stroke-linejoin:round;">
<path d="M78215 73066
L78215 72554
L78337 72554
L78410 72578
L78458 72627
L78483 72676
L78507 72773
L78507 72846
L78483 72944
L78458 72993
L78410 73041
L78337 73066
L78215 73066
" />
</g>
<g style="fill:#000000; fill-opacity:0.0; 
stroke:#000000; stroke-width:19.685; stroke-opacity:1; 
stroke-linecap:round; stroke-linejoin:round;">
</g>
<g style="fill:#000000; fill-opacity:0.0; 
stroke:#000000; stroke-width:59.0551; stroke-opacity:1; 
stroke-linecap:round; stroke-linejoin:round;">
<path d="M78239 92483
L78410 92483
" />
<path d="M78483 92751
L78239 92751
L78239 92239
L78483 92239
" />
</g>
<g style="fill:#000000; fill-opacity:0.0; 
stroke:#000000; stroke-width:19.685; stroke-opacity:1; 
stroke-linecap:round; stroke-linejoin:round;">
</g>
<g style="fill:#000000; fill-opacity:0.0; 
stroke:#000000; stroke-width:59.0551; stroke-opacity:1; 
stroke-linecap:round; stroke-linejoin:round;">
<path d="M78422 112168
L78251 112168
" />
<path d="M78251 112436
L78251 111924
L78495 111924
" />
</g>
<g style="fill:#000000; fill-opacity:0.0; 
stroke:#000000; stroke-width:19.685; stroke-opacity:1; 
stroke-linecap:round; stroke-linejoin:round;">
</g>
<g style="fill:#000000; fill-opacity:0.0; 
stroke:#000000; stroke-width:59.0551; stroke-opacity:1; 
stroke-linecap:round; stroke-linejoin:round;">
<path d="M44661 110543
L44661 109953
L44801 109953
L44886 109981
L44942 110037
L44970 110093
L44998 110206
L44998 110290
L44970 110403
L44942 110459
L44886 110515
L44801 110543
L44661 110543
" />
<path d="M45504 110543
L45504 110234
L45476 110178
L45420 110149
L45307 110149
L45251 110178
" />
<path d="M45504 110515
L45448 110543
L45307 110543
L45251 110515
L45223 110459
L45223 110403
L45251 110346
L45307 110318
L45448 110318
L45504 110290
" />
<path d="M45701 110149
L45926 110149
" />
<path d="M45786 109953
L45786 110459
L45814 110515
L45870 110543
L45926 110543
" />
<path d="M46348 110515
L46292 110543
L46179 110543
L46123 110515
L46095 110459
L46095 110234
L46123 110178
L46179 110149
L46292 110149
L46348 110178
L46376 110234
L46376 110290
L46095 110346
" />
<path d="M46629 110487
L46657 110515
L46629 110543
L46601 110515
L46629 110487
L46629 110543
" />
<path d="M46629 110178
L46657 110206
L46629 110234
L46601 110206
L46629 110178
L46629 110234
" />
</g>
<g style="fill:#000000; fill-opacity:0.0; 
stroke:#000000; stroke-width:19.685; stroke-opacity:1; 
stroke-linecap:round; stroke-linejoin:round;">
</g>
<g style="fill:#000000; fill-opacity:0.0; 
stroke:#000000; stroke-width:59.0551; stroke-opacity:1; 
stroke-linecap:round; stroke-linejoin:round;">
<path d="M35435 110827
L77955 110827
" />
</g>
<g style="fill:#000000; fill-opacity:0.0; 
stroke:#000000; stroke-width:19.685; stroke-opacity:1; 
stroke-linecap:round; stroke-linejoin:round;">
</g>
<g style="fill:#000000; fill-opacity:0.0; 
stroke:#000000; stroke-width:59.0551; stroke-opacity:1; 
stroke-linecap:round; stroke-linejoin:round;">
<path d="M35999 111645
L35999 111055
" />
<path d="M36337 111645
L36084 111308
" />
<path d="M36337 111055
L35999 111392
" />
<path d="M36590 111645
L36590 111252
" />
<path d="M36590 111055
L36562 111083
L36590 111111
L36618 111083
L36590 111055
L36590 111111
" />
<path d="M37208 111589
L37180 111617
L37096 111645
L37040 111645
L36955 111617
L36899 111561
L36871 111505
L36843 111392
L36843 111308
L36871 111196
L36899 111139
L36955 111083
L37040 111055
L37096 111055
L37180 111083
L37208 111111
" />
<path d="M37715 111645
L37715 111336
L37687 111280
L37630 111252
L37518 111252
L37462 111280
" />
<path d="M37715 111617
L37658 111645
L37518 111645
L37462 111617
L37433 111561
L37433 111505
L37462 111449
L37518 111421
L37658 111421
L37715 111392
" />
<path d="M38249 111645
L38249 111055
" />
<path d="M38249 111617
L38193 111645
L38080 111645
L38024 111617
L37996 111589
L37968 111533
L37968 111364
L37996 111308
L38024 111280
L38080 111252
L38193 111252
L38249 111280
" />
<path d="M38980 111336
L39177 111336
" />
<path d="M39261 111645
L38980 111645
L38980 111055
L39261 111055
" />
<path d="M39514 111589
L39543 111617
L39514 111645
L39486 111617
L39514 111589
L39514 111645
" />
<path d="M39796 111645
L39796 111055
L39936 111055
L40021 111083
L40077 111139
L40105 111196
L40133 111308
L40133 111392
L40105 111505
L40077 111561
L40021 111617
L39936 111645
L39796 111645
" />
<path d="M40386 111589
L40414 111617
L40386 111645
L40358 111617
L40386 111589
L40386 111645
" />
<path d="M40639 111477
L40921 111477
" />
<path d="M40583 111645
L40780 111055
L40977 111645
" />
<path d="M41174 111589
L41202 111617
L41174 111645
L41145 111617
L41174 111589
L41174 111645
" />
<path d="M42355 111645
L42355 111055
" />
<path d="M42411 111421
L42580 111645
" />
<path d="M42580 111252
L42355 111477
" />
<path d="M42833 111645
L42833 111252
" />
<path d="M42833 111055
L42805 111083
L42833 111111
L42861 111083
L42833 111055
L42833 111111
" />
<path d="M43367 111617
L43311 111645
L43198 111645
L43142 111617
L43114 111589
L43086 111533
L43086 111364
L43114 111308
L43142 111280
L43198 111252
L43311 111252
L43367 111280
" />
<path d="M43873 111645
L43873 111336
L43845 111280
L43789 111252
L43676 111252
L43620 111280
" />
<path d="M43873 111617
L43817 111645
L43676 111645
L43620 111617
L43592 111561
L43592 111505
L43620 111449
L43676 111421
L43817 111421
L43873 111392
" />
<path d="M44408 111645
L44408 111055
" />
<path d="M44408 111617
L44351 111645
L44239 111645
L44183 111617
L44154 111589
L44126 111533
L44126 111364
L44154 111308
L44183 111280
L44239 111252
L44351 111252
L44408 111280
" />
<path d="M45307 111870
L45279 111842
L45223 111758
L45195 111702
L45167 111617
L45139 111477
L45139 111364
L45167 111224
L45195 111139
L45223 111083
L45279 110999
L45307 110971
" />
<path d="M45814 111055
L45532 111055
L45504 111336
L45532 111308
L45589 111280
L45729 111280
L45786 111308
L45814 111336
L45842 111392
L45842 111533
L45814 111589
L45786 111617
L45729 111645
L45589 111645
L45532 111617
L45504 111589
" />
<path d="M46095 111589
L46123 111617
L46095 111645
L46067 111617
L46095 111589
L46095 111645
" />
<path d="M46685 111645
L46348 111645
" />
<path d="M46517 111645
L46517 111055
L46460 111139
L46404 111196
L46348 111224
" />
<path d="M46938 111589
L46967 111617
L46938 111645
L46910 111617
L46938 111589
L46938 111645
" />
<path d="M47332 111055
L47388 111055
L47445 111083
L47473 111111
L47501 111167
L47529 111280
L47529 111421
L47501 111533
L47473 111589
L47445 111617
L47388 111645
L47332 111645
L47276 111617
L47248 111589
L47220 111533
L47192 111421
L47192 111280
L47220 111167
L47248 111111
L47276 111083
L47332 111055
" />
<path d="M47782 111421
L48232 111421
" />
<path d="M48823 111645
L48485 111645
" />
<path d="M48654 111645
L48654 111055
L48598 111139
L48541 111196
L48485 111224
" />
<path d="M49188 111055
L49244 111055
L49301 111083
L49329 111111
L49357 111167
L49385 111280
L49385 111421
L49357 111533
L49329 111589
L49301 111617
L49244 111645
L49188 111645
L49132 111617
L49104 111589
L49076 111533
L49048 111421
L49048 111280
L49076 111167
L49104 111111
L49132 111083
L49188 111055
" />
<path d="M49919 111055
L49638 111055
L49610 111336
L49638 111308
L49694 111280
L49835 111280
L49891 111308
L49919 111336
L49947 111392
L49947 111533
L49919 111589
L49891 111617
L49835 111645
L49694 111645
L49638 111617
L49610 111589
" />
<path d="M50482 111055
L50201 111055
L50172 111336
L50201 111308
L50257 111280
L50397 111280
L50454 111308
L50482 111336
L50510 111392
L50510 111533
L50482 111589
L50454 111617
L50397 111645
L50257 111645
L50201 111617
L50172 111589
" />
<path d="M50763 111421
L51213 111421
" />
<path d="M51747 111252
L51747 111730
L51719 111786
L51691 111814
L51635 111842
L51550 111842
L51494 111814
" />
<path d="M51747 111617
L51691 111645
L51579 111645
L51522 111617
L51494 111589
L51466 111533
L51466 111364
L51494 111308
L51522 111280
L51579 111252
L51691 111252
L51747 111280
" />
<path d="M52282 111645
L52282 111336
L52253 111280
L52197 111252
L52085 111252
L52028 111280
" />
<path d="M52282 111617
L52225 111645
L52085 111645
L52028 111617
L52000 111561
L52000 111505
L52028 111449
L52085 111421
L52225 111421
L52282 111392
" />
<path d="M52816 111645
L52816 111336
L52788 111280
L52732 111252
L52619 111252
L52563 111280
" />
<path d="M52816 111617
L52760 111645
L52619 111645
L52563 111617
L52535 111561
L52535 111505
L52563 111449
L52619 111421
L52760 111421
L52816 111392
" />
<path d="M53350 111645
L53350 111336
L53322 111280
L53266 111252
L53153 111252
L53097 111280
" />
<path d="M53350 111617
L53294 111645
L53153 111645
L53097 111617
L53069 111561
L53069 111505
L53097 111449
L53153 111421
L53294 111421
L53350 111392
" />
<path d="M53575 111055
L53969 111055
L53716 111645
" />
<path d="M54447 111055
L54334 111055
L54278 111083
L54250 111111
L54194 111196
L54166 111308
L54166 111533
L54194 111589
L54222 111617
L54278 111645
L54391 111645
L54447 111617
L54475 111589
L54503 111533
L54503 111392
L54475 111336
L54447 111308
L54391 111280
L54278 111280
L54222 111308
L54194 111336
L54166 111392
" />
<path d="M55009 111055
L54897 111055
L54841 111083
L54813 111111
L54756 111196
L54728 111308
L54728 111533
L54756 111589
L54784 111617
L54841 111645
L54953 111645
L55009 111617
L55037 111589
L55066 111533
L55066 111392
L55037 111336
L55009 111308
L54953 111280
L54841 111280
L54784 111308
L54756 111336
L54728 111392
" />
<path d="M55628 111645
L55291 111645
" />
<path d="M55459 111645
L55459 111055
L55403 111139
L55347 111196
L55291 111224
" />
<path d="M55881 111645
L55881 111055
" />
<path d="M55881 111280
L55937 111252
L56050 111252
L56106 111280
L56134 111308
L56162 111364
L56162 111533
L56134 111589
L56106 111617
L56050 111645
L55937 111645
L55881 111617
" />
<path d="M56444 111645
L56556 111645
L56612 111617
L56640 111589
L56697 111505
L56725 111392
L56725 111167
L56697 111111
L56669 111083
L56612 111055
L56500 111055
L56444 111083
L56415 111111
L56387 111167
L56387 111308
L56415 111364
L56444 111392
L56500 111421
L56612 111421
L56669 111392
L56697 111364
L56725 111308
" />
<path d="M56922 111870
L56950 111842
L57006 111758
L57034 111702
L57062 111617
L57090 111477
L57090 111364
L57062 111224
L57034 111139
L57006 111083
L56950 110999
L56922 110971
" />
</g>
<g style="fill:#000000; fill-opacity:0.0; 
stroke:#000000; stroke-width:19.685; stroke-opacity:1; 
stroke-linecap:round; stroke-linejoin:round;">
</g>
<g style="fill:#000000; fill-opacity:0.0; 
stroke:#000000; stroke-width:59.0551; stroke-opacity:1; 
stroke-linecap:round; stroke-linejoin:round;">
<path d="M35435 109646
L77955 109646
" />
</g>
<g style="fill:#000000; fill-opacity:0.0; 
stroke:#000000; stroke-width:19.685; stroke-opacity:1; 
stroke-linecap:round; stroke-linejoin:round;">
</g>
<g style="fill:#000000; fill-opacity:0.0; 
stroke:#000000; stroke-width:118.11; stroke-opacity:1; 
stroke-linecap:round; stroke-linejoin:round;">
<path d="M69849 110543
L69652 110262
" />
<path d="M69511 110543
L69511 109953
L69736 109953
L69792 109981
L69820 110009
L69849 110065
L69849 110149
L69820 110206
L69792 110234
L69736 110262
L69511 110262
" />
<path d="M70327 110515
L70270 110543
L70158 110543
L70102 110515
L70073 110459
L70073 110234
L70102 110178
L70158 110149
L70270 110149
L70327 110178
L70355 110234
L70355 110290
L70073 110346
" />
<path d="M70552 110149
L70692 110543
L70833 110149
" />
<path d="M71058 110487
L71086 110515
L71058 110543
L71030 110515
L71058 110487
L71058 110543
" />
<path d="M71058 110178
L71086 110206
L71058 110234
L71030 110206
L71058 110178
L71058 110234
" />
</g>
<g style="fill:#000000; fill-opacity:0.0; 
stroke:#000000; stroke-width:19.685; stroke-opacity:1; 
stroke-linecap:round; stroke-linejoin:round;">
</g>
<g style="fill:#000000; fill-opacity:0.0; 
stroke:#000000; stroke-width:59.0551; stroke-opacity:1; 
stroke-linecap:round; stroke-linejoin:round;">
<path d="M35971 110515
L36055 110543
L36196 110543
L36252 110515
L36280 110487
L36309 110431
L36309 110374
L36280 110318
L36252 110290
L36196 110262
L36084 110234
L36027 110206
L35999 110178
L35971 110121
L35971 110065
L35999 110009
L36027 109981
L36084 109953
L36224 109953
L36309 109981
" />
<path d="M36562 110543
L36562 110149
" />
<path d="M36562 109953
L36534 109981
L36562 110009
L36590 109981
L36562 109953
L36562 110009
" />
<path d="M36787 110149
L37096 110149
L36787 110543
L37096 110543
" />
<path d="M37546 110515
L37490 110543
L37377 110543
L37321 110515
L37293 110459
L37293 110234
L37321 110178
L37377 110149
L37490 110149
L37546 110178
L37574 110234
L37574 110290
L37293 110346
" />
<path d="M37827 110487
L37855 110515
L37827 110543
L37799 110515
L37827 110487
L37827 110543
" />
<path d="M37827 110178
L37855 110206
L37827 110234
L37799 110206
L37827 110178
L37827 110234
" />
<path d="M38530 110374
L38811 110374
" />
<path d="M38474 110543
L38671 109953
L38868 110543
" />
<path d="M39318 110149
L39318 110543
" />
<path d="M39177 109924
L39036 110346
L39402 110346
" />
</g>
<g style="fill:#000000; fill-opacity:0.0; 
stroke:#000000; stroke-width:19.685; stroke-opacity:1; 
stroke-linecap:round; stroke-linejoin:round;">
</g>
<g style="fill:#000000; fill-opacity:0.0; 
stroke:#000000; stroke-width:59.0551; stroke-opacity:1; 
stroke-linecap:round; stroke-linejoin:round;">
<path d="M69464 111645
L69464 111055
" />
<path d="M69998 111645
L69998 111055
" />
<path d="M69998 111617
L69942 111645
L69829 111645
L69773 111617
L69745 111589
L69717 111533
L69717 111364
L69745 111308
L69773 111280
L69829 111252
L69942 111252
L69998 111280
" />
<path d="M70279 111589
L70307 111617
L70279 111645
L70251 111617
L70279 111589
L70279 111645
" />
<path d="M70279 111280
L70307 111308
L70279 111336
L70251 111308
L70279 111280
L70279 111336
" />
<path d="M71320 111645
L70982 111645
" />
<path d="M71151 111645
L71151 111055
L71095 111139
L71039 111196
L70982 111224
" />
<path d="M71995 111027
L71489 111786
" />
<path d="M72501 111645
L72163 111645
" />
<path d="M72332 111645
L72332 111055
L72276 111139
L72220 111196
L72163 111224
" />
</g>
<g style="fill:#000000; fill-opacity:0.0; 
stroke:#000000; stroke-width:19.685; stroke-opacity:1; 
stroke-linecap:round; stroke-linejoin:round;">
</g>
<g style="fill:#000000; fill-opacity:0.0; 
stroke:#000000; stroke-width:59.0551; stroke-opacity:1; 
stroke-linecap:round; stroke-linejoin:round;">
<path d="M35435 108071
L77955 108071
" />
</g>
<g style="fill:#000000; fill-opacity:0.0; 
stroke:#000000; stroke-width:19.685; stroke-opacity:1; 
stroke-linecap:round; stroke-linejoin:round;">
</g>
<g style="fill:#000000; fill-opacity:0.0; 
stroke:#000000; stroke-width:157.48; stroke-opacity:1; 
stroke-linecap:round; stroke-linejoin:round;">
<path d="M36110 108349
L36560 108349
" />
<path d="M36236 109136
L36335 108349
" />
<path d="M36724 109136
L36789 108611
" />
<path d="M36822 108349
L36780 108386
L36813 108424
L36855 108386
L36822 108349
L36813 108424
" />
<path d="M37052 108611
L37352 108611
" />
<path d="M37197 108349
L37113 109024
L37141 109099
L37211 109136
L37286 109136
" />
<path d="M37661 109136
L37591 109099
L37563 109024
L37647 108349
" />
<path d="M38266 109099
L38186 109136
L38036 109136
L37966 109099
L37937 109024
L37975 108724
L38022 108649
L38102 108611
L38251 108611
L38322 108649
L38350 108724
L38341 108799
L37956 108874
" />
<path d="M38645 109061
L38678 109099
L38636 109136
L38603 109099
L38645 109061
L38636 109136
" />
<path d="M38697 108649
L38730 108686
L38687 108724
L38655 108686
L38697 108649
L38687 108724
" />
</g>
<g style="fill:#000000; fill-opacity:0.0; 
stroke:#000000; stroke-width:19.685; stroke-opacity:1; 
stroke-linecap:round; stroke-linejoin:round;">
</g>
<g style="fill:#000000; fill-opacity:0.0; 
stroke:#000000; stroke-width:59.0551; stroke-opacity:1; 
stroke-linecap:round; stroke-linejoin:round;">
<path d="M36196 107320
L35999 107320
" />
<path d="M35999 107630
L35999 107039
L36280 107039
" />
<path d="M36505 107630
L36505 107236
" />
<path d="M36505 107039
L36477 107067
L36505 107095
L36534 107067
L36505 107039
L36505 107095
" />
<path d="M36871 107630
L36815 107602
L36787 107545
L36787 107039
" />
<path d="M37321 107602
L37265 107630
L37152 107630
L37096 107602
L37068 107545
L37068 107320
L37096 107264
L37152 107236
L37265 107236
L37321 107264
L37349 107320
L37349 107377
L37068 107433
" />
<path d="M37602 107573
L37630 107602
L37602 107630
L37574 107602
L37602 107573
L37602 107630
" />
<path d="M37602 107264
L37630 107292
L37602 107320
L37574 107292
L37602 107264
L37602 107320
" />
<path d="M38305 107602
L38390 107630
L38530 107630
L38586 107602
L38615 107573
L38643 107517
L38643 107461
L38615 107405
L38586 107377
L38530 107349
L38418 107320
L38361 107292
L38333 107264
L38305 107208
L38305 107152
L38333 107095
L38361 107067
L38418 107039
L38558 107039
L38643 107067
" />
<path d="M38840 107236
L38952 107630
L39064 107349
L39177 107630
L39289 107236
" />
<path d="M39514 107630
L39514 107236
" />
<path d="M39514 107039
L39486 107067
L39514 107095
L39543 107067
L39514 107039
L39514 107095
" />
<path d="M39711 107236
L39936 107236
" />
<path d="M39796 107039
L39796 107545
L39824 107602
L39880 107630
L39936 107630
" />
<path d="M40386 107602
L40330 107630
L40217 107630
L40161 107602
L40133 107573
L40105 107517
L40105 107349
L40133 107292
L40161 107264
L40217 107236
L40330 107236
L40386 107264
" />
<path d="M40639 107630
L40639 107039
" />
<path d="M40892 107630
L40892 107320
L40864 107264
L40808 107236
L40724 107236
L40667 107264
L40639 107292
" />
<path d="M41174 107630
L41174 107236
" />
<path d="M41174 107039
L41145 107067
L41174 107095
L41202 107067
L41174 107039
L41174 107095
" />
<path d="M41455 107236
L41455 107630
" />
<path d="M41455 107292
L41483 107264
L41539 107236
L41624 107236
L41680 107264
L41708 107320
L41708 107630
" />
<path d="M42242 107236
L42242 107714
L42214 107770
L42186 107798
L42130 107827
L42045 107827
L41989 107798
" />
<path d="M42242 107602
L42186 107630
L42073 107630
L42017 107602
L41989 107573
L41961 107517
L41961 107349
L41989 107292
L42017 107264
L42073 107236
L42186 107236
L42242 107264
" />
<path d="M42383 107686
L42833 107686
" />
<path d="M42945 107602
L43030 107630
L43170 107630
L43226 107602
L43255 107573
L43283 107517
L43283 107461
L43255 107405
L43226 107377
L43170 107349
L43058 107320
L43001 107292
L42973 107264
L42945 107208
L42945 107152
L42973 107095
L43001 107067
L43058 107039
L43198 107039
L43283 107067
" />
<path d="M43789 107602
L43733 107630
L43620 107630
L43564 107602
L43536 107573
L43508 107517
L43508 107349
L43536 107292
L43564 107264
L43620 107236
L43733 107236
L43789 107264
" />
<path d="M44042 107630
L44042 107039
" />
<path d="M44295 107630
L44295 107320
L44267 107264
L44211 107236
L44126 107236
L44070 107264
L44042 107292
" />
<path d="M44801 107602
L44745 107630
L44633 107630
L44576 107602
L44548 107545
L44548 107320
L44576 107264
L44633 107236
L44745 107236
L44801 107264
L44829 107320
L44829 107377
L44548 107433
" />
<path d="M45082 107630
L45082 107236
" />
<path d="M45082 107292
L45111 107264
L45167 107236
L45251 107236
L45307 107264
L45336 107320
L45336 107630
" />
<path d="M45336 107320
L45364 107264
L45420 107236
L45504 107236
L45561 107264
L45589 107320
L45589 107630
" />
<path d="M46095 107602
L46039 107630
L45926 107630
L45870 107602
L45842 107545
L45842 107320
L45870 107264
L45926 107236
L46039 107236
L46095 107264
L46123 107320
L46123 107377
L45842 107433
" />
<path d="M46235 107686
L46685 107686
" />
<path d="M46826 107630
L46826 107039
L47051 107039
L47107 107067
L47135 107095
L47163 107152
L47163 107236
L47135 107292
L47107 107320
L47051 107349
L46826 107349
" />
<path d="M47417 107630
L47417 107236
" />
<path d="M47417 107349
L47445 107292
L47473 107264
L47529 107236
L47585 107236
" />
<path d="M47867 107630
L47810 107602
L47782 107573
L47754 107517
L47754 107349
L47782 107292
L47810 107264
L47867 107236
L47951 107236
L48007 107264
L48035 107292
L48063 107349
L48063 107517
L48035 107573
L48007 107602
L47951 107630
L47867 107630
" />
<path d="M48232 107236
L48457 107236
" />
<path d="M48316 107039
L48316 107545
L48345 107602
L48401 107630
L48457 107630
" />
<path d="M48738 107630
L48682 107602
L48654 107573
L48626 107517
L48626 107349
L48654 107292
L48682 107264
L48738 107236
L48823 107236
L48879 107264
L48907 107292
L48935 107349
L48935 107517
L48907 107573
L48879 107602
L48823 107630
L48738 107630
" />
<path d="M49104 107236
L49329 107236
" />
<path d="M49188 107039
L49188 107545
L49216 107602
L49273 107630
L49329 107630
" />
<path d="M49469 107236
L49610 107630
" />
<path d="M49751 107236
L49610 107630
L49554 107770
L49526 107798
L49469 107827
" />
<path d="M49976 107236
L49976 107827
" />
<path d="M49976 107264
L50032 107236
L50144 107236
L50201 107264
L50229 107292
L50257 107349
L50257 107517
L50229 107573
L50201 107602
L50144 107630
L50032 107630
L49976 107602
" />
<path d="M50735 107602
L50679 107630
L50566 107630
L50510 107602
L50482 107545
L50482 107320
L50510 107264
L50566 107236
L50679 107236
L50735 107264
L50763 107320
L50763 107377
L50482 107433
" />
<path d="M50876 107686
L51325 107686
" />
<path d="M51719 107236
L51719 107630
" />
<path d="M51579 107011
L51438 107433
L51804 107433
" />
<path d="M52141 107039
L52197 107039
L52253 107067
L52282 107095
L52310 107152
L52338 107264
L52338 107405
L52310 107517
L52282 107573
L52253 107602
L52197 107630
L52141 107630
L52085 107602
L52057 107573
L52028 107517
L52000 107405
L52000 107264
L52028 107152
L52057 107095
L52085 107067
L52141 107039
" />
<path d="M52900 107630
L52563 107630
" />
<path d="M52732 107630
L52732 107039
L52675 107124
L52619 107180
L52563 107208
" />
<path d="M53266 107039
L53322 107039
L53378 107067
L53406 107095
L53435 107152
L53463 107264
L53463 107405
L53435 107517
L53406 107573
L53378 107602
L53322 107630
L53266 107630
L53210 107602
L53181 107573
L53153 107517
L53125 107405
L53125 107264
L53153 107152
L53181 107095
L53210 107067
L53266 107039
" />
<path d="M53969 107039
L53856 107039
L53800 107067
L53772 107095
L53716 107180
L53688 107292
L53688 107517
L53716 107573
L53744 107602
L53800 107630
L53913 107630
L53969 107602
L53997 107573
L54025 107517
L54025 107377
L53997 107320
L53969 107292
L53913 107264
L53800 107264
L53744 107292
L53716 107320
L53688 107377
" />
<path d="M54138 107686
L54588 107686
" />
<path d="M54700 107602
L54784 107630
L54925 107630
L54981 107602
L55009 107573
L55037 107517
L55037 107461
L55009 107405
L54981 107377
L54925 107349
L54813 107320
L54756 107292
L54728 107264
L54700 107208
L54700 107152
L54728 107095
L54756 107067
L54813 107039
L54953 107039
L55037 107067
" />
<path d="M55291 107630
L55291 107039
L55487 107461
L55684 107039
L55684 107630
" />
<path d="M55965 107630
L55965 107039
L56106 107039
L56190 107067
L56247 107124
L56275 107180
L56303 107292
L56303 107377
L56275 107489
L56247 107545
L56190 107602
L56106 107630
L55965 107630
" />
<path d="M56556 107573
L56584 107602
L56556 107630
L56528 107602
L56556 107573
L56556 107630
" />
<path d="M56837 107630
L56837 107039
" />
<path d="M56894 107405
L57062 107630
" />
<path d="M57062 107236
L56837 107461
" />
<path d="M57315 107630
L57315 107236
" />
<path d="M57315 107039
L57287 107067
L57315 107095
L57343 107067
L57315 107039
L57315 107095
" />
<path d="M57850 107602
L57793 107630
L57681 107630
L57625 107602
L57597 107573
L57568 107517
L57568 107349
L57597 107292
L57625 107264
L57681 107236
L57793 107236
L57850 107264
" />
<path d="M58356 107630
L58356 107320
L58328 107264
L58271 107236
L58159 107236
L58103 107264
" />
<path d="M58356 107602
L58300 107630
L58159 107630
L58103 107602
L58075 107545
L58075 107489
L58103 107433
L58159 107405
L58300 107405
L58356 107377
" />
<path d="M58890 107630
L58890 107039
" />
<path d="M58890 107602
L58834 107630
L58721 107630
L58665 107602
L58637 107573
L58609 107517
L58609 107349
L58637 107292
L58665 107264
L58721 107236
L58834 107236
L58890 107264
" />
<path d="M59031 107686
L59481 107686
" />
<path d="M59621 107236
L59621 107827
" />
<path d="M59621 107264
L59678 107236
L59790 107236
L59846 107264
L59874 107292
L59903 107349
L59903 107517
L59874 107573
L59846 107602
L59790 107630
L59678 107630
L59621 107602
" />
<path d="M60409 107602
L60352 107630
L60240 107630
L60184 107602
L60156 107573
L60127 107517
L60127 107349
L60156 107292
L60184 107264
L60240 107236
L60352 107236
L60409 107264
" />
<path d="M60662 107630
L60662 107039
" />
<path d="M60662 107264
L60718 107236
L60831 107236
L60887 107264
L60915 107292
L60943 107349
L60943 107517
L60915 107573
L60887 107602
L60831 107630
L60718 107630
L60662 107602
" />
</g>
<g style="fill:#000000; fill-opacity:0.0; 
stroke:#000000; stroke-width:19.685; stroke-opacity:1; 
stroke-linecap:round; stroke-linejoin:round;">
</g>
<g style="fill:#000000; fill-opacity:0.0; 
stroke:#000000; stroke-width:59.0551; stroke-opacity:1; 
stroke-linecap:round; stroke-linejoin:round;">
<path d="M35435 105709
L77955 105709
" />
</g>
<g style="fill:#000000; fill-opacity:0.0; 
stroke:#000000; stroke-width:19.685; stroke-opacity:1; 
stroke-linecap:round; stroke-linejoin:round;">
</g>
<g style="fill:#000000; fill-opacity:0.0; 
stroke:#000000; stroke-width:59.0551; stroke-opacity:1; 
stroke-linecap:round; stroke-linejoin:round;">
<path d="M35971 106539
L36055 106567
L36196 106567
L36252 106539
L36280 106510
L36309 106454
L36309 106398
L36280 106342
L36252 106314
L36196 106286
L36084 106257
L36027 106229
L35999 106201
L35971 106145
L35971 106089
L35999 106032
L36027 106004
L36084 105976
L36224 105976
L36309 106004
" />
<path d="M36562 106567
L36562 105976
" />
<path d="M36815 106567
L36815 106257
L36787 106201
L36730 106173
L36646 106173
L36590 106201
L36562 106229
" />
<path d="M37321 106539
L37265 106567
L37152 106567
L37096 106539
L37068 106482
L37068 106257
L37096 106201
L37152 106173
L37265 106173
L37321 106201
L37349 106257
L37349 106314
L37068 106370
" />
<path d="M37827 106539
L37771 106567
L37658 106567
L37602 106539
L37574 106482
L37574 106257
L37602 106201
L37658 106173
L37771 106173
L37827 106201
L37855 106257
L37855 106314
L37574 106370
" />
<path d="M38024 106173
L38249 106173
" />
<path d="M38108 105976
L38108 106482
L38136 106539
L38193 106567
L38249 106567
" />
<path d="M38446 106510
L38474 106539
L38446 106567
L38418 106539
L38446 106510
L38446 106567
" />
<path d="M38446 106201
L38474 106229
L38446 106257
L38418 106229
L38446 106201
L38446 106257
" />
</g>
<g style="fill:#000000; fill-opacity:0.0; 
stroke:#000000; stroke-width:19.685; stroke-opacity:1; 
stroke-linecap:round; stroke-linejoin:round;">
</g>
<g style="fill:#000000; fill-opacity:0.0; 
stroke:#000000; stroke-width:118.11; stroke-opacity:1; 
stroke-linecap:round; stroke-linejoin:round;">
</g>
<g style="fill:#000000; fill-opacity:0.0; 
stroke:#000000; stroke-width:19.685; stroke-opacity:1; 
stroke-linecap:round; stroke-linejoin:round;">
</g>
<g style="fill:#000000; fill-opacity:0.0; 
stroke:#000000; stroke-width:59.0551; stroke-opacity:1; 
stroke-linecap:round; stroke-linejoin:round;">
</g>
<g style="fill:#000000; fill-opacity:0.0; 
stroke:#000000; stroke-width:19.685; stroke-opacity:1; 
stroke-linecap:round; stroke-linejoin:round;">
</g>
<g style="fill:#000000; fill-opacity:0.0; 
stroke:#000000; stroke-width:59.0551; stroke-opacity:1; 
stroke-linecap:round; stroke-linejoin:round;">
</g>
<g style="fill:#000000; fill-opacity:0.0; 
stroke:#000000; stroke-width:19.685; stroke-opacity:1; 
stroke-linecap:round; stroke-linejoin:round;">
</g>
<g style="fill:#000000; fill-opacity:0.0; 
stroke:#000000; stroke-width:59.0551; stroke-opacity:1; 
stroke-linecap:round; stroke-linejoin:round;">
</g>
<g style="fill:#000000; fill-opacity:0.0; 
stroke:#000000; stroke-width:19.685; stroke-opacity:1; 
stroke-linecap:round; stroke-linejoin:round;">
</g>
<g style="fill:#000000; fill-opacity:0.0; 
stroke:#000000; stroke-width:59.0551; stroke-opacity:1; 
stroke-linecap:round; stroke-linejoin:round;">
</g>
<g style="fill:#000000; fill-opacity:0.0; 
stroke:#000000; stroke-width:19.685; stroke-opacity:1; 
stroke-linecap:round; stroke-linejoin:round;">
</g>
<g style="fill:#000000; fill-opacity:0.0; 
stroke:#000000; stroke-width:59.0551; stroke-opacity:1; 
stroke-linecap:round; stroke-linejoin:round;">
<path d="M43309 109646
L43309 110827
" />
</g>
<g style="fill:#000000; fill-opacity:0.0; 
stroke:#000000; stroke-width:19.685; stroke-opacity:1; 
stroke-linecap:round; stroke-linejoin:round;">
</g>
<g style="fill:#000000; fill-opacity:0.0; 
stroke:#000000; stroke-width:59.0551; stroke-opacity:1; 
stroke-linecap:round; stroke-linejoin:round;">
<path d="M68506 109646
L68506 112205
" />
<g >
</g>
<g >
</g>
<g >
</g>
<g style="fill:#000000; fill-opacity:0.0; 
stroke:#000000; stroke-width:-0.000393701; stroke-opacity:1; 
stroke-linecap:round; stroke-linejoin:round;">
</g>
<g style="fill:#000000; fill-opacity:0.0; 
stroke:#000000; stroke-width:0; stroke-opacity:1; 
stroke-linecap:round; stroke-linejoin:round;">
</g>
<g style="fill:#000000; fill-opacity:1.0; 
stroke:#000000; stroke-width:0; stroke-opacity:1; 
stroke-linecap:round; stroke-linejoin:round;">
<path style="fill:#000000; fill-opacity:1.0; 
stroke:#000000; stroke-width:0; stroke-opacity:1; 
stroke-linecap:round; stroke-linejoin:round;fill-rule:evenodd;"
d="M 22106,49405
22074,49426
22053,49458
22046,49496
22046,50303
22053,50341
22074,50373
22106,50394
22144,50401
22764,50401
22802,50394
22834,50373
22855,50341
22863,50303
22863,49496
22855,49458
22834,49426
22802,49405
22764,49398
22144,49398
22106,49405
Z" /> 
<path style="fill:#000000; fill-opacity:1.0; 
stroke:#000000; stroke-width:0; stroke-opacity:1; 
stroke-linecap:round; stroke-linejoin:round;fill-rule:evenodd;"
d="M 24557,49405
24525,49426
24504,49458
24496,49496
24496,50303
24504,50341
24525,50373
24557,50394
24595,50401
25215,50401
25253,50394
25285,50373
25306,50341
25313,50303
25313,49496
25306,49458
25285,49426
25253,49405
25215,49398
24595,49398
24557,49405
Z" /> 
</g>
<g >
</g>
<g style="fill:#000000; fill-opacity:1.0; 
stroke:#000000; stroke-width:0; stroke-opacity:1; 
stroke-linecap:round; stroke-linejoin:round;">
<path style="fill:#000000; fill-opacity:1.0; 
stroke:#000000; stroke-width:0; stroke-opacity:1; 
stroke-linecap:round; stroke-linejoin:round;fill-rule:evenodd;"
d="M 24296,56144
24268,56163
24249,56190
24242,56223
24242,56396
24249,56429
24268,56457
24296,56475
24329,56482
24530,56482
24563,56475
24591,56457
24610,56429
24617,56396
24617,56223
24610,56190
24591,56163
24563,56144
24530,56137
24329,56137
24296,56144
Z" /> 
<path style="fill:#000000; fill-opacity:1.0; 
stroke:#000000; stroke-width:0; stroke-opacity:1; 
stroke-linecap:round; stroke-linejoin:round;fill-rule:evenodd;"
d="M 24296,55524
24268,55542
24249,55570
24242,55603
24242,55776
24249,55809
24268,55836
24296,55855
24329,55862
24530,55862
24563,55855
24591,55836
24610,55809
24617,55776
24617,55603
24610,55570
24591,55542
24563,55524
24530,55517
24329,55517
24296,55524
Z" /> 
</g>
<g >
</g>
<g >
</g>
<g style="fill:#000000; fill-opacity:1.0; 
stroke:#000000; stroke-width:0; stroke-opacity:1; 
stroke-linecap:round; stroke-linejoin:round;">
<path style="fill:#000000; fill-opacity:1.0; 
stroke:#000000; stroke-width:0; stroke-opacity:1; 
stroke-linecap:round; stroke-linejoin:round;fill-rule:evenodd;"
d="M 23546,56144
23518,56163
23499,56190
23492,56223
23492,56396
23499,56429
23518,56457
23546,56475
23579,56482
23780,56482
23813,56475
23841,56457
23860,56429
23867,56396
23867,56223
23860,56190
23841,56163
23813,56144
23780,56137
23579,56137
23546,56144
Z" /> 
<path style="fill:#000000; fill-opacity:1.0; 
stroke:#000000; stroke-width:0; stroke-opacity:1; 
stroke-linecap:round; stroke-linejoin:round;fill-rule:evenodd;"
d="M 23546,55524
23518,55542
23499,55570
23492,55603
23492,55776
23499,55809
23518,55836
23546,55855
23579,55862
23780,55862
23813,55855
23841,55836
23860,55809
23867,55776
23867,55603
23860,55570
23841,55542
23813,55524
23780,55517
23579,55517
23546,55524
Z" /> 
</g>
<g >
</g>
<g >
</g>
<g >
</g>
<g >
</g>
<g style="fill:#000000; fill-opacity:1.0; 
stroke:#000000; stroke-width:0; stroke-opacity:1; 
stroke-linecap:round; stroke-linejoin:round;">
<path style="fill:#000000; fill-opacity:1.0; 
stroke:#000000; stroke-width:0; stroke-opacity:1; 
stroke-linecap:round; stroke-linejoin:round;fill-rule:evenodd;"
d="M 24046,57394
24018,57413
23999,57440
23992,57473
23992,57646
23999,57679
24018,57707
24046,57725
24079,57732
24280,57732
24313,57725
24341,57707
24360,57679
24367,57646
24367,57473
24360,57440
24341,57413
24313,57394
24280,57387
24079,57387
24046,57394
Z" /> 
<path style="fill:#000000; fill-opacity:1.0; 
stroke:#000000; stroke-width:0; stroke-opacity:1; 
stroke-linecap:round; stroke-linejoin:round;fill-rule:evenodd;"
d="M 24046,56774
24018,56792
23999,56820
23992,56853
23992,57026
23999,57059
24018,57086
24046,57105
24079,57112
24280,57112
24313,57105
24341,57086
24360,57059
24367,57026
24367,56853
24360,56820
24341,56792
24313,56774
24280,56767
24079,56767
24046,56774
Z" /> 
</g>
<g >
</g>
<g style="fill:#000000; fill-opacity:1.0; 
stroke:#000000; stroke-width:0; stroke-opacity:1; 
stroke-linecap:round; stroke-linejoin:round;">
<path style="fill:#000000; fill-opacity:1.0; 
stroke:#000000; stroke-width:0; stroke-opacity:1; 
stroke-linecap:round; stroke-linejoin:round;fill-rule:evenodd;"
d="M 22796,55524
22768,55542
22749,55570
22742,55603
22742,55776
22749,55809
22768,55836
22796,55855
22829,55862
23030,55862
23063,55855
23091,55836
23110,55809
23117,55776
23117,55603
23110,55570
23091,55542
23063,55524
23030,55517
22829,55517
22796,55524
Z" /> 
<path style="fill:#000000; fill-opacity:1.0; 
stroke:#000000; stroke-width:0; stroke-opacity:1; 
stroke-linecap:round; stroke-linejoin:round;fill-rule:evenodd;"
d="M 22796,56144
22768,56163
22749,56190
22742,56223
22742,56396
22749,56429
22768,56457
22796,56475
22829,56482
23030,56482
23063,56475
23091,56457
23110,56429
23117,56396
23117,56223
23110,56190
23091,56163
23063,56144
23030,56137
22829,56137
22796,56144
Z" /> 
</g>
<g >
</g>
<g style="fill:#000000; fill-opacity:1.0; 
stroke:#000000; stroke-width:0; stroke-opacity:1; 
stroke-linecap:round; stroke-linejoin:round;">
<path style="fill:#000000; fill-opacity:1.0; 
stroke:#000000; stroke-width:0; stroke-opacity:1; 
stroke-linecap:round; stroke-linejoin:round;fill-rule:evenodd;"
d="M 24386,52306
24372,52316
24362,52330
24359,52347
24359,52829
24362,52846
24372,52861
24386,52870
24403,52874
24492,52874
24508,52870
24523,52861
24532,52846
24536,52829
24536,52347
24532,52330
24523,52316
24508,52306
24492,52303
24403,52303
24386,52306
Z" /> 
<path style="fill:#000000; fill-opacity:1.0; 
stroke:#000000; stroke-width:0; stroke-opacity:1; 
stroke-linecap:round; stroke-linejoin:round;fill-rule:evenodd;"
d="M 24130,52306
24116,52316
24106,52330
24103,52347
24103,52829
24106,52846
24116,52861
24130,52870
24147,52874
24236,52874
24253,52870
24267,52861
24277,52846
24280,52829
24280,52347
24277,52330
24267,52316
24253,52306
24236,52303
24147,52303
24130,52306
Z" /> 
<path style="fill:#000000; fill-opacity:1.0; 
stroke:#000000; stroke-width:0; stroke-opacity:1; 
stroke-linecap:round; stroke-linejoin:round;fill-rule:evenodd;"
d="M 23874,52306
23860,52316
23850,52330
23847,52347
23847,52829
23850,52846
23860,52861
23874,52870
23891,52874
23980,52874
23997,52870
24011,52861
24021,52846
24024,52829
24024,52347
24021,52330
24011,52316
23997,52306
23980,52303
23891,52303
23874,52306
Z" /> 
<path style="fill:#000000; fill-opacity:1.0; 
stroke:#000000; stroke-width:0; stroke-opacity:1; 
stroke-linecap:round; stroke-linejoin:round;fill-rule:evenodd;"
d="M 23618,52306
23604,52316
23594,52330
23591,52347
23591,52829
23594,52846
23604,52861
23618,52870
23635,52874
23724,52874
23741,52870
23755,52861
23765,52846
23768,52829
23768,52347
23765,52330
23755,52316
23741,52306
23724,52303
23635,52303
23618,52306
Z" /> 
<path style="fill:#000000; fill-opacity:1.0; 
stroke:#000000; stroke-width:0; stroke-opacity:1; 
stroke-linecap:round; stroke-linejoin:round;fill-rule:evenodd;"
d="M 23362,52306
23348,52316
23338,52330
23335,52347
23335,52829
23338,52846
23348,52861
23362,52870
23379,52874
23468,52874
23485,52870
23499,52861
23509,52846
23512,52829
23512,52347
23509,52330
23499,52316
23485,52306
23468,52303
23379,52303
23362,52306
Z" /> 
<path style="fill:#000000; fill-opacity:1.0; 
stroke:#000000; stroke-width:0; stroke-opacity:1; 
stroke-linecap:round; stroke-linejoin:round;fill-rule:evenodd;"
d="M 23106,52306
23092,52316
23082,52330
23079,52347
23079,52829
23082,52846
23092,52861
23106,52870
23123,52874
23212,52874
23229,52870
23243,52861
23253,52846
23256,52829
23256,52347
23253,52330
23243,52316
23229,52306
23212,52303
23123,52303
23106,52306
Z" /> 
<path style="fill:#000000; fill-opacity:1.0; 
stroke:#000000; stroke-width:0; stroke-opacity:1; 
stroke-linecap:round; stroke-linejoin:round;fill-rule:evenodd;"
d="M 22851,52306
22836,52316
22827,52330
22823,52347
22823,52829
22827,52846
22836,52861
22851,52870
22867,52874
22956,52874
22973,52870
22987,52861
22997,52846
23000,52829
23000,52347
22997,52330
22987,52316
22973,52306
22956,52303
22867,52303
22851,52306
Z" /> 
<path style="fill:#000000; fill-opacity:1.0; 
stroke:#000000; stroke-width:0; stroke-opacity:1; 
stroke-linecap:round; stroke-linejoin:round;fill-rule:evenodd;"
d="M 22851,54629
22836,54638
22827,54653
22823,54670
22823,55152
22827,55169
22836,55183
22851,55193
22867,55196
22956,55196
22973,55193
22987,55183
22997,55169
23000,55152
23000,54670
22997,54653
22987,54638
22973,54629
22956,54625
22867,54625
22851,54629
Z" /> 
<path style="fill:#000000; fill-opacity:1.0; 
stroke:#000000; stroke-width:0; stroke-opacity:1; 
stroke-linecap:round; stroke-linejoin:round;fill-rule:evenodd;"
d="M 23106,54629
23092,54638
23082,54653
23079,54670
23079,55152
23082,55169
23092,55183
23106,55193
23123,55196
23212,55196
23229,55193
23243,55183
23253,55169
23256,55152
23256,54670
23253,54653
23243,54638
23229,54629
23212,54625
23123,54625
23106,54629
Z" /> 
<path style="fill:#000000; fill-opacity:1.0; 
stroke:#000000; stroke-width:0; stroke-opacity:1; 
stroke-linecap:round; stroke-linejoin:round;fill-rule:evenodd;"
d="M 23362,54629
23348,54638
23338,54653
23335,54670
23335,55152
23338,55169
23348,55183
23362,55193
23379,55196
23468,55196
23485,55193
23499,55183
23509,55169
23512,55152
23512,54670
23509,54653
23499,54638
23485,54629
23468,54625
23379,54625
23362,54629
Z" /> 
<path style="fill:#000000; fill-opacity:1.0; 
stroke:#000000; stroke-width:0; stroke-opacity:1; 
stroke-linecap:round; stroke-linejoin:round;fill-rule:evenodd;"
d="M 23618,54629
23604,54638
23594,54653
23591,54670
23591,55152
23594,55169
23604,55183
23618,55193
23635,55196
23724,55196
23741,55193
23755,55183
23765,55169
23768,55152
23768,54670
23765,54653
23755,54638
23741,54629
23724,54625
23635,54625
23618,54629
Z" /> 
<path style="fill:#000000; fill-opacity:1.0; 
stroke:#000000; stroke-width:0; stroke-opacity:1; 
stroke-linecap:round; stroke-linejoin:round;fill-rule:evenodd;"
d="M 23874,54629
23860,54638
23850,54653
23847,54670
23847,55152
23850,55169
23860,55183
23874,55193
23891,55196
23980,55196
23997,55193
24011,55183
24021,55169
24024,55152
24024,54670
24021,54653
24011,54638
23997,54629
23980,54625
23891,54625
23874,54629
Z" /> 
<path style="fill:#000000; fill-opacity:1.0; 
stroke:#000000; stroke-width:0; stroke-opacity:1; 
stroke-linecap:round; stroke-linejoin:round;fill-rule:evenodd;"
d="M 24130,54629
24116,54638
24106,54653
24103,54670
24103,55152
24106,55169
24116,55183
24130,55193
24147,55196
24236,55196
24253,55193
24267,55183
24277,55169
24280,55152
24280,54670
24277,54653
24267,54638
24253,54629
24236,54625
24147,54625
24130,54629
Z" /> 
<path style="fill:#000000; fill-opacity:1.0; 
stroke:#000000; stroke-width:0; stroke-opacity:1; 
stroke-linecap:round; stroke-linejoin:round;fill-rule:evenodd;"
d="M 24386,54629
24372,54638
24362,54653
24359,54670
24359,55152
24362,55169
24372,55183
24386,55193
24403,55196
24492,55196
24508,55193
24523,55183
24532,55169
24536,55152
24536,54670
24532,54653
24523,54638
24508,54629
24492,54625
24403,54625
24386,54629
Z" /> 
</g>
<g >
</g>
<g style="fill:#000000; fill-opacity:1.0; 
stroke:#000000; stroke-width:0; stroke-opacity:1; 
stroke-linecap:round; stroke-linejoin:round;">
</g>
<g style="fill:#000000; fill-opacity:1.0; 
stroke:#000000; stroke-width:669.291; stroke-opacity:1; 
stroke-linecap:round; stroke-linejoin:round;">
</g>
<g style="fill:#000000; fill-opacity:0.0; 
stroke:#000000; stroke-width:669.291; stroke-opacity:1; 
stroke-linecap:round; stroke-linejoin:round;">
<path d="M24930 57250
L24930 57250
" />
</g>
<g style="fill:#000000; fill-opacity:0.0; 
stroke:#000000; stroke-width:0; stroke-opacity:1; 
stroke-linecap:round; stroke-linejoin:round;">
</g>
<g style="fill:#000000; fill-opacity:1.0; 
stroke:#000000; stroke-width:0; stroke-opacity:1; 
stroke-linecap:round; stroke-linejoin:round;">
<path style="fill:#000000; fill-opacity:1.0; 
stroke:#000000; stroke-width:0; stroke-opacity:1; 
stroke-linecap:round; stroke-linejoin:round;fill-rule:evenodd;"
d="M 25595,57584
26264,57584
26264,56915
25595,56915
25595,57584
Z" /> 
</g>
<g >
</g>
<g style="fill:#000000; fill-opacity:1.0; 
stroke:#000000; stroke-width:0; stroke-opacity:1; 
stroke-linecap:round; stroke-linejoin:round;">
</g>
<g style="fill:#000000; fill-opacity:1.0; 
stroke:#000000; stroke-width:669.291; stroke-opacity:1; 
stroke-linecap:round; stroke-linejoin:round;">
</g>
<g style="fill:#000000; fill-opacity:0.0; 
stroke:#000000; stroke-width:669.291; stroke-opacity:1; 
stroke-linecap:round; stroke-linejoin:round;">
<path d="M21930 57200
L21930 57200
" />
</g>
<g style="fill:#000000; fill-opacity:0.0; 
stroke:#000000; stroke-width:0; stroke-opacity:1; 
stroke-linecap:round; stroke-linejoin:round;">
</g>
<g style="fill:#000000; fill-opacity:1.0; 
stroke:#000000; stroke-width:0; stroke-opacity:1; 
stroke-linecap:round; stroke-linejoin:round;">
<path style="fill:#000000; fill-opacity:1.0; 
stroke:#000000; stroke-width:0; stroke-opacity:1; 
stroke-linecap:round; stroke-linejoin:round;fill-rule:evenodd;"
d="M 22595,57534
23264,57534
23264,56865
22595,56865
22595,57534
Z" /> 
</g>
<g >
</g>
<g >
</g>
<g style="fill:#000000; fill-opacity:1.0; 
stroke:#000000; stroke-width:0; stroke-opacity:1; 
stroke-linecap:round; stroke-linejoin:round;">
<circle cx="22173" cy="51751.1" r="314.961" /> 
</g>
<g style="fill:#000000; fill-opacity:1.0; 
stroke:#000000; stroke-width:19.685; stroke-opacity:1; 
stroke-linecap:round; stroke-linejoin:round;">
</g>
<g style="fill:#000000; fill-opacity:1.0; 
stroke:#000000; stroke-width:0; stroke-opacity:1; 
stroke-linecap:round; stroke-linejoin:round;">
<circle cx="22173" cy="52751.1" r="314.961" /> 
</g>
<g style="fill:#000000; fill-opacity:1.0; 
stroke:#000000; stroke-width:19.685; stroke-opacity:1; 
stroke-linecap:round; stroke-linejoin:round;">
</g>
<g style="fill:#000000; fill-opacity:1.0; 
stroke:#000000; stroke-width:0; stroke-opacity:1; 
stroke-linecap:round; stroke-linejoin:round;">
<circle cx="22173" cy="53751.1" r="314.961" /> 
</g>
<g style="fill:#000000; fill-opacity:1.0; 
stroke:#000000; stroke-width:19.685; stroke-opacity:1; 
stroke-linecap:round; stroke-linejoin:round;">
</g>
<g style="fill:#000000; fill-opacity:1.0; 
stroke:#000000; stroke-width:0; stroke-opacity:1; 
stroke-linecap:round; stroke-linejoin:round;">
<circle cx="22173" cy="54751.1" r="314.961" /> 
</g>
<g style="fill:#000000; fill-opacity:1.0; 
stroke:#000000; stroke-width:19.685; stroke-opacity:1; 
stroke-linecap:round; stroke-linejoin:round;">
</g>
<g style="fill:#000000; fill-opacity:1.0; 
stroke:#000000; stroke-width:0; stroke-opacity:1; 
stroke-linecap:round; stroke-linejoin:round;">
<circle cx="22173" cy="55751.1" r="314.961" /> 
</g>
<g style="fill:#000000; fill-opacity:1.0; 
stroke:#000000; stroke-width:19.685; stroke-opacity:1; 
stroke-linecap:round; stroke-linejoin:round;">
</g>
<g style="fill:#000000; fill-opacity:1.0; 
stroke:#000000; stroke-width:0; stroke-opacity:1; 
stroke-linecap:round; stroke-linejoin:round;">
<circle cx="25173" cy="55751.1" r="314.961" /> 
</g>
<g style="fill:#000000; fill-opacity:1.0; 
stroke:#000000; stroke-width:19.685; stroke-opacity:1; 
stroke-linecap:round; stroke-linejoin:round;">
</g>
<g style="fill:#000000; fill-opacity:1.0; 
stroke:#000000; stroke-width:0; stroke-opacity:1; 
stroke-linecap:round; stroke-linejoin:round;">
<circle cx="25173" cy="54751.1" r="314.961" /> 
</g>
<g style="fill:#000000; fill-opacity:1.0; 
stroke:#000000; stroke-width:19.685; stroke-opacity:1; 
stroke-linecap:round; stroke-linejoin:round;">
</g>
<g style="fill:#000000; fill-opacity:1.0; 
stroke:#000000; stroke-width:0; stroke-opacity:1; 
stroke-linecap:round; stroke-linejoin:round;">
<circle cx="25173" cy="53751.1" r="314.961" /> 
</g>
<g style="fill:#000000; fill-opacity:1.0; 
stroke:#000000; stroke-width:19.685; stroke-opacity:1; 
stroke-linecap:round; stroke-linejoin:round;">
</g>
<g style="fill:#000000; fill-opacity:1.0; 
stroke:#000000; stroke-width:0; stroke-opacity:1; 
stroke-linecap:round; stroke-linejoin:round;">
<circle cx="25173" cy="52751.1" r="314.961" /> 
</g>
<g style="fill:#000000; fill-opacity:1.0; 
stroke:#000000; stroke-width:19.685; stroke-opacity:1; 
stroke-linecap:round; stroke-linejoin:round;">
</g>
<g style="fill:#000000; fill-opacity:1.0; 
stroke:#000000; stroke-width:0; stroke-opacity:1; 
stroke-linecap:round; stroke-linejoin:round;">
<circle cx="25173" cy="51751.1" r="314.961" /> 
</g>
<g style="fill:#000000; fill-opacity:1.0; 
stroke:#000000; stroke-width:19.685; stroke-opacity:1; 
stroke-linecap:round; stroke-linejoin:round;">
</g>
<g >
</g>
<g >
</g>
<g style="fill:#000000; fill-opacity:1.0; 
stroke:#000000; stroke-width:19.685; stroke-opacity:1; 
stroke-linecap:round; stroke-linejoin:round;">
</g>
<g style="fill:#000000; fill-opacity:1.0; 
stroke:#000000; stroke-width:0; stroke-opacity:1; 
stroke-linecap:round; stroke-linejoin:round;">
<circle cx="23680" cy="50000" r="157.48" /> 
</g>
<g style="fill:#000000; fill-opacity:1.0; 
stroke:#000000; stroke-width:19.685; stroke-opacity:1; 
stroke-linecap:round; stroke-linejoin:round;">
</g>
<g style="fill:#000000; fill-opacity:1.0; 
stroke:#000000; stroke-width:0; stroke-opacity:1; 
stroke-linecap:round; stroke-linejoin:round;">
<circle cx="22930" cy="54000" r="157.48" /> 
</g>
<g style="fill:#000000; fill-opacity:1.0; 
stroke:#000000; stroke-width:19.685; stroke-opacity:1; 
stroke-linecap:round; stroke-linejoin:round;">
</g>
<g style="fill:#000000; fill-opacity:1.0; 
stroke:#000000; stroke-width:0; stroke-opacity:1; 
stroke-linecap:round; stroke-linejoin:round;">
<circle cx="24580" cy="54400" r="157.48" /> 
</g>
<g style="fill:#000000; fill-opacity:1.0; 
stroke:#000000; stroke-width:19.685; stroke-opacity:1; 
stroke-linecap:round; stroke-linejoin:round;">
</g>
<g style="fill:#000000; fill-opacity:1.0; 
stroke:#000000; stroke-width:0; stroke-opacity:1; 
stroke-linecap:round; stroke-linejoin:round;">
<circle cx="23380" cy="54400" r="157.48" /> 
</g>
<g style="fill:#000000; fill-opacity:1.0; 
stroke:#000000; stroke-width:19.685; stroke-opacity:1; 
stroke-linecap:round; stroke-linejoin:round;">
</g>
<g style="fill:#000000; fill-opacity:1.0; 
stroke:#000000; stroke-width:0; stroke-opacity:1; 
stroke-linecap:round; stroke-linejoin:round;">
<circle cx="22930" cy="51500" r="157.48" /> 
</g>
<g style="fill:#000000; fill-opacity:1.0; 
stroke:#000000; stroke-width:19.685; stroke-opacity:1; 
stroke-linecap:round; stroke-linejoin:round;">
</g>
<g >
</g>
<g style="fill:#000000; fill-opacity:1.0; 
stroke:#000000; stroke-width:19.685; stroke-opacity:1; 
stroke-linecap:round; stroke-linejoin:round;">
</g>
<g style="fill:#000000; fill-opacity:1.0; 
stroke:#000000; stroke-width:60; stroke-opacity:1; 
stroke-linecap:round; stroke-linejoin:round;">
</g>
<g style="fill:#000000; fill-opacity:0.0; 
stroke:#000000; stroke-width:60; stroke-opacity:1; 
stroke-linecap:round; stroke-linejoin:round;">
<path d="M24447 51767
L23680 51000
" />
<path d="M24447 52588
L24447 51767
" />
<path d="M23680 51000
L23680 50000
" />
<path d="M22930 54348
L22930 54000
" />
<path d="M23168 54911
L23168 54586
" />
<path d="M23168 54586
L22930 54348
" />
<path d="M25173 51243
L24905 50975
" />
<path d="M24905 50975
L24905 49900
" />
<path d="M25173 51751
L25173 51243
" />
<path d="M24447 54911
L24447 55672
" />
<path d="M24447 55672
L24430 55689
" />
<path d="M24447 54532
L24580 54400
" />
<path d="M24447 54911
L24447 54532
" />
<path d="M23680 56310
L22930 56310
" />
<path d="M23935 54911
L23935 55434
" />
<path d="M23935 55434
L23680 55689
" />
<path d="M23935 54911
L24191 54911
" />
<path d="M23424 54444
L23380 54400
" />
<path d="M23424 54911
L23424 54444
" />
<path d="M23680 54911
L23424 54911
" />
<path d="M22454 49900
L22454 51024
" />
<path d="M22772 51342
L22930 51500
" />
<path d="M22454 51024
L22772 51342
" />
</g>
<g >
</g>
<g style="fill:#000000; fill-opacity:0.0; 
stroke:#000000; stroke-width:60; stroke-opacity:1; 
stroke-linecap:round; stroke-linejoin:round;">
</g>
<g style="fill:#000000; fill-opacity:1.0; 
stroke:#000000; stroke-width:60; stroke-opacity:1; 
stroke-linecap:round; stroke-linejoin:round;">
<path style="fill:#000000; fill-opacity:1.0; 
stroke:#000000; stroke-width:60; stroke-opacity:1; 
stroke-linecap:round; stroke-linejoin:round;fill-rule:evenodd;"
d="M 21309,57870
26550,57870
26550,56915
26355,56915
26355,57584
26353,57602
26348,57619
26339,57634
26328,57648
26314,57659
26299,57668
26282,57673
26264,57675
25595,57675
25577,57673
25560,57668
25545,57659
25531,57648
25520,57634
25511,57619
25506,57602
25504,57584
25504,57250
25356,57250
25348,57333
25324,57413
25284,57487
25231,57551
25167,57604
25093,57644
25013,57668
24950,57674
24909,57674
24846,57668
24766,57644
24692,57604
24628,57551
24575,57487
24535,57413
24511,57333
24503,57250
24511,57166
24535,57086
24575,57012
24628,56948
24692,56895
24748,56865
23355,56865
23355,57534
23353,57552
23348,57569
23339,57584
23328,57598
23314,57609
23299,57618
23282,57623
23264,57625
22595,57625
22577,57623
22560,57618
22545,57609
22531,57598
22520,57584
22511,57569
22506,57552
22504,57534
22504,57200
22356,57200
22348,57283
22324,57363
22284,57437
22231,57501
22167,57554
22093,57594
22013,57618
21950,57624
21909,57624
21846,57618
21766,57594
21692,57554
21628,57501
21575,57437
21535,57363
21511,57283
21503,57200
21511,57116
21535,57036
21575,56962
21628,56898
21692,56845
21766,56805
21846,56781
21909,56775
21950,56775
22013,56781
22093,56805
22167,56845
22231,56898
22284,56962
22324,57036
22348,57116
22356,57200
22504,57200
22504,56865
22506,56847
22511,56830
22520,56815
22531,56801
22545,56790
22560,56781
22577,56776
22595,56774
23264,56774
23282,56776
23299,56781
23314,56790
23328,56801
23339,56815
23348,56830
23353,56847
23355,56865
24748,56865
24766,56855
24846,56831
24909,56825
24950,56825
25013,56831
25093,56855
25167,56895
25231,56948
25284,57012
25324,57086
25348,57166
25356,57250
25504,57250
25504,56915
25506,56897
25511,56880
25520,56865
25531,56851
25545,56840
25560,56831
25577,56826
25595,56824
26264,56824
26282,56826
26299,56831
26314,56840
26328,56851
26339,56865
26348,56880
26353,56897
26355,56915
26550,56915
26550,56337
24707,56337
24707,56491
24703,56508
24696,56524
24686,56539
24674,56552
24659,56562
24643,56568
24625,56572
24457,56572
24435,56549
24435,56315
24425,56315
24425,56549
24402,56572
24234,56572
24216,56568
24200,56562
24185,56552
24173,56539
24163,56524
24156,56508
24152,56491
24152,56337
24175,56315
24425,56315
24435,56315
24684,56315
24707,56337
26550,56337
26550,55711
25577,55711
25577,55790
25562,55869
25531,55942
25487,56009
25431,56065
25364,56109
25291,56140
25212,56156
25133,56156
25054,56140
25026,56128
24707,56128
24707,56282
24684,56305
24435,56305
24435,56070
24425,56070
24425,56305
24175,56305
24152,56282
24152,56223
23957,56223
23957,56396
23954,56430
23944,56463
23927,56494
23905,56521
23878,56542
23848,56559
23815,56569
23780,56572
23579,56572
23544,56569
23511,56559
23481,56542
23454,56521
23432,56494
23415,56463
23405,56430
23405,56430
23204,56430
23204,56430
23194,56463
23177,56494
23155,56521
23128,56542
23098,56559
23065,56569
23030,56572
22829,56572
22794,56569
22761,56559
22731,56542
22704,56521
22682,56494
22665,56463
22655,56430
22652,56396
22652,56223
22655,56189
22665,56156
22682,56125
22704,56099
22731,56077
22761,56060
22794,56050
22829,56047
23030,56047
23065,56050
23098,56060
23128,56077
23155,56099
23177,56125
23194,56156
23204,56189
23204,56190
23405,56190
23405,56189
23415,56156
23432,56125
23454,56099
23481,56077
23511,56060
23544,56050
23579,56047
23780,56047
23815,56050
23848,56060
23878,56077
23905,56099
23927,56125
23944,56156
23954,56189
23957,56223
24152,56223
24152,56128
24156,56111
24163,56095
24173,56080
24185,56067
24200,56058
24216,56051
24234,56047
24402,56047
24425,56070
24435,56070
24457,56047
24625,56047
24643,56051
24659,56058
24674,56067
24686,56080
24696,56095
24703,56111
24707,56128
25026,56128
24981,56109
24914,56065
24858,56009
24814,55942
24783,55869
24768,55790
24768,55711
24783,55632
24814,55559
24858,55492
24914,55436
24981,55392
25054,55361
25133,55346
25212,55346
25291,55361
25364,55392
25431,55436
25487,55492
25531,55559
25562,55632
25577,55711
26550,55711
26550,54711
25577,54711
25577,54790
25562,54869
25531,54942
25487,55009
25431,55065
25364,55109
25291,55140
25212,55156
25133,55156
25054,55140
24981,55109
24914,55065
24858,55009
24814,54942
24783,54869
24768,54790
24768,54711
24783,54632
24814,54559
24858,54492
24914,54436
24981,54392
25021,54375
24827,54375
24827,54424
24817,54472
24799,54517
24772,54557
24737,54592
24697,54619
24652,54637
24624,54643
24624,54643
24626,54670
24626,55152
24624,55178
24616,55204
24604,55227
24587,55247
24567,55263
24567,55431
24598,55440
24628,55457
24655,55478
24677,55505
24694,55536
24704,55569
24707,55603
24707,55776
24704,55810
24694,55843
24677,55874
24655,55900
24628,55922
24598,55939
24565,55949
24530,55952
24329,55952
24294,55949
24261,55939
24231,55922
24204,55900
24182,55874
24165,55843
24155,55810
24152,55776
24152,55603
24155,55569
24165,55536
24182,55505
24204,55478
24231,55457
24261,55440
24294,55430
24327,55427
24327,55263
24319,55257
24310,55264
24287,55277
24262,55284
24236,55287
24147,55287
24121,55284
24095,55277
24072,55264
24063,55257
24055,55263
24055,55428
24056,55434
24054,55457
24047,55480
24047,55480
24036,55501
24021,55519
24016,55523
23955,55584
23957,55603
23957,55776
23954,55810
23944,55843
23927,55874
23905,55900
23878,55922
23848,55939
23815,55949
23780,55952
23579,55952
23544,55949
23511,55939
23481,55922
23454,55900
23432,55874
23415,55843
23405,55810
23402,55776
23402,55717
23207,55717
23207,55871
23203,55888
23196,55904
23186,55919
23174,55932
23159,55941
23143,55948
23125,55952
22957,55952
22935,55929
22935,55694
22925,55694
22925,55929
22902,55952
22734,55952
22716,55948
22700,55941
22685,55932
22673,55919
22663,55904
22656,55888
22652,55871
22652,55717
22659,55711
22577,55711
22577,55790
22562,55869
22531,55942
22487,56009
22431,56065
22364,56109
22291,56140
22212,56156
22133,56156
22054,56140
21981,56109
21914,56065
21858,56009
21814,55942
21783,55869
21768,55790
21768,55711
21783,55632
21814,55559
21858,55492
21914,55436
21981,55392
22054,55361
22133,55346
22212,55346
22291,55361
22364,55392
22431,55436
22487,55492
22531,55559
22562,55632
22577,55711
22659,55711
22675,55694
22925,55694
22935,55694
23184,55694
23207,55717
23402,55717
23402,55603
23405,55569
23415,55536
23430,55508
23207,55508
23207,55662
23184,55684
22935,55684
22935,55450
22925,55450
22925,55684
22675,55684
22652,55662
22652,55508
22656,55491
22663,55475
22673,55460
22685,55447
22700,55437
22716,55431
22734,55427
22902,55427
22925,55450
22935,55450
22957,55427
23125,55427
23143,55431
23159,55437
23174,55447
23186,55460
23196,55475
23203,55491
23207,55508
23430,55508
23432,55505
23454,55478
23481,55457
23511,55440
23544,55430
23579,55427
23772,55427
23815,55384
23815,55263
23807,55257
23799,55264
23775,55277
23750,55284
23724,55287
23635,55287
23609,55284
23584,55277
23560,55264
23552,55257
23543,55264
23519,55277
23494,55284
23468,55287
23379,55287
23353,55284
23328,55277
23304,55264
23296,55257
23287,55264
23264,55277
23238,55284
23212,55287
23123,55287
23097,55284
23072,55277
23055,55268
23043,55276
23027,55283
23009,55286
22939,55286
22917,55264
22917,54916
22907,54916
22907,55264
22884,55286
22814,55286
22797,55283
22781,55276
22766,55266
22753,55254
22743,55239
22737,55223
22733,55205
22733,54938
22756,54916
22907,54916
22917,54916
22925,54916
22925,54906
22917,54906
22917,54558
22907,54558
22907,54906
22756,54906
22733,54883
22733,54711
22577,54711
22577,54790
22562,54869
22531,54942
22487,55009
22431,55065
22364,55109
22291,55140
22212,55156
22133,55156
22054,55140
21981,55109
21914,55065
21858,55009
21814,54942
21783,54869
21768,54790
21768,54711
21783,54632
21814,54559
21858,54492
21914,54436
21981,54392
22054,54361
22133,54346
22212,54346
22291,54361
22364,54392
22431,54436
22487,54492
22531,54559
22562,54632
22577,54711
22733,54711
22733,54617
22737,54599
22743,54583
22753,54568
22766,54556
22781,54546
22797,54539
22814,54535
22884,54535
22907,54558
22917,54558
22939,54535
22947,54535
22849,54437
22844,54433
22829,54415
22818,54394
22811,54371
22810,54354
22810,54354
22809,54348
22810,54342
22810,54217
22772,54192
22737,54157
22710,54117
22692,54072
22682,54024
22682,53975
22692,53927
22710,53882
22737,53842
22772,53807
22812,53780
22857,53762
22905,53752
22954,53752
23002,53762
23047,53780
23087,53807
23122,53842
23149,53882
23167,53927
23177,53975
23177,54024
23167,54072
23149,54117
23122,54157
23087,54192
23050,54217
23050,54298
23132,54381
23132,54375
23142,54327
23160,54282
23187,54242
23222,54207
23262,54180
23307,54162
23355,54152
23404,54152
23452,54162
23497,54180
23537,54207
23572,54242
23599,54282
23617,54327
23627,54375
23627,54424
23617,54472
23599,54517
23578,54549
23584,54545
23609,54538
23635,54535
23724,54535
23750,54538
23775,54545
23799,54558
23807,54565
23816,54558
23840,54545
23865,54538
23891,54535
23980,54535
24006,54538
24031,54545
24055,54558
24063,54565
24072,54558
24095,54545
24121,54538
24147,54535
24236,54535
24262,54538
24287,54545
24310,54558
24319,54565
24327,54558
24327,54538
24327,54532
24327,54526
24327,54526
24329,54508
24330,54505
24336,54486
24342,54474
24342,54472
24332,54424
24332,54375
24342,54327
24360,54282
24387,54242
24422,54207
24462,54180
24507,54162
24555,54152
24604,54152
24652,54162
24697,54180
24737,54207
24772,54242
24799,54282
24817,54327
24827,54375
25021,54375
25054,54361
25133,54346
25212,54346
25291,54361
25364,54392
25431,54436
25487,54492
25531,54559
25562,54632
25577,54711
26550,54711
26550,53711
25577,53711
25577,53790
25562,53869
25531,53942
25487,54009
25431,54065
25364,54109
25291,54140
25212,54156
25133,54156
25054,54140
24981,54109
24914,54065
24858,54009
24814,53942
24783,53869
24768,53790
24768,53711
22577,53711
22577,53790
22562,53869
22531,53942
22487,54009
22431,54065
22364,54109
22291,54140
22212,54156
22133,54156
22054,54140
21981,54109
21914,54065
21858,54009
21814,53942
21783,53869
21768,53790
21768,53711
21783,53632
21814,53559
21858,53492
21914,53436
21981,53392
22054,53361
22133,53346
22212,53346
22291,53361
22364,53392
22431,53436
22487,53492
22531,53559
22562,53632
22577,53711
24768,53711
24783,53632
24814,53559
24858,53492
24914,53436
24981,53392
25054,53361
25133,53346
25212,53346
25291,53361
25364,53392
25431,53436
25487,53492
25531,53559
25562,53632
25577,53711
26550,53711
26550,53026
25441,53026
25408,53083
25338,53122
25263,53147
25184,53157
25104,53152
25027,53131
24956,53095
24937,53083
24904,53026
25173,52758
25441,53026
26550,53026
26550,52740
25579,52740
25574,52819
25553,52896
25517,52967
25505,52986
25448,53019
25180,52751
25165,52751
24897,53019
24840,52986
24801,52916
24776,52841
24766,52762
24771,52682
24793,52605
24828,52534
24840,52515
24897,52482
25165,52751
25180,52751
25448,52482
25505,52515
25544,52585
25569,52660
25579,52740
26550,52740
26550,52475
25441,52475
25173,52744
24904,52475
24937,52418
25007,52379
25082,52354
25137,52347
24626,52347
24626,52829
24624,52856
24616,52881
24604,52904
24587,52924
24566,52941
24543,52954
24518,52961
24492,52964
24403,52964
24377,52961
24351,52954
24335,52945
24323,52953
24306,52960
24289,52964
24219,52964
24196,52941
24196,52593
24204,52593
24204,52583
24196,52583
24196,52235
24186,52235
24186,52583
24178,52583
24178,52593
24186,52593
24186,52941
24164,52964
24094,52964
24076,52960
24060,52953
24048,52945
24031,52954
24006,52961
23980,52964
23891,52964
23865,52961
23840,52954
23823,52945
23811,52953
23794,52960
23777,52964
23707,52964
23685,52941
23685,52593
23692,52593
23692,52583
23685,52583
23685,52235
23675,52235
23675,52583
23667,52583
23667,52593
23675,52593
23675,52941
23652,52964
23582,52964
23565,52960
23548,52953
23536,52945
23519,52954
23494,52961
23468,52964
23379,52964
23353,52961
23328,52954
23311,52945
23299,52953
23283,52960
23265,52964
23195,52964
23173,52941
23173,52593
23181,52593
23181,52583
23173,52583
23173,52235
23163,52235
23163,52583
23155,52583
23155,52593
23163,52593
23163,52941
23140,52964
23070,52964
23053,52960
23036,52953
23024,52945
23008,52954
22982,52961
22956,52964
22867,52964
22841,52961
22816,52954
22793,52941
22772,52924
22755,52904
22743,52881
22735,52856
22733,52829
22733,52711
22577,52711
22577,52790
22562,52869
22531,52942
22487,53009
22431,53065
22364,53109
22291,53140
22212,53156
22133,53156
22054,53140
21981,53109
21914,53065
21858,53009
21814,52942
21783,52869
21768,52790
21768,52711
21783,52632
21814,52559
21858,52492
21914,52436
21981,52392
22054,52361
22133,52346
22212,52346
22291,52361
22364,52392
22431,52436
22487,52492
22531,52559
22562,52632
22577,52711
22733,52711
22733,52347
22735,52321
22743,52295
22755,52272
22772,52252
22793,52235
22816,52222
22841,52215
22867,52212
22956,52212
22982,52215
23008,52222
23024,52231
23036,52223
23053,52216
23070,52213
23140,52213
23163,52235
23173,52235
23195,52213
23265,52213
23283,52216
23299,52223
23311,52231
23328,52222
23353,52215
23379,52212
23468,52212
23494,52215
23519,52222
23536,52231
23548,52223
23565,52216
23582,52213
23652,52213
23675,52235
23685,52235
23707,52213
23777,52213
23794,52216
23811,52223
23823,52231
23840,52222
23865,52215
23891,52212
23980,52212
24006,52215
24031,52222
24048,52231
24060,52223
24076,52216
24094,52213
24164,52213
24186,52235
24196,52235
24219,52213
24289,52213
24306,52216
24323,52223
24327,52226
24327,52026
22441,52026
22408,52083
22338,52122
22263,52147
22184,52157
22104,52152
22027,52131
21956,52095
21937,52083
21904,52026
22173,51758
22441,52026
24327,52026
24327,51817
23985,51475
23177,51475
23177,51524
23167,51572
23149,51617
23122,51657
23087,51692
23047,51719
23002,51737
22954,51747
22905,51747
22868,51740
22579,51740
22574,51819
22553,51896
22517,51967
22505,51986
22448,52019
22180,51751
22165,51751
21897,52019
21840,51986
21801,51916
21776,51841
21766,51762
21771,51682
21793,51605
21828,51534
21840,51515
21897,51482
22165,51751
22180,51751
22448,51482
22505,51515
22544,51585
22569,51660
22579,51740
22868,51740
22857,51737
22812,51719
22772,51692
22737,51657
22710,51617
22692,51572
22682,51524
22682,51475
22441,51475
22173,51744
21904,51475
21937,51418
22007,51379
22082,51354
22162,51344
22241,51350
22318,51371
22389,51406
22408,51418
22441,51475
22682,51475
22682,51475
22691,51431
22683,51423
22683,51423
22373,51113
22369,51109
22354,51091
22343,51070
22336,51048
22334,51030
22334,51030
22334,51024
22334,51018
22334,50492
22144,50492
22107,50488
22072,50478
22039,50460
22011,50437
21987,50408
21970,50375
21959,50340
21955,50303
21955,49496
21959,49459
21970,49424
21987,49391
22011,49362
22039,49339
22072,49321
22107,49311
22144,49307
22764,49307
22801,49311
22836,49321
22869,49339
22898,49362
22921,49391
22939,49424
22949,49459
22953,49496
22953,50303
22949,50340
22939,50375
22921,50408
22898,50437
22869,50460
22836,50478
22801,50488
22764,50492
22574,50492
22574,50974
22853,51253
22853,51253
22861,51261
22905,51252
22954,51252
23002,51262
23047,51280
23087,51307
23122,51342
23149,51382
23167,51427
23177,51475
23985,51475
23599,51089
23594,51085
23579,51066
23568,51046
23561,51023
23560,51005
23560,51005
23559,51000
23560,50994
23560,50217
23522,50192
23487,50157
23460,50117
23442,50072
23432,50024
23432,49975
23442,49927
23460,49882
23487,49842
23522,49807
23562,49780
23607,49762
23655,49752
23704,49752
23752,49762
23797,49780
23837,49807
23872,49842
23899,49882
23917,49927
23927,49975
23927,50024
23917,50072
23899,50117
23872,50157
23837,50192
23799,50217
23800,50950
24528,51678
24532,51682
24547,51700
24553,51711
24559,51721
24565,51744
24568,51767
24567,51773
24567,52236
24587,52252
24604,52272
24616,52295
24624,52321
24626,52347
25137,52347
25162,52344
25241,52350
25318,52371
25389,52406
25408,52418
25441,52475
26550,52475
26550,51711
25577,51711
25577,51790
25562,51869
25531,51942
25487,52009
25431,52065
25364,52109
25291,52140
25212,52156
25133,52156
25054,52140
24981,52109
24914,52065
24858,52009
24814,51942
24783,51869
24768,51790
24768,51711
24783,51632
24814,51559
24858,51492
24914,51436
24981,51392
25053,51362
25053,51292
24824,51064
24820,51060
24805,51042
24793,51021
24789,51005
24787,50998
24786,50996
24785,50981
24785,50981
24784,50975
24785,50969
24785,50492
24595,50492
24558,50488
24523,50478
24490,50460
24461,50437
24438,50408
24420,50375
24410,50340
24406,50303
24406,49496
24410,49459
24420,49424
24438,49391
24461,49362
24490,49339
24523,49321
24558,49311
24595,49307
25215,49307
25252,49311
25287,49321
25320,49339
25348,49362
25372,49391
25389,49424
25400,49459
25404,49496
25404,50303
25400,50340
25389,50375
25372,50408
25348,50437
25320,50460
25287,50478
25252,50488
25215,50492
25025,50492
25025,50925
25253,51154
25258,51157
25273,51176
25279,51187
25284,51196
25291,51219
25293,51243
25293,51248
25293,51362
25364,51392
25431,51436
25487,51492
25531,51559
25562,51632
25577,51711
26550,51711
26550,49129
21309,49129
21309,57870
Z" /> 
</g>
</g>
<g style="fill:#FFFFFF; fill-opacity:1.0; 
stroke:#FFFFFF; stroke-width:60; stroke-opacity:1; 
stroke-linecap:round; stroke-linejoin:round;">
</g>
<g style="fill:#FFFFFF; fill-opacity:1.0; 
stroke:#FFFFFF; stroke-width:0; stroke-opacity:1; 
stroke-linecap:round; stroke-linejoin:round;">
<circle cx="23680" cy="50000" r="78.7402" /> 
</g>
<g style="fill:#FFFFFF; fill-opacity:1.0; 
stroke:#FFFFFF; stroke-width:19.685; stroke-opacity:1; 
stroke-linecap:round; stroke-linejoin:round;">
</g>
<g style="fill:#FFFFFF; fill-opacity:1.0; 
stroke:#FFFFFF; stroke-width:0; stroke-opacity:1; 
stroke-linecap:round; stroke-linejoin:round;">
<circle cx="22930" cy="54000" r="78.7402" /> 
</g>
<g style="fill:#FFFFFF; fill-opacity:1.0; 
stroke:#FFFFFF; stroke-width:19.685; stroke-opacity:1; 
stroke-linecap:round; stroke-linejoin:round;">
</g>
<g style="fill:#FFFFFF; fill-opacity:1.0; 
stroke:#FFFFFF; stroke-width:0; stroke-opacity:1; 
stroke-linecap:round; stroke-linejoin:round;">
<circle cx="24580" cy="54400" r="78.7402" /> 
</g>
<g style="fill:#FFFFFF; fill-opacity:1.0; 
stroke:#FFFFFF; stroke-width:19.685; stroke-opacity:1; 
stroke-linecap:round; stroke-linejoin:round;">
</g>
<g style="fill:#FFFFFF; fill-opacity:1.0; 
stroke:#FFFFFF; stroke-width:0; stroke-opacity:1; 
stroke-linecap:round; stroke-linejoin:round;">
<circle cx="23380" cy="54400" r="78.7402" /> 
</g>
<g style="fill:#FFFFFF; fill-opacity:1.0; 
stroke:#FFFFFF; stroke-width:19.685; stroke-opacity:1; 
stroke-linecap:round; stroke-linejoin:round;">
</g>
<g style="fill:#FFFFFF; fill-opacity:1.0; 
stroke:#FFFFFF; stroke-width:0; stroke-opacity:1; 
stroke-linecap:round; stroke-linejoin:round;">
<circle cx="22930" cy="51500" r="78.7402" /> 
</g>
<g style="fill:#FFFFFF; fill-opacity:1.0; 
stroke:#FFFFFF; stroke-width:19.685; stroke-opacity:1; 
stroke-linecap:round; stroke-linejoin:round;">
</g>
<g style="fill:#FFFFFF; fill-opacity:1.0; 
stroke:#FFFFFF; stroke-width:0; stroke-opacity:1; 
stroke-linecap:round; stroke-linejoin:round;">
<circle cx="24930" cy="57250" r="196.85" /> 
</g>
<g style="fill:#FFFFFF; fill-opacity:1.0; 
stroke:#FFFFFF; stroke-width:19.685; stroke-opacity:1; 
stroke-linecap:round; stroke-linejoin:round;">
</g>
<g style="fill:#FFFFFF; fill-opacity:1.0; 
stroke:#FFFFFF; stroke-width:0; stroke-opacity:1; 
stroke-linecap:round; stroke-linejoin:round;">
<circle cx="25930" cy="57250" r="196.85" /> 
</g>
<g style="fill:#FFFFFF; fill-opacity:1.0; 
stroke:#FFFFFF; stroke-width:19.685; stroke-opacity:1; 
stroke-linecap:round; stroke-linejoin:round;">
</g>
<g style="fill:#FFFFFF; fill-opacity:1.0; 
stroke:#FFFFFF; stroke-width:0; stroke-opacity:1; 
stroke-linecap:round; stroke-linejoin:round;">
<circle cx="21930" cy="57200" r="196.85" /> 
</g>
<g style="fill:#FFFFFF; fill-opacity:1.0; 
stroke:#FFFFFF; stroke-width:19.685; stroke-opacity:1; 
stroke-linecap:round; stroke-linejoin:round;">
</g>
<g style="fill:#FFFFFF; fill-opacity:1.0; 
stroke:#FFFFFF; stroke-width:0; stroke-opacity:1; 
stroke-linecap:round; stroke-linejoin:round;">
<circle cx="22930" cy="57200" r="196.85" /> 
</g>
<g style="fill:#FFFFFF; fill-opacity:1.0; 
stroke:#FFFFFF; stroke-width:19.685; stroke-opacity:1; 
stroke-linecap:round; stroke-linejoin:round;">
</g>
<g style="fill:#FFFFFF; fill-opacity:1.0; 
stroke:#FFFFFF; stroke-width:0; stroke-opacity:1; 
stroke-linecap:round; stroke-linejoin:round;">
<circle cx="22173" cy="51751.1" r="157.48" /> 
</g>
<g style="fill:#FFFFFF; fill-opacity:1.0; 
stroke:#FFFFFF; stroke-width:19.685; stroke-opacity:1; 
stroke-linecap:round; stroke-linejoin:round;">
</g>
<g style="fill:#FFFFFF; fill-opacity:1.0; 
stroke:#FFFFFF; stroke-width:0; stroke-opacity:1; 
stroke-linecap:round; stroke-linejoin:round;">
<circle cx="22173" cy="52751.1" r="157.48" /> 
</g>
<g style="fill:#FFFFFF; fill-opacity:1.0; 
stroke:#FFFFFF; stroke-width:19.685; stroke-opacity:1; 
stroke-linecap:round; stroke-linejoin:round;">
</g>
<g style="fill:#FFFFFF; fill-opacity:1.0; 
stroke:#FFFFFF; stroke-width:0; stroke-opacity:1; 
stroke-linecap:round; stroke-linejoin:round;">
<circle cx="22173" cy="53751.1" r="157.48" /> 
</g>
<g style="fill:#FFFFFF; fill-opacity:1.0; 
stroke:#FFFFFF; stroke-width:19.685; stroke-opacity:1; 
stroke-linecap:round; stroke-linejoin:round;">
</g>
<g style="fill:#FFFFFF; fill-opacity:1.0; 
stroke:#FFFFFF; stroke-width:0; stroke-opacity:1; 
stroke-linecap:round; stroke-linejoin:round;">
<circle cx="22173" cy="54751.1" r="157.48" /> 
</g>
<g style="fill:#FFFFFF; fill-opacity:1.0; 
stroke:#FFFFFF; stroke-width:19.685; stroke-opacity:1; 
stroke-linecap:round; stroke-linejoin:round;">
</g>
<g style="fill:#FFFFFF; fill-opacity:1.0; 
stroke:#FFFFFF; stroke-width:0; stroke-opacity:1; 
stroke-linecap:round; stroke-linejoin:round;">
<circle cx="22173" cy="55751.1" r="157.48" /> 
</g>
<g style="fill:#FFFFFF; fill-opacity:1.0; 
stroke:#FFFFFF; stroke-width:19.685; stroke-opacity:1; 
stroke-linecap:round; stroke-linejoin:round;">
</g>
<g style="fill:#FFFFFF; fill-opacity:1.0; 
stroke:#FFFFFF; stroke-width:0; stroke-opacity:1; 
stroke-linecap:round; stroke-linejoin:round;">
<circle cx="25173" cy="55751.1" r="157.48" /> 
</g>
<g style="fill:#FFFFFF; fill-opacity:1.0; 
stroke:#FFFFFF; stroke-width:19.685; stroke-opacity:1; 
stroke-linecap:round; stroke-linejoin:round;">
</g>
<g style="fill:#FFFFFF; fill-opacity:1.0; 
stroke:#FFFFFF; stroke-width:0; stroke-opacity:1; 
stroke-linecap:round; stroke-linejoin:round;">
<circle cx="25173" cy="54751.1" r="157.48" /> 
</g>
<g style="fill:#FFFFFF; fill-opacity:1.0; 
stroke:#FFFFFF; stroke-width:19.685; stroke-opacity:1; 
stroke-linecap:round; stroke-linejoin:round;">
</g>
<g style="fill:#FFFFFF; fill-opacity:1.0; 
stroke:#FFFFFF; stroke-width:0; stroke-opacity:1; 
stroke-linecap:round; stroke-linejoin:round;">
<circle cx="25173" cy="53751.1" r="157.48" /> 
</g>
<g style="fill:#FFFFFF; fill-opacity:1.0; 
stroke:#FFFFFF; stroke-width:19.685; stroke-opacity:1; 
stroke-linecap:round; stroke-linejoin:round;">
</g>
<g style="fill:#FFFFFF; fill-opacity:1.0; 
stroke:#FFFFFF; stroke-width:0; stroke-opacity:1; 
stroke-linecap:round; stroke-linejoin:round;">
<circle cx="25173" cy="52751.1" r="157.48" /> 
</g>
<g style="fill:#FFFFFF; fill-opacity:1.0; 
stroke:#FFFFFF; stroke-width:19.685; stroke-opacity:1; 
stroke-linecap:round; stroke-linejoin:round;">
</g>
<g style="fill:#FFFFFF; fill-opacity:1.0; 
stroke:#FFFFFF; stroke-width:0; stroke-opacity:1; 
stroke-linecap:round; stroke-linejoin:round;">
<circle cx="25173" cy="51751.1" r="157.48" /> 
</g>
<g style="fill:#FFFFFF; fill-opacity:1.0; 
stroke:#FFFFFF; stroke-width:19.685; stroke-opacity:1; 
stroke-linecap:round; stroke-linejoin:round;">
</g>
<g style="fill:#000000; fill-opacity:1.0; 
stroke:#000000; stroke-width:19.685; stroke-opacity:1; 
stroke-linecap:round; stroke-linejoin:round;">
</g>
<g style="fill:#000000; fill-opacity:1.0; 
stroke:#000000; stroke-width:78.7402; stroke-opacity:1; 
stroke-linecap:round; stroke-linejoin:round;">
</g>
<g style="fill:#000000; fill-opacity:0.0; 
stroke:#000000; stroke-width:78.7402; stroke-opacity:1; 
stroke-linecap:round; stroke-linejoin:round;">
<path d="M21180 49000
L26680 49000
" />
<path d="M21180 58000
L21180 49000
" />
<path d="M26680 58000
L21180 58000
" />
<path d="M26680 49000
L26680 58000
" />
<g >
</g>
<g >
</g>
<g >
</g>
<g >
</g>
<g >
</g>
<g >
</g>
<g >
</g>
<g >
</g>
<g >
</g>
<g >
</g>
<g >
</g>
<g >
</g>
<g >
</g>
<g >
</g>
<g >
</g>
<g >
</g>
<g >
</g>
<g >
</g>
</g> 
</svg>
