<?xml version="1.0" standalone="no"?>
 <!DOCTYPE svg PUBLIC "-//W3C//DTD SVG 1.1//EN" 
 "http://www.w3.org/Graphics/SVG/1.1/DTD/svg11.dtd"> 
<svg xmlns="http://www.w3.org/2000/svg" version="1.1" 
    width="21.0007cm" height="29.7002cm" viewBox="0 0 82680 116930 ">
<title>SVG Picture created as Switching_Scheme_Prototype_40106_SMD-B_Cu.svg date 2019/07/13 17:37:54 </title>
  <desc>Picture generated by PCBNEW </desc>
<g style="fill:#000000; fill-opacity:1;stroke:#000000; stroke-opacity:1;
stroke-linecap:round; stroke-linejoin:round; "
 transform="translate(0 0) scale(1 1)">
</g>
<g style="fill:#000000; fill-opacity:0.0; 
stroke:#000000; stroke-width:-0.000393701; stroke-opacity:1; 
stroke-linecap:round; stroke-linejoin:round;">
</g>
<g style="fill:#000000; fill-opacity:0.0; 
stroke:#000000; stroke-width:78.7402; stroke-opacity:1; 
stroke-linecap:round; stroke-linejoin:round;">
<path d="M21180 49000
L26680 49000
" />
<path d="M21180 58000
L21180 49000
" />
<path d="M26680 58000
L21180 58000
" />
<path d="M26680 49000
L26680 58000
" />
<g >
</g>
<g style="fill:#000000; fill-opacity:0.0; 
stroke:#000000; stroke-width:0; stroke-opacity:1; 
stroke-linecap:round; stroke-linejoin:round;">
</g>
<g style="fill:#000000; fill-opacity:1.0; 
stroke:#000000; stroke-width:0; stroke-opacity:1; 
stroke-linecap:round; stroke-linejoin:round;">
<path style="fill:#000000; fill-opacity:1.0; 
stroke:#000000; stroke-width:0; stroke-opacity:1; 
stroke-linecap:round; stroke-linejoin:round;fill-rule:evenodd;"
d="M 23528,56568
23496,56589
23474,56621
23467,56659
23467,57279
23474,57317
23496,57349
23528,57370
23565,57377
24294,57377
24331,57370
24363,57349
24385,57317
24392,57279
24392,56659
24385,56621
24363,56589
24331,56568
24294,56561
23565,56561
23528,56568
Z" /> 
<path style="fill:#000000; fill-opacity:1.0; 
stroke:#000000; stroke-width:0; stroke-opacity:1; 
stroke-linecap:round; stroke-linejoin:round;fill-rule:evenodd;"
d="M 23528,54629
23496,54650
23474,54682
23467,54720
23467,55340
23474,55378
23496,55410
23528,55431
23565,55438
24294,55438
24331,55431
24363,55410
24385,55378
24392,55340
24392,54720
24385,54682
24363,54650
24331,54629
24294,54622
23565,54622
23528,54629
Z" /> 
</g>
<g >
</g>
<g style="fill:#000000; fill-opacity:1.0; 
stroke:#000000; stroke-width:0; stroke-opacity:1; 
stroke-linecap:round; stroke-linejoin:round;">
<path style="fill:#000000; fill-opacity:1.0; 
stroke:#000000; stroke-width:0; stroke-opacity:1; 
stroke-linecap:round; stroke-linejoin:round;fill-rule:evenodd;"
d="M 24557,49505
24525,49526
24504,49558
24496,49596
24496,50403
24504,50441
24525,50473
24557,50494
24595,50501
25215,50501
25253,50494
25285,50473
25306,50441
25313,50403
25313,49596
25306,49558
25285,49526
25253,49505
25215,49498
24595,49498
24557,49505
Z" /> 
<path style="fill:#000000; fill-opacity:1.0; 
stroke:#000000; stroke-width:0; stroke-opacity:1; 
stroke-linecap:round; stroke-linejoin:round;fill-rule:evenodd;"
d="M 22106,49505
22074,49526
22053,49558
22046,49596
22046,50403
22053,50441
22074,50473
22106,50494
22144,50501
22764,50501
22802,50494
22834,50473
22855,50441
22863,50403
22863,49596
22855,49558
22834,49526
22802,49505
22764,49498
22144,49498
22106,49505
Z" /> 
</g>
<g >
</g>
<g >
</g>
<g >
</g>
<g style="fill:#000000; fill-opacity:1.0; 
stroke:#000000; stroke-width:0; stroke-opacity:1; 
stroke-linecap:round; stroke-linejoin:round;">
<path style="fill:#000000; fill-opacity:1.0; 
stroke:#000000; stroke-width:0; stroke-opacity:1; 
stroke-linecap:round; stroke-linejoin:round;fill-rule:evenodd;"
d="M 23500,53819
23472,53838
23454,53866
23447,53899
23447,54100
23454,54133
23472,54161
23500,54180
23533,54187
23706,54187
23739,54180
23766,54161
23785,54133
23792,54100
23792,53899
23785,53866
23766,53838
23739,53819
23706,53812
23533,53812
23500,53819
Z" /> 
<path style="fill:#000000; fill-opacity:1.0; 
stroke:#000000; stroke-width:0; stroke-opacity:1; 
stroke-linecap:round; stroke-linejoin:round;fill-rule:evenodd;"
d="M 24120,53819
24093,53838
24074,53866
24067,53899
24067,54100
24074,54133
24093,54161
24120,54180
24153,54187
24326,54187
24359,54180
24387,54161
24405,54133
24412,54100
24412,53899
24405,53866
24387,53838
24359,53819
24326,53812
24153,53812
24120,53819
Z" /> 
</g>
<g >
</g>
<g >
</g>
<g style="fill:#000000; fill-opacity:1.0; 
stroke:#000000; stroke-width:0; stroke-opacity:1; 
stroke-linecap:round; stroke-linejoin:round;">
<path style="fill:#000000; fill-opacity:1.0; 
stroke:#000000; stroke-width:0; stroke-opacity:1; 
stroke-linecap:round; stroke-linejoin:round;fill-rule:evenodd;"
d="M 22796,56144
22768,56163
22749,56190
22742,56223
22742,56396
22749,56429
22768,56457
22796,56475
22829,56482
23030,56482
23063,56475
23091,56457
23110,56429
23117,56396
23117,56223
23110,56190
23091,56163
23063,56144
23030,56137
22829,56137
22796,56144
Z" /> 
<path style="fill:#000000; fill-opacity:1.0; 
stroke:#000000; stroke-width:0; stroke-opacity:1; 
stroke-linecap:round; stroke-linejoin:round;fill-rule:evenodd;"
d="M 22796,55524
22768,55542
22749,55570
22742,55603
22742,55776
22749,55809
22768,55836
22796,55855
22829,55862
23030,55862
23063,55855
23091,55836
23110,55809
23117,55776
23117,55603
23110,55570
23091,55542
23063,55524
23030,55517
22829,55517
22796,55524
Z" /> 
</g>
<g >
</g>
<g style="fill:#000000; fill-opacity:1.0; 
stroke:#000000; stroke-width:0; stroke-opacity:1; 
stroke-linecap:round; stroke-linejoin:round;">
<path style="fill:#000000; fill-opacity:1.0; 
stroke:#000000; stroke-width:0; stroke-opacity:1; 
stroke-linecap:round; stroke-linejoin:round;fill-rule:evenodd;"
d="M 24296,51274
24268,51292
24249,51320
24242,51353
24242,51526
24249,51559
24268,51586
24296,51605
24329,51612
24530,51612
24563,51605
24591,51586
24610,51559
24617,51526
24617,51353
24610,51320
24591,51292
24563,51274
24530,51267
24329,51267
24296,51274
Z" /> 
<path style="fill:#000000; fill-opacity:1.0; 
stroke:#000000; stroke-width:0; stroke-opacity:1; 
stroke-linecap:round; stroke-linejoin:round;fill-rule:evenodd;"
d="M 24296,51894
24268,51913
24249,51940
24242,51973
24242,52146
24249,52179
24268,52207
24296,52225
24329,52232
24530,52232
24563,52225
24591,52207
24610,52179
24617,52146
24617,51973
24610,51940
24591,51913
24563,51894
24530,51887
24329,51887
24296,51894
Z" /> 
</g>
<g >
</g>
<g style="fill:#000000; fill-opacity:1.0; 
stroke:#000000; stroke-width:0; stroke-opacity:1; 
stroke-linecap:round; stroke-linejoin:round;">
<path style="fill:#000000; fill-opacity:1.0; 
stroke:#000000; stroke-width:0; stroke-opacity:1; 
stroke-linecap:round; stroke-linejoin:round;fill-rule:evenodd;"
d="M 23546,51894
23518,51913
23499,51940
23492,51973
23492,52146
23499,52179
23518,52207
23546,52225
23579,52232
23780,52232
23813,52225
23841,52207
23860,52179
23867,52146
23867,51973
23860,51940
23841,51913
23813,51894
23780,51887
23579,51887
23546,51894
Z" /> 
<path style="fill:#000000; fill-opacity:1.0; 
stroke:#000000; stroke-width:0; stroke-opacity:1; 
stroke-linecap:round; stroke-linejoin:round;fill-rule:evenodd;"
d="M 23546,51274
23518,51292
23499,51320
23492,51353
23492,51526
23499,51559
23518,51586
23546,51605
23579,51612
23780,51612
23813,51605
23841,51586
23860,51559
23867,51526
23867,51353
23860,51320
23841,51292
23813,51274
23780,51267
23579,51267
23546,51274
Z" /> 
</g>
<g >
</g>
<g >
</g>
<g >
</g>
<g >
</g>
<g style="fill:#000000; fill-opacity:1.0; 
stroke:#000000; stroke-width:0; stroke-opacity:1; 
stroke-linecap:round; stroke-linejoin:round;">
</g>
<g style="fill:#000000; fill-opacity:1.0; 
stroke:#000000; stroke-width:669.291; stroke-opacity:1; 
stroke-linecap:round; stroke-linejoin:round;">
</g>
<g style="fill:#000000; fill-opacity:0.0; 
stroke:#000000; stroke-width:669.291; stroke-opacity:1; 
stroke-linecap:round; stroke-linejoin:round;">
<path d="M24930 57250
L24930 57250
" />
</g>
<g style="fill:#000000; fill-opacity:0.0; 
stroke:#000000; stroke-width:0; stroke-opacity:1; 
stroke-linecap:round; stroke-linejoin:round;">
</g>
<g style="fill:#000000; fill-opacity:1.0; 
stroke:#000000; stroke-width:0; stroke-opacity:1; 
stroke-linecap:round; stroke-linejoin:round;">
<path style="fill:#000000; fill-opacity:1.0; 
stroke:#000000; stroke-width:0; stroke-opacity:1; 
stroke-linecap:round; stroke-linejoin:round;fill-rule:evenodd;"
d="M 25595,57584
26264,57584
26264,56915
25595,56915
25595,57584
Z" /> 
</g>
<g >
</g>
<g style="fill:#000000; fill-opacity:1.0; 
stroke:#000000; stroke-width:0; stroke-opacity:1; 
stroke-linecap:round; stroke-linejoin:round;">
</g>
<g style="fill:#000000; fill-opacity:1.0; 
stroke:#000000; stroke-width:669.291; stroke-opacity:1; 
stroke-linecap:round; stroke-linejoin:round;">
</g>
<g style="fill:#000000; fill-opacity:0.0; 
stroke:#000000; stroke-width:669.291; stroke-opacity:1; 
stroke-linecap:round; stroke-linejoin:round;">
<path d="M21930 57200
L21930 57200
" />
</g>
<g style="fill:#000000; fill-opacity:0.0; 
stroke:#000000; stroke-width:0; stroke-opacity:1; 
stroke-linecap:round; stroke-linejoin:round;">
</g>
<g style="fill:#000000; fill-opacity:1.0; 
stroke:#000000; stroke-width:0; stroke-opacity:1; 
stroke-linecap:round; stroke-linejoin:round;">
<path style="fill:#000000; fill-opacity:1.0; 
stroke:#000000; stroke-width:0; stroke-opacity:1; 
stroke-linecap:round; stroke-linejoin:round;fill-rule:evenodd;"
d="M 22595,57534
23264,57534
23264,56865
22595,56865
22595,57534
Z" /> 
</g>
<g >
</g>
<g style="fill:#000000; fill-opacity:1.0; 
stroke:#000000; stroke-width:0; stroke-opacity:1; 
stroke-linecap:round; stroke-linejoin:round;">
<path style="fill:#000000; fill-opacity:1.0; 
stroke:#000000; stroke-width:0; stroke-opacity:1; 
stroke-linecap:round; stroke-linejoin:round;fill-rule:evenodd;"
d="M 22777,52424
22753,52440
22737,52464
22732,52493
22732,52640
22737,52668
22753,52692
22777,52708
22806,52714
22953,52714
22982,52708
23006,52692
23022,52668
23027,52640
23027,52493
23022,52464
23006,52440
22982,52424
22953,52419
22806,52419
22777,52424
Z" /> 
<path style="fill:#000000; fill-opacity:1.0; 
stroke:#000000; stroke-width:0; stroke-opacity:1; 
stroke-linecap:round; stroke-linejoin:round;fill-rule:evenodd;"
d="M 22777,53291
22753,53307
22737,53331
22732,53359
22732,53506
22737,53535
22753,53559
22777,53575
22806,53580
22953,53580
22982,53575
23006,53559
23022,53535
23027,53506
23027,53359
23022,53331
23006,53307
22982,53291
22953,53285
22806,53285
22777,53291
Z" /> 
</g>
<g >
</g>
<g style="fill:#000000; fill-opacity:1.0; 
stroke:#000000; stroke-width:0; stroke-opacity:1; 
stroke-linecap:round; stroke-linejoin:round;">
<circle cx="22173" cy="51751.1" r="314.961" /> 
</g>
<g style="fill:#000000; fill-opacity:1.0; 
stroke:#000000; stroke-width:19.685; stroke-opacity:1; 
stroke-linecap:round; stroke-linejoin:round;">
</g>
<g style="fill:#000000; fill-opacity:1.0; 
stroke:#000000; stroke-width:0; stroke-opacity:1; 
stroke-linecap:round; stroke-linejoin:round;">
<circle cx="22173" cy="52751.1" r="314.961" /> 
</g>
<g style="fill:#000000; fill-opacity:1.0; 
stroke:#000000; stroke-width:19.685; stroke-opacity:1; 
stroke-linecap:round; stroke-linejoin:round;">
</g>
<g style="fill:#000000; fill-opacity:1.0; 
stroke:#000000; stroke-width:0; stroke-opacity:1; 
stroke-linecap:round; stroke-linejoin:round;">
<circle cx="22173" cy="53751.1" r="314.961" /> 
</g>
<g style="fill:#000000; fill-opacity:1.0; 
stroke:#000000; stroke-width:19.685; stroke-opacity:1; 
stroke-linecap:round; stroke-linejoin:round;">
</g>
<g style="fill:#000000; fill-opacity:1.0; 
stroke:#000000; stroke-width:0; stroke-opacity:1; 
stroke-linecap:round; stroke-linejoin:round;">
<circle cx="22173" cy="54751.1" r="314.961" /> 
</g>
<g style="fill:#000000; fill-opacity:1.0; 
stroke:#000000; stroke-width:19.685; stroke-opacity:1; 
stroke-linecap:round; stroke-linejoin:round;">
</g>
<g style="fill:#000000; fill-opacity:1.0; 
stroke:#000000; stroke-width:0; stroke-opacity:1; 
stroke-linecap:round; stroke-linejoin:round;">
<circle cx="22173" cy="55751.1" r="314.961" /> 
</g>
<g style="fill:#000000; fill-opacity:1.0; 
stroke:#000000; stroke-width:19.685; stroke-opacity:1; 
stroke-linecap:round; stroke-linejoin:round;">
</g>
<g style="fill:#000000; fill-opacity:1.0; 
stroke:#000000; stroke-width:0; stroke-opacity:1; 
stroke-linecap:round; stroke-linejoin:round;">
<circle cx="25173" cy="55751.1" r="314.961" /> 
</g>
<g style="fill:#000000; fill-opacity:1.0; 
stroke:#000000; stroke-width:19.685; stroke-opacity:1; 
stroke-linecap:round; stroke-linejoin:round;">
</g>
<g style="fill:#000000; fill-opacity:1.0; 
stroke:#000000; stroke-width:0; stroke-opacity:1; 
stroke-linecap:round; stroke-linejoin:round;">
<circle cx="25173" cy="54751.1" r="314.961" /> 
</g>
<g style="fill:#000000; fill-opacity:1.0; 
stroke:#000000; stroke-width:19.685; stroke-opacity:1; 
stroke-linecap:round; stroke-linejoin:round;">
</g>
<g style="fill:#000000; fill-opacity:1.0; 
stroke:#000000; stroke-width:0; stroke-opacity:1; 
stroke-linecap:round; stroke-linejoin:round;">
<circle cx="25173" cy="53751.1" r="314.961" /> 
</g>
<g style="fill:#000000; fill-opacity:1.0; 
stroke:#000000; stroke-width:19.685; stroke-opacity:1; 
stroke-linecap:round; stroke-linejoin:round;">
</g>
<g style="fill:#000000; fill-opacity:1.0; 
stroke:#000000; stroke-width:0; stroke-opacity:1; 
stroke-linecap:round; stroke-linejoin:round;">
<circle cx="25173" cy="52751.1" r="314.961" /> 
</g>
<g style="fill:#000000; fill-opacity:1.0; 
stroke:#000000; stroke-width:19.685; stroke-opacity:1; 
stroke-linecap:round; stroke-linejoin:round;">
</g>
<g style="fill:#000000; fill-opacity:1.0; 
stroke:#000000; stroke-width:0; stroke-opacity:1; 
stroke-linecap:round; stroke-linejoin:round;">
<circle cx="25173" cy="51751.1" r="314.961" /> 
</g>
<g style="fill:#000000; fill-opacity:1.0; 
stroke:#000000; stroke-width:19.685; stroke-opacity:1; 
stroke-linecap:round; stroke-linejoin:round;">
</g>
<g >
</g>
<g style="fill:#000000; fill-opacity:1.0; 
stroke:#000000; stroke-width:19.685; stroke-opacity:1; 
stroke-linecap:round; stroke-linejoin:round;">
</g>
<g style="fill:#000000; fill-opacity:1.0; 
stroke:#000000; stroke-width:0; stroke-opacity:1; 
stroke-linecap:round; stroke-linejoin:round;">
<path style="fill:#000000; fill-opacity:1.0; 
stroke:#000000; stroke-width:0; stroke-opacity:1; 
stroke-linecap:round; stroke-linejoin:round;fill-rule:evenodd;"
d="M 23452,53180
23439,53188
23431,53201
23428,53216
23428,53295
23431,53310
23439,53323
23452,53331
23467,53334
23644,53334
23659,53331
23672,53323
23680,53310
23683,53295
23683,53216
23680,53201
23672,53188
23659,53180
23644,53177
23467,53177
23452,53180
Z" /> 
<path style="fill:#000000; fill-opacity:1.0; 
stroke:#000000; stroke-width:0; stroke-opacity:1; 
stroke-linecap:round; stroke-linejoin:round;fill-rule:evenodd;"
d="M 23452,52668
23439,52676
23431,52689
23428,52704
23428,52783
23431,52798
23439,52811
23452,52819
23467,52822
23644,52822
23659,52819
23672,52811
23680,52798
23683,52783
23683,52704
23680,52689
23672,52676
23659,52668
23644,52665
23467,52665
23452,52668
Z" /> 
<path style="fill:#000000; fill-opacity:1.0; 
stroke:#000000; stroke-width:0; stroke-opacity:1; 
stroke-linecap:round; stroke-linejoin:round;fill-rule:evenodd;"
d="M 24200,52924
24187,52932
24179,52945
24176,52960
24176,53039
24179,53054
24187,53067
24200,53075
24215,53078
24392,53078
24407,53075
24420,53067
24428,53054
24431,53039
24431,52960
24428,52945
24420,52932
24407,52924
24392,52921
24215,52921
24200,52924
Z" /> 
<path style="fill:#000000; fill-opacity:1.0; 
stroke:#000000; stroke-width:0; stroke-opacity:1; 
stroke-linecap:round; stroke-linejoin:round;fill-rule:evenodd;"
d="M 23452,52924
23439,52932
23431,52945
23428,52960
23428,53039
23431,53054
23439,53067
23452,53075
23467,53078
23644,53078
23659,53075
23672,53067
23680,53054
23683,53039
23683,52960
23680,52945
23672,52932
23659,52924
23644,52921
23467,52921
23452,52924
Z" /> 
<path style="fill:#000000; fill-opacity:1.0; 
stroke:#000000; stroke-width:0; stroke-opacity:1; 
stroke-linecap:round; stroke-linejoin:round;fill-rule:evenodd;"
d="M 24200,52668
24187,52676
24179,52689
24176,52704
24176,52783
24179,52798
24187,52811
24200,52819
24215,52822
24392,52822
24407,52819
24420,52811
24428,52798
24431,52783
24431,52704
24428,52689
24420,52676
24407,52668
24392,52665
24215,52665
24200,52668
Z" /> 
<path style="fill:#000000; fill-opacity:1.0; 
stroke:#000000; stroke-width:0; stroke-opacity:1; 
stroke-linecap:round; stroke-linejoin:round;fill-rule:evenodd;"
d="M 24200,53180
24187,53188
24179,53201
24176,53216
24176,53295
24179,53310
24187,53323
24200,53331
24215,53334
24392,53334
24407,53331
24420,53323
24428,53310
24431,53295
24431,53216
24428,53201
24420,53188
24407,53180
24392,53177
24215,53177
24200,53180
Z" /> 
</g>
<g >
</g>
<g style="fill:#000000; fill-opacity:1.0; 
stroke:#000000; stroke-width:0; stroke-opacity:1; 
stroke-linecap:round; stroke-linejoin:round;">
<circle cx="23680" cy="50000" r="157.48" /> 
</g>
<g style="fill:#000000; fill-opacity:1.0; 
stroke:#000000; stroke-width:19.685; stroke-opacity:1; 
stroke-linecap:round; stroke-linejoin:round;">
</g>
<g style="fill:#000000; fill-opacity:1.0; 
stroke:#000000; stroke-width:0; stroke-opacity:1; 
stroke-linecap:round; stroke-linejoin:round;">
<circle cx="22930" cy="54000" r="157.48" /> 
</g>
<g style="fill:#000000; fill-opacity:1.0; 
stroke:#000000; stroke-width:19.685; stroke-opacity:1; 
stroke-linecap:round; stroke-linejoin:round;">
</g>
<g style="fill:#000000; fill-opacity:1.0; 
stroke:#000000; stroke-width:0; stroke-opacity:1; 
stroke-linecap:round; stroke-linejoin:round;">
<circle cx="24580" cy="54400" r="157.48" /> 
</g>
<g style="fill:#000000; fill-opacity:1.0; 
stroke:#000000; stroke-width:19.685; stroke-opacity:1; 
stroke-linecap:round; stroke-linejoin:round;">
</g>
<g style="fill:#000000; fill-opacity:1.0; 
stroke:#000000; stroke-width:0; stroke-opacity:1; 
stroke-linecap:round; stroke-linejoin:round;">
<circle cx="23380" cy="54400" r="157.48" /> 
</g>
<g style="fill:#000000; fill-opacity:1.0; 
stroke:#000000; stroke-width:19.685; stroke-opacity:1; 
stroke-linecap:round; stroke-linejoin:round;">
</g>
<g style="fill:#000000; fill-opacity:1.0; 
stroke:#000000; stroke-width:0; stroke-opacity:1; 
stroke-linecap:round; stroke-linejoin:round;">
<circle cx="22930" cy="51500" r="157.48" /> 
</g>
<g style="fill:#000000; fill-opacity:1.0; 
stroke:#000000; stroke-width:19.685; stroke-opacity:1; 
stroke-linecap:round; stroke-linejoin:round;">
</g>
<g >
</g>
<g style="fill:#000000; fill-opacity:1.0; 
stroke:#000000; stroke-width:19.685; stroke-opacity:1; 
stroke-linecap:round; stroke-linejoin:round;">
</g>
<g style="fill:#000000; fill-opacity:1.0; 
stroke:#000000; stroke-width:60; stroke-opacity:1; 
stroke-linecap:round; stroke-linejoin:round;">
</g>
<g style="fill:#000000; fill-opacity:0.0; 
stroke:#000000; stroke-width:60; stroke-opacity:1; 
stroke-linecap:round; stroke-linejoin:round;">
<path d="M23680 50000
L22454 50000
" />
<path d="M22930 54000
L22930 55689
" />
<path d="M22930 53750
L22880 53700
" />
<path d="M22880 53700
L22880 53433
" />
<path d="M22930 54000
L22930 53750
" />
<path d="M22880 53050
L22930 53000
" />
<path d="M22930 53000
L23555 53000
" />
<path d="M22880 53433
L22880 53050
" />
<path d="M23930 52310
L23930 53049
" />
<path d="M23680 52060
L23930 52310
" />
<path d="M23930 53049
L23723 53255
" />
<path d="M23723 53255
L23555 53255
" />
<path d="M24304 52625
L24430 52500
" />
<path d="M24430 52500
L24430 52060
" />
<path d="M24304 52744
L24304 52625
" />
<path d="M24304 52744
L24304 53000
" />
<path d="M24580 54400
L24580 54339
" />
<path d="M24580 54339
L24240 54000
" />
<path d="M23380 54400
L23380 54239
" />
<path d="M23380 54239
L23619 54000
" />
<path d="M22880 52050
L22930 52000
" />
<path d="M22880 52566
L22880 52050
" />
<path d="M22930 52000
L22930 51500
" />
<path d="M22930 51500
L22930 51500
" />
<path d="M23680 51439
L22990 51439
" />
<path d="M22990 51439
L22930 51500
" />
<path d="M23496 52566
L23555 52625
" />
<path d="M22880 52566
L23496 52566
" />
<path d="M23555 52625
L23555 52744
" />
</g>
<g >
</g>
<g style="fill:#000000; fill-opacity:0.0; 
stroke:#000000; stroke-width:60; stroke-opacity:1; 
stroke-linecap:round; stroke-linejoin:round;">
</g>
<g style="fill:#000000; fill-opacity:1.0; 
stroke:#000000; stroke-width:60; stroke-opacity:1; 
stroke-linecap:round; stroke-linejoin:round;">
<path style="fill:#000000; fill-opacity:1.0; 
stroke:#000000; stroke-width:60; stroke-opacity:1; 
stroke-linecap:round; stroke-linejoin:round;fill-rule:evenodd;"
d="M 21309,57870
26550,57870
26550,56915
26355,56915
26355,57584
26353,57602
26348,57619
26339,57634
26328,57648
26314,57659
26299,57668
26282,57673
26264,57675
25595,57675
25577,57673
25560,57668
25545,57659
25531,57648
25520,57634
25511,57619
25506,57602
25504,57584
25504,57250
25356,57250
25348,57333
25324,57413
25284,57487
25231,57551
25167,57604
25093,57644
25013,57668
24950,57674
24909,57674
24846,57668
24766,57644
24692,57604
24628,57551
24575,57487
24535,57413
24511,57333
24503,57250
24511,57166
24535,57086
24575,57012
24628,56948
24692,56895
24748,56865
23355,56865
23355,57534
23353,57552
23348,57569
23339,57584
23328,57598
23314,57609
23299,57618
23282,57623
23264,57625
22595,57625
22577,57623
22560,57618
22545,57609
22531,57598
22520,57584
22511,57569
22506,57552
22504,57534
22504,57200
22356,57200
22348,57283
22324,57363
22284,57437
22231,57501
22167,57554
22093,57594
22013,57618
21950,57624
21909,57624
21846,57618
21766,57594
21692,57554
21628,57501
21575,57437
21535,57363
21511,57283
21503,57200
21511,57116
21535,57036
21575,56962
21628,56898
21692,56845
21766,56805
21846,56781
21909,56775
21950,56775
22013,56781
22093,56805
22167,56845
22231,56898
22284,56962
22324,57036
22348,57116
22356,57200
22504,57200
22504,56865
22506,56847
22511,56830
22520,56815
22531,56801
22545,56790
22560,56781
22577,56776
22595,56774
23264,56774
23282,56776
23299,56781
23314,56790
23328,56801
23339,56815
23348,56830
23353,56847
23355,56865
24748,56865
24766,56855
24846,56831
24909,56825
24950,56825
25013,56831
25093,56855
25167,56895
25231,56948
25284,57012
25324,57086
25348,57166
25356,57250
25504,57250
25504,56915
25506,56897
25511,56880
25520,56865
25531,56851
25545,56840
25560,56831
25577,56826
25595,56824
26264,56824
26282,56826
26299,56831
26314,56840
26328,56851
26339,56865
26348,56880
26353,56897
26355,56915
26550,56915
26550,56337
23207,56337
23207,56491
23203,56508
23196,56524
23186,56539
23174,56552
23159,56562
23143,56568
23125,56572
22957,56572
22935,56549
22935,56315
22925,56315
22925,56549
22902,56572
22734,56572
22716,56568
22700,56562
22685,56552
22673,56539
22663,56524
22656,56508
22652,56491
22652,56337
22675,56315
22925,56315
22935,56315
23184,56315
23207,56337
26550,56337
26550,55711
25577,55711
25577,55790
25562,55869
25531,55942
25487,56009
25431,56065
25364,56109
25291,56140
25212,56156
25133,56156
25054,56140
25026,56128
23207,56128
23207,56282
23184,56305
22935,56305
22935,56070
22925,56070
22925,56305
22675,56305
22652,56282
22652,56128
22656,56111
22663,56095
22673,56080
22685,56067
22700,56058
22716,56051
22734,56047
22902,56047
22925,56070
22935,56070
22957,56047
23125,56047
23143,56051
23159,56058
23174,56067
23186,56080
23196,56095
23203,56111
23207,56128
25026,56128
24981,56109
24914,56065
24858,56009
24814,55942
24783,55869
24768,55790
24768,55711
24783,55632
24814,55559
24858,55492
24914,55436
24981,55392
25054,55361
25133,55346
25212,55346
25291,55361
25364,55392
25431,55436
25487,55492
25531,55559
25562,55632
25577,55711
26550,55711
26550,54711
25577,54711
25577,54790
25562,54869
25531,54942
25487,55009
25431,55065
25364,55109
25291,55140
25212,55156
25133,55156
25054,55140
24981,55109
24914,55065
24858,55009
24814,54942
24783,54869
24768,54790
24768,54711
24783,54632
24814,54559
24858,54492
24914,54436
24981,54392
25021,54375
24827,54375
24827,54424
24817,54472
24799,54517
24772,54557
24737,54592
24697,54619
24652,54637
24604,54647
24555,54647
24507,54637
24462,54619
24422,54592
24387,54557
24360,54517
24342,54472
24332,54424
24332,54375
24342,54327
24358,54288
24345,54275
24326,54277
24153,54277
24119,54274
24086,54264
24055,54247
24029,54225
24007,54198
23990,54168
23980,54135
23977,54100
23977,53899
23882,53899
23882,54100
23879,54135
23869,54168
23852,54198
23830,54225
23804,54247
23773,54264
23740,54274
23706,54277
23595,54277
23599,54282
23617,54327
23627,54375
23627,54424
23617,54472
23599,54517
23572,54557
23537,54592
23497,54619
23452,54637
23404,54647
23355,54647
23307,54637
23262,54619
23222,54592
23187,54557
23160,54517
23142,54472
23132,54424
23132,54375
23142,54327
23160,54282
23187,54242
23222,54207
23262,54180
23279,54173
23279,54172
23294,54154
23299,54150
23357,54092
23357,53899
23360,53864
23370,53831
23387,53801
23408,53774
23435,53752
23466,53735
23499,53725
23533,53722
23706,53722
23740,53725
23773,53735
23804,53752
23830,53774
23852,53801
23869,53831
23879,53864
23882,53899
23977,53899
23980,53864
23990,53831
24007,53801
24029,53774
24055,53752
24086,53735
24119,53725
24153,53722
24326,53722
24360,53725
24393,53735
24424,53752
24451,53774
24472,53801
24489,53831
24499,53864
24502,53899
24502,54092
24562,54152
24604,54152
24652,54162
24697,54180
24737,54207
24772,54242
24799,54282
24817,54327
24827,54375
25021,54375
25054,54361
25133,54346
25212,54346
25291,54361
25364,54392
25431,54436
25487,54492
25531,54559
25562,54632
25577,54711
26550,54711
26550,53711
25577,53711
25577,53790
25562,53869
25531,53942
25487,54009
25431,54065
25364,54109
25291,54140
25212,54156
25133,54156
25054,54140
24981,54109
24914,54065
24858,54009
24814,53942
24783,53869
24768,53790
24768,53711
24783,53632
24814,53559
24858,53492
24914,53436
24981,53392
25054,53361
25133,53346
25212,53346
25291,53361
25364,53392
25431,53436
25487,53492
25531,53559
25562,53632
25577,53711
26550,53711
26550,53283
24521,53283
24521,53343
24518,53360
24511,53377
24501,53392
24489,53404
24474,53414
24458,53421
24440,53424
24331,53424
24309,53402
24309,53260
24299,53260
24299,53402
24276,53424
24167,53424
24149,53421
24133,53414
24118,53404
24106,53392
24096,53377
24089,53360
24086,53343
24086,53283
24108,53260
24299,53260
24309,53260
24499,53260
24521,53283
26550,53283
26550,53026
25441,53026
25408,53083
25338,53122
25263,53147
25184,53157
25104,53152
25027,53131
24956,53095
24937,53083
24904,53026
25173,52758
25441,53026
26550,53026
26550,52740
25579,52740
25574,52819
25553,52896
25517,52967
25505,52986
25448,53019
25180,52751
25165,52751
24897,53019
24840,52986
24801,52916
24776,52841
24766,52762
24771,52682
24793,52605
24828,52534
24840,52515
24897,52482
25165,52751
25180,52751
25448,52482
25505,52515
25544,52585
25569,52660
25579,52740
26550,52740
26550,52475
25441,52475
25173,52744
24904,52475
24937,52418
25007,52379
25082,52354
25162,52344
25241,52350
25318,52371
25389,52406
25408,52418
25441,52475
26550,52475
26550,51711
25577,51711
25577,51790
25562,51869
25531,51942
25487,52009
25431,52065
25364,52109
25291,52140
25212,52156
25133,52156
25054,52140
24981,52109
24914,52065
24858,52009
24834,51973
24707,51973
24707,52146
24704,52180
24694,52213
24677,52244
24655,52271
24628,52292
24598,52309
24565,52319
24550,52320
24550,52494
24550,52500
24550,52505
24550,52505
24548,52523
24541,52546
24530,52566
24515,52585
24510,52589
24485,52614
24500,52632
24512,52655
24519,52679
24522,52704
24522,52783
24519,52808
24512,52833
24500,52855
24487,52872
24500,52888
24512,52910
24519,52935
24522,52960
24522,53039
24519,53064
24512,53089
24500,53111
24497,53115
24501,53119
24511,53134
24518,53150
24521,53168
24521,53228
24499,53250
24309,53250
24309,53243
24299,53243
24299,53250
24108,53250
24086,53228
24086,53168
24089,53150
24096,53134
24106,53119
24110,53115
24107,53111
24095,53089
24088,53064
24085,53039
24085,52960
24088,52935
24095,52910
24107,52888
24121,52872
24107,52855
24095,52833
24088,52808
24085,52783
24085,52704
24088,52679
24095,52655
24107,52632
24123,52612
24143,52596
24165,52584
24190,52577
24194,52577
24203,52558
24212,52548
24214,52545
24218,52540
24223,52536
24310,52450
24310,52320
24294,52319
24264,52310
24050,52310
24050,52315
24049,53043
24050,53049
24048,53072
24041,53095
24036,53105
24030,53116
24015,53134
24010,53138
23812,53336
23808,53341
23790,53356
23769,53367
23746,53374
23736,53387
23716,53403
23694,53415
23669,53422
23644,53425
23467,53425
23442,53422
23417,53415
23395,53403
23375,53387
23359,53367
23347,53344
23340,53320
23337,53295
23337,53216
23340,53191
23347,53166
23359,53144
23372,53127
23366,53120
22999,53120
22999,53202
23016,53207
23045,53222
23069,53243
23090,53267
23105,53296
23114,53327
23118,53359
23118,53506
23114,53538
23105,53569
23090,53598
23069,53623
23045,53643
23016,53658
23010,53660
23010,53660
23015,53664
23030,53683
23036,53694
23041,53703
23048,53726
23050,53750
23049,53755
23049,53782
23087,53807
23122,53842
23149,53882
23167,53927
23177,53975
23177,54024
23167,54072
23149,54117
23122,54157
23087,54192
23050,54217
23049,55429
23065,55430
23098,55440
23128,55457
23155,55478
23177,55505
23194,55536
23204,55569
23207,55603
23207,55776
23204,55810
23194,55843
23177,55874
23155,55900
23128,55922
23098,55939
23065,55949
23030,55952
22829,55952
22794,55949
22761,55939
22731,55922
22704,55900
22682,55874
22665,55843
22655,55810
22652,55776
22652,55711
22577,55711
22577,55790
22562,55869
22531,55942
22487,56009
22431,56065
22364,56109
22291,56140
22212,56156
22133,56156
22054,56140
21981,56109
21914,56065
21858,56009
21814,55942
21783,55869
21768,55790
21768,55711
21783,55632
21814,55559
21858,55492
21914,55436
21981,55392
22054,55361
22133,55346
22212,55346
22291,55361
22364,55392
22431,55436
22487,55492
22531,55559
22562,55632
22577,55711
22652,55711
22652,55603
22655,55569
22665,55536
22682,55505
22704,55478
22731,55457
22761,55440
22794,55430
22810,55429
22810,54711
22577,54711
22577,54790
22562,54869
22531,54942
22487,55009
22431,55065
22364,55109
22291,55140
22212,55156
22133,55156
22054,55140
21981,55109
21914,55065
21858,55009
21814,54942
21783,54869
21768,54790
21768,54711
21783,54632
21814,54559
21858,54492
21914,54436
21981,54392
22054,54361
22133,54346
22212,54346
22291,54361
22364,54392
22431,54436
22487,54492
22531,54559
22562,54632
22577,54711
22810,54711
22810,54217
22772,54192
22737,54157
22710,54117
22692,54072
22682,54024
22682,53975
22692,53927
22710,53882
22737,53842
22772,53807
22799,53789
22799,53789
22794,53785
22779,53766
22768,53746
22765,53735
22761,53723
22760,53711
22577,53711
22577,53790
22562,53869
22531,53942
22487,54009
22431,54065
22364,54109
22291,54140
22212,54156
22133,54156
22054,54140
21981,54109
21914,54065
21858,54009
21814,53942
21783,53869
21768,53790
21768,53711
21783,53632
21814,53559
21858,53492
21914,53436
21981,53392
22054,53361
22133,53346
22212,53346
22291,53361
22364,53392
22431,53436
22487,53492
22531,53559
22562,53632
22577,53711
22760,53711
22760,53705
22760,53705
22759,53700
22760,53694
22760,53663
22743,53658
22714,53643
22690,53623
22669,53598
22654,53569
22645,53538
22641,53506
22641,53359
22645,53327
22654,53296
22669,53267
22690,53243
22714,53222
22743,53207
22760,53202
22760,53055
22759,53049
22760,53044
22760,53044
22761,53026
22761,53025
22768,53003
22779,52983
22794,52964
22799,52960
22840,52919
22844,52914
22863,52899
22883,52888
22906,52881
22924,52880
22924,52880
22930,52879
22935,52880
23366,52880
23372,52872
23359,52855
23347,52833
23340,52808
23337,52783
23337,52704
23339,52686
23110,52686
23105,52703
23090,52732
23069,52756
23045,52777
23016,52792
22985,52801
22953,52805
22806,52805
22774,52801
22743,52792
22714,52777
22690,52756
22669,52732
22658,52711
22577,52711
22577,52790
22562,52869
22531,52942
22487,53009
22431,53065
22364,53109
22291,53140
22212,53156
22133,53156
22054,53140
21981,53109
21914,53065
21858,53009
21814,52942
21783,52869
21768,52790
21768,52711
21783,52632
21814,52559
21858,52492
21914,52436
21981,52392
22054,52361
22133,52346
22212,52346
22291,52361
22364,52392
22431,52436
22487,52492
22531,52559
22562,52632
22577,52711
22658,52711
22654,52703
22645,52672
22641,52640
22641,52493
22645,52461
22654,52430
22669,52401
22690,52376
22714,52356
22743,52341
22760,52336
22760,52055
22759,52049
22760,52044
22760,52044
22761,52026
22761,52026
22441,52026
22408,52083
22338,52122
22263,52147
22184,52157
22104,52152
22027,52131
21956,52095
21937,52083
21904,52026
22173,51758
22441,52026
22761,52026
22762,52023
22768,52003
22770,52000
22779,51983
22794,51964
22799,51960
22810,51950
22810,51740
22579,51740
22574,51819
22553,51896
22517,51967
22505,51986
22448,52019
22180,51751
22165,51751
21897,52019
21840,51986
21801,51916
21776,51841
21766,51762
21771,51682
21793,51605
21828,51534
21840,51515
21897,51482
22165,51751
22180,51751
22448,51482
22505,51515
22544,51585
22569,51660
22579,51740
22810,51740
22810,51717
22772,51692
22737,51657
22710,51617
22692,51572
22682,51524
22682,51475
22441,51475
22173,51744
21904,51475
21937,51418
22007,51379
22082,51354
22162,51344
22241,51350
22318,51371
22389,51406
22408,51418
22441,51475
22682,51475
22682,51475
22692,51427
22710,51382
22737,51342
22772,51307
22812,51280
22857,51262
22905,51252
22954,51252
23002,51262
23047,51280
23087,51307
23099,51319
23405,51319
23405,51319
23415,51286
23432,51255
23454,51228
23481,51207
23511,51190
23544,51180
23579,51177
23780,51177
23815,51180
23848,51190
23878,51207
23905,51228
23927,51255
23944,51286
23954,51319
23957,51353
23957,51526
23954,51560
23944,51593
23927,51624
23905,51650
23878,51672
23848,51689
23815,51699
23780,51702
23579,51702
23544,51699
23511,51689
23481,51672
23454,51650
23432,51624
23415,51593
23405,51560
23405,51559
23170,51559
23167,51572
23149,51617
23122,51657
23087,51692
23049,51717
23050,51994
23050,52000
23050,52005
23050,52005
23048,52019
23048,52023
23047,52026
23041,52046
23030,52066
23015,52085
23010,52089
22999,52099
23000,52336
23016,52341
23045,52356
23069,52376
23090,52401
23105,52430
23110,52446
23491,52446
23496,52446
23502,52446
23502,52446
23518,52448
23520,52448
23543,52455
23563,52466
23582,52481
23585,52486
23636,52536
23641,52540
23656,52558
23664,52574
23665,52577
23669,52577
23694,52584
23716,52596
23736,52612
23752,52632
23764,52655
23771,52679
23774,52704
23774,52783
23771,52808
23764,52833
23752,52855
23738,52872
23752,52888
23764,52910
23771,52935
23774,52960
23774,53035
23810,52999
23810,52359
23772,52322
23579,52322
23544,52319
23511,52309
23481,52292
23454,52271
23432,52244
23415,52213
23405,52180
23402,52146
23402,51973
23405,51939
23415,51906
23432,51875
23454,51849
23481,51827
23511,51810
23544,51800
23579,51797
23780,51797
23815,51800
23848,51810
23878,51827
23905,51849
23927,51875
23944,51906
23954,51939
23957,51973
23957,52146
23955,52165
24010,52221
24015,52224
24030,52243
24041,52263
24048,52286
24050,52304
24050,52304
24050,52310
24264,52310
24261,52309
24231,52292
24204,52271
24182,52244
24165,52213
24155,52180
24152,52146
24152,51973
24155,51939
24165,51906
24182,51875
24204,51849
24231,51827
24261,51810
24294,51800
24329,51797
24530,51797
24565,51800
24598,51810
24628,51827
24655,51849
24677,51875
24694,51906
24704,51939
24707,51973
24834,51973
24814,51942
24783,51869
24768,51790
24768,51711
24783,51632
24814,51559
24858,51492
24883,51467
24707,51467
24707,51621
24703,51638
24696,51654
24686,51669
24674,51682
24659,51691
24643,51698
24625,51702
24457,51702
24435,51679
24435,51444
24425,51444
24425,51679
24402,51702
24234,51702
24216,51698
24200,51691
24185,51682
24173,51669
24163,51654
24156,51638
24152,51621
24152,51467
24175,51444
24425,51444
24435,51444
24684,51444
24707,51467
24883,51467
24914,51436
24981,51392
25054,51361
25133,51346
25212,51346
25291,51361
25364,51392
25431,51436
25487,51492
25531,51559
25562,51632
25577,51711
26550,51711
26550,51258
24707,51258
24707,51412
24684,51434
24435,51434
24435,51200
24425,51200
24425,51434
24175,51434
24152,51412
24152,51258
24156,51241
24163,51225
24173,51210
24185,51197
24200,51187
24216,51181
24234,51177
24402,51177
24425,51200
24435,51200
24457,51177
24625,51177
24643,51181
24659,51187
24674,51197
24686,51210
24696,51225
24703,51241
24707,51258
26550,51258
26550,50027
25403,50027
25403,50510
25400,50528
25393,50544
25383,50559
25371,50571
25356,50581
25340,50588
25322,50591
24932,50591
24910,50569
24910,50005
24900,50005
24900,50569
24877,50591
24488,50591
24470,50588
24454,50581
24439,50571
24427,50559
24417,50544
24410,50528
24406,50510
24406,50027
24429,50005
24900,50005
24910,50005
25381,50005
25403,50027
26550,50027
26550,49489
25403,49489
25403,49972
25381,49995
24910,49995
24910,49430
24900,49430
24900,49995
24429,49995
24410,49975
23927,49975
23927,50024
23917,50072
23899,50117
23872,50157
23837,50192
23797,50219
23752,50237
23704,50247
23655,50247
23607,50237
23562,50219
23522,50192
23487,50157
23462,50120
22953,50120
22953,50403
22949,50440
22939,50475
22921,50508
22898,50537
22869,50560
22836,50578
22801,50588
22764,50592
22144,50592
22107,50588
22072,50578
22039,50560
22011,50537
21987,50508
21970,50475
21959,50440
21955,50403
21955,49596
21959,49559
21970,49524
21987,49491
22011,49462
22039,49439
22072,49421
22107,49411
22144,49407
22764,49407
22801,49411
22836,49421
22869,49439
22898,49462
22921,49491
22939,49524
22949,49559
22953,49596
22953,49880
23462,49880
23487,49842
23522,49807
23562,49780
23607,49762
23655,49752
23704,49752
23752,49762
23797,49780
23837,49807
23872,49842
23899,49882
23917,49927
23927,49975
24410,49975
24406,49972
24406,49489
24410,49471
24417,49455
24427,49440
24439,49428
24454,49418
24470,49411
24488,49408
24877,49408
24900,49430
24910,49430
24932,49408
25322,49408
25340,49411
25356,49418
25371,49428
25383,49440
25393,49455
25400,49471
25403,49489
26550,49489
26550,49129
21309,49129
21309,57870
Z" /> 
</g>
</g> 
</svg>
