M48
;DRILL file {KiCad (5.0.2)-1} date 2/20/2019 3:43:21 PM
;FORMAT={-:-/ absolute / metric / decimal}
FMAT,2
METRIC,TZ
T1C0.800
T2C1.000
T3C1.200
%
G90
G05
T1
X186.055Y-140.335
X186.055Y-142.875
X186.055Y-145.415
X186.055Y-147.955
X193.675Y-140.335
X193.675Y-142.875
X193.675Y-145.415
X193.675Y-147.955
X223.56Y-142.875
X228.56Y-142.875
X223.56Y-123.19
X228.56Y-123.19
X220.98Y-119.38
X231.14Y-119.38
X196.85Y-119.38
X207.01Y-119.38
X201.93Y-136.565
X201.93Y-141.565
X234.315Y-140.335
X234.315Y-142.875
X234.315Y-145.415
X234.315Y-147.955
X241.935Y-140.335
X241.935Y-142.875
X241.935Y-145.415
X241.935Y-147.955
X210.185Y-118.11
X210.185Y-120.65
X210.185Y-123.19
X210.185Y-125.73
X217.805Y-118.11
X217.805Y-120.65
X217.805Y-123.19
X217.805Y-125.73
X249.555Y-128.27
X249.555Y-138.43
X234.315Y-118.11
X234.315Y-120.65
X234.315Y-123.19
X234.315Y-125.73
X241.935Y-118.11
X241.935Y-120.65
X241.935Y-123.19
X241.935Y-125.73
X245.745Y-130.85
X245.745Y-135.85
X210.185Y-140.335
X210.185Y-142.875
X210.185Y-145.415
X210.185Y-147.955
X217.805Y-140.335
X217.805Y-142.875
X217.805Y-145.415
X217.805Y-147.955
X186.055Y-118.11
X186.055Y-120.65
X186.055Y-123.19
X186.055Y-125.73
X193.675Y-118.11
X193.675Y-120.65
X193.675Y-123.19
X193.675Y-125.73
X220.98Y-146.685
X231.14Y-146.685
X199.43Y-123.19
X204.43Y-123.19
T2
X211.455Y-129.54
X213.995Y-129.54
X216.535Y-129.54
X235.585Y-129.54
X238.125Y-129.54
X240.665Y-129.54
X211.455Y-136.525
X213.995Y-136.525
X216.535Y-136.525
X235.585Y-136.525
X238.125Y-136.525
X240.665Y-136.525
T3
X181.102Y-115.316
X181.102Y-137.16
X182.626Y-139.7
X182.626Y-145.288
X182.88Y-117.856
X189.738Y-125.73
X189.738Y-150.622
X189.992Y-115.316
X194.818Y-133.858
X196.088Y-149.352
X201.93Y-117.094
X201.93Y-125.73
X201.93Y-129.794
X205.232Y-134.658
X207.01Y-125.73
X209.296Y-134.874
X209.699Y-131.534
X214.122Y-115.316
X214.122Y-151.638
X220.218Y-133.096
X232.918Y-135.128
X238.252Y-115.316
X238.252Y-151.638
X243.078Y-133.096
X247.904Y-120.65
X247.904Y-151.638
X198.12Y-152.4
X200.66Y-152.4
X203.2Y-152.4
X207.645Y-152.4
X210.185Y-152.4
X183.515Y-153.035
X186.055Y-153.035
X188.595Y-153.035
X177.8Y-120.65
X180.34Y-120.65
X182.88Y-120.65
X177.8Y-137.16
X177.8Y-139.7
T0
M30
