%TF.GenerationSoftware,KiCad,Pcbnew,(5.0.2)-1*%
%TF.CreationDate,2019-01-03T02:31:24+01:00*%
%TF.ProjectId,Passives-1206-0805-0603,50617373-6976-4657-932d-313230362d30,rev?*%
%TF.SameCoordinates,Original*%
%TF.FileFunction,Soldermask,Bot*%
%TF.FilePolarity,Negative*%
%FSLAX46Y46*%
G04 Gerber Fmt 4.6, Leading zero omitted, Abs format (unit mm)*
G04 Created by KiCad (PCBNEW (5.0.2)-1) date 1/3/2019 2:31:24 AM*
%MOMM*%
%LPD*%
G01*
G04 APERTURE LIST*
%ADD10C,0.150000*%
%ADD11C,0.050000*%
G04 APERTURE END LIST*
D10*
X130683000Y-81788000D02*
X130683000Y-62992000D01*
X121412000Y-82423000D02*
X130048000Y-82423000D01*
X120777000Y-62992000D02*
X120777000Y-81788000D01*
X130048000Y-62357000D02*
X121412000Y-62357000D01*
X130048000Y-62357000D02*
G75*
G02X130683000Y-62992000I0J-635000D01*
G01*
X130683000Y-81788000D02*
G75*
G02X130048000Y-82423000I-635000J0D01*
G01*
X121412000Y-82423000D02*
G75*
G02X120777000Y-81788000I0J635000D01*
G01*
X120777000Y-62992000D02*
G75*
G02X121412000Y-62357000I635000J0D01*
G01*
D11*
G36*
X124408210Y-80238489D02*
X124494949Y-80264802D01*
X124574891Y-80307532D01*
X124644963Y-80365037D01*
X124702468Y-80435109D01*
X124745198Y-80515051D01*
X124771511Y-80601790D01*
X124781000Y-80698140D01*
X124781000Y-80729049D01*
X124783402Y-80753435D01*
X124790515Y-80776884D01*
X124802066Y-80798495D01*
X124817612Y-80817437D01*
X124836554Y-80832983D01*
X124858165Y-80844534D01*
X124893746Y-80853447D01*
X124934743Y-80857485D01*
X124962865Y-80866016D01*
X124988775Y-80879865D01*
X125011492Y-80898508D01*
X125030135Y-80921225D01*
X125043984Y-80947135D01*
X125052515Y-80975257D01*
X125056000Y-81010641D01*
X125056000Y-81549359D01*
X125052515Y-81584743D01*
X125043984Y-81612865D01*
X125030135Y-81638775D01*
X125011492Y-81661492D01*
X124988775Y-81680135D01*
X124962865Y-81693984D01*
X124934743Y-81702515D01*
X124893746Y-81706553D01*
X124869713Y-81711334D01*
X124847074Y-81720712D01*
X124826700Y-81734326D01*
X124809373Y-81751653D01*
X124795759Y-81772028D01*
X124786382Y-81794667D01*
X124781000Y-81830951D01*
X124781000Y-81861860D01*
X124771511Y-81958210D01*
X124745198Y-82044949D01*
X124702468Y-82124891D01*
X124644963Y-82194963D01*
X124574891Y-82252468D01*
X124494949Y-82295198D01*
X124408210Y-82321511D01*
X124311860Y-82331000D01*
X123148140Y-82331000D01*
X123051790Y-82321511D01*
X122965051Y-82295198D01*
X122885109Y-82252468D01*
X122815037Y-82194963D01*
X122783701Y-82156779D01*
X122766373Y-82139452D01*
X122745999Y-82125838D01*
X122723360Y-82116461D01*
X122699326Y-82111680D01*
X122674822Y-82111680D01*
X122650789Y-82116460D01*
X122628149Y-82125838D01*
X122581248Y-82150907D01*
X122508578Y-82172952D01*
X122426860Y-82181000D01*
X121413140Y-82181000D01*
X121331422Y-82172952D01*
X121258750Y-82150907D01*
X121191774Y-82115108D01*
X121133070Y-82066930D01*
X121084892Y-82008226D01*
X121049093Y-81941250D01*
X121027048Y-81868578D01*
X121019000Y-81786860D01*
X121019000Y-80773140D01*
X121027048Y-80691422D01*
X121049093Y-80618750D01*
X121084892Y-80551774D01*
X121133070Y-80493070D01*
X121191774Y-80444892D01*
X121258750Y-80409093D01*
X121331422Y-80387048D01*
X121413140Y-80379000D01*
X122426860Y-80379000D01*
X122508578Y-80387048D01*
X122581248Y-80409093D01*
X122628149Y-80434162D01*
X122650788Y-80443539D01*
X122674821Y-80448320D01*
X122699326Y-80448320D01*
X122723359Y-80443540D01*
X122745998Y-80434162D01*
X122766373Y-80420549D01*
X122783701Y-80403221D01*
X122815037Y-80365037D01*
X122885109Y-80307532D01*
X122965051Y-80264802D01*
X123051790Y-80238489D01*
X123148140Y-80229000D01*
X124311860Y-80229000D01*
X124408210Y-80238489D01*
X124408210Y-80238489D01*
G37*
G36*
X128408210Y-80238489D02*
X128494949Y-80264802D01*
X128574891Y-80307532D01*
X128644963Y-80365037D01*
X128676299Y-80403221D01*
X128693627Y-80420548D01*
X128714001Y-80434162D01*
X128736640Y-80443539D01*
X128760674Y-80448320D01*
X128785178Y-80448320D01*
X128809211Y-80443540D01*
X128831851Y-80434162D01*
X128878752Y-80409093D01*
X128951422Y-80387048D01*
X129033140Y-80379000D01*
X130046860Y-80379000D01*
X130128578Y-80387048D01*
X130201250Y-80409093D01*
X130268226Y-80444892D01*
X130326930Y-80493070D01*
X130375108Y-80551774D01*
X130410907Y-80618750D01*
X130432952Y-80691422D01*
X130441000Y-80773140D01*
X130441000Y-81786860D01*
X130432952Y-81868578D01*
X130410907Y-81941250D01*
X130375108Y-82008226D01*
X130326930Y-82066930D01*
X130268226Y-82115108D01*
X130201250Y-82150907D01*
X130128578Y-82172952D01*
X130046860Y-82181000D01*
X129033140Y-82181000D01*
X128951422Y-82172952D01*
X128878752Y-82150907D01*
X128831851Y-82125838D01*
X128809212Y-82116461D01*
X128785179Y-82111680D01*
X128760674Y-82111680D01*
X128736641Y-82116460D01*
X128714002Y-82125838D01*
X128693627Y-82139451D01*
X128676299Y-82156779D01*
X128644963Y-82194963D01*
X128574891Y-82252468D01*
X128494949Y-82295198D01*
X128408210Y-82321511D01*
X128311860Y-82331000D01*
X127148140Y-82331000D01*
X127051790Y-82321511D01*
X126965051Y-82295198D01*
X126885109Y-82252468D01*
X126815037Y-82194963D01*
X126757532Y-82124891D01*
X126714802Y-82044949D01*
X126688489Y-81958210D01*
X126679000Y-81861860D01*
X126679000Y-81830951D01*
X126676598Y-81806565D01*
X126669485Y-81783116D01*
X126657934Y-81761505D01*
X126642388Y-81742563D01*
X126623446Y-81727017D01*
X126601835Y-81715466D01*
X126566254Y-81706553D01*
X126525257Y-81702515D01*
X126497135Y-81693984D01*
X126471225Y-81680135D01*
X126448508Y-81661492D01*
X126429865Y-81638775D01*
X126416016Y-81612865D01*
X126407485Y-81584743D01*
X126404000Y-81549359D01*
X126404000Y-81010641D01*
X126407485Y-80975257D01*
X126416016Y-80947135D01*
X126429865Y-80921225D01*
X126448508Y-80898508D01*
X126471225Y-80879865D01*
X126497135Y-80866016D01*
X126525257Y-80857485D01*
X126566254Y-80853447D01*
X126590287Y-80848666D01*
X126612926Y-80839288D01*
X126633300Y-80825674D01*
X126650627Y-80808347D01*
X126664241Y-80787972D01*
X126673618Y-80765333D01*
X126679000Y-80729049D01*
X126679000Y-80698140D01*
X126688489Y-80601790D01*
X126714802Y-80515051D01*
X126757532Y-80435109D01*
X126815037Y-80365037D01*
X126885109Y-80307532D01*
X126965051Y-80264802D01*
X127051790Y-80238489D01*
X127148140Y-80229000D01*
X128311860Y-80229000D01*
X128408210Y-80238489D01*
X128408210Y-80238489D01*
G37*
G36*
X124408210Y-77698489D02*
X124494949Y-77724802D01*
X124574891Y-77767532D01*
X124644963Y-77825037D01*
X124702468Y-77895109D01*
X124745198Y-77975051D01*
X124771511Y-78061790D01*
X124781000Y-78158140D01*
X124781000Y-78189049D01*
X124783402Y-78213435D01*
X124790515Y-78236884D01*
X124802066Y-78258495D01*
X124817612Y-78277437D01*
X124836554Y-78292983D01*
X124858165Y-78304534D01*
X124893746Y-78313447D01*
X124934743Y-78317485D01*
X124962865Y-78326016D01*
X124988775Y-78339865D01*
X125011492Y-78358508D01*
X125030135Y-78381225D01*
X125043984Y-78407135D01*
X125052515Y-78435257D01*
X125056000Y-78470641D01*
X125056000Y-79009359D01*
X125052515Y-79044743D01*
X125043984Y-79072865D01*
X125030135Y-79098775D01*
X125011492Y-79121492D01*
X124988775Y-79140135D01*
X124962865Y-79153984D01*
X124934743Y-79162515D01*
X124893746Y-79166553D01*
X124869713Y-79171334D01*
X124847074Y-79180712D01*
X124826700Y-79194326D01*
X124809373Y-79211653D01*
X124795759Y-79232028D01*
X124786382Y-79254667D01*
X124781000Y-79290951D01*
X124781000Y-79321860D01*
X124771511Y-79418210D01*
X124745198Y-79504949D01*
X124702468Y-79584891D01*
X124644963Y-79654963D01*
X124574891Y-79712468D01*
X124494949Y-79755198D01*
X124408210Y-79781511D01*
X124311860Y-79791000D01*
X123148140Y-79791000D01*
X123051790Y-79781511D01*
X122965051Y-79755198D01*
X122885109Y-79712468D01*
X122815037Y-79654963D01*
X122783701Y-79616779D01*
X122766373Y-79599452D01*
X122745999Y-79585838D01*
X122723360Y-79576461D01*
X122699326Y-79571680D01*
X122674822Y-79571680D01*
X122650789Y-79576460D01*
X122628149Y-79585838D01*
X122581248Y-79610907D01*
X122508578Y-79632952D01*
X122426860Y-79641000D01*
X121413140Y-79641000D01*
X121331422Y-79632952D01*
X121258750Y-79610907D01*
X121191774Y-79575108D01*
X121133070Y-79526930D01*
X121084892Y-79468226D01*
X121049093Y-79401250D01*
X121027048Y-79328578D01*
X121019000Y-79246860D01*
X121019000Y-78233140D01*
X121027048Y-78151422D01*
X121049093Y-78078750D01*
X121084892Y-78011774D01*
X121133070Y-77953070D01*
X121191774Y-77904892D01*
X121258750Y-77869093D01*
X121331422Y-77847048D01*
X121413140Y-77839000D01*
X122426860Y-77839000D01*
X122508578Y-77847048D01*
X122581248Y-77869093D01*
X122628149Y-77894162D01*
X122650788Y-77903539D01*
X122674821Y-77908320D01*
X122699326Y-77908320D01*
X122723359Y-77903540D01*
X122745998Y-77894162D01*
X122766373Y-77880549D01*
X122783701Y-77863221D01*
X122815037Y-77825037D01*
X122885109Y-77767532D01*
X122965051Y-77724802D01*
X123051790Y-77698489D01*
X123148140Y-77689000D01*
X124311860Y-77689000D01*
X124408210Y-77698489D01*
X124408210Y-77698489D01*
G37*
G36*
X128408210Y-77698489D02*
X128494949Y-77724802D01*
X128574891Y-77767532D01*
X128644963Y-77825037D01*
X128676299Y-77863221D01*
X128693627Y-77880548D01*
X128714001Y-77894162D01*
X128736640Y-77903539D01*
X128760674Y-77908320D01*
X128785178Y-77908320D01*
X128809211Y-77903540D01*
X128831851Y-77894162D01*
X128878752Y-77869093D01*
X128951422Y-77847048D01*
X129033140Y-77839000D01*
X130046860Y-77839000D01*
X130128578Y-77847048D01*
X130201250Y-77869093D01*
X130268226Y-77904892D01*
X130326930Y-77953070D01*
X130375108Y-78011774D01*
X130410907Y-78078750D01*
X130432952Y-78151422D01*
X130441000Y-78233140D01*
X130441000Y-79246860D01*
X130432952Y-79328578D01*
X130410907Y-79401250D01*
X130375108Y-79468226D01*
X130326930Y-79526930D01*
X130268226Y-79575108D01*
X130201250Y-79610907D01*
X130128578Y-79632952D01*
X130046860Y-79641000D01*
X129033140Y-79641000D01*
X128951422Y-79632952D01*
X128878752Y-79610907D01*
X128831851Y-79585838D01*
X128809212Y-79576461D01*
X128785179Y-79571680D01*
X128760674Y-79571680D01*
X128736641Y-79576460D01*
X128714002Y-79585838D01*
X128693627Y-79599451D01*
X128676299Y-79616779D01*
X128644963Y-79654963D01*
X128574891Y-79712468D01*
X128494949Y-79755198D01*
X128408210Y-79781511D01*
X128311860Y-79791000D01*
X127148140Y-79791000D01*
X127051790Y-79781511D01*
X126965051Y-79755198D01*
X126885109Y-79712468D01*
X126815037Y-79654963D01*
X126757532Y-79584891D01*
X126714802Y-79504949D01*
X126688489Y-79418210D01*
X126679000Y-79321860D01*
X126679000Y-79290951D01*
X126676598Y-79266565D01*
X126669485Y-79243116D01*
X126657934Y-79221505D01*
X126642388Y-79202563D01*
X126623446Y-79187017D01*
X126601835Y-79175466D01*
X126566254Y-79166553D01*
X126525257Y-79162515D01*
X126497135Y-79153984D01*
X126471225Y-79140135D01*
X126448508Y-79121492D01*
X126429865Y-79098775D01*
X126416016Y-79072865D01*
X126407485Y-79044743D01*
X126404000Y-79009359D01*
X126404000Y-78470641D01*
X126407485Y-78435257D01*
X126416016Y-78407135D01*
X126429865Y-78381225D01*
X126448508Y-78358508D01*
X126471225Y-78339865D01*
X126497135Y-78326016D01*
X126525257Y-78317485D01*
X126566254Y-78313447D01*
X126590287Y-78308666D01*
X126612926Y-78299288D01*
X126633300Y-78285674D01*
X126650627Y-78268347D01*
X126664241Y-78247972D01*
X126673618Y-78225333D01*
X126679000Y-78189049D01*
X126679000Y-78158140D01*
X126688489Y-78061790D01*
X126714802Y-77975051D01*
X126757532Y-77895109D01*
X126815037Y-77825037D01*
X126885109Y-77767532D01*
X126965051Y-77724802D01*
X127051790Y-77698489D01*
X127148140Y-77689000D01*
X128311860Y-77689000D01*
X128408210Y-77698489D01*
X128408210Y-77698489D01*
G37*
G36*
X128408210Y-75158489D02*
X128494949Y-75184802D01*
X128574891Y-75227532D01*
X128644963Y-75285037D01*
X128676299Y-75323221D01*
X128693627Y-75340548D01*
X128714001Y-75354162D01*
X128736640Y-75363539D01*
X128760674Y-75368320D01*
X128785178Y-75368320D01*
X128809211Y-75363540D01*
X128831851Y-75354162D01*
X128878752Y-75329093D01*
X128951422Y-75307048D01*
X129033140Y-75299000D01*
X130046860Y-75299000D01*
X130128578Y-75307048D01*
X130201250Y-75329093D01*
X130268226Y-75364892D01*
X130326930Y-75413070D01*
X130375108Y-75471774D01*
X130410907Y-75538750D01*
X130432952Y-75611422D01*
X130441000Y-75693140D01*
X130441000Y-76706860D01*
X130432952Y-76788578D01*
X130410907Y-76861250D01*
X130375108Y-76928226D01*
X130326930Y-76986930D01*
X130268226Y-77035108D01*
X130201250Y-77070907D01*
X130128578Y-77092952D01*
X130046860Y-77101000D01*
X129033140Y-77101000D01*
X128951422Y-77092952D01*
X128878752Y-77070907D01*
X128831851Y-77045838D01*
X128809212Y-77036461D01*
X128785179Y-77031680D01*
X128760674Y-77031680D01*
X128736641Y-77036460D01*
X128714002Y-77045838D01*
X128693627Y-77059451D01*
X128676299Y-77076779D01*
X128644963Y-77114963D01*
X128574891Y-77172468D01*
X128494949Y-77215198D01*
X128408210Y-77241511D01*
X128311860Y-77251000D01*
X127148140Y-77251000D01*
X127051790Y-77241511D01*
X126965051Y-77215198D01*
X126885109Y-77172468D01*
X126815037Y-77114963D01*
X126757532Y-77044891D01*
X126714802Y-76964949D01*
X126688489Y-76878210D01*
X126679000Y-76781860D01*
X126679000Y-76750951D01*
X126676598Y-76726565D01*
X126669485Y-76703116D01*
X126657934Y-76681505D01*
X126642388Y-76662563D01*
X126623446Y-76647017D01*
X126601835Y-76635466D01*
X126566254Y-76626553D01*
X126525257Y-76622515D01*
X126497135Y-76613984D01*
X126471225Y-76600135D01*
X126448508Y-76581492D01*
X126429865Y-76558775D01*
X126416016Y-76532865D01*
X126407485Y-76504743D01*
X126404000Y-76469359D01*
X126404000Y-75930641D01*
X126407485Y-75895257D01*
X126416016Y-75867135D01*
X126429865Y-75841225D01*
X126448508Y-75818508D01*
X126471225Y-75799865D01*
X126497135Y-75786016D01*
X126525257Y-75777485D01*
X126566254Y-75773447D01*
X126590287Y-75768666D01*
X126612926Y-75759288D01*
X126633300Y-75745674D01*
X126650627Y-75728347D01*
X126664241Y-75707972D01*
X126673618Y-75685333D01*
X126679000Y-75649049D01*
X126679000Y-75618140D01*
X126688489Y-75521790D01*
X126714802Y-75435051D01*
X126757532Y-75355109D01*
X126815037Y-75285037D01*
X126885109Y-75227532D01*
X126965051Y-75184802D01*
X127051790Y-75158489D01*
X127148140Y-75149000D01*
X128311860Y-75149000D01*
X128408210Y-75158489D01*
X128408210Y-75158489D01*
G37*
G36*
X124408210Y-75158489D02*
X124494949Y-75184802D01*
X124574891Y-75227532D01*
X124644963Y-75285037D01*
X124702468Y-75355109D01*
X124745198Y-75435051D01*
X124771511Y-75521790D01*
X124781000Y-75618140D01*
X124781000Y-75649049D01*
X124783402Y-75673435D01*
X124790515Y-75696884D01*
X124802066Y-75718495D01*
X124817612Y-75737437D01*
X124836554Y-75752983D01*
X124858165Y-75764534D01*
X124893746Y-75773447D01*
X124934743Y-75777485D01*
X124962865Y-75786016D01*
X124988775Y-75799865D01*
X125011492Y-75818508D01*
X125030135Y-75841225D01*
X125043984Y-75867135D01*
X125052515Y-75895257D01*
X125056000Y-75930641D01*
X125056000Y-76469359D01*
X125052515Y-76504743D01*
X125043984Y-76532865D01*
X125030135Y-76558775D01*
X125011492Y-76581492D01*
X124988775Y-76600135D01*
X124962865Y-76613984D01*
X124934743Y-76622515D01*
X124893746Y-76626553D01*
X124869713Y-76631334D01*
X124847074Y-76640712D01*
X124826700Y-76654326D01*
X124809373Y-76671653D01*
X124795759Y-76692028D01*
X124786382Y-76714667D01*
X124781000Y-76750951D01*
X124781000Y-76781860D01*
X124771511Y-76878210D01*
X124745198Y-76964949D01*
X124702468Y-77044891D01*
X124644963Y-77114963D01*
X124574891Y-77172468D01*
X124494949Y-77215198D01*
X124408210Y-77241511D01*
X124311860Y-77251000D01*
X123148140Y-77251000D01*
X123051790Y-77241511D01*
X122965051Y-77215198D01*
X122885109Y-77172468D01*
X122815037Y-77114963D01*
X122783701Y-77076779D01*
X122766373Y-77059452D01*
X122745999Y-77045838D01*
X122723360Y-77036461D01*
X122699326Y-77031680D01*
X122674822Y-77031680D01*
X122650789Y-77036460D01*
X122628149Y-77045838D01*
X122581248Y-77070907D01*
X122508578Y-77092952D01*
X122426860Y-77101000D01*
X121413140Y-77101000D01*
X121331422Y-77092952D01*
X121258750Y-77070907D01*
X121191774Y-77035108D01*
X121133070Y-76986930D01*
X121084892Y-76928226D01*
X121049093Y-76861250D01*
X121027048Y-76788578D01*
X121019000Y-76706860D01*
X121019000Y-75693140D01*
X121027048Y-75611422D01*
X121049093Y-75538750D01*
X121084892Y-75471774D01*
X121133070Y-75413070D01*
X121191774Y-75364892D01*
X121258750Y-75329093D01*
X121331422Y-75307048D01*
X121413140Y-75299000D01*
X122426860Y-75299000D01*
X122508578Y-75307048D01*
X122581248Y-75329093D01*
X122628149Y-75354162D01*
X122650788Y-75363539D01*
X122674821Y-75368320D01*
X122699326Y-75368320D01*
X122723359Y-75363540D01*
X122745998Y-75354162D01*
X122766373Y-75340549D01*
X122783701Y-75323221D01*
X122815037Y-75285037D01*
X122885109Y-75227532D01*
X122965051Y-75184802D01*
X123051790Y-75158489D01*
X123148140Y-75149000D01*
X124311860Y-75149000D01*
X124408210Y-75158489D01*
X124408210Y-75158489D01*
G37*
G36*
X128408210Y-72618489D02*
X128494949Y-72644802D01*
X128574891Y-72687532D01*
X128644963Y-72745037D01*
X128676299Y-72783221D01*
X128693627Y-72800548D01*
X128714001Y-72814162D01*
X128736640Y-72823539D01*
X128760674Y-72828320D01*
X128785178Y-72828320D01*
X128809211Y-72823540D01*
X128831851Y-72814162D01*
X128878752Y-72789093D01*
X128951422Y-72767048D01*
X129033140Y-72759000D01*
X130046860Y-72759000D01*
X130128578Y-72767048D01*
X130201250Y-72789093D01*
X130268226Y-72824892D01*
X130326930Y-72873070D01*
X130375108Y-72931774D01*
X130410907Y-72998750D01*
X130432952Y-73071422D01*
X130441000Y-73153140D01*
X130441000Y-74166860D01*
X130432952Y-74248578D01*
X130410907Y-74321250D01*
X130375108Y-74388226D01*
X130326930Y-74446930D01*
X130268226Y-74495108D01*
X130201250Y-74530907D01*
X130128578Y-74552952D01*
X130046860Y-74561000D01*
X129033140Y-74561000D01*
X128951422Y-74552952D01*
X128878752Y-74530907D01*
X128831851Y-74505838D01*
X128809212Y-74496461D01*
X128785179Y-74491680D01*
X128760674Y-74491680D01*
X128736641Y-74496460D01*
X128714002Y-74505838D01*
X128693627Y-74519451D01*
X128676299Y-74536779D01*
X128644963Y-74574963D01*
X128574891Y-74632468D01*
X128494949Y-74675198D01*
X128408210Y-74701511D01*
X128311860Y-74711000D01*
X127148140Y-74711000D01*
X127051790Y-74701511D01*
X126965051Y-74675198D01*
X126885109Y-74632468D01*
X126815037Y-74574963D01*
X126757532Y-74504891D01*
X126714802Y-74424949D01*
X126688489Y-74338210D01*
X126679000Y-74241860D01*
X126679000Y-74210951D01*
X126676598Y-74186565D01*
X126669485Y-74163116D01*
X126657934Y-74141505D01*
X126642388Y-74122563D01*
X126623446Y-74107017D01*
X126601835Y-74095466D01*
X126566254Y-74086553D01*
X126525257Y-74082515D01*
X126497135Y-74073984D01*
X126471225Y-74060135D01*
X126448508Y-74041492D01*
X126429865Y-74018775D01*
X126416016Y-73992865D01*
X126407485Y-73964743D01*
X126404000Y-73929359D01*
X126404000Y-73390641D01*
X126407485Y-73355257D01*
X126416016Y-73327135D01*
X126429865Y-73301225D01*
X126448508Y-73278508D01*
X126471225Y-73259865D01*
X126497135Y-73246016D01*
X126525257Y-73237485D01*
X126566254Y-73233447D01*
X126590287Y-73228666D01*
X126612926Y-73219288D01*
X126633300Y-73205674D01*
X126650627Y-73188347D01*
X126664241Y-73167972D01*
X126673618Y-73145333D01*
X126679000Y-73109049D01*
X126679000Y-73078140D01*
X126688489Y-72981790D01*
X126714802Y-72895051D01*
X126757532Y-72815109D01*
X126815037Y-72745037D01*
X126885109Y-72687532D01*
X126965051Y-72644802D01*
X127051790Y-72618489D01*
X127148140Y-72609000D01*
X128311860Y-72609000D01*
X128408210Y-72618489D01*
X128408210Y-72618489D01*
G37*
G36*
X124408210Y-72618489D02*
X124494949Y-72644802D01*
X124574891Y-72687532D01*
X124644963Y-72745037D01*
X124702468Y-72815109D01*
X124745198Y-72895051D01*
X124771511Y-72981790D01*
X124781000Y-73078140D01*
X124781000Y-73109049D01*
X124783402Y-73133435D01*
X124790515Y-73156884D01*
X124802066Y-73178495D01*
X124817612Y-73197437D01*
X124836554Y-73212983D01*
X124858165Y-73224534D01*
X124893746Y-73233447D01*
X124934743Y-73237485D01*
X124962865Y-73246016D01*
X124988775Y-73259865D01*
X125011492Y-73278508D01*
X125030135Y-73301225D01*
X125043984Y-73327135D01*
X125052515Y-73355257D01*
X125056000Y-73390641D01*
X125056000Y-73929359D01*
X125052515Y-73964743D01*
X125043984Y-73992865D01*
X125030135Y-74018775D01*
X125011492Y-74041492D01*
X124988775Y-74060135D01*
X124962865Y-74073984D01*
X124934743Y-74082515D01*
X124893746Y-74086553D01*
X124869713Y-74091334D01*
X124847074Y-74100712D01*
X124826700Y-74114326D01*
X124809373Y-74131653D01*
X124795759Y-74152028D01*
X124786382Y-74174667D01*
X124781000Y-74210951D01*
X124781000Y-74241860D01*
X124771511Y-74338210D01*
X124745198Y-74424949D01*
X124702468Y-74504891D01*
X124644963Y-74574963D01*
X124574891Y-74632468D01*
X124494949Y-74675198D01*
X124408210Y-74701511D01*
X124311860Y-74711000D01*
X123148140Y-74711000D01*
X123051790Y-74701511D01*
X122965051Y-74675198D01*
X122885109Y-74632468D01*
X122815037Y-74574963D01*
X122783701Y-74536779D01*
X122766373Y-74519452D01*
X122745999Y-74505838D01*
X122723360Y-74496461D01*
X122699326Y-74491680D01*
X122674822Y-74491680D01*
X122650789Y-74496460D01*
X122628149Y-74505838D01*
X122581248Y-74530907D01*
X122508578Y-74552952D01*
X122426860Y-74561000D01*
X121413140Y-74561000D01*
X121331422Y-74552952D01*
X121258750Y-74530907D01*
X121191774Y-74495108D01*
X121133070Y-74446930D01*
X121084892Y-74388226D01*
X121049093Y-74321250D01*
X121027048Y-74248578D01*
X121019000Y-74166860D01*
X121019000Y-73153140D01*
X121027048Y-73071422D01*
X121049093Y-72998750D01*
X121084892Y-72931774D01*
X121133070Y-72873070D01*
X121191774Y-72824892D01*
X121258750Y-72789093D01*
X121331422Y-72767048D01*
X121413140Y-72759000D01*
X122426860Y-72759000D01*
X122508578Y-72767048D01*
X122581248Y-72789093D01*
X122628149Y-72814162D01*
X122650788Y-72823539D01*
X122674821Y-72828320D01*
X122699326Y-72828320D01*
X122723359Y-72823540D01*
X122745998Y-72814162D01*
X122766373Y-72800549D01*
X122783701Y-72783221D01*
X122815037Y-72745037D01*
X122885109Y-72687532D01*
X122965051Y-72644802D01*
X123051790Y-72618489D01*
X123148140Y-72609000D01*
X124311860Y-72609000D01*
X124408210Y-72618489D01*
X124408210Y-72618489D01*
G37*
G36*
X124408210Y-70078489D02*
X124494949Y-70104802D01*
X124574891Y-70147532D01*
X124644963Y-70205037D01*
X124702468Y-70275109D01*
X124745198Y-70355051D01*
X124771511Y-70441790D01*
X124781000Y-70538140D01*
X124781000Y-70569049D01*
X124783402Y-70593435D01*
X124790515Y-70616884D01*
X124802066Y-70638495D01*
X124817612Y-70657437D01*
X124836554Y-70672983D01*
X124858165Y-70684534D01*
X124893746Y-70693447D01*
X124934743Y-70697485D01*
X124962865Y-70706016D01*
X124988775Y-70719865D01*
X125011492Y-70738508D01*
X125030135Y-70761225D01*
X125043984Y-70787135D01*
X125052515Y-70815257D01*
X125056000Y-70850641D01*
X125056000Y-71389359D01*
X125052515Y-71424743D01*
X125043984Y-71452865D01*
X125030135Y-71478775D01*
X125011492Y-71501492D01*
X124988775Y-71520135D01*
X124962865Y-71533984D01*
X124934743Y-71542515D01*
X124893746Y-71546553D01*
X124869713Y-71551334D01*
X124847074Y-71560712D01*
X124826700Y-71574326D01*
X124809373Y-71591653D01*
X124795759Y-71612028D01*
X124786382Y-71634667D01*
X124781000Y-71670951D01*
X124781000Y-71701860D01*
X124771511Y-71798210D01*
X124745198Y-71884949D01*
X124702468Y-71964891D01*
X124644963Y-72034963D01*
X124574891Y-72092468D01*
X124494949Y-72135198D01*
X124408210Y-72161511D01*
X124311860Y-72171000D01*
X123148140Y-72171000D01*
X123051790Y-72161511D01*
X122965051Y-72135198D01*
X122885109Y-72092468D01*
X122815037Y-72034963D01*
X122783701Y-71996779D01*
X122766373Y-71979452D01*
X122745999Y-71965838D01*
X122723360Y-71956461D01*
X122699326Y-71951680D01*
X122674822Y-71951680D01*
X122650789Y-71956460D01*
X122628149Y-71965838D01*
X122581248Y-71990907D01*
X122508578Y-72012952D01*
X122426860Y-72021000D01*
X121413140Y-72021000D01*
X121331422Y-72012952D01*
X121258750Y-71990907D01*
X121191774Y-71955108D01*
X121133070Y-71906930D01*
X121084892Y-71848226D01*
X121049093Y-71781250D01*
X121027048Y-71708578D01*
X121019000Y-71626860D01*
X121019000Y-70613140D01*
X121027048Y-70531422D01*
X121049093Y-70458750D01*
X121084892Y-70391774D01*
X121133070Y-70333070D01*
X121191774Y-70284892D01*
X121258750Y-70249093D01*
X121331422Y-70227048D01*
X121413140Y-70219000D01*
X122426860Y-70219000D01*
X122508578Y-70227048D01*
X122581248Y-70249093D01*
X122628149Y-70274162D01*
X122650788Y-70283539D01*
X122674821Y-70288320D01*
X122699326Y-70288320D01*
X122723359Y-70283540D01*
X122745998Y-70274162D01*
X122766373Y-70260549D01*
X122783701Y-70243221D01*
X122815037Y-70205037D01*
X122885109Y-70147532D01*
X122965051Y-70104802D01*
X123051790Y-70078489D01*
X123148140Y-70069000D01*
X124311860Y-70069000D01*
X124408210Y-70078489D01*
X124408210Y-70078489D01*
G37*
G36*
X128408210Y-70078489D02*
X128494949Y-70104802D01*
X128574891Y-70147532D01*
X128644963Y-70205037D01*
X128676299Y-70243221D01*
X128693627Y-70260548D01*
X128714001Y-70274162D01*
X128736640Y-70283539D01*
X128760674Y-70288320D01*
X128785178Y-70288320D01*
X128809211Y-70283540D01*
X128831851Y-70274162D01*
X128878752Y-70249093D01*
X128951422Y-70227048D01*
X129033140Y-70219000D01*
X130046860Y-70219000D01*
X130128578Y-70227048D01*
X130201250Y-70249093D01*
X130268226Y-70284892D01*
X130326930Y-70333070D01*
X130375108Y-70391774D01*
X130410907Y-70458750D01*
X130432952Y-70531422D01*
X130441000Y-70613140D01*
X130441000Y-71626860D01*
X130432952Y-71708578D01*
X130410907Y-71781250D01*
X130375108Y-71848226D01*
X130326930Y-71906930D01*
X130268226Y-71955108D01*
X130201250Y-71990907D01*
X130128578Y-72012952D01*
X130046860Y-72021000D01*
X129033140Y-72021000D01*
X128951422Y-72012952D01*
X128878752Y-71990907D01*
X128831851Y-71965838D01*
X128809212Y-71956461D01*
X128785179Y-71951680D01*
X128760674Y-71951680D01*
X128736641Y-71956460D01*
X128714002Y-71965838D01*
X128693627Y-71979451D01*
X128676299Y-71996779D01*
X128644963Y-72034963D01*
X128574891Y-72092468D01*
X128494949Y-72135198D01*
X128408210Y-72161511D01*
X128311860Y-72171000D01*
X127148140Y-72171000D01*
X127051790Y-72161511D01*
X126965051Y-72135198D01*
X126885109Y-72092468D01*
X126815037Y-72034963D01*
X126757532Y-71964891D01*
X126714802Y-71884949D01*
X126688489Y-71798210D01*
X126679000Y-71701860D01*
X126679000Y-71670951D01*
X126676598Y-71646565D01*
X126669485Y-71623116D01*
X126657934Y-71601505D01*
X126642388Y-71582563D01*
X126623446Y-71567017D01*
X126601835Y-71555466D01*
X126566254Y-71546553D01*
X126525257Y-71542515D01*
X126497135Y-71533984D01*
X126471225Y-71520135D01*
X126448508Y-71501492D01*
X126429865Y-71478775D01*
X126416016Y-71452865D01*
X126407485Y-71424743D01*
X126404000Y-71389359D01*
X126404000Y-70850641D01*
X126407485Y-70815257D01*
X126416016Y-70787135D01*
X126429865Y-70761225D01*
X126448508Y-70738508D01*
X126471225Y-70719865D01*
X126497135Y-70706016D01*
X126525257Y-70697485D01*
X126566254Y-70693447D01*
X126590287Y-70688666D01*
X126612926Y-70679288D01*
X126633300Y-70665674D01*
X126650627Y-70648347D01*
X126664241Y-70627972D01*
X126673618Y-70605333D01*
X126679000Y-70569049D01*
X126679000Y-70538140D01*
X126688489Y-70441790D01*
X126714802Y-70355051D01*
X126757532Y-70275109D01*
X126815037Y-70205037D01*
X126885109Y-70147532D01*
X126965051Y-70104802D01*
X127051790Y-70078489D01*
X127148140Y-70069000D01*
X128311860Y-70069000D01*
X128408210Y-70078489D01*
X128408210Y-70078489D01*
G37*
G36*
X128408210Y-67538489D02*
X128494949Y-67564802D01*
X128574891Y-67607532D01*
X128644963Y-67665037D01*
X128676299Y-67703221D01*
X128693627Y-67720548D01*
X128714001Y-67734162D01*
X128736640Y-67743539D01*
X128760674Y-67748320D01*
X128785178Y-67748320D01*
X128809211Y-67743540D01*
X128831851Y-67734162D01*
X128878752Y-67709093D01*
X128951422Y-67687048D01*
X129033140Y-67679000D01*
X130046860Y-67679000D01*
X130128578Y-67687048D01*
X130201250Y-67709093D01*
X130268226Y-67744892D01*
X130326930Y-67793070D01*
X130375108Y-67851774D01*
X130410907Y-67918750D01*
X130432952Y-67991422D01*
X130441000Y-68073140D01*
X130441000Y-69086860D01*
X130432952Y-69168578D01*
X130410907Y-69241250D01*
X130375108Y-69308226D01*
X130326930Y-69366930D01*
X130268226Y-69415108D01*
X130201250Y-69450907D01*
X130128578Y-69472952D01*
X130046860Y-69481000D01*
X129033140Y-69481000D01*
X128951422Y-69472952D01*
X128878752Y-69450907D01*
X128831851Y-69425838D01*
X128809212Y-69416461D01*
X128785179Y-69411680D01*
X128760674Y-69411680D01*
X128736641Y-69416460D01*
X128714002Y-69425838D01*
X128693627Y-69439451D01*
X128676299Y-69456779D01*
X128644963Y-69494963D01*
X128574891Y-69552468D01*
X128494949Y-69595198D01*
X128408210Y-69621511D01*
X128311860Y-69631000D01*
X127148140Y-69631000D01*
X127051790Y-69621511D01*
X126965051Y-69595198D01*
X126885109Y-69552468D01*
X126815037Y-69494963D01*
X126757532Y-69424891D01*
X126714802Y-69344949D01*
X126688489Y-69258210D01*
X126679000Y-69161860D01*
X126679000Y-69130951D01*
X126676598Y-69106565D01*
X126669485Y-69083116D01*
X126657934Y-69061505D01*
X126642388Y-69042563D01*
X126623446Y-69027017D01*
X126601835Y-69015466D01*
X126566254Y-69006553D01*
X126525257Y-69002515D01*
X126497135Y-68993984D01*
X126471225Y-68980135D01*
X126448508Y-68961492D01*
X126429865Y-68938775D01*
X126416016Y-68912865D01*
X126407485Y-68884743D01*
X126404000Y-68849359D01*
X126404000Y-68310641D01*
X126407485Y-68275257D01*
X126416016Y-68247135D01*
X126429865Y-68221225D01*
X126448508Y-68198508D01*
X126471225Y-68179865D01*
X126497135Y-68166016D01*
X126525257Y-68157485D01*
X126566254Y-68153447D01*
X126590287Y-68148666D01*
X126612926Y-68139288D01*
X126633300Y-68125674D01*
X126650627Y-68108347D01*
X126664241Y-68087972D01*
X126673618Y-68065333D01*
X126679000Y-68029049D01*
X126679000Y-67998140D01*
X126688489Y-67901790D01*
X126714802Y-67815051D01*
X126757532Y-67735109D01*
X126815037Y-67665037D01*
X126885109Y-67607532D01*
X126965051Y-67564802D01*
X127051790Y-67538489D01*
X127148140Y-67529000D01*
X128311860Y-67529000D01*
X128408210Y-67538489D01*
X128408210Y-67538489D01*
G37*
G36*
X124408210Y-67538489D02*
X124494949Y-67564802D01*
X124574891Y-67607532D01*
X124644963Y-67665037D01*
X124702468Y-67735109D01*
X124745198Y-67815051D01*
X124771511Y-67901790D01*
X124781000Y-67998140D01*
X124781000Y-68029049D01*
X124783402Y-68053435D01*
X124790515Y-68076884D01*
X124802066Y-68098495D01*
X124817612Y-68117437D01*
X124836554Y-68132983D01*
X124858165Y-68144534D01*
X124893746Y-68153447D01*
X124934743Y-68157485D01*
X124962865Y-68166016D01*
X124988775Y-68179865D01*
X125011492Y-68198508D01*
X125030135Y-68221225D01*
X125043984Y-68247135D01*
X125052515Y-68275257D01*
X125056000Y-68310641D01*
X125056000Y-68849359D01*
X125052515Y-68884743D01*
X125043984Y-68912865D01*
X125030135Y-68938775D01*
X125011492Y-68961492D01*
X124988775Y-68980135D01*
X124962865Y-68993984D01*
X124934743Y-69002515D01*
X124893746Y-69006553D01*
X124869713Y-69011334D01*
X124847074Y-69020712D01*
X124826700Y-69034326D01*
X124809373Y-69051653D01*
X124795759Y-69072028D01*
X124786382Y-69094667D01*
X124781000Y-69130951D01*
X124781000Y-69161860D01*
X124771511Y-69258210D01*
X124745198Y-69344949D01*
X124702468Y-69424891D01*
X124644963Y-69494963D01*
X124574891Y-69552468D01*
X124494949Y-69595198D01*
X124408210Y-69621511D01*
X124311860Y-69631000D01*
X123148140Y-69631000D01*
X123051790Y-69621511D01*
X122965051Y-69595198D01*
X122885109Y-69552468D01*
X122815037Y-69494963D01*
X122783701Y-69456779D01*
X122766373Y-69439452D01*
X122745999Y-69425838D01*
X122723360Y-69416461D01*
X122699326Y-69411680D01*
X122674822Y-69411680D01*
X122650789Y-69416460D01*
X122628149Y-69425838D01*
X122581248Y-69450907D01*
X122508578Y-69472952D01*
X122426860Y-69481000D01*
X121413140Y-69481000D01*
X121331422Y-69472952D01*
X121258750Y-69450907D01*
X121191774Y-69415108D01*
X121133070Y-69366930D01*
X121084892Y-69308226D01*
X121049093Y-69241250D01*
X121027048Y-69168578D01*
X121019000Y-69086860D01*
X121019000Y-68073140D01*
X121027048Y-67991422D01*
X121049093Y-67918750D01*
X121084892Y-67851774D01*
X121133070Y-67793070D01*
X121191774Y-67744892D01*
X121258750Y-67709093D01*
X121331422Y-67687048D01*
X121413140Y-67679000D01*
X122426860Y-67679000D01*
X122508578Y-67687048D01*
X122581248Y-67709093D01*
X122628149Y-67734162D01*
X122650788Y-67743539D01*
X122674821Y-67748320D01*
X122699326Y-67748320D01*
X122723359Y-67743540D01*
X122745998Y-67734162D01*
X122766373Y-67720549D01*
X122783701Y-67703221D01*
X122815037Y-67665037D01*
X122885109Y-67607532D01*
X122965051Y-67564802D01*
X123051790Y-67538489D01*
X123148140Y-67529000D01*
X124311860Y-67529000D01*
X124408210Y-67538489D01*
X124408210Y-67538489D01*
G37*
G36*
X128408210Y-64998489D02*
X128494949Y-65024802D01*
X128574891Y-65067532D01*
X128644963Y-65125037D01*
X128676299Y-65163221D01*
X128693627Y-65180548D01*
X128714001Y-65194162D01*
X128736640Y-65203539D01*
X128760674Y-65208320D01*
X128785178Y-65208320D01*
X128809211Y-65203540D01*
X128831851Y-65194162D01*
X128878752Y-65169093D01*
X128951422Y-65147048D01*
X129033140Y-65139000D01*
X130046860Y-65139000D01*
X130128578Y-65147048D01*
X130201250Y-65169093D01*
X130268226Y-65204892D01*
X130326930Y-65253070D01*
X130375108Y-65311774D01*
X130410907Y-65378750D01*
X130432952Y-65451422D01*
X130441000Y-65533140D01*
X130441000Y-66546860D01*
X130432952Y-66628578D01*
X130410907Y-66701250D01*
X130375108Y-66768226D01*
X130326930Y-66826930D01*
X130268226Y-66875108D01*
X130201250Y-66910907D01*
X130128578Y-66932952D01*
X130046860Y-66941000D01*
X129033140Y-66941000D01*
X128951422Y-66932952D01*
X128878752Y-66910907D01*
X128831851Y-66885838D01*
X128809212Y-66876461D01*
X128785179Y-66871680D01*
X128760674Y-66871680D01*
X128736641Y-66876460D01*
X128714002Y-66885838D01*
X128693627Y-66899451D01*
X128676299Y-66916779D01*
X128644963Y-66954963D01*
X128574891Y-67012468D01*
X128494949Y-67055198D01*
X128408210Y-67081511D01*
X128311860Y-67091000D01*
X127148140Y-67091000D01*
X127051790Y-67081511D01*
X126965051Y-67055198D01*
X126885109Y-67012468D01*
X126815037Y-66954963D01*
X126757532Y-66884891D01*
X126714802Y-66804949D01*
X126688489Y-66718210D01*
X126679000Y-66621860D01*
X126679000Y-66590951D01*
X126676598Y-66566565D01*
X126669485Y-66543116D01*
X126657934Y-66521505D01*
X126642388Y-66502563D01*
X126623446Y-66487017D01*
X126601835Y-66475466D01*
X126566254Y-66466553D01*
X126525257Y-66462515D01*
X126497135Y-66453984D01*
X126471225Y-66440135D01*
X126448508Y-66421492D01*
X126429865Y-66398775D01*
X126416016Y-66372865D01*
X126407485Y-66344743D01*
X126404000Y-66309359D01*
X126404000Y-65770641D01*
X126407485Y-65735257D01*
X126416016Y-65707135D01*
X126429865Y-65681225D01*
X126448508Y-65658508D01*
X126471225Y-65639865D01*
X126497135Y-65626016D01*
X126525257Y-65617485D01*
X126566254Y-65613447D01*
X126590287Y-65608666D01*
X126612926Y-65599288D01*
X126633300Y-65585674D01*
X126650627Y-65568347D01*
X126664241Y-65547972D01*
X126673618Y-65525333D01*
X126679000Y-65489049D01*
X126679000Y-65458140D01*
X126688489Y-65361790D01*
X126714802Y-65275051D01*
X126757532Y-65195109D01*
X126815037Y-65125037D01*
X126885109Y-65067532D01*
X126965051Y-65024802D01*
X127051790Y-64998489D01*
X127148140Y-64989000D01*
X128311860Y-64989000D01*
X128408210Y-64998489D01*
X128408210Y-64998489D01*
G37*
G36*
X124408210Y-64998489D02*
X124494949Y-65024802D01*
X124574891Y-65067532D01*
X124644963Y-65125037D01*
X124702468Y-65195109D01*
X124745198Y-65275051D01*
X124771511Y-65361790D01*
X124781000Y-65458140D01*
X124781000Y-65489049D01*
X124783402Y-65513435D01*
X124790515Y-65536884D01*
X124802066Y-65558495D01*
X124817612Y-65577437D01*
X124836554Y-65592983D01*
X124858165Y-65604534D01*
X124893746Y-65613447D01*
X124934743Y-65617485D01*
X124962865Y-65626016D01*
X124988775Y-65639865D01*
X125011492Y-65658508D01*
X125030135Y-65681225D01*
X125043984Y-65707135D01*
X125052515Y-65735257D01*
X125056000Y-65770641D01*
X125056000Y-66309359D01*
X125052515Y-66344743D01*
X125043984Y-66372865D01*
X125030135Y-66398775D01*
X125011492Y-66421492D01*
X124988775Y-66440135D01*
X124962865Y-66453984D01*
X124934743Y-66462515D01*
X124893746Y-66466553D01*
X124869713Y-66471334D01*
X124847074Y-66480712D01*
X124826700Y-66494326D01*
X124809373Y-66511653D01*
X124795759Y-66532028D01*
X124786382Y-66554667D01*
X124781000Y-66590951D01*
X124781000Y-66621860D01*
X124771511Y-66718210D01*
X124745198Y-66804949D01*
X124702468Y-66884891D01*
X124644963Y-66954963D01*
X124574891Y-67012468D01*
X124494949Y-67055198D01*
X124408210Y-67081511D01*
X124311860Y-67091000D01*
X123148140Y-67091000D01*
X123051790Y-67081511D01*
X122965051Y-67055198D01*
X122885109Y-67012468D01*
X122815037Y-66954963D01*
X122783701Y-66916779D01*
X122766373Y-66899452D01*
X122745999Y-66885838D01*
X122723360Y-66876461D01*
X122699326Y-66871680D01*
X122674822Y-66871680D01*
X122650789Y-66876460D01*
X122628149Y-66885838D01*
X122581248Y-66910907D01*
X122508578Y-66932952D01*
X122426860Y-66941000D01*
X121413140Y-66941000D01*
X121331422Y-66932952D01*
X121258750Y-66910907D01*
X121191774Y-66875108D01*
X121133070Y-66826930D01*
X121084892Y-66768226D01*
X121049093Y-66701250D01*
X121027048Y-66628578D01*
X121019000Y-66546860D01*
X121019000Y-65533140D01*
X121027048Y-65451422D01*
X121049093Y-65378750D01*
X121084892Y-65311774D01*
X121133070Y-65253070D01*
X121191774Y-65204892D01*
X121258750Y-65169093D01*
X121331422Y-65147048D01*
X121413140Y-65139000D01*
X122426860Y-65139000D01*
X122508578Y-65147048D01*
X122581248Y-65169093D01*
X122628149Y-65194162D01*
X122650788Y-65203539D01*
X122674821Y-65208320D01*
X122699326Y-65208320D01*
X122723359Y-65203540D01*
X122745998Y-65194162D01*
X122766373Y-65180549D01*
X122783701Y-65163221D01*
X122815037Y-65125037D01*
X122885109Y-65067532D01*
X122965051Y-65024802D01*
X123051790Y-64998489D01*
X123148140Y-64989000D01*
X124311860Y-64989000D01*
X124408210Y-64998489D01*
X124408210Y-64998489D01*
G37*
G36*
X128408210Y-62458489D02*
X128494949Y-62484802D01*
X128574891Y-62527532D01*
X128644963Y-62585037D01*
X128676299Y-62623221D01*
X128693627Y-62640548D01*
X128714001Y-62654162D01*
X128736640Y-62663539D01*
X128760674Y-62668320D01*
X128785178Y-62668320D01*
X128809211Y-62663540D01*
X128831851Y-62654162D01*
X128878752Y-62629093D01*
X128951422Y-62607048D01*
X129033140Y-62599000D01*
X130046860Y-62599000D01*
X130128578Y-62607048D01*
X130201250Y-62629093D01*
X130268226Y-62664892D01*
X130326930Y-62713070D01*
X130375108Y-62771774D01*
X130410907Y-62838750D01*
X130432952Y-62911422D01*
X130441000Y-62993140D01*
X130441000Y-64006860D01*
X130432952Y-64088578D01*
X130410907Y-64161250D01*
X130375108Y-64228226D01*
X130326930Y-64286930D01*
X130268226Y-64335108D01*
X130201250Y-64370907D01*
X130128578Y-64392952D01*
X130046860Y-64401000D01*
X129033140Y-64401000D01*
X128951422Y-64392952D01*
X128878752Y-64370907D01*
X128831851Y-64345838D01*
X128809212Y-64336461D01*
X128785179Y-64331680D01*
X128760674Y-64331680D01*
X128736641Y-64336460D01*
X128714002Y-64345838D01*
X128693627Y-64359451D01*
X128676299Y-64376779D01*
X128644963Y-64414963D01*
X128574891Y-64472468D01*
X128494949Y-64515198D01*
X128408210Y-64541511D01*
X128311860Y-64551000D01*
X127148140Y-64551000D01*
X127051790Y-64541511D01*
X126965051Y-64515198D01*
X126885109Y-64472468D01*
X126815037Y-64414963D01*
X126757532Y-64344891D01*
X126714802Y-64264949D01*
X126688489Y-64178210D01*
X126679000Y-64081860D01*
X126679000Y-64050951D01*
X126676598Y-64026565D01*
X126669485Y-64003116D01*
X126657934Y-63981505D01*
X126642388Y-63962563D01*
X126623446Y-63947017D01*
X126601835Y-63935466D01*
X126566254Y-63926553D01*
X126525257Y-63922515D01*
X126497135Y-63913984D01*
X126471225Y-63900135D01*
X126448508Y-63881492D01*
X126429865Y-63858775D01*
X126416016Y-63832865D01*
X126407485Y-63804743D01*
X126404000Y-63769359D01*
X126404000Y-63230641D01*
X126407485Y-63195257D01*
X126416016Y-63167135D01*
X126429865Y-63141225D01*
X126448508Y-63118508D01*
X126471225Y-63099865D01*
X126497135Y-63086016D01*
X126525257Y-63077485D01*
X126566254Y-63073447D01*
X126590287Y-63068666D01*
X126612926Y-63059288D01*
X126633300Y-63045674D01*
X126650627Y-63028347D01*
X126664241Y-63007972D01*
X126673618Y-62985333D01*
X126679000Y-62949049D01*
X126679000Y-62918140D01*
X126688489Y-62821790D01*
X126714802Y-62735051D01*
X126757532Y-62655109D01*
X126815037Y-62585037D01*
X126885109Y-62527532D01*
X126965051Y-62484802D01*
X127051790Y-62458489D01*
X127148140Y-62449000D01*
X128311860Y-62449000D01*
X128408210Y-62458489D01*
X128408210Y-62458489D01*
G37*
G36*
X124408210Y-62458489D02*
X124494949Y-62484802D01*
X124574891Y-62527532D01*
X124644963Y-62585037D01*
X124702468Y-62655109D01*
X124745198Y-62735051D01*
X124771511Y-62821790D01*
X124781000Y-62918140D01*
X124781000Y-62949049D01*
X124783402Y-62973435D01*
X124790515Y-62996884D01*
X124802066Y-63018495D01*
X124817612Y-63037437D01*
X124836554Y-63052983D01*
X124858165Y-63064534D01*
X124893746Y-63073447D01*
X124934743Y-63077485D01*
X124962865Y-63086016D01*
X124988775Y-63099865D01*
X125011492Y-63118508D01*
X125030135Y-63141225D01*
X125043984Y-63167135D01*
X125052515Y-63195257D01*
X125056000Y-63230641D01*
X125056000Y-63769359D01*
X125052515Y-63804743D01*
X125043984Y-63832865D01*
X125030135Y-63858775D01*
X125011492Y-63881492D01*
X124988775Y-63900135D01*
X124962865Y-63913984D01*
X124934743Y-63922515D01*
X124893746Y-63926553D01*
X124869713Y-63931334D01*
X124847074Y-63940712D01*
X124826700Y-63954326D01*
X124809373Y-63971653D01*
X124795759Y-63992028D01*
X124786382Y-64014667D01*
X124781000Y-64050951D01*
X124781000Y-64081860D01*
X124771511Y-64178210D01*
X124745198Y-64264949D01*
X124702468Y-64344891D01*
X124644963Y-64414963D01*
X124574891Y-64472468D01*
X124494949Y-64515198D01*
X124408210Y-64541511D01*
X124311860Y-64551000D01*
X123148140Y-64551000D01*
X123051790Y-64541511D01*
X122965051Y-64515198D01*
X122885109Y-64472468D01*
X122815037Y-64414963D01*
X122783701Y-64376779D01*
X122766373Y-64359452D01*
X122745999Y-64345838D01*
X122723360Y-64336461D01*
X122699326Y-64331680D01*
X122674822Y-64331680D01*
X122650789Y-64336460D01*
X122628149Y-64345838D01*
X122581248Y-64370907D01*
X122508578Y-64392952D01*
X122426860Y-64401000D01*
X121413140Y-64401000D01*
X121331422Y-64392952D01*
X121258750Y-64370907D01*
X121191774Y-64335108D01*
X121133070Y-64286930D01*
X121084892Y-64228226D01*
X121049093Y-64161250D01*
X121027048Y-64088578D01*
X121019000Y-64006860D01*
X121019000Y-62993140D01*
X121027048Y-62911422D01*
X121049093Y-62838750D01*
X121084892Y-62771774D01*
X121133070Y-62713070D01*
X121191774Y-62664892D01*
X121258750Y-62629093D01*
X121331422Y-62607048D01*
X121413140Y-62599000D01*
X122426860Y-62599000D01*
X122508578Y-62607048D01*
X122581248Y-62629093D01*
X122628149Y-62654162D01*
X122650788Y-62663539D01*
X122674821Y-62668320D01*
X122699326Y-62668320D01*
X122723359Y-62663540D01*
X122745998Y-62654162D01*
X122766373Y-62640549D01*
X122783701Y-62623221D01*
X122815037Y-62585037D01*
X122885109Y-62527532D01*
X122965051Y-62484802D01*
X123051790Y-62458489D01*
X123148140Y-62449000D01*
X124311860Y-62449000D01*
X124408210Y-62458489D01*
X124408210Y-62458489D01*
G37*
M02*
