%TF.GenerationSoftware,KiCad,Pcbnew,(5.0.2)-1*%
%TF.CreationDate,2019-01-03T02:31:24+01:00*%
%TF.ProjectId,Passives-1206-0805-0603,50617373-6976-4657-932d-313230362d30,rev?*%
%TF.SameCoordinates,Original*%
%TF.FileFunction,Soldermask,Top*%
%TF.FilePolarity,Negative*%
%FSLAX46Y46*%
G04 Gerber Fmt 4.6, Leading zero omitted, Abs format (unit mm)*
G04 Created by KiCad (PCBNEW (5.0.2)-1) date 1/3/2019 2:31:24 AM*
%MOMM*%
%LPD*%
G01*
G04 APERTURE LIST*
%ADD10C,0.150000*%
%ADD11C,0.050000*%
G04 APERTURE END LIST*
D10*
X130683000Y-81788000D02*
X130683000Y-62992000D01*
X121412000Y-82423000D02*
X130048000Y-82423000D01*
X120777000Y-62992000D02*
X120777000Y-81788000D01*
X130048000Y-62357000D02*
X121412000Y-62357000D01*
X130048000Y-62357000D02*
G75*
G02X130683000Y-62992000I0J-635000D01*
G01*
X130683000Y-81788000D02*
G75*
G02X130048000Y-82423000I-635000J0D01*
G01*
X121412000Y-82423000D02*
G75*
G02X120777000Y-81788000I0J635000D01*
G01*
X120777000Y-62992000D02*
G75*
G02X121412000Y-62357000I635000J0D01*
G01*
D11*
G36*
X127648604Y-80358347D02*
X127685145Y-80369432D01*
X127718820Y-80387431D01*
X127748341Y-80411659D01*
X127772569Y-80441180D01*
X127790568Y-80474855D01*
X127801653Y-80511396D01*
X127806000Y-80555538D01*
X127806000Y-82004462D01*
X127801653Y-82048604D01*
X127790568Y-82085145D01*
X127772569Y-82118820D01*
X127748341Y-82148341D01*
X127718820Y-82172569D01*
X127685145Y-82190568D01*
X127648604Y-82201653D01*
X127604462Y-82206000D01*
X126655538Y-82206000D01*
X126611396Y-82201653D01*
X126574855Y-82190568D01*
X126541180Y-82172569D01*
X126511659Y-82148341D01*
X126487433Y-82118821D01*
X126475809Y-82097075D01*
X126462195Y-82076700D01*
X126444868Y-82059373D01*
X126424493Y-82045759D01*
X126401854Y-82036382D01*
X126365569Y-82031000D01*
X126341888Y-82031000D01*
X126295534Y-82026435D01*
X126256863Y-82014704D01*
X126221221Y-81995652D01*
X126189983Y-81970017D01*
X126164348Y-81938779D01*
X126145296Y-81903137D01*
X126133565Y-81864466D01*
X126131102Y-81839456D01*
X126126322Y-81815423D01*
X126116944Y-81792784D01*
X126103330Y-81772409D01*
X126086003Y-81755081D01*
X126082661Y-81752339D01*
X126060131Y-81724885D01*
X126054080Y-81713564D01*
X126040466Y-81693189D01*
X126023139Y-81675862D01*
X126002765Y-81662248D01*
X125980126Y-81652871D01*
X125959955Y-81648858D01*
X125937444Y-81642030D01*
X125918444Y-81631874D01*
X125901792Y-81618208D01*
X125888126Y-81601556D01*
X125877970Y-81582556D01*
X125871716Y-81561938D01*
X125869000Y-81534360D01*
X125869000Y-81025640D01*
X125871716Y-80998062D01*
X125877970Y-80977444D01*
X125888126Y-80958444D01*
X125901792Y-80941792D01*
X125918444Y-80928126D01*
X125937444Y-80917970D01*
X125959954Y-80911142D01*
X125980127Y-80907129D01*
X126002766Y-80897752D01*
X126023140Y-80884137D01*
X126040467Y-80866810D01*
X126054080Y-80846436D01*
X126060131Y-80835115D01*
X126082661Y-80807661D01*
X126086003Y-80804919D01*
X126103330Y-80787592D01*
X126116944Y-80767217D01*
X126126321Y-80744578D01*
X126131102Y-80720544D01*
X126133565Y-80695534D01*
X126145296Y-80656863D01*
X126164348Y-80621221D01*
X126189983Y-80589983D01*
X126221221Y-80564348D01*
X126256863Y-80545296D01*
X126295534Y-80533565D01*
X126341888Y-80529000D01*
X126365569Y-80529000D01*
X126389955Y-80526598D01*
X126413404Y-80519485D01*
X126435015Y-80507934D01*
X126453957Y-80492388D01*
X126475809Y-80462925D01*
X126487433Y-80441179D01*
X126511659Y-80411659D01*
X126541180Y-80387431D01*
X126574855Y-80369432D01*
X126611396Y-80358347D01*
X126655538Y-80354000D01*
X127604462Y-80354000D01*
X127648604Y-80358347D01*
X127648604Y-80358347D01*
G37*
G36*
X124848604Y-80358347D02*
X124885145Y-80369432D01*
X124918820Y-80387431D01*
X124948341Y-80411659D01*
X124972567Y-80441179D01*
X124984191Y-80462925D01*
X124997805Y-80483300D01*
X125015132Y-80500627D01*
X125035507Y-80514241D01*
X125058146Y-80523618D01*
X125094431Y-80529000D01*
X125118112Y-80529000D01*
X125164466Y-80533565D01*
X125203137Y-80545296D01*
X125238779Y-80564348D01*
X125270017Y-80589983D01*
X125295652Y-80621221D01*
X125314704Y-80656863D01*
X125326435Y-80695534D01*
X125328898Y-80720544D01*
X125333678Y-80744577D01*
X125343056Y-80767216D01*
X125356670Y-80787591D01*
X125373997Y-80804919D01*
X125377339Y-80807661D01*
X125399869Y-80835115D01*
X125405920Y-80846436D01*
X125419534Y-80866811D01*
X125436861Y-80884138D01*
X125457235Y-80897752D01*
X125479874Y-80907129D01*
X125500045Y-80911142D01*
X125522556Y-80917970D01*
X125541556Y-80928126D01*
X125558208Y-80941792D01*
X125571874Y-80958444D01*
X125582030Y-80977444D01*
X125588284Y-80998062D01*
X125591000Y-81025640D01*
X125591000Y-81534360D01*
X125588284Y-81561938D01*
X125582030Y-81582556D01*
X125571874Y-81601556D01*
X125558208Y-81618208D01*
X125541556Y-81631874D01*
X125522556Y-81642030D01*
X125500046Y-81648858D01*
X125479873Y-81652871D01*
X125457234Y-81662248D01*
X125436860Y-81675863D01*
X125419533Y-81693190D01*
X125405920Y-81713564D01*
X125399869Y-81724885D01*
X125377339Y-81752339D01*
X125373997Y-81755081D01*
X125356670Y-81772408D01*
X125343056Y-81792783D01*
X125333679Y-81815422D01*
X125328898Y-81839456D01*
X125326435Y-81864466D01*
X125314704Y-81903137D01*
X125295652Y-81938779D01*
X125270017Y-81970017D01*
X125238779Y-81995652D01*
X125203137Y-82014704D01*
X125164466Y-82026435D01*
X125118112Y-82031000D01*
X125094431Y-82031000D01*
X125070045Y-82033402D01*
X125046596Y-82040515D01*
X125024985Y-82052066D01*
X125006043Y-82067612D01*
X124984191Y-82097075D01*
X124972567Y-82118821D01*
X124948341Y-82148341D01*
X124918820Y-82172569D01*
X124885145Y-82190568D01*
X124848604Y-82201653D01*
X124804462Y-82206000D01*
X123855538Y-82206000D01*
X123811396Y-82201653D01*
X123774855Y-82190568D01*
X123741180Y-82172569D01*
X123711659Y-82148341D01*
X123687431Y-82118820D01*
X123669432Y-82085145D01*
X123658347Y-82048604D01*
X123654000Y-82004462D01*
X123654000Y-80555538D01*
X123658347Y-80511396D01*
X123669432Y-80474855D01*
X123687431Y-80441180D01*
X123711659Y-80411659D01*
X123741180Y-80387431D01*
X123774855Y-80369432D01*
X123811396Y-80358347D01*
X123855538Y-80354000D01*
X124804462Y-80354000D01*
X124848604Y-80358347D01*
X124848604Y-80358347D01*
G37*
G36*
X122508578Y-80387048D02*
X122581250Y-80409093D01*
X122648226Y-80444892D01*
X122706930Y-80493070D01*
X122755108Y-80551774D01*
X122790907Y-80618750D01*
X122812952Y-80691422D01*
X122821000Y-80773140D01*
X122821000Y-81786860D01*
X122812952Y-81868578D01*
X122790907Y-81941250D01*
X122755108Y-82008226D01*
X122706930Y-82066930D01*
X122648226Y-82115108D01*
X122581250Y-82150907D01*
X122508578Y-82172952D01*
X122426860Y-82181000D01*
X121413140Y-82181000D01*
X121331422Y-82172952D01*
X121258750Y-82150907D01*
X121191774Y-82115108D01*
X121133070Y-82066930D01*
X121084892Y-82008226D01*
X121049093Y-81941250D01*
X121027048Y-81868578D01*
X121019000Y-81786860D01*
X121019000Y-80773140D01*
X121027048Y-80691422D01*
X121049093Y-80618750D01*
X121084892Y-80551774D01*
X121133070Y-80493070D01*
X121191774Y-80444892D01*
X121258750Y-80409093D01*
X121331422Y-80387048D01*
X121413140Y-80379000D01*
X122426860Y-80379000D01*
X122508578Y-80387048D01*
X122508578Y-80387048D01*
G37*
G36*
X130128578Y-80387048D02*
X130201250Y-80409093D01*
X130268226Y-80444892D01*
X130326930Y-80493070D01*
X130375108Y-80551774D01*
X130410907Y-80618750D01*
X130432952Y-80691422D01*
X130441000Y-80773140D01*
X130441000Y-81786860D01*
X130432952Y-81868578D01*
X130410907Y-81941250D01*
X130375108Y-82008226D01*
X130326930Y-82066930D01*
X130268226Y-82115108D01*
X130201250Y-82150907D01*
X130128578Y-82172952D01*
X130046860Y-82181000D01*
X129033140Y-82181000D01*
X128951422Y-82172952D01*
X128878750Y-82150907D01*
X128811774Y-82115108D01*
X128753070Y-82066930D01*
X128704892Y-82008226D01*
X128669093Y-81941250D01*
X128647048Y-81868578D01*
X128639000Y-81786860D01*
X128639000Y-80773140D01*
X128647048Y-80691422D01*
X128669093Y-80618750D01*
X128704892Y-80551774D01*
X128753070Y-80493070D01*
X128811774Y-80444892D01*
X128878750Y-80409093D01*
X128951422Y-80387048D01*
X129033140Y-80379000D01*
X130046860Y-80379000D01*
X130128578Y-80387048D01*
X130128578Y-80387048D01*
G37*
G36*
X124848604Y-77818347D02*
X124885145Y-77829432D01*
X124918820Y-77847431D01*
X124948341Y-77871659D01*
X124972567Y-77901179D01*
X124984191Y-77922925D01*
X124997805Y-77943300D01*
X125015132Y-77960627D01*
X125035507Y-77974241D01*
X125058146Y-77983618D01*
X125094431Y-77989000D01*
X125118112Y-77989000D01*
X125164466Y-77993565D01*
X125203137Y-78005296D01*
X125238779Y-78024348D01*
X125270017Y-78049983D01*
X125295652Y-78081221D01*
X125314704Y-78116863D01*
X125326435Y-78155534D01*
X125328898Y-78180544D01*
X125333678Y-78204577D01*
X125343056Y-78227216D01*
X125356670Y-78247591D01*
X125373997Y-78264919D01*
X125377339Y-78267661D01*
X125399869Y-78295115D01*
X125405920Y-78306436D01*
X125419534Y-78326811D01*
X125436861Y-78344138D01*
X125457235Y-78357752D01*
X125479874Y-78367129D01*
X125500045Y-78371142D01*
X125522556Y-78377970D01*
X125541556Y-78388126D01*
X125558208Y-78401792D01*
X125571874Y-78418444D01*
X125582030Y-78437444D01*
X125588284Y-78458062D01*
X125591000Y-78485640D01*
X125591000Y-78994360D01*
X125588284Y-79021938D01*
X125582030Y-79042556D01*
X125571874Y-79061556D01*
X125558208Y-79078208D01*
X125541556Y-79091874D01*
X125522556Y-79102030D01*
X125500046Y-79108858D01*
X125479873Y-79112871D01*
X125457234Y-79122248D01*
X125436860Y-79135863D01*
X125419533Y-79153190D01*
X125405920Y-79173564D01*
X125399869Y-79184885D01*
X125377339Y-79212339D01*
X125373997Y-79215081D01*
X125356670Y-79232408D01*
X125343056Y-79252783D01*
X125333679Y-79275422D01*
X125328898Y-79299456D01*
X125326435Y-79324466D01*
X125314704Y-79363137D01*
X125295652Y-79398779D01*
X125270017Y-79430017D01*
X125238779Y-79455652D01*
X125203137Y-79474704D01*
X125164466Y-79486435D01*
X125118112Y-79491000D01*
X125094431Y-79491000D01*
X125070045Y-79493402D01*
X125046596Y-79500515D01*
X125024985Y-79512066D01*
X125006043Y-79527612D01*
X124984191Y-79557075D01*
X124972567Y-79578821D01*
X124948341Y-79608341D01*
X124918820Y-79632569D01*
X124885145Y-79650568D01*
X124848604Y-79661653D01*
X124804462Y-79666000D01*
X123855538Y-79666000D01*
X123811396Y-79661653D01*
X123774855Y-79650568D01*
X123741180Y-79632569D01*
X123711659Y-79608341D01*
X123687431Y-79578820D01*
X123669432Y-79545145D01*
X123658347Y-79508604D01*
X123654000Y-79464462D01*
X123654000Y-78015538D01*
X123658347Y-77971396D01*
X123669432Y-77934855D01*
X123687431Y-77901180D01*
X123711659Y-77871659D01*
X123741180Y-77847431D01*
X123774855Y-77829432D01*
X123811396Y-77818347D01*
X123855538Y-77814000D01*
X124804462Y-77814000D01*
X124848604Y-77818347D01*
X124848604Y-77818347D01*
G37*
G36*
X127648604Y-77818347D02*
X127685145Y-77829432D01*
X127718820Y-77847431D01*
X127748341Y-77871659D01*
X127772569Y-77901180D01*
X127790568Y-77934855D01*
X127801653Y-77971396D01*
X127806000Y-78015538D01*
X127806000Y-79464462D01*
X127801653Y-79508604D01*
X127790568Y-79545145D01*
X127772569Y-79578820D01*
X127748341Y-79608341D01*
X127718820Y-79632569D01*
X127685145Y-79650568D01*
X127648604Y-79661653D01*
X127604462Y-79666000D01*
X126655538Y-79666000D01*
X126611396Y-79661653D01*
X126574855Y-79650568D01*
X126541180Y-79632569D01*
X126511659Y-79608341D01*
X126487433Y-79578821D01*
X126475809Y-79557075D01*
X126462195Y-79536700D01*
X126444868Y-79519373D01*
X126424493Y-79505759D01*
X126401854Y-79496382D01*
X126365569Y-79491000D01*
X126341888Y-79491000D01*
X126295534Y-79486435D01*
X126256863Y-79474704D01*
X126221221Y-79455652D01*
X126189983Y-79430017D01*
X126164348Y-79398779D01*
X126145296Y-79363137D01*
X126133565Y-79324466D01*
X126131102Y-79299456D01*
X126126322Y-79275423D01*
X126116944Y-79252784D01*
X126103330Y-79232409D01*
X126086003Y-79215081D01*
X126082661Y-79212339D01*
X126060131Y-79184885D01*
X126054080Y-79173564D01*
X126040466Y-79153189D01*
X126023139Y-79135862D01*
X126002765Y-79122248D01*
X125980126Y-79112871D01*
X125959955Y-79108858D01*
X125937444Y-79102030D01*
X125918444Y-79091874D01*
X125901792Y-79078208D01*
X125888126Y-79061556D01*
X125877970Y-79042556D01*
X125871716Y-79021938D01*
X125869000Y-78994360D01*
X125869000Y-78485640D01*
X125871716Y-78458062D01*
X125877970Y-78437444D01*
X125888126Y-78418444D01*
X125901792Y-78401792D01*
X125918444Y-78388126D01*
X125937444Y-78377970D01*
X125959954Y-78371142D01*
X125980127Y-78367129D01*
X126002766Y-78357752D01*
X126023140Y-78344137D01*
X126040467Y-78326810D01*
X126054080Y-78306436D01*
X126060131Y-78295115D01*
X126082661Y-78267661D01*
X126086003Y-78264919D01*
X126103330Y-78247592D01*
X126116944Y-78227217D01*
X126126321Y-78204578D01*
X126131102Y-78180544D01*
X126133565Y-78155534D01*
X126145296Y-78116863D01*
X126164348Y-78081221D01*
X126189983Y-78049983D01*
X126221221Y-78024348D01*
X126256863Y-78005296D01*
X126295534Y-77993565D01*
X126341888Y-77989000D01*
X126365569Y-77989000D01*
X126389955Y-77986598D01*
X126413404Y-77979485D01*
X126435015Y-77967934D01*
X126453957Y-77952388D01*
X126475809Y-77922925D01*
X126487433Y-77901179D01*
X126511659Y-77871659D01*
X126541180Y-77847431D01*
X126574855Y-77829432D01*
X126611396Y-77818347D01*
X126655538Y-77814000D01*
X127604462Y-77814000D01*
X127648604Y-77818347D01*
X127648604Y-77818347D01*
G37*
G36*
X122508578Y-77847048D02*
X122581250Y-77869093D01*
X122648226Y-77904892D01*
X122706930Y-77953070D01*
X122755108Y-78011774D01*
X122790907Y-78078750D01*
X122812952Y-78151422D01*
X122821000Y-78233140D01*
X122821000Y-79246860D01*
X122812952Y-79328578D01*
X122790907Y-79401250D01*
X122755108Y-79468226D01*
X122706930Y-79526930D01*
X122648226Y-79575108D01*
X122581250Y-79610907D01*
X122508578Y-79632952D01*
X122426860Y-79641000D01*
X121413140Y-79641000D01*
X121331422Y-79632952D01*
X121258750Y-79610907D01*
X121191774Y-79575108D01*
X121133070Y-79526930D01*
X121084892Y-79468226D01*
X121049093Y-79401250D01*
X121027048Y-79328578D01*
X121019000Y-79246860D01*
X121019000Y-78233140D01*
X121027048Y-78151422D01*
X121049093Y-78078750D01*
X121084892Y-78011774D01*
X121133070Y-77953070D01*
X121191774Y-77904892D01*
X121258750Y-77869093D01*
X121331422Y-77847048D01*
X121413140Y-77839000D01*
X122426860Y-77839000D01*
X122508578Y-77847048D01*
X122508578Y-77847048D01*
G37*
G36*
X130128578Y-77847048D02*
X130201250Y-77869093D01*
X130268226Y-77904892D01*
X130326930Y-77953070D01*
X130375108Y-78011774D01*
X130410907Y-78078750D01*
X130432952Y-78151422D01*
X130441000Y-78233140D01*
X130441000Y-79246860D01*
X130432952Y-79328578D01*
X130410907Y-79401250D01*
X130375108Y-79468226D01*
X130326930Y-79526930D01*
X130268226Y-79575108D01*
X130201250Y-79610907D01*
X130128578Y-79632952D01*
X130046860Y-79641000D01*
X129033140Y-79641000D01*
X128951422Y-79632952D01*
X128878750Y-79610907D01*
X128811774Y-79575108D01*
X128753070Y-79526930D01*
X128704892Y-79468226D01*
X128669093Y-79401250D01*
X128647048Y-79328578D01*
X128639000Y-79246860D01*
X128639000Y-78233140D01*
X128647048Y-78151422D01*
X128669093Y-78078750D01*
X128704892Y-78011774D01*
X128753070Y-77953070D01*
X128811774Y-77904892D01*
X128878750Y-77869093D01*
X128951422Y-77847048D01*
X129033140Y-77839000D01*
X130046860Y-77839000D01*
X130128578Y-77847048D01*
X130128578Y-77847048D01*
G37*
G36*
X124848604Y-75278347D02*
X124885145Y-75289432D01*
X124918820Y-75307431D01*
X124948341Y-75331659D01*
X124972567Y-75361179D01*
X124984191Y-75382925D01*
X124997805Y-75403300D01*
X125015132Y-75420627D01*
X125035507Y-75434241D01*
X125058146Y-75443618D01*
X125094431Y-75449000D01*
X125118112Y-75449000D01*
X125164466Y-75453565D01*
X125203137Y-75465296D01*
X125238779Y-75484348D01*
X125270017Y-75509983D01*
X125295652Y-75541221D01*
X125314704Y-75576863D01*
X125326435Y-75615534D01*
X125328898Y-75640544D01*
X125333678Y-75664577D01*
X125343056Y-75687216D01*
X125356670Y-75707591D01*
X125373997Y-75724919D01*
X125377339Y-75727661D01*
X125399869Y-75755115D01*
X125405920Y-75766436D01*
X125419534Y-75786811D01*
X125436861Y-75804138D01*
X125457235Y-75817752D01*
X125479874Y-75827129D01*
X125500045Y-75831142D01*
X125522556Y-75837970D01*
X125541556Y-75848126D01*
X125558208Y-75861792D01*
X125571874Y-75878444D01*
X125582030Y-75897444D01*
X125588284Y-75918062D01*
X125591000Y-75945640D01*
X125591000Y-76454360D01*
X125588284Y-76481938D01*
X125582030Y-76502556D01*
X125571874Y-76521556D01*
X125558208Y-76538208D01*
X125541556Y-76551874D01*
X125522556Y-76562030D01*
X125500046Y-76568858D01*
X125479873Y-76572871D01*
X125457234Y-76582248D01*
X125436860Y-76595863D01*
X125419533Y-76613190D01*
X125405920Y-76633564D01*
X125399869Y-76644885D01*
X125377339Y-76672339D01*
X125373997Y-76675081D01*
X125356670Y-76692408D01*
X125343056Y-76712783D01*
X125333679Y-76735422D01*
X125328898Y-76759456D01*
X125326435Y-76784466D01*
X125314704Y-76823137D01*
X125295652Y-76858779D01*
X125270017Y-76890017D01*
X125238779Y-76915652D01*
X125203137Y-76934704D01*
X125164466Y-76946435D01*
X125118112Y-76951000D01*
X125094431Y-76951000D01*
X125070045Y-76953402D01*
X125046596Y-76960515D01*
X125024985Y-76972066D01*
X125006043Y-76987612D01*
X124984191Y-77017075D01*
X124972567Y-77038821D01*
X124948341Y-77068341D01*
X124918820Y-77092569D01*
X124885145Y-77110568D01*
X124848604Y-77121653D01*
X124804462Y-77126000D01*
X123855538Y-77126000D01*
X123811396Y-77121653D01*
X123774855Y-77110568D01*
X123741180Y-77092569D01*
X123711659Y-77068341D01*
X123687431Y-77038820D01*
X123669432Y-77005145D01*
X123658347Y-76968604D01*
X123654000Y-76924462D01*
X123654000Y-75475538D01*
X123658347Y-75431396D01*
X123669432Y-75394855D01*
X123687431Y-75361180D01*
X123711659Y-75331659D01*
X123741180Y-75307431D01*
X123774855Y-75289432D01*
X123811396Y-75278347D01*
X123855538Y-75274000D01*
X124804462Y-75274000D01*
X124848604Y-75278347D01*
X124848604Y-75278347D01*
G37*
G36*
X127648604Y-75278347D02*
X127685145Y-75289432D01*
X127718820Y-75307431D01*
X127748341Y-75331659D01*
X127772569Y-75361180D01*
X127790568Y-75394855D01*
X127801653Y-75431396D01*
X127806000Y-75475538D01*
X127806000Y-76924462D01*
X127801653Y-76968604D01*
X127790568Y-77005145D01*
X127772569Y-77038820D01*
X127748341Y-77068341D01*
X127718820Y-77092569D01*
X127685145Y-77110568D01*
X127648604Y-77121653D01*
X127604462Y-77126000D01*
X126655538Y-77126000D01*
X126611396Y-77121653D01*
X126574855Y-77110568D01*
X126541180Y-77092569D01*
X126511659Y-77068341D01*
X126487433Y-77038821D01*
X126475809Y-77017075D01*
X126462195Y-76996700D01*
X126444868Y-76979373D01*
X126424493Y-76965759D01*
X126401854Y-76956382D01*
X126365569Y-76951000D01*
X126341888Y-76951000D01*
X126295534Y-76946435D01*
X126256863Y-76934704D01*
X126221221Y-76915652D01*
X126189983Y-76890017D01*
X126164348Y-76858779D01*
X126145296Y-76823137D01*
X126133565Y-76784466D01*
X126131102Y-76759456D01*
X126126322Y-76735423D01*
X126116944Y-76712784D01*
X126103330Y-76692409D01*
X126086003Y-76675081D01*
X126082661Y-76672339D01*
X126060131Y-76644885D01*
X126054080Y-76633564D01*
X126040466Y-76613189D01*
X126023139Y-76595862D01*
X126002765Y-76582248D01*
X125980126Y-76572871D01*
X125959955Y-76568858D01*
X125937444Y-76562030D01*
X125918444Y-76551874D01*
X125901792Y-76538208D01*
X125888126Y-76521556D01*
X125877970Y-76502556D01*
X125871716Y-76481938D01*
X125869000Y-76454360D01*
X125869000Y-75945640D01*
X125871716Y-75918062D01*
X125877970Y-75897444D01*
X125888126Y-75878444D01*
X125901792Y-75861792D01*
X125918444Y-75848126D01*
X125937444Y-75837970D01*
X125959954Y-75831142D01*
X125980127Y-75827129D01*
X126002766Y-75817752D01*
X126023140Y-75804137D01*
X126040467Y-75786810D01*
X126054080Y-75766436D01*
X126060131Y-75755115D01*
X126082661Y-75727661D01*
X126086003Y-75724919D01*
X126103330Y-75707592D01*
X126116944Y-75687217D01*
X126126321Y-75664578D01*
X126131102Y-75640544D01*
X126133565Y-75615534D01*
X126145296Y-75576863D01*
X126164348Y-75541221D01*
X126189983Y-75509983D01*
X126221221Y-75484348D01*
X126256863Y-75465296D01*
X126295534Y-75453565D01*
X126341888Y-75449000D01*
X126365569Y-75449000D01*
X126389955Y-75446598D01*
X126413404Y-75439485D01*
X126435015Y-75427934D01*
X126453957Y-75412388D01*
X126475809Y-75382925D01*
X126487433Y-75361179D01*
X126511659Y-75331659D01*
X126541180Y-75307431D01*
X126574855Y-75289432D01*
X126611396Y-75278347D01*
X126655538Y-75274000D01*
X127604462Y-75274000D01*
X127648604Y-75278347D01*
X127648604Y-75278347D01*
G37*
G36*
X130128578Y-75307048D02*
X130201250Y-75329093D01*
X130268226Y-75364892D01*
X130326930Y-75413070D01*
X130375108Y-75471774D01*
X130410907Y-75538750D01*
X130432952Y-75611422D01*
X130441000Y-75693140D01*
X130441000Y-76706860D01*
X130432952Y-76788578D01*
X130410907Y-76861250D01*
X130375108Y-76928226D01*
X130326930Y-76986930D01*
X130268226Y-77035108D01*
X130201250Y-77070907D01*
X130128578Y-77092952D01*
X130046860Y-77101000D01*
X129033140Y-77101000D01*
X128951422Y-77092952D01*
X128878750Y-77070907D01*
X128811774Y-77035108D01*
X128753070Y-76986930D01*
X128704892Y-76928226D01*
X128669093Y-76861250D01*
X128647048Y-76788578D01*
X128639000Y-76706860D01*
X128639000Y-75693140D01*
X128647048Y-75611422D01*
X128669093Y-75538750D01*
X128704892Y-75471774D01*
X128753070Y-75413070D01*
X128811774Y-75364892D01*
X128878750Y-75329093D01*
X128951422Y-75307048D01*
X129033140Y-75299000D01*
X130046860Y-75299000D01*
X130128578Y-75307048D01*
X130128578Y-75307048D01*
G37*
G36*
X122508578Y-75307048D02*
X122581250Y-75329093D01*
X122648226Y-75364892D01*
X122706930Y-75413070D01*
X122755108Y-75471774D01*
X122790907Y-75538750D01*
X122812952Y-75611422D01*
X122821000Y-75693140D01*
X122821000Y-76706860D01*
X122812952Y-76788578D01*
X122790907Y-76861250D01*
X122755108Y-76928226D01*
X122706930Y-76986930D01*
X122648226Y-77035108D01*
X122581250Y-77070907D01*
X122508578Y-77092952D01*
X122426860Y-77101000D01*
X121413140Y-77101000D01*
X121331422Y-77092952D01*
X121258750Y-77070907D01*
X121191774Y-77035108D01*
X121133070Y-76986930D01*
X121084892Y-76928226D01*
X121049093Y-76861250D01*
X121027048Y-76788578D01*
X121019000Y-76706860D01*
X121019000Y-75693140D01*
X121027048Y-75611422D01*
X121049093Y-75538750D01*
X121084892Y-75471774D01*
X121133070Y-75413070D01*
X121191774Y-75364892D01*
X121258750Y-75329093D01*
X121331422Y-75307048D01*
X121413140Y-75299000D01*
X122426860Y-75299000D01*
X122508578Y-75307048D01*
X122508578Y-75307048D01*
G37*
G36*
X124848604Y-72738347D02*
X124885145Y-72749432D01*
X124918820Y-72767431D01*
X124948341Y-72791659D01*
X124972567Y-72821179D01*
X124984191Y-72842925D01*
X124997805Y-72863300D01*
X125015132Y-72880627D01*
X125035507Y-72894241D01*
X125058146Y-72903618D01*
X125094431Y-72909000D01*
X125118112Y-72909000D01*
X125164466Y-72913565D01*
X125203137Y-72925296D01*
X125238779Y-72944348D01*
X125270017Y-72969983D01*
X125295652Y-73001221D01*
X125314704Y-73036863D01*
X125326435Y-73075534D01*
X125328898Y-73100544D01*
X125333678Y-73124577D01*
X125343056Y-73147216D01*
X125356670Y-73167591D01*
X125373997Y-73184919D01*
X125377339Y-73187661D01*
X125399869Y-73215115D01*
X125405920Y-73226436D01*
X125419534Y-73246811D01*
X125436861Y-73264138D01*
X125457235Y-73277752D01*
X125479874Y-73287129D01*
X125500045Y-73291142D01*
X125522556Y-73297970D01*
X125541556Y-73308126D01*
X125558208Y-73321792D01*
X125571874Y-73338444D01*
X125582030Y-73357444D01*
X125588284Y-73378062D01*
X125591000Y-73405640D01*
X125591000Y-73914360D01*
X125588284Y-73941938D01*
X125582030Y-73962556D01*
X125571874Y-73981556D01*
X125558208Y-73998208D01*
X125541556Y-74011874D01*
X125522556Y-74022030D01*
X125500046Y-74028858D01*
X125479873Y-74032871D01*
X125457234Y-74042248D01*
X125436860Y-74055863D01*
X125419533Y-74073190D01*
X125405920Y-74093564D01*
X125399869Y-74104885D01*
X125377339Y-74132339D01*
X125373997Y-74135081D01*
X125356670Y-74152408D01*
X125343056Y-74172783D01*
X125333679Y-74195422D01*
X125328898Y-74219456D01*
X125326435Y-74244466D01*
X125314704Y-74283137D01*
X125295652Y-74318779D01*
X125270017Y-74350017D01*
X125238779Y-74375652D01*
X125203137Y-74394704D01*
X125164466Y-74406435D01*
X125118112Y-74411000D01*
X125094431Y-74411000D01*
X125070045Y-74413402D01*
X125046596Y-74420515D01*
X125024985Y-74432066D01*
X125006043Y-74447612D01*
X124984191Y-74477075D01*
X124972567Y-74498821D01*
X124948341Y-74528341D01*
X124918820Y-74552569D01*
X124885145Y-74570568D01*
X124848604Y-74581653D01*
X124804462Y-74586000D01*
X123855538Y-74586000D01*
X123811396Y-74581653D01*
X123774855Y-74570568D01*
X123741180Y-74552569D01*
X123711659Y-74528341D01*
X123687431Y-74498820D01*
X123669432Y-74465145D01*
X123658347Y-74428604D01*
X123654000Y-74384462D01*
X123654000Y-72935538D01*
X123658347Y-72891396D01*
X123669432Y-72854855D01*
X123687431Y-72821180D01*
X123711659Y-72791659D01*
X123741180Y-72767431D01*
X123774855Y-72749432D01*
X123811396Y-72738347D01*
X123855538Y-72734000D01*
X124804462Y-72734000D01*
X124848604Y-72738347D01*
X124848604Y-72738347D01*
G37*
G36*
X127648604Y-72738347D02*
X127685145Y-72749432D01*
X127718820Y-72767431D01*
X127748341Y-72791659D01*
X127772569Y-72821180D01*
X127790568Y-72854855D01*
X127801653Y-72891396D01*
X127806000Y-72935538D01*
X127806000Y-74384462D01*
X127801653Y-74428604D01*
X127790568Y-74465145D01*
X127772569Y-74498820D01*
X127748341Y-74528341D01*
X127718820Y-74552569D01*
X127685145Y-74570568D01*
X127648604Y-74581653D01*
X127604462Y-74586000D01*
X126655538Y-74586000D01*
X126611396Y-74581653D01*
X126574855Y-74570568D01*
X126541180Y-74552569D01*
X126511659Y-74528341D01*
X126487433Y-74498821D01*
X126475809Y-74477075D01*
X126462195Y-74456700D01*
X126444868Y-74439373D01*
X126424493Y-74425759D01*
X126401854Y-74416382D01*
X126365569Y-74411000D01*
X126341888Y-74411000D01*
X126295534Y-74406435D01*
X126256863Y-74394704D01*
X126221221Y-74375652D01*
X126189983Y-74350017D01*
X126164348Y-74318779D01*
X126145296Y-74283137D01*
X126133565Y-74244466D01*
X126131102Y-74219456D01*
X126126322Y-74195423D01*
X126116944Y-74172784D01*
X126103330Y-74152409D01*
X126086003Y-74135081D01*
X126082661Y-74132339D01*
X126060131Y-74104885D01*
X126054080Y-74093564D01*
X126040466Y-74073189D01*
X126023139Y-74055862D01*
X126002765Y-74042248D01*
X125980126Y-74032871D01*
X125959955Y-74028858D01*
X125937444Y-74022030D01*
X125918444Y-74011874D01*
X125901792Y-73998208D01*
X125888126Y-73981556D01*
X125877970Y-73962556D01*
X125871716Y-73941938D01*
X125869000Y-73914360D01*
X125869000Y-73405640D01*
X125871716Y-73378062D01*
X125877970Y-73357444D01*
X125888126Y-73338444D01*
X125901792Y-73321792D01*
X125918444Y-73308126D01*
X125937444Y-73297970D01*
X125959954Y-73291142D01*
X125980127Y-73287129D01*
X126002766Y-73277752D01*
X126023140Y-73264137D01*
X126040467Y-73246810D01*
X126054080Y-73226436D01*
X126060131Y-73215115D01*
X126082661Y-73187661D01*
X126086003Y-73184919D01*
X126103330Y-73167592D01*
X126116944Y-73147217D01*
X126126321Y-73124578D01*
X126131102Y-73100544D01*
X126133565Y-73075534D01*
X126145296Y-73036863D01*
X126164348Y-73001221D01*
X126189983Y-72969983D01*
X126221221Y-72944348D01*
X126256863Y-72925296D01*
X126295534Y-72913565D01*
X126341888Y-72909000D01*
X126365569Y-72909000D01*
X126389955Y-72906598D01*
X126413404Y-72899485D01*
X126435015Y-72887934D01*
X126453957Y-72872388D01*
X126475809Y-72842925D01*
X126487433Y-72821179D01*
X126511659Y-72791659D01*
X126541180Y-72767431D01*
X126574855Y-72749432D01*
X126611396Y-72738347D01*
X126655538Y-72734000D01*
X127604462Y-72734000D01*
X127648604Y-72738347D01*
X127648604Y-72738347D01*
G37*
G36*
X130128578Y-72767048D02*
X130201250Y-72789093D01*
X130268226Y-72824892D01*
X130326930Y-72873070D01*
X130375108Y-72931774D01*
X130410907Y-72998750D01*
X130432952Y-73071422D01*
X130441000Y-73153140D01*
X130441000Y-74166860D01*
X130432952Y-74248578D01*
X130410907Y-74321250D01*
X130375108Y-74388226D01*
X130326930Y-74446930D01*
X130268226Y-74495108D01*
X130201250Y-74530907D01*
X130128578Y-74552952D01*
X130046860Y-74561000D01*
X129033140Y-74561000D01*
X128951422Y-74552952D01*
X128878750Y-74530907D01*
X128811774Y-74495108D01*
X128753070Y-74446930D01*
X128704892Y-74388226D01*
X128669093Y-74321250D01*
X128647048Y-74248578D01*
X128639000Y-74166860D01*
X128639000Y-73153140D01*
X128647048Y-73071422D01*
X128669093Y-72998750D01*
X128704892Y-72931774D01*
X128753070Y-72873070D01*
X128811774Y-72824892D01*
X128878750Y-72789093D01*
X128951422Y-72767048D01*
X129033140Y-72759000D01*
X130046860Y-72759000D01*
X130128578Y-72767048D01*
X130128578Y-72767048D01*
G37*
G36*
X122508578Y-72767048D02*
X122581250Y-72789093D01*
X122648226Y-72824892D01*
X122706930Y-72873070D01*
X122755108Y-72931774D01*
X122790907Y-72998750D01*
X122812952Y-73071422D01*
X122821000Y-73153140D01*
X122821000Y-74166860D01*
X122812952Y-74248578D01*
X122790907Y-74321250D01*
X122755108Y-74388226D01*
X122706930Y-74446930D01*
X122648226Y-74495108D01*
X122581250Y-74530907D01*
X122508578Y-74552952D01*
X122426860Y-74561000D01*
X121413140Y-74561000D01*
X121331422Y-74552952D01*
X121258750Y-74530907D01*
X121191774Y-74495108D01*
X121133070Y-74446930D01*
X121084892Y-74388226D01*
X121049093Y-74321250D01*
X121027048Y-74248578D01*
X121019000Y-74166860D01*
X121019000Y-73153140D01*
X121027048Y-73071422D01*
X121049093Y-72998750D01*
X121084892Y-72931774D01*
X121133070Y-72873070D01*
X121191774Y-72824892D01*
X121258750Y-72789093D01*
X121331422Y-72767048D01*
X121413140Y-72759000D01*
X122426860Y-72759000D01*
X122508578Y-72767048D01*
X122508578Y-72767048D01*
G37*
G36*
X127648604Y-70198347D02*
X127685145Y-70209432D01*
X127718820Y-70227431D01*
X127748341Y-70251659D01*
X127772569Y-70281180D01*
X127790568Y-70314855D01*
X127801653Y-70351396D01*
X127806000Y-70395538D01*
X127806000Y-71844462D01*
X127801653Y-71888604D01*
X127790568Y-71925145D01*
X127772569Y-71958820D01*
X127748341Y-71988341D01*
X127718820Y-72012569D01*
X127685145Y-72030568D01*
X127648604Y-72041653D01*
X127604462Y-72046000D01*
X126655538Y-72046000D01*
X126611396Y-72041653D01*
X126574855Y-72030568D01*
X126541180Y-72012569D01*
X126511659Y-71988341D01*
X126487433Y-71958821D01*
X126475809Y-71937075D01*
X126462195Y-71916700D01*
X126444868Y-71899373D01*
X126424493Y-71885759D01*
X126401854Y-71876382D01*
X126365569Y-71871000D01*
X126341888Y-71871000D01*
X126295534Y-71866435D01*
X126256863Y-71854704D01*
X126221221Y-71835652D01*
X126189983Y-71810017D01*
X126164348Y-71778779D01*
X126145296Y-71743137D01*
X126133565Y-71704466D01*
X126131102Y-71679456D01*
X126126322Y-71655423D01*
X126116944Y-71632784D01*
X126103330Y-71612409D01*
X126086003Y-71595081D01*
X126082661Y-71592339D01*
X126060131Y-71564885D01*
X126054080Y-71553564D01*
X126040466Y-71533189D01*
X126023139Y-71515862D01*
X126002765Y-71502248D01*
X125980126Y-71492871D01*
X125959955Y-71488858D01*
X125937444Y-71482030D01*
X125918444Y-71471874D01*
X125901792Y-71458208D01*
X125888126Y-71441556D01*
X125877970Y-71422556D01*
X125871716Y-71401938D01*
X125869000Y-71374360D01*
X125869000Y-70865640D01*
X125871716Y-70838062D01*
X125877970Y-70817444D01*
X125888126Y-70798444D01*
X125901792Y-70781792D01*
X125918444Y-70768126D01*
X125937444Y-70757970D01*
X125959954Y-70751142D01*
X125980127Y-70747129D01*
X126002766Y-70737752D01*
X126023140Y-70724137D01*
X126040467Y-70706810D01*
X126054080Y-70686436D01*
X126060131Y-70675115D01*
X126082661Y-70647661D01*
X126086003Y-70644919D01*
X126103330Y-70627592D01*
X126116944Y-70607217D01*
X126126321Y-70584578D01*
X126131102Y-70560544D01*
X126133565Y-70535534D01*
X126145296Y-70496863D01*
X126164348Y-70461221D01*
X126189983Y-70429983D01*
X126221221Y-70404348D01*
X126256863Y-70385296D01*
X126295534Y-70373565D01*
X126341888Y-70369000D01*
X126365569Y-70369000D01*
X126389955Y-70366598D01*
X126413404Y-70359485D01*
X126435015Y-70347934D01*
X126453957Y-70332388D01*
X126475809Y-70302925D01*
X126487433Y-70281179D01*
X126511659Y-70251659D01*
X126541180Y-70227431D01*
X126574855Y-70209432D01*
X126611396Y-70198347D01*
X126655538Y-70194000D01*
X127604462Y-70194000D01*
X127648604Y-70198347D01*
X127648604Y-70198347D01*
G37*
G36*
X124848604Y-70198347D02*
X124885145Y-70209432D01*
X124918820Y-70227431D01*
X124948341Y-70251659D01*
X124972567Y-70281179D01*
X124984191Y-70302925D01*
X124997805Y-70323300D01*
X125015132Y-70340627D01*
X125035507Y-70354241D01*
X125058146Y-70363618D01*
X125094431Y-70369000D01*
X125118112Y-70369000D01*
X125164466Y-70373565D01*
X125203137Y-70385296D01*
X125238779Y-70404348D01*
X125270017Y-70429983D01*
X125295652Y-70461221D01*
X125314704Y-70496863D01*
X125326435Y-70535534D01*
X125328898Y-70560544D01*
X125333678Y-70584577D01*
X125343056Y-70607216D01*
X125356670Y-70627591D01*
X125373997Y-70644919D01*
X125377339Y-70647661D01*
X125399869Y-70675115D01*
X125405920Y-70686436D01*
X125419534Y-70706811D01*
X125436861Y-70724138D01*
X125457235Y-70737752D01*
X125479874Y-70747129D01*
X125500045Y-70751142D01*
X125522556Y-70757970D01*
X125541556Y-70768126D01*
X125558208Y-70781792D01*
X125571874Y-70798444D01*
X125582030Y-70817444D01*
X125588284Y-70838062D01*
X125591000Y-70865640D01*
X125591000Y-71374360D01*
X125588284Y-71401938D01*
X125582030Y-71422556D01*
X125571874Y-71441556D01*
X125558208Y-71458208D01*
X125541556Y-71471874D01*
X125522556Y-71482030D01*
X125500046Y-71488858D01*
X125479873Y-71492871D01*
X125457234Y-71502248D01*
X125436860Y-71515863D01*
X125419533Y-71533190D01*
X125405920Y-71553564D01*
X125399869Y-71564885D01*
X125377339Y-71592339D01*
X125373997Y-71595081D01*
X125356670Y-71612408D01*
X125343056Y-71632783D01*
X125333679Y-71655422D01*
X125328898Y-71679456D01*
X125326435Y-71704466D01*
X125314704Y-71743137D01*
X125295652Y-71778779D01*
X125270017Y-71810017D01*
X125238779Y-71835652D01*
X125203137Y-71854704D01*
X125164466Y-71866435D01*
X125118112Y-71871000D01*
X125094431Y-71871000D01*
X125070045Y-71873402D01*
X125046596Y-71880515D01*
X125024985Y-71892066D01*
X125006043Y-71907612D01*
X124984191Y-71937075D01*
X124972567Y-71958821D01*
X124948341Y-71988341D01*
X124918820Y-72012569D01*
X124885145Y-72030568D01*
X124848604Y-72041653D01*
X124804462Y-72046000D01*
X123855538Y-72046000D01*
X123811396Y-72041653D01*
X123774855Y-72030568D01*
X123741180Y-72012569D01*
X123711659Y-71988341D01*
X123687431Y-71958820D01*
X123669432Y-71925145D01*
X123658347Y-71888604D01*
X123654000Y-71844462D01*
X123654000Y-70395538D01*
X123658347Y-70351396D01*
X123669432Y-70314855D01*
X123687431Y-70281180D01*
X123711659Y-70251659D01*
X123741180Y-70227431D01*
X123774855Y-70209432D01*
X123811396Y-70198347D01*
X123855538Y-70194000D01*
X124804462Y-70194000D01*
X124848604Y-70198347D01*
X124848604Y-70198347D01*
G37*
G36*
X122508578Y-70227048D02*
X122581250Y-70249093D01*
X122648226Y-70284892D01*
X122706930Y-70333070D01*
X122755108Y-70391774D01*
X122790907Y-70458750D01*
X122812952Y-70531422D01*
X122821000Y-70613140D01*
X122821000Y-71626860D01*
X122812952Y-71708578D01*
X122790907Y-71781250D01*
X122755108Y-71848226D01*
X122706930Y-71906930D01*
X122648226Y-71955108D01*
X122581250Y-71990907D01*
X122508578Y-72012952D01*
X122426860Y-72021000D01*
X121413140Y-72021000D01*
X121331422Y-72012952D01*
X121258750Y-71990907D01*
X121191774Y-71955108D01*
X121133070Y-71906930D01*
X121084892Y-71848226D01*
X121049093Y-71781250D01*
X121027048Y-71708578D01*
X121019000Y-71626860D01*
X121019000Y-70613140D01*
X121027048Y-70531422D01*
X121049093Y-70458750D01*
X121084892Y-70391774D01*
X121133070Y-70333070D01*
X121191774Y-70284892D01*
X121258750Y-70249093D01*
X121331422Y-70227048D01*
X121413140Y-70219000D01*
X122426860Y-70219000D01*
X122508578Y-70227048D01*
X122508578Y-70227048D01*
G37*
G36*
X130128578Y-70227048D02*
X130201250Y-70249093D01*
X130268226Y-70284892D01*
X130326930Y-70333070D01*
X130375108Y-70391774D01*
X130410907Y-70458750D01*
X130432952Y-70531422D01*
X130441000Y-70613140D01*
X130441000Y-71626860D01*
X130432952Y-71708578D01*
X130410907Y-71781250D01*
X130375108Y-71848226D01*
X130326930Y-71906930D01*
X130268226Y-71955108D01*
X130201250Y-71990907D01*
X130128578Y-72012952D01*
X130046860Y-72021000D01*
X129033140Y-72021000D01*
X128951422Y-72012952D01*
X128878750Y-71990907D01*
X128811774Y-71955108D01*
X128753070Y-71906930D01*
X128704892Y-71848226D01*
X128669093Y-71781250D01*
X128647048Y-71708578D01*
X128639000Y-71626860D01*
X128639000Y-70613140D01*
X128647048Y-70531422D01*
X128669093Y-70458750D01*
X128704892Y-70391774D01*
X128753070Y-70333070D01*
X128811774Y-70284892D01*
X128878750Y-70249093D01*
X128951422Y-70227048D01*
X129033140Y-70219000D01*
X130046860Y-70219000D01*
X130128578Y-70227048D01*
X130128578Y-70227048D01*
G37*
G36*
X127648604Y-67658347D02*
X127685145Y-67669432D01*
X127718820Y-67687431D01*
X127748341Y-67711659D01*
X127772569Y-67741180D01*
X127790568Y-67774855D01*
X127801653Y-67811396D01*
X127806000Y-67855538D01*
X127806000Y-69304462D01*
X127801653Y-69348604D01*
X127790568Y-69385145D01*
X127772569Y-69418820D01*
X127748341Y-69448341D01*
X127718820Y-69472569D01*
X127685145Y-69490568D01*
X127648604Y-69501653D01*
X127604462Y-69506000D01*
X126655538Y-69506000D01*
X126611396Y-69501653D01*
X126574855Y-69490568D01*
X126541180Y-69472569D01*
X126511659Y-69448341D01*
X126487433Y-69418821D01*
X126475809Y-69397075D01*
X126462195Y-69376700D01*
X126444868Y-69359373D01*
X126424493Y-69345759D01*
X126401854Y-69336382D01*
X126365569Y-69331000D01*
X126341888Y-69331000D01*
X126295534Y-69326435D01*
X126256863Y-69314704D01*
X126221221Y-69295652D01*
X126189983Y-69270017D01*
X126164348Y-69238779D01*
X126145296Y-69203137D01*
X126133565Y-69164466D01*
X126131102Y-69139456D01*
X126126322Y-69115423D01*
X126116944Y-69092784D01*
X126103330Y-69072409D01*
X126086003Y-69055081D01*
X126082661Y-69052339D01*
X126060131Y-69024885D01*
X126054080Y-69013564D01*
X126040466Y-68993189D01*
X126023139Y-68975862D01*
X126002765Y-68962248D01*
X125980126Y-68952871D01*
X125959955Y-68948858D01*
X125937444Y-68942030D01*
X125918444Y-68931874D01*
X125901792Y-68918208D01*
X125888126Y-68901556D01*
X125877970Y-68882556D01*
X125871716Y-68861938D01*
X125869000Y-68834360D01*
X125869000Y-68325640D01*
X125871716Y-68298062D01*
X125877970Y-68277444D01*
X125888126Y-68258444D01*
X125901792Y-68241792D01*
X125918444Y-68228126D01*
X125937444Y-68217970D01*
X125959954Y-68211142D01*
X125980127Y-68207129D01*
X126002766Y-68197752D01*
X126023140Y-68184137D01*
X126040467Y-68166810D01*
X126054080Y-68146436D01*
X126060131Y-68135115D01*
X126082661Y-68107661D01*
X126086003Y-68104919D01*
X126103330Y-68087592D01*
X126116944Y-68067217D01*
X126126321Y-68044578D01*
X126131102Y-68020544D01*
X126133565Y-67995534D01*
X126145296Y-67956863D01*
X126164348Y-67921221D01*
X126189983Y-67889983D01*
X126221221Y-67864348D01*
X126256863Y-67845296D01*
X126295534Y-67833565D01*
X126341888Y-67829000D01*
X126365569Y-67829000D01*
X126389955Y-67826598D01*
X126413404Y-67819485D01*
X126435015Y-67807934D01*
X126453957Y-67792388D01*
X126475809Y-67762925D01*
X126487433Y-67741179D01*
X126511659Y-67711659D01*
X126541180Y-67687431D01*
X126574855Y-67669432D01*
X126611396Y-67658347D01*
X126655538Y-67654000D01*
X127604462Y-67654000D01*
X127648604Y-67658347D01*
X127648604Y-67658347D01*
G37*
G36*
X124848604Y-67658347D02*
X124885145Y-67669432D01*
X124918820Y-67687431D01*
X124948341Y-67711659D01*
X124972567Y-67741179D01*
X124984191Y-67762925D01*
X124997805Y-67783300D01*
X125015132Y-67800627D01*
X125035507Y-67814241D01*
X125058146Y-67823618D01*
X125094431Y-67829000D01*
X125118112Y-67829000D01*
X125164466Y-67833565D01*
X125203137Y-67845296D01*
X125238779Y-67864348D01*
X125270017Y-67889983D01*
X125295652Y-67921221D01*
X125314704Y-67956863D01*
X125326435Y-67995534D01*
X125328898Y-68020544D01*
X125333678Y-68044577D01*
X125343056Y-68067216D01*
X125356670Y-68087591D01*
X125373997Y-68104919D01*
X125377339Y-68107661D01*
X125399869Y-68135115D01*
X125405920Y-68146436D01*
X125419534Y-68166811D01*
X125436861Y-68184138D01*
X125457235Y-68197752D01*
X125479874Y-68207129D01*
X125500045Y-68211142D01*
X125522556Y-68217970D01*
X125541556Y-68228126D01*
X125558208Y-68241792D01*
X125571874Y-68258444D01*
X125582030Y-68277444D01*
X125588284Y-68298062D01*
X125591000Y-68325640D01*
X125591000Y-68834360D01*
X125588284Y-68861938D01*
X125582030Y-68882556D01*
X125571874Y-68901556D01*
X125558208Y-68918208D01*
X125541556Y-68931874D01*
X125522556Y-68942030D01*
X125500046Y-68948858D01*
X125479873Y-68952871D01*
X125457234Y-68962248D01*
X125436860Y-68975863D01*
X125419533Y-68993190D01*
X125405920Y-69013564D01*
X125399869Y-69024885D01*
X125377339Y-69052339D01*
X125373997Y-69055081D01*
X125356670Y-69072408D01*
X125343056Y-69092783D01*
X125333679Y-69115422D01*
X125328898Y-69139456D01*
X125326435Y-69164466D01*
X125314704Y-69203137D01*
X125295652Y-69238779D01*
X125270017Y-69270017D01*
X125238779Y-69295652D01*
X125203137Y-69314704D01*
X125164466Y-69326435D01*
X125118112Y-69331000D01*
X125094431Y-69331000D01*
X125070045Y-69333402D01*
X125046596Y-69340515D01*
X125024985Y-69352066D01*
X125006043Y-69367612D01*
X124984191Y-69397075D01*
X124972567Y-69418821D01*
X124948341Y-69448341D01*
X124918820Y-69472569D01*
X124885145Y-69490568D01*
X124848604Y-69501653D01*
X124804462Y-69506000D01*
X123855538Y-69506000D01*
X123811396Y-69501653D01*
X123774855Y-69490568D01*
X123741180Y-69472569D01*
X123711659Y-69448341D01*
X123687431Y-69418820D01*
X123669432Y-69385145D01*
X123658347Y-69348604D01*
X123654000Y-69304462D01*
X123654000Y-67855538D01*
X123658347Y-67811396D01*
X123669432Y-67774855D01*
X123687431Y-67741180D01*
X123711659Y-67711659D01*
X123741180Y-67687431D01*
X123774855Y-67669432D01*
X123811396Y-67658347D01*
X123855538Y-67654000D01*
X124804462Y-67654000D01*
X124848604Y-67658347D01*
X124848604Y-67658347D01*
G37*
G36*
X130128578Y-67687048D02*
X130201250Y-67709093D01*
X130268226Y-67744892D01*
X130326930Y-67793070D01*
X130375108Y-67851774D01*
X130410907Y-67918750D01*
X130432952Y-67991422D01*
X130441000Y-68073140D01*
X130441000Y-69086860D01*
X130432952Y-69168578D01*
X130410907Y-69241250D01*
X130375108Y-69308226D01*
X130326930Y-69366930D01*
X130268226Y-69415108D01*
X130201250Y-69450907D01*
X130128578Y-69472952D01*
X130046860Y-69481000D01*
X129033140Y-69481000D01*
X128951422Y-69472952D01*
X128878750Y-69450907D01*
X128811774Y-69415108D01*
X128753070Y-69366930D01*
X128704892Y-69308226D01*
X128669093Y-69241250D01*
X128647048Y-69168578D01*
X128639000Y-69086860D01*
X128639000Y-68073140D01*
X128647048Y-67991422D01*
X128669093Y-67918750D01*
X128704892Y-67851774D01*
X128753070Y-67793070D01*
X128811774Y-67744892D01*
X128878750Y-67709093D01*
X128951422Y-67687048D01*
X129033140Y-67679000D01*
X130046860Y-67679000D01*
X130128578Y-67687048D01*
X130128578Y-67687048D01*
G37*
G36*
X122508578Y-67687048D02*
X122581250Y-67709093D01*
X122648226Y-67744892D01*
X122706930Y-67793070D01*
X122755108Y-67851774D01*
X122790907Y-67918750D01*
X122812952Y-67991422D01*
X122821000Y-68073140D01*
X122821000Y-69086860D01*
X122812952Y-69168578D01*
X122790907Y-69241250D01*
X122755108Y-69308226D01*
X122706930Y-69366930D01*
X122648226Y-69415108D01*
X122581250Y-69450907D01*
X122508578Y-69472952D01*
X122426860Y-69481000D01*
X121413140Y-69481000D01*
X121331422Y-69472952D01*
X121258750Y-69450907D01*
X121191774Y-69415108D01*
X121133070Y-69366930D01*
X121084892Y-69308226D01*
X121049093Y-69241250D01*
X121027048Y-69168578D01*
X121019000Y-69086860D01*
X121019000Y-68073140D01*
X121027048Y-67991422D01*
X121049093Y-67918750D01*
X121084892Y-67851774D01*
X121133070Y-67793070D01*
X121191774Y-67744892D01*
X121258750Y-67709093D01*
X121331422Y-67687048D01*
X121413140Y-67679000D01*
X122426860Y-67679000D01*
X122508578Y-67687048D01*
X122508578Y-67687048D01*
G37*
G36*
X127648604Y-65118347D02*
X127685145Y-65129432D01*
X127718820Y-65147431D01*
X127748341Y-65171659D01*
X127772569Y-65201180D01*
X127790568Y-65234855D01*
X127801653Y-65271396D01*
X127806000Y-65315538D01*
X127806000Y-66764462D01*
X127801653Y-66808604D01*
X127790568Y-66845145D01*
X127772569Y-66878820D01*
X127748341Y-66908341D01*
X127718820Y-66932569D01*
X127685145Y-66950568D01*
X127648604Y-66961653D01*
X127604462Y-66966000D01*
X126655538Y-66966000D01*
X126611396Y-66961653D01*
X126574855Y-66950568D01*
X126541180Y-66932569D01*
X126511659Y-66908341D01*
X126487433Y-66878821D01*
X126475809Y-66857075D01*
X126462195Y-66836700D01*
X126444868Y-66819373D01*
X126424493Y-66805759D01*
X126401854Y-66796382D01*
X126365569Y-66791000D01*
X126341888Y-66791000D01*
X126295534Y-66786435D01*
X126256863Y-66774704D01*
X126221221Y-66755652D01*
X126189983Y-66730017D01*
X126164348Y-66698779D01*
X126145296Y-66663137D01*
X126133565Y-66624466D01*
X126131102Y-66599456D01*
X126126322Y-66575423D01*
X126116944Y-66552784D01*
X126103330Y-66532409D01*
X126086003Y-66515081D01*
X126082661Y-66512339D01*
X126060131Y-66484885D01*
X126054080Y-66473564D01*
X126040466Y-66453189D01*
X126023139Y-66435862D01*
X126002765Y-66422248D01*
X125980126Y-66412871D01*
X125959955Y-66408858D01*
X125937444Y-66402030D01*
X125918444Y-66391874D01*
X125901792Y-66378208D01*
X125888126Y-66361556D01*
X125877970Y-66342556D01*
X125871716Y-66321938D01*
X125869000Y-66294360D01*
X125869000Y-65785640D01*
X125871716Y-65758062D01*
X125877970Y-65737444D01*
X125888126Y-65718444D01*
X125901792Y-65701792D01*
X125918444Y-65688126D01*
X125937444Y-65677970D01*
X125959954Y-65671142D01*
X125980127Y-65667129D01*
X126002766Y-65657752D01*
X126023140Y-65644137D01*
X126040467Y-65626810D01*
X126054080Y-65606436D01*
X126060131Y-65595115D01*
X126082661Y-65567661D01*
X126086003Y-65564919D01*
X126103330Y-65547592D01*
X126116944Y-65527217D01*
X126126321Y-65504578D01*
X126131102Y-65480544D01*
X126133565Y-65455534D01*
X126145296Y-65416863D01*
X126164348Y-65381221D01*
X126189983Y-65349983D01*
X126221221Y-65324348D01*
X126256863Y-65305296D01*
X126295534Y-65293565D01*
X126341888Y-65289000D01*
X126365569Y-65289000D01*
X126389955Y-65286598D01*
X126413404Y-65279485D01*
X126435015Y-65267934D01*
X126453957Y-65252388D01*
X126475809Y-65222925D01*
X126487433Y-65201179D01*
X126511659Y-65171659D01*
X126541180Y-65147431D01*
X126574855Y-65129432D01*
X126611396Y-65118347D01*
X126655538Y-65114000D01*
X127604462Y-65114000D01*
X127648604Y-65118347D01*
X127648604Y-65118347D01*
G37*
G36*
X124848604Y-65118347D02*
X124885145Y-65129432D01*
X124918820Y-65147431D01*
X124948341Y-65171659D01*
X124972567Y-65201179D01*
X124984191Y-65222925D01*
X124997805Y-65243300D01*
X125015132Y-65260627D01*
X125035507Y-65274241D01*
X125058146Y-65283618D01*
X125094431Y-65289000D01*
X125118112Y-65289000D01*
X125164466Y-65293565D01*
X125203137Y-65305296D01*
X125238779Y-65324348D01*
X125270017Y-65349983D01*
X125295652Y-65381221D01*
X125314704Y-65416863D01*
X125326435Y-65455534D01*
X125328898Y-65480544D01*
X125333678Y-65504577D01*
X125343056Y-65527216D01*
X125356670Y-65547591D01*
X125373997Y-65564919D01*
X125377339Y-65567661D01*
X125399869Y-65595115D01*
X125405920Y-65606436D01*
X125419534Y-65626811D01*
X125436861Y-65644138D01*
X125457235Y-65657752D01*
X125479874Y-65667129D01*
X125500045Y-65671142D01*
X125522556Y-65677970D01*
X125541556Y-65688126D01*
X125558208Y-65701792D01*
X125571874Y-65718444D01*
X125582030Y-65737444D01*
X125588284Y-65758062D01*
X125591000Y-65785640D01*
X125591000Y-66294360D01*
X125588284Y-66321938D01*
X125582030Y-66342556D01*
X125571874Y-66361556D01*
X125558208Y-66378208D01*
X125541556Y-66391874D01*
X125522556Y-66402030D01*
X125500046Y-66408858D01*
X125479873Y-66412871D01*
X125457234Y-66422248D01*
X125436860Y-66435863D01*
X125419533Y-66453190D01*
X125405920Y-66473564D01*
X125399869Y-66484885D01*
X125377339Y-66512339D01*
X125373997Y-66515081D01*
X125356670Y-66532408D01*
X125343056Y-66552783D01*
X125333679Y-66575422D01*
X125328898Y-66599456D01*
X125326435Y-66624466D01*
X125314704Y-66663137D01*
X125295652Y-66698779D01*
X125270017Y-66730017D01*
X125238779Y-66755652D01*
X125203137Y-66774704D01*
X125164466Y-66786435D01*
X125118112Y-66791000D01*
X125094431Y-66791000D01*
X125070045Y-66793402D01*
X125046596Y-66800515D01*
X125024985Y-66812066D01*
X125006043Y-66827612D01*
X124984191Y-66857075D01*
X124972567Y-66878821D01*
X124948341Y-66908341D01*
X124918820Y-66932569D01*
X124885145Y-66950568D01*
X124848604Y-66961653D01*
X124804462Y-66966000D01*
X123855538Y-66966000D01*
X123811396Y-66961653D01*
X123774855Y-66950568D01*
X123741180Y-66932569D01*
X123711659Y-66908341D01*
X123687431Y-66878820D01*
X123669432Y-66845145D01*
X123658347Y-66808604D01*
X123654000Y-66764462D01*
X123654000Y-65315538D01*
X123658347Y-65271396D01*
X123669432Y-65234855D01*
X123687431Y-65201180D01*
X123711659Y-65171659D01*
X123741180Y-65147431D01*
X123774855Y-65129432D01*
X123811396Y-65118347D01*
X123855538Y-65114000D01*
X124804462Y-65114000D01*
X124848604Y-65118347D01*
X124848604Y-65118347D01*
G37*
G36*
X122508578Y-65147048D02*
X122581250Y-65169093D01*
X122648226Y-65204892D01*
X122706930Y-65253070D01*
X122755108Y-65311774D01*
X122790907Y-65378750D01*
X122812952Y-65451422D01*
X122821000Y-65533140D01*
X122821000Y-66546860D01*
X122812952Y-66628578D01*
X122790907Y-66701250D01*
X122755108Y-66768226D01*
X122706930Y-66826930D01*
X122648226Y-66875108D01*
X122581250Y-66910907D01*
X122508578Y-66932952D01*
X122426860Y-66941000D01*
X121413140Y-66941000D01*
X121331422Y-66932952D01*
X121258750Y-66910907D01*
X121191774Y-66875108D01*
X121133070Y-66826930D01*
X121084892Y-66768226D01*
X121049093Y-66701250D01*
X121027048Y-66628578D01*
X121019000Y-66546860D01*
X121019000Y-65533140D01*
X121027048Y-65451422D01*
X121049093Y-65378750D01*
X121084892Y-65311774D01*
X121133070Y-65253070D01*
X121191774Y-65204892D01*
X121258750Y-65169093D01*
X121331422Y-65147048D01*
X121413140Y-65139000D01*
X122426860Y-65139000D01*
X122508578Y-65147048D01*
X122508578Y-65147048D01*
G37*
G36*
X130128578Y-65147048D02*
X130201250Y-65169093D01*
X130268226Y-65204892D01*
X130326930Y-65253070D01*
X130375108Y-65311774D01*
X130410907Y-65378750D01*
X130432952Y-65451422D01*
X130441000Y-65533140D01*
X130441000Y-66546860D01*
X130432952Y-66628578D01*
X130410907Y-66701250D01*
X130375108Y-66768226D01*
X130326930Y-66826930D01*
X130268226Y-66875108D01*
X130201250Y-66910907D01*
X130128578Y-66932952D01*
X130046860Y-66941000D01*
X129033140Y-66941000D01*
X128951422Y-66932952D01*
X128878750Y-66910907D01*
X128811774Y-66875108D01*
X128753070Y-66826930D01*
X128704892Y-66768226D01*
X128669093Y-66701250D01*
X128647048Y-66628578D01*
X128639000Y-66546860D01*
X128639000Y-65533140D01*
X128647048Y-65451422D01*
X128669093Y-65378750D01*
X128704892Y-65311774D01*
X128753070Y-65253070D01*
X128811774Y-65204892D01*
X128878750Y-65169093D01*
X128951422Y-65147048D01*
X129033140Y-65139000D01*
X130046860Y-65139000D01*
X130128578Y-65147048D01*
X130128578Y-65147048D01*
G37*
G36*
X127648604Y-62578347D02*
X127685145Y-62589432D01*
X127718820Y-62607431D01*
X127748341Y-62631659D01*
X127772569Y-62661180D01*
X127790568Y-62694855D01*
X127801653Y-62731396D01*
X127806000Y-62775538D01*
X127806000Y-64224462D01*
X127801653Y-64268604D01*
X127790568Y-64305145D01*
X127772569Y-64338820D01*
X127748341Y-64368341D01*
X127718820Y-64392569D01*
X127685145Y-64410568D01*
X127648604Y-64421653D01*
X127604462Y-64426000D01*
X126655538Y-64426000D01*
X126611396Y-64421653D01*
X126574855Y-64410568D01*
X126541180Y-64392569D01*
X126511659Y-64368341D01*
X126487433Y-64338821D01*
X126475809Y-64317075D01*
X126462195Y-64296700D01*
X126444868Y-64279373D01*
X126424493Y-64265759D01*
X126401854Y-64256382D01*
X126365569Y-64251000D01*
X126341888Y-64251000D01*
X126295534Y-64246435D01*
X126256863Y-64234704D01*
X126221221Y-64215652D01*
X126189983Y-64190017D01*
X126164348Y-64158779D01*
X126145296Y-64123137D01*
X126133565Y-64084466D01*
X126131102Y-64059456D01*
X126126322Y-64035423D01*
X126116944Y-64012784D01*
X126103330Y-63992409D01*
X126086003Y-63975081D01*
X126082661Y-63972339D01*
X126060131Y-63944885D01*
X126054080Y-63933564D01*
X126040466Y-63913189D01*
X126023139Y-63895862D01*
X126002765Y-63882248D01*
X125980126Y-63872871D01*
X125959955Y-63868858D01*
X125937444Y-63862030D01*
X125918444Y-63851874D01*
X125901792Y-63838208D01*
X125888126Y-63821556D01*
X125877970Y-63802556D01*
X125871716Y-63781938D01*
X125869000Y-63754360D01*
X125869000Y-63245640D01*
X125871716Y-63218062D01*
X125877970Y-63197444D01*
X125888126Y-63178444D01*
X125901792Y-63161792D01*
X125918444Y-63148126D01*
X125937444Y-63137970D01*
X125959954Y-63131142D01*
X125980127Y-63127129D01*
X126002766Y-63117752D01*
X126023140Y-63104137D01*
X126040467Y-63086810D01*
X126054080Y-63066436D01*
X126060131Y-63055115D01*
X126082661Y-63027661D01*
X126086003Y-63024919D01*
X126103330Y-63007592D01*
X126116944Y-62987217D01*
X126126321Y-62964578D01*
X126131102Y-62940544D01*
X126133565Y-62915534D01*
X126145296Y-62876863D01*
X126164348Y-62841221D01*
X126189983Y-62809983D01*
X126221221Y-62784348D01*
X126256863Y-62765296D01*
X126295534Y-62753565D01*
X126341888Y-62749000D01*
X126365569Y-62749000D01*
X126389955Y-62746598D01*
X126413404Y-62739485D01*
X126435015Y-62727934D01*
X126453957Y-62712388D01*
X126475809Y-62682925D01*
X126487433Y-62661179D01*
X126511659Y-62631659D01*
X126541180Y-62607431D01*
X126574855Y-62589432D01*
X126611396Y-62578347D01*
X126655538Y-62574000D01*
X127604462Y-62574000D01*
X127648604Y-62578347D01*
X127648604Y-62578347D01*
G37*
G36*
X124848604Y-62578347D02*
X124885145Y-62589432D01*
X124918820Y-62607431D01*
X124948341Y-62631659D01*
X124972567Y-62661179D01*
X124984191Y-62682925D01*
X124997805Y-62703300D01*
X125015132Y-62720627D01*
X125035507Y-62734241D01*
X125058146Y-62743618D01*
X125094431Y-62749000D01*
X125118112Y-62749000D01*
X125164466Y-62753565D01*
X125203137Y-62765296D01*
X125238779Y-62784348D01*
X125270017Y-62809983D01*
X125295652Y-62841221D01*
X125314704Y-62876863D01*
X125326435Y-62915534D01*
X125328898Y-62940544D01*
X125333678Y-62964577D01*
X125343056Y-62987216D01*
X125356670Y-63007591D01*
X125373997Y-63024919D01*
X125377339Y-63027661D01*
X125399869Y-63055115D01*
X125405920Y-63066436D01*
X125419534Y-63086811D01*
X125436861Y-63104138D01*
X125457235Y-63117752D01*
X125479874Y-63127129D01*
X125500045Y-63131142D01*
X125522556Y-63137970D01*
X125541556Y-63148126D01*
X125558208Y-63161792D01*
X125571874Y-63178444D01*
X125582030Y-63197444D01*
X125588284Y-63218062D01*
X125591000Y-63245640D01*
X125591000Y-63754360D01*
X125588284Y-63781938D01*
X125582030Y-63802556D01*
X125571874Y-63821556D01*
X125558208Y-63838208D01*
X125541556Y-63851874D01*
X125522556Y-63862030D01*
X125500046Y-63868858D01*
X125479873Y-63872871D01*
X125457234Y-63882248D01*
X125436860Y-63895863D01*
X125419533Y-63913190D01*
X125405920Y-63933564D01*
X125399869Y-63944885D01*
X125377339Y-63972339D01*
X125373997Y-63975081D01*
X125356670Y-63992408D01*
X125343056Y-64012783D01*
X125333679Y-64035422D01*
X125328898Y-64059456D01*
X125326435Y-64084466D01*
X125314704Y-64123137D01*
X125295652Y-64158779D01*
X125270017Y-64190017D01*
X125238779Y-64215652D01*
X125203137Y-64234704D01*
X125164466Y-64246435D01*
X125118112Y-64251000D01*
X125094431Y-64251000D01*
X125070045Y-64253402D01*
X125046596Y-64260515D01*
X125024985Y-64272066D01*
X125006043Y-64287612D01*
X124984191Y-64317075D01*
X124972567Y-64338821D01*
X124948341Y-64368341D01*
X124918820Y-64392569D01*
X124885145Y-64410568D01*
X124848604Y-64421653D01*
X124804462Y-64426000D01*
X123855538Y-64426000D01*
X123811396Y-64421653D01*
X123774855Y-64410568D01*
X123741180Y-64392569D01*
X123711659Y-64368341D01*
X123687431Y-64338820D01*
X123669432Y-64305145D01*
X123658347Y-64268604D01*
X123654000Y-64224462D01*
X123654000Y-62775538D01*
X123658347Y-62731396D01*
X123669432Y-62694855D01*
X123687431Y-62661180D01*
X123711659Y-62631659D01*
X123741180Y-62607431D01*
X123774855Y-62589432D01*
X123811396Y-62578347D01*
X123855538Y-62574000D01*
X124804462Y-62574000D01*
X124848604Y-62578347D01*
X124848604Y-62578347D01*
G37*
G36*
X122508578Y-62607048D02*
X122581250Y-62629093D01*
X122648226Y-62664892D01*
X122706930Y-62713070D01*
X122755108Y-62771774D01*
X122790907Y-62838750D01*
X122812952Y-62911422D01*
X122821000Y-62993140D01*
X122821000Y-64006860D01*
X122812952Y-64088578D01*
X122790907Y-64161250D01*
X122755108Y-64228226D01*
X122706930Y-64286930D01*
X122648226Y-64335108D01*
X122581250Y-64370907D01*
X122508578Y-64392952D01*
X122426860Y-64401000D01*
X121413140Y-64401000D01*
X121331422Y-64392952D01*
X121258750Y-64370907D01*
X121191774Y-64335108D01*
X121133070Y-64286930D01*
X121084892Y-64228226D01*
X121049093Y-64161250D01*
X121027048Y-64088578D01*
X121019000Y-64006860D01*
X121019000Y-62993140D01*
X121027048Y-62911422D01*
X121049093Y-62838750D01*
X121084892Y-62771774D01*
X121133070Y-62713070D01*
X121191774Y-62664892D01*
X121258750Y-62629093D01*
X121331422Y-62607048D01*
X121413140Y-62599000D01*
X122426860Y-62599000D01*
X122508578Y-62607048D01*
X122508578Y-62607048D01*
G37*
G36*
X130128578Y-62607048D02*
X130201250Y-62629093D01*
X130268226Y-62664892D01*
X130326930Y-62713070D01*
X130375108Y-62771774D01*
X130410907Y-62838750D01*
X130432952Y-62911422D01*
X130441000Y-62993140D01*
X130441000Y-64006860D01*
X130432952Y-64088578D01*
X130410907Y-64161250D01*
X130375108Y-64228226D01*
X130326930Y-64286930D01*
X130268226Y-64335108D01*
X130201250Y-64370907D01*
X130128578Y-64392952D01*
X130046860Y-64401000D01*
X129033140Y-64401000D01*
X128951422Y-64392952D01*
X128878750Y-64370907D01*
X128811774Y-64335108D01*
X128753070Y-64286930D01*
X128704892Y-64228226D01*
X128669093Y-64161250D01*
X128647048Y-64088578D01*
X128639000Y-64006860D01*
X128639000Y-62993140D01*
X128647048Y-62911422D01*
X128669093Y-62838750D01*
X128704892Y-62771774D01*
X128753070Y-62713070D01*
X128811774Y-62664892D01*
X128878750Y-62629093D01*
X128951422Y-62607048D01*
X129033140Y-62599000D01*
X130046860Y-62599000D01*
X130128578Y-62607048D01*
X130128578Y-62607048D01*
G37*
M02*
