%TF.GenerationSoftware,KiCad,Pcbnew,(5.0.2)-1*%
%TF.CreationDate,2019-01-03T02:31:24+01:00*%
%TF.ProjectId,Passives-1206-0805-0603,50617373-6976-4657-932d-313230362d30,rev?*%
%TF.SameCoordinates,Original*%
%TF.FileFunction,Copper,L1,Top*%
%TF.FilePolarity,Positive*%
%FSLAX46Y46*%
G04 Gerber Fmt 4.6, Leading zero omitted, Abs format (unit mm)*
G04 Created by KiCad (PCBNEW (5.0.2)-1) date 1/3/2019 2:31:24 AM*
%MOMM*%
%LPD*%
G01*
G04 APERTURE LIST*
%ADD10C,0.150000*%
%ADD11C,0.050000*%
%ADD12C,1.700000*%
%ADD13C,0.590000*%
%ADD14C,0.875000*%
%ADD15C,0.975000*%
%ADD16C,1.250000*%
%ADD17C,0.250000*%
G04 APERTURE END LIST*
D10*
X130683000Y-81788000D02*
X130683000Y-62992000D01*
X121412000Y-82423000D02*
X130048000Y-82423000D01*
X120777000Y-62992000D02*
X120777000Y-81788000D01*
X130048000Y-62357000D02*
X121412000Y-62357000D01*
X130048000Y-62357000D02*
G75*
G02X130683000Y-62992000I0J-635000D01*
G01*
X130683000Y-81788000D02*
G75*
G02X130048000Y-82423000I-635000J0D01*
G01*
X121412000Y-82423000D02*
G75*
G02X120777000Y-81788000I0J635000D01*
G01*
X120777000Y-62992000D02*
G75*
G02X121412000Y-62357000I635000J0D01*
G01*
D11*
G36*
X122386657Y-80432046D02*
X122427913Y-80438166D01*
X122468371Y-80448300D01*
X122507640Y-80462351D01*
X122545344Y-80480183D01*
X122581117Y-80501625D01*
X122614617Y-80526471D01*
X122645520Y-80554480D01*
X122673529Y-80585383D01*
X122698375Y-80618883D01*
X122719817Y-80654656D01*
X122737649Y-80692360D01*
X122751700Y-80731629D01*
X122761834Y-80772087D01*
X122767954Y-80813343D01*
X122770000Y-80855000D01*
X122770000Y-81705000D01*
X122767954Y-81746657D01*
X122761834Y-81787913D01*
X122751700Y-81828371D01*
X122737649Y-81867640D01*
X122719817Y-81905344D01*
X122698375Y-81941117D01*
X122673529Y-81974617D01*
X122645520Y-82005520D01*
X122614617Y-82033529D01*
X122581117Y-82058375D01*
X122545344Y-82079817D01*
X122507640Y-82097649D01*
X122468371Y-82111700D01*
X122427913Y-82121834D01*
X122386657Y-82127954D01*
X122345000Y-82130000D01*
X121495000Y-82130000D01*
X121453343Y-82127954D01*
X121412087Y-82121834D01*
X121371629Y-82111700D01*
X121332360Y-82097649D01*
X121294656Y-82079817D01*
X121258883Y-82058375D01*
X121225383Y-82033529D01*
X121194480Y-82005520D01*
X121166471Y-81974617D01*
X121141625Y-81941117D01*
X121120183Y-81905344D01*
X121102351Y-81867640D01*
X121088300Y-81828371D01*
X121078166Y-81787913D01*
X121072046Y-81746657D01*
X121070000Y-81705000D01*
X121070000Y-80855000D01*
X121072046Y-80813343D01*
X121078166Y-80772087D01*
X121088300Y-80731629D01*
X121102351Y-80692360D01*
X121120183Y-80654656D01*
X121141625Y-80618883D01*
X121166471Y-80585383D01*
X121194480Y-80554480D01*
X121225383Y-80526471D01*
X121258883Y-80501625D01*
X121294656Y-80480183D01*
X121332360Y-80462351D01*
X121371629Y-80448300D01*
X121412087Y-80438166D01*
X121453343Y-80432046D01*
X121495000Y-80430000D01*
X122345000Y-80430000D01*
X122386657Y-80432046D01*
X122386657Y-80432046D01*
G37*
D12*
X121920000Y-81280000D03*
D11*
G36*
X122386657Y-77892046D02*
X122427913Y-77898166D01*
X122468371Y-77908300D01*
X122507640Y-77922351D01*
X122545344Y-77940183D01*
X122581117Y-77961625D01*
X122614617Y-77986471D01*
X122645520Y-78014480D01*
X122673529Y-78045383D01*
X122698375Y-78078883D01*
X122719817Y-78114656D01*
X122737649Y-78152360D01*
X122751700Y-78191629D01*
X122761834Y-78232087D01*
X122767954Y-78273343D01*
X122770000Y-78315000D01*
X122770000Y-79165000D01*
X122767954Y-79206657D01*
X122761834Y-79247913D01*
X122751700Y-79288371D01*
X122737649Y-79327640D01*
X122719817Y-79365344D01*
X122698375Y-79401117D01*
X122673529Y-79434617D01*
X122645520Y-79465520D01*
X122614617Y-79493529D01*
X122581117Y-79518375D01*
X122545344Y-79539817D01*
X122507640Y-79557649D01*
X122468371Y-79571700D01*
X122427913Y-79581834D01*
X122386657Y-79587954D01*
X122345000Y-79590000D01*
X121495000Y-79590000D01*
X121453343Y-79587954D01*
X121412087Y-79581834D01*
X121371629Y-79571700D01*
X121332360Y-79557649D01*
X121294656Y-79539817D01*
X121258883Y-79518375D01*
X121225383Y-79493529D01*
X121194480Y-79465520D01*
X121166471Y-79434617D01*
X121141625Y-79401117D01*
X121120183Y-79365344D01*
X121102351Y-79327640D01*
X121088300Y-79288371D01*
X121078166Y-79247913D01*
X121072046Y-79206657D01*
X121070000Y-79165000D01*
X121070000Y-78315000D01*
X121072046Y-78273343D01*
X121078166Y-78232087D01*
X121088300Y-78191629D01*
X121102351Y-78152360D01*
X121120183Y-78114656D01*
X121141625Y-78078883D01*
X121166471Y-78045383D01*
X121194480Y-78014480D01*
X121225383Y-77986471D01*
X121258883Y-77961625D01*
X121294656Y-77940183D01*
X121332360Y-77922351D01*
X121371629Y-77908300D01*
X121412087Y-77898166D01*
X121453343Y-77892046D01*
X121495000Y-77890000D01*
X122345000Y-77890000D01*
X122386657Y-77892046D01*
X122386657Y-77892046D01*
G37*
D12*
X121920000Y-78740000D03*
D11*
G36*
X122386657Y-75352046D02*
X122427913Y-75358166D01*
X122468371Y-75368300D01*
X122507640Y-75382351D01*
X122545344Y-75400183D01*
X122581117Y-75421625D01*
X122614617Y-75446471D01*
X122645520Y-75474480D01*
X122673529Y-75505383D01*
X122698375Y-75538883D01*
X122719817Y-75574656D01*
X122737649Y-75612360D01*
X122751700Y-75651629D01*
X122761834Y-75692087D01*
X122767954Y-75733343D01*
X122770000Y-75775000D01*
X122770000Y-76625000D01*
X122767954Y-76666657D01*
X122761834Y-76707913D01*
X122751700Y-76748371D01*
X122737649Y-76787640D01*
X122719817Y-76825344D01*
X122698375Y-76861117D01*
X122673529Y-76894617D01*
X122645520Y-76925520D01*
X122614617Y-76953529D01*
X122581117Y-76978375D01*
X122545344Y-76999817D01*
X122507640Y-77017649D01*
X122468371Y-77031700D01*
X122427913Y-77041834D01*
X122386657Y-77047954D01*
X122345000Y-77050000D01*
X121495000Y-77050000D01*
X121453343Y-77047954D01*
X121412087Y-77041834D01*
X121371629Y-77031700D01*
X121332360Y-77017649D01*
X121294656Y-76999817D01*
X121258883Y-76978375D01*
X121225383Y-76953529D01*
X121194480Y-76925520D01*
X121166471Y-76894617D01*
X121141625Y-76861117D01*
X121120183Y-76825344D01*
X121102351Y-76787640D01*
X121088300Y-76748371D01*
X121078166Y-76707913D01*
X121072046Y-76666657D01*
X121070000Y-76625000D01*
X121070000Y-75775000D01*
X121072046Y-75733343D01*
X121078166Y-75692087D01*
X121088300Y-75651629D01*
X121102351Y-75612360D01*
X121120183Y-75574656D01*
X121141625Y-75538883D01*
X121166471Y-75505383D01*
X121194480Y-75474480D01*
X121225383Y-75446471D01*
X121258883Y-75421625D01*
X121294656Y-75400183D01*
X121332360Y-75382351D01*
X121371629Y-75368300D01*
X121412087Y-75358166D01*
X121453343Y-75352046D01*
X121495000Y-75350000D01*
X122345000Y-75350000D01*
X122386657Y-75352046D01*
X122386657Y-75352046D01*
G37*
D12*
X121920000Y-76200000D03*
D11*
G36*
X122386657Y-72812046D02*
X122427913Y-72818166D01*
X122468371Y-72828300D01*
X122507640Y-72842351D01*
X122545344Y-72860183D01*
X122581117Y-72881625D01*
X122614617Y-72906471D01*
X122645520Y-72934480D01*
X122673529Y-72965383D01*
X122698375Y-72998883D01*
X122719817Y-73034656D01*
X122737649Y-73072360D01*
X122751700Y-73111629D01*
X122761834Y-73152087D01*
X122767954Y-73193343D01*
X122770000Y-73235000D01*
X122770000Y-74085000D01*
X122767954Y-74126657D01*
X122761834Y-74167913D01*
X122751700Y-74208371D01*
X122737649Y-74247640D01*
X122719817Y-74285344D01*
X122698375Y-74321117D01*
X122673529Y-74354617D01*
X122645520Y-74385520D01*
X122614617Y-74413529D01*
X122581117Y-74438375D01*
X122545344Y-74459817D01*
X122507640Y-74477649D01*
X122468371Y-74491700D01*
X122427913Y-74501834D01*
X122386657Y-74507954D01*
X122345000Y-74510000D01*
X121495000Y-74510000D01*
X121453343Y-74507954D01*
X121412087Y-74501834D01*
X121371629Y-74491700D01*
X121332360Y-74477649D01*
X121294656Y-74459817D01*
X121258883Y-74438375D01*
X121225383Y-74413529D01*
X121194480Y-74385520D01*
X121166471Y-74354617D01*
X121141625Y-74321117D01*
X121120183Y-74285344D01*
X121102351Y-74247640D01*
X121088300Y-74208371D01*
X121078166Y-74167913D01*
X121072046Y-74126657D01*
X121070000Y-74085000D01*
X121070000Y-73235000D01*
X121072046Y-73193343D01*
X121078166Y-73152087D01*
X121088300Y-73111629D01*
X121102351Y-73072360D01*
X121120183Y-73034656D01*
X121141625Y-72998883D01*
X121166471Y-72965383D01*
X121194480Y-72934480D01*
X121225383Y-72906471D01*
X121258883Y-72881625D01*
X121294656Y-72860183D01*
X121332360Y-72842351D01*
X121371629Y-72828300D01*
X121412087Y-72818166D01*
X121453343Y-72812046D01*
X121495000Y-72810000D01*
X122345000Y-72810000D01*
X122386657Y-72812046D01*
X122386657Y-72812046D01*
G37*
D12*
X121920000Y-73660000D03*
D11*
G36*
X122386657Y-70272046D02*
X122427913Y-70278166D01*
X122468371Y-70288300D01*
X122507640Y-70302351D01*
X122545344Y-70320183D01*
X122581117Y-70341625D01*
X122614617Y-70366471D01*
X122645520Y-70394480D01*
X122673529Y-70425383D01*
X122698375Y-70458883D01*
X122719817Y-70494656D01*
X122737649Y-70532360D01*
X122751700Y-70571629D01*
X122761834Y-70612087D01*
X122767954Y-70653343D01*
X122770000Y-70695000D01*
X122770000Y-71545000D01*
X122767954Y-71586657D01*
X122761834Y-71627913D01*
X122751700Y-71668371D01*
X122737649Y-71707640D01*
X122719817Y-71745344D01*
X122698375Y-71781117D01*
X122673529Y-71814617D01*
X122645520Y-71845520D01*
X122614617Y-71873529D01*
X122581117Y-71898375D01*
X122545344Y-71919817D01*
X122507640Y-71937649D01*
X122468371Y-71951700D01*
X122427913Y-71961834D01*
X122386657Y-71967954D01*
X122345000Y-71970000D01*
X121495000Y-71970000D01*
X121453343Y-71967954D01*
X121412087Y-71961834D01*
X121371629Y-71951700D01*
X121332360Y-71937649D01*
X121294656Y-71919817D01*
X121258883Y-71898375D01*
X121225383Y-71873529D01*
X121194480Y-71845520D01*
X121166471Y-71814617D01*
X121141625Y-71781117D01*
X121120183Y-71745344D01*
X121102351Y-71707640D01*
X121088300Y-71668371D01*
X121078166Y-71627913D01*
X121072046Y-71586657D01*
X121070000Y-71545000D01*
X121070000Y-70695000D01*
X121072046Y-70653343D01*
X121078166Y-70612087D01*
X121088300Y-70571629D01*
X121102351Y-70532360D01*
X121120183Y-70494656D01*
X121141625Y-70458883D01*
X121166471Y-70425383D01*
X121194480Y-70394480D01*
X121225383Y-70366471D01*
X121258883Y-70341625D01*
X121294656Y-70320183D01*
X121332360Y-70302351D01*
X121371629Y-70288300D01*
X121412087Y-70278166D01*
X121453343Y-70272046D01*
X121495000Y-70270000D01*
X122345000Y-70270000D01*
X122386657Y-70272046D01*
X122386657Y-70272046D01*
G37*
D12*
X121920000Y-71120000D03*
D11*
G36*
X122386657Y-67732046D02*
X122427913Y-67738166D01*
X122468371Y-67748300D01*
X122507640Y-67762351D01*
X122545344Y-67780183D01*
X122581117Y-67801625D01*
X122614617Y-67826471D01*
X122645520Y-67854480D01*
X122673529Y-67885383D01*
X122698375Y-67918883D01*
X122719817Y-67954656D01*
X122737649Y-67992360D01*
X122751700Y-68031629D01*
X122761834Y-68072087D01*
X122767954Y-68113343D01*
X122770000Y-68155000D01*
X122770000Y-69005000D01*
X122767954Y-69046657D01*
X122761834Y-69087913D01*
X122751700Y-69128371D01*
X122737649Y-69167640D01*
X122719817Y-69205344D01*
X122698375Y-69241117D01*
X122673529Y-69274617D01*
X122645520Y-69305520D01*
X122614617Y-69333529D01*
X122581117Y-69358375D01*
X122545344Y-69379817D01*
X122507640Y-69397649D01*
X122468371Y-69411700D01*
X122427913Y-69421834D01*
X122386657Y-69427954D01*
X122345000Y-69430000D01*
X121495000Y-69430000D01*
X121453343Y-69427954D01*
X121412087Y-69421834D01*
X121371629Y-69411700D01*
X121332360Y-69397649D01*
X121294656Y-69379817D01*
X121258883Y-69358375D01*
X121225383Y-69333529D01*
X121194480Y-69305520D01*
X121166471Y-69274617D01*
X121141625Y-69241117D01*
X121120183Y-69205344D01*
X121102351Y-69167640D01*
X121088300Y-69128371D01*
X121078166Y-69087913D01*
X121072046Y-69046657D01*
X121070000Y-69005000D01*
X121070000Y-68155000D01*
X121072046Y-68113343D01*
X121078166Y-68072087D01*
X121088300Y-68031629D01*
X121102351Y-67992360D01*
X121120183Y-67954656D01*
X121141625Y-67918883D01*
X121166471Y-67885383D01*
X121194480Y-67854480D01*
X121225383Y-67826471D01*
X121258883Y-67801625D01*
X121294656Y-67780183D01*
X121332360Y-67762351D01*
X121371629Y-67748300D01*
X121412087Y-67738166D01*
X121453343Y-67732046D01*
X121495000Y-67730000D01*
X122345000Y-67730000D01*
X122386657Y-67732046D01*
X122386657Y-67732046D01*
G37*
D12*
X121920000Y-68580000D03*
D11*
G36*
X122386657Y-65192046D02*
X122427913Y-65198166D01*
X122468371Y-65208300D01*
X122507640Y-65222351D01*
X122545344Y-65240183D01*
X122581117Y-65261625D01*
X122614617Y-65286471D01*
X122645520Y-65314480D01*
X122673529Y-65345383D01*
X122698375Y-65378883D01*
X122719817Y-65414656D01*
X122737649Y-65452360D01*
X122751700Y-65491629D01*
X122761834Y-65532087D01*
X122767954Y-65573343D01*
X122770000Y-65615000D01*
X122770000Y-66465000D01*
X122767954Y-66506657D01*
X122761834Y-66547913D01*
X122751700Y-66588371D01*
X122737649Y-66627640D01*
X122719817Y-66665344D01*
X122698375Y-66701117D01*
X122673529Y-66734617D01*
X122645520Y-66765520D01*
X122614617Y-66793529D01*
X122581117Y-66818375D01*
X122545344Y-66839817D01*
X122507640Y-66857649D01*
X122468371Y-66871700D01*
X122427913Y-66881834D01*
X122386657Y-66887954D01*
X122345000Y-66890000D01*
X121495000Y-66890000D01*
X121453343Y-66887954D01*
X121412087Y-66881834D01*
X121371629Y-66871700D01*
X121332360Y-66857649D01*
X121294656Y-66839817D01*
X121258883Y-66818375D01*
X121225383Y-66793529D01*
X121194480Y-66765520D01*
X121166471Y-66734617D01*
X121141625Y-66701117D01*
X121120183Y-66665344D01*
X121102351Y-66627640D01*
X121088300Y-66588371D01*
X121078166Y-66547913D01*
X121072046Y-66506657D01*
X121070000Y-66465000D01*
X121070000Y-65615000D01*
X121072046Y-65573343D01*
X121078166Y-65532087D01*
X121088300Y-65491629D01*
X121102351Y-65452360D01*
X121120183Y-65414656D01*
X121141625Y-65378883D01*
X121166471Y-65345383D01*
X121194480Y-65314480D01*
X121225383Y-65286471D01*
X121258883Y-65261625D01*
X121294656Y-65240183D01*
X121332360Y-65222351D01*
X121371629Y-65208300D01*
X121412087Y-65198166D01*
X121453343Y-65192046D01*
X121495000Y-65190000D01*
X122345000Y-65190000D01*
X122386657Y-65192046D01*
X122386657Y-65192046D01*
G37*
D12*
X121920000Y-66040000D03*
D11*
G36*
X122386657Y-62652046D02*
X122427913Y-62658166D01*
X122468371Y-62668300D01*
X122507640Y-62682351D01*
X122545344Y-62700183D01*
X122581117Y-62721625D01*
X122614617Y-62746471D01*
X122645520Y-62774480D01*
X122673529Y-62805383D01*
X122698375Y-62838883D01*
X122719817Y-62874656D01*
X122737649Y-62912360D01*
X122751700Y-62951629D01*
X122761834Y-62992087D01*
X122767954Y-63033343D01*
X122770000Y-63075000D01*
X122770000Y-63925000D01*
X122767954Y-63966657D01*
X122761834Y-64007913D01*
X122751700Y-64048371D01*
X122737649Y-64087640D01*
X122719817Y-64125344D01*
X122698375Y-64161117D01*
X122673529Y-64194617D01*
X122645520Y-64225520D01*
X122614617Y-64253529D01*
X122581117Y-64278375D01*
X122545344Y-64299817D01*
X122507640Y-64317649D01*
X122468371Y-64331700D01*
X122427913Y-64341834D01*
X122386657Y-64347954D01*
X122345000Y-64350000D01*
X121495000Y-64350000D01*
X121453343Y-64347954D01*
X121412087Y-64341834D01*
X121371629Y-64331700D01*
X121332360Y-64317649D01*
X121294656Y-64299817D01*
X121258883Y-64278375D01*
X121225383Y-64253529D01*
X121194480Y-64225520D01*
X121166471Y-64194617D01*
X121141625Y-64161117D01*
X121120183Y-64125344D01*
X121102351Y-64087640D01*
X121088300Y-64048371D01*
X121078166Y-64007913D01*
X121072046Y-63966657D01*
X121070000Y-63925000D01*
X121070000Y-63075000D01*
X121072046Y-63033343D01*
X121078166Y-62992087D01*
X121088300Y-62951629D01*
X121102351Y-62912360D01*
X121120183Y-62874656D01*
X121141625Y-62838883D01*
X121166471Y-62805383D01*
X121194480Y-62774480D01*
X121225383Y-62746471D01*
X121258883Y-62721625D01*
X121294656Y-62700183D01*
X121332360Y-62682351D01*
X121371629Y-62668300D01*
X121412087Y-62658166D01*
X121453343Y-62652046D01*
X121495000Y-62650000D01*
X122345000Y-62650000D01*
X122386657Y-62652046D01*
X122386657Y-62652046D01*
G37*
D12*
X121920000Y-63500000D03*
D11*
G36*
X130006657Y-62652046D02*
X130047913Y-62658166D01*
X130088371Y-62668300D01*
X130127640Y-62682351D01*
X130165344Y-62700183D01*
X130201117Y-62721625D01*
X130234617Y-62746471D01*
X130265520Y-62774480D01*
X130293529Y-62805383D01*
X130318375Y-62838883D01*
X130339817Y-62874656D01*
X130357649Y-62912360D01*
X130371700Y-62951629D01*
X130381834Y-62992087D01*
X130387954Y-63033343D01*
X130390000Y-63075000D01*
X130390000Y-63925000D01*
X130387954Y-63966657D01*
X130381834Y-64007913D01*
X130371700Y-64048371D01*
X130357649Y-64087640D01*
X130339817Y-64125344D01*
X130318375Y-64161117D01*
X130293529Y-64194617D01*
X130265520Y-64225520D01*
X130234617Y-64253529D01*
X130201117Y-64278375D01*
X130165344Y-64299817D01*
X130127640Y-64317649D01*
X130088371Y-64331700D01*
X130047913Y-64341834D01*
X130006657Y-64347954D01*
X129965000Y-64350000D01*
X129115000Y-64350000D01*
X129073343Y-64347954D01*
X129032087Y-64341834D01*
X128991629Y-64331700D01*
X128952360Y-64317649D01*
X128914656Y-64299817D01*
X128878883Y-64278375D01*
X128845383Y-64253529D01*
X128814480Y-64225520D01*
X128786471Y-64194617D01*
X128761625Y-64161117D01*
X128740183Y-64125344D01*
X128722351Y-64087640D01*
X128708300Y-64048371D01*
X128698166Y-64007913D01*
X128692046Y-63966657D01*
X128690000Y-63925000D01*
X128690000Y-63075000D01*
X128692046Y-63033343D01*
X128698166Y-62992087D01*
X128708300Y-62951629D01*
X128722351Y-62912360D01*
X128740183Y-62874656D01*
X128761625Y-62838883D01*
X128786471Y-62805383D01*
X128814480Y-62774480D01*
X128845383Y-62746471D01*
X128878883Y-62721625D01*
X128914656Y-62700183D01*
X128952360Y-62682351D01*
X128991629Y-62668300D01*
X129032087Y-62658166D01*
X129073343Y-62652046D01*
X129115000Y-62650000D01*
X129965000Y-62650000D01*
X130006657Y-62652046D01*
X130006657Y-62652046D01*
G37*
D12*
X129540000Y-63500000D03*
D11*
G36*
X130006657Y-65192046D02*
X130047913Y-65198166D01*
X130088371Y-65208300D01*
X130127640Y-65222351D01*
X130165344Y-65240183D01*
X130201117Y-65261625D01*
X130234617Y-65286471D01*
X130265520Y-65314480D01*
X130293529Y-65345383D01*
X130318375Y-65378883D01*
X130339817Y-65414656D01*
X130357649Y-65452360D01*
X130371700Y-65491629D01*
X130381834Y-65532087D01*
X130387954Y-65573343D01*
X130390000Y-65615000D01*
X130390000Y-66465000D01*
X130387954Y-66506657D01*
X130381834Y-66547913D01*
X130371700Y-66588371D01*
X130357649Y-66627640D01*
X130339817Y-66665344D01*
X130318375Y-66701117D01*
X130293529Y-66734617D01*
X130265520Y-66765520D01*
X130234617Y-66793529D01*
X130201117Y-66818375D01*
X130165344Y-66839817D01*
X130127640Y-66857649D01*
X130088371Y-66871700D01*
X130047913Y-66881834D01*
X130006657Y-66887954D01*
X129965000Y-66890000D01*
X129115000Y-66890000D01*
X129073343Y-66887954D01*
X129032087Y-66881834D01*
X128991629Y-66871700D01*
X128952360Y-66857649D01*
X128914656Y-66839817D01*
X128878883Y-66818375D01*
X128845383Y-66793529D01*
X128814480Y-66765520D01*
X128786471Y-66734617D01*
X128761625Y-66701117D01*
X128740183Y-66665344D01*
X128722351Y-66627640D01*
X128708300Y-66588371D01*
X128698166Y-66547913D01*
X128692046Y-66506657D01*
X128690000Y-66465000D01*
X128690000Y-65615000D01*
X128692046Y-65573343D01*
X128698166Y-65532087D01*
X128708300Y-65491629D01*
X128722351Y-65452360D01*
X128740183Y-65414656D01*
X128761625Y-65378883D01*
X128786471Y-65345383D01*
X128814480Y-65314480D01*
X128845383Y-65286471D01*
X128878883Y-65261625D01*
X128914656Y-65240183D01*
X128952360Y-65222351D01*
X128991629Y-65208300D01*
X129032087Y-65198166D01*
X129073343Y-65192046D01*
X129115000Y-65190000D01*
X129965000Y-65190000D01*
X130006657Y-65192046D01*
X130006657Y-65192046D01*
G37*
D12*
X129540000Y-66040000D03*
D11*
G36*
X130006657Y-67732046D02*
X130047913Y-67738166D01*
X130088371Y-67748300D01*
X130127640Y-67762351D01*
X130165344Y-67780183D01*
X130201117Y-67801625D01*
X130234617Y-67826471D01*
X130265520Y-67854480D01*
X130293529Y-67885383D01*
X130318375Y-67918883D01*
X130339817Y-67954656D01*
X130357649Y-67992360D01*
X130371700Y-68031629D01*
X130381834Y-68072087D01*
X130387954Y-68113343D01*
X130390000Y-68155000D01*
X130390000Y-69005000D01*
X130387954Y-69046657D01*
X130381834Y-69087913D01*
X130371700Y-69128371D01*
X130357649Y-69167640D01*
X130339817Y-69205344D01*
X130318375Y-69241117D01*
X130293529Y-69274617D01*
X130265520Y-69305520D01*
X130234617Y-69333529D01*
X130201117Y-69358375D01*
X130165344Y-69379817D01*
X130127640Y-69397649D01*
X130088371Y-69411700D01*
X130047913Y-69421834D01*
X130006657Y-69427954D01*
X129965000Y-69430000D01*
X129115000Y-69430000D01*
X129073343Y-69427954D01*
X129032087Y-69421834D01*
X128991629Y-69411700D01*
X128952360Y-69397649D01*
X128914656Y-69379817D01*
X128878883Y-69358375D01*
X128845383Y-69333529D01*
X128814480Y-69305520D01*
X128786471Y-69274617D01*
X128761625Y-69241117D01*
X128740183Y-69205344D01*
X128722351Y-69167640D01*
X128708300Y-69128371D01*
X128698166Y-69087913D01*
X128692046Y-69046657D01*
X128690000Y-69005000D01*
X128690000Y-68155000D01*
X128692046Y-68113343D01*
X128698166Y-68072087D01*
X128708300Y-68031629D01*
X128722351Y-67992360D01*
X128740183Y-67954656D01*
X128761625Y-67918883D01*
X128786471Y-67885383D01*
X128814480Y-67854480D01*
X128845383Y-67826471D01*
X128878883Y-67801625D01*
X128914656Y-67780183D01*
X128952360Y-67762351D01*
X128991629Y-67748300D01*
X129032087Y-67738166D01*
X129073343Y-67732046D01*
X129115000Y-67730000D01*
X129965000Y-67730000D01*
X130006657Y-67732046D01*
X130006657Y-67732046D01*
G37*
D12*
X129540000Y-68580000D03*
D11*
G36*
X130006657Y-70272046D02*
X130047913Y-70278166D01*
X130088371Y-70288300D01*
X130127640Y-70302351D01*
X130165344Y-70320183D01*
X130201117Y-70341625D01*
X130234617Y-70366471D01*
X130265520Y-70394480D01*
X130293529Y-70425383D01*
X130318375Y-70458883D01*
X130339817Y-70494656D01*
X130357649Y-70532360D01*
X130371700Y-70571629D01*
X130381834Y-70612087D01*
X130387954Y-70653343D01*
X130390000Y-70695000D01*
X130390000Y-71545000D01*
X130387954Y-71586657D01*
X130381834Y-71627913D01*
X130371700Y-71668371D01*
X130357649Y-71707640D01*
X130339817Y-71745344D01*
X130318375Y-71781117D01*
X130293529Y-71814617D01*
X130265520Y-71845520D01*
X130234617Y-71873529D01*
X130201117Y-71898375D01*
X130165344Y-71919817D01*
X130127640Y-71937649D01*
X130088371Y-71951700D01*
X130047913Y-71961834D01*
X130006657Y-71967954D01*
X129965000Y-71970000D01*
X129115000Y-71970000D01*
X129073343Y-71967954D01*
X129032087Y-71961834D01*
X128991629Y-71951700D01*
X128952360Y-71937649D01*
X128914656Y-71919817D01*
X128878883Y-71898375D01*
X128845383Y-71873529D01*
X128814480Y-71845520D01*
X128786471Y-71814617D01*
X128761625Y-71781117D01*
X128740183Y-71745344D01*
X128722351Y-71707640D01*
X128708300Y-71668371D01*
X128698166Y-71627913D01*
X128692046Y-71586657D01*
X128690000Y-71545000D01*
X128690000Y-70695000D01*
X128692046Y-70653343D01*
X128698166Y-70612087D01*
X128708300Y-70571629D01*
X128722351Y-70532360D01*
X128740183Y-70494656D01*
X128761625Y-70458883D01*
X128786471Y-70425383D01*
X128814480Y-70394480D01*
X128845383Y-70366471D01*
X128878883Y-70341625D01*
X128914656Y-70320183D01*
X128952360Y-70302351D01*
X128991629Y-70288300D01*
X129032087Y-70278166D01*
X129073343Y-70272046D01*
X129115000Y-70270000D01*
X129965000Y-70270000D01*
X130006657Y-70272046D01*
X130006657Y-70272046D01*
G37*
D12*
X129540000Y-71120000D03*
D11*
G36*
X130006657Y-72812046D02*
X130047913Y-72818166D01*
X130088371Y-72828300D01*
X130127640Y-72842351D01*
X130165344Y-72860183D01*
X130201117Y-72881625D01*
X130234617Y-72906471D01*
X130265520Y-72934480D01*
X130293529Y-72965383D01*
X130318375Y-72998883D01*
X130339817Y-73034656D01*
X130357649Y-73072360D01*
X130371700Y-73111629D01*
X130381834Y-73152087D01*
X130387954Y-73193343D01*
X130390000Y-73235000D01*
X130390000Y-74085000D01*
X130387954Y-74126657D01*
X130381834Y-74167913D01*
X130371700Y-74208371D01*
X130357649Y-74247640D01*
X130339817Y-74285344D01*
X130318375Y-74321117D01*
X130293529Y-74354617D01*
X130265520Y-74385520D01*
X130234617Y-74413529D01*
X130201117Y-74438375D01*
X130165344Y-74459817D01*
X130127640Y-74477649D01*
X130088371Y-74491700D01*
X130047913Y-74501834D01*
X130006657Y-74507954D01*
X129965000Y-74510000D01*
X129115000Y-74510000D01*
X129073343Y-74507954D01*
X129032087Y-74501834D01*
X128991629Y-74491700D01*
X128952360Y-74477649D01*
X128914656Y-74459817D01*
X128878883Y-74438375D01*
X128845383Y-74413529D01*
X128814480Y-74385520D01*
X128786471Y-74354617D01*
X128761625Y-74321117D01*
X128740183Y-74285344D01*
X128722351Y-74247640D01*
X128708300Y-74208371D01*
X128698166Y-74167913D01*
X128692046Y-74126657D01*
X128690000Y-74085000D01*
X128690000Y-73235000D01*
X128692046Y-73193343D01*
X128698166Y-73152087D01*
X128708300Y-73111629D01*
X128722351Y-73072360D01*
X128740183Y-73034656D01*
X128761625Y-72998883D01*
X128786471Y-72965383D01*
X128814480Y-72934480D01*
X128845383Y-72906471D01*
X128878883Y-72881625D01*
X128914656Y-72860183D01*
X128952360Y-72842351D01*
X128991629Y-72828300D01*
X129032087Y-72818166D01*
X129073343Y-72812046D01*
X129115000Y-72810000D01*
X129965000Y-72810000D01*
X130006657Y-72812046D01*
X130006657Y-72812046D01*
G37*
D12*
X129540000Y-73660000D03*
D11*
G36*
X130006657Y-75352046D02*
X130047913Y-75358166D01*
X130088371Y-75368300D01*
X130127640Y-75382351D01*
X130165344Y-75400183D01*
X130201117Y-75421625D01*
X130234617Y-75446471D01*
X130265520Y-75474480D01*
X130293529Y-75505383D01*
X130318375Y-75538883D01*
X130339817Y-75574656D01*
X130357649Y-75612360D01*
X130371700Y-75651629D01*
X130381834Y-75692087D01*
X130387954Y-75733343D01*
X130390000Y-75775000D01*
X130390000Y-76625000D01*
X130387954Y-76666657D01*
X130381834Y-76707913D01*
X130371700Y-76748371D01*
X130357649Y-76787640D01*
X130339817Y-76825344D01*
X130318375Y-76861117D01*
X130293529Y-76894617D01*
X130265520Y-76925520D01*
X130234617Y-76953529D01*
X130201117Y-76978375D01*
X130165344Y-76999817D01*
X130127640Y-77017649D01*
X130088371Y-77031700D01*
X130047913Y-77041834D01*
X130006657Y-77047954D01*
X129965000Y-77050000D01*
X129115000Y-77050000D01*
X129073343Y-77047954D01*
X129032087Y-77041834D01*
X128991629Y-77031700D01*
X128952360Y-77017649D01*
X128914656Y-76999817D01*
X128878883Y-76978375D01*
X128845383Y-76953529D01*
X128814480Y-76925520D01*
X128786471Y-76894617D01*
X128761625Y-76861117D01*
X128740183Y-76825344D01*
X128722351Y-76787640D01*
X128708300Y-76748371D01*
X128698166Y-76707913D01*
X128692046Y-76666657D01*
X128690000Y-76625000D01*
X128690000Y-75775000D01*
X128692046Y-75733343D01*
X128698166Y-75692087D01*
X128708300Y-75651629D01*
X128722351Y-75612360D01*
X128740183Y-75574656D01*
X128761625Y-75538883D01*
X128786471Y-75505383D01*
X128814480Y-75474480D01*
X128845383Y-75446471D01*
X128878883Y-75421625D01*
X128914656Y-75400183D01*
X128952360Y-75382351D01*
X128991629Y-75368300D01*
X129032087Y-75358166D01*
X129073343Y-75352046D01*
X129115000Y-75350000D01*
X129965000Y-75350000D01*
X130006657Y-75352046D01*
X130006657Y-75352046D01*
G37*
D12*
X129540000Y-76200000D03*
D11*
G36*
X130006657Y-77892046D02*
X130047913Y-77898166D01*
X130088371Y-77908300D01*
X130127640Y-77922351D01*
X130165344Y-77940183D01*
X130201117Y-77961625D01*
X130234617Y-77986471D01*
X130265520Y-78014480D01*
X130293529Y-78045383D01*
X130318375Y-78078883D01*
X130339817Y-78114656D01*
X130357649Y-78152360D01*
X130371700Y-78191629D01*
X130381834Y-78232087D01*
X130387954Y-78273343D01*
X130390000Y-78315000D01*
X130390000Y-79165000D01*
X130387954Y-79206657D01*
X130381834Y-79247913D01*
X130371700Y-79288371D01*
X130357649Y-79327640D01*
X130339817Y-79365344D01*
X130318375Y-79401117D01*
X130293529Y-79434617D01*
X130265520Y-79465520D01*
X130234617Y-79493529D01*
X130201117Y-79518375D01*
X130165344Y-79539817D01*
X130127640Y-79557649D01*
X130088371Y-79571700D01*
X130047913Y-79581834D01*
X130006657Y-79587954D01*
X129965000Y-79590000D01*
X129115000Y-79590000D01*
X129073343Y-79587954D01*
X129032087Y-79581834D01*
X128991629Y-79571700D01*
X128952360Y-79557649D01*
X128914656Y-79539817D01*
X128878883Y-79518375D01*
X128845383Y-79493529D01*
X128814480Y-79465520D01*
X128786471Y-79434617D01*
X128761625Y-79401117D01*
X128740183Y-79365344D01*
X128722351Y-79327640D01*
X128708300Y-79288371D01*
X128698166Y-79247913D01*
X128692046Y-79206657D01*
X128690000Y-79165000D01*
X128690000Y-78315000D01*
X128692046Y-78273343D01*
X128698166Y-78232087D01*
X128708300Y-78191629D01*
X128722351Y-78152360D01*
X128740183Y-78114656D01*
X128761625Y-78078883D01*
X128786471Y-78045383D01*
X128814480Y-78014480D01*
X128845383Y-77986471D01*
X128878883Y-77961625D01*
X128914656Y-77940183D01*
X128952360Y-77922351D01*
X128991629Y-77908300D01*
X129032087Y-77898166D01*
X129073343Y-77892046D01*
X129115000Y-77890000D01*
X129965000Y-77890000D01*
X130006657Y-77892046D01*
X130006657Y-77892046D01*
G37*
D12*
X129540000Y-78740000D03*
D11*
G36*
X130006657Y-80432046D02*
X130047913Y-80438166D01*
X130088371Y-80448300D01*
X130127640Y-80462351D01*
X130165344Y-80480183D01*
X130201117Y-80501625D01*
X130234617Y-80526471D01*
X130265520Y-80554480D01*
X130293529Y-80585383D01*
X130318375Y-80618883D01*
X130339817Y-80654656D01*
X130357649Y-80692360D01*
X130371700Y-80731629D01*
X130381834Y-80772087D01*
X130387954Y-80813343D01*
X130390000Y-80855000D01*
X130390000Y-81705000D01*
X130387954Y-81746657D01*
X130381834Y-81787913D01*
X130371700Y-81828371D01*
X130357649Y-81867640D01*
X130339817Y-81905344D01*
X130318375Y-81941117D01*
X130293529Y-81974617D01*
X130265520Y-82005520D01*
X130234617Y-82033529D01*
X130201117Y-82058375D01*
X130165344Y-82079817D01*
X130127640Y-82097649D01*
X130088371Y-82111700D01*
X130047913Y-82121834D01*
X130006657Y-82127954D01*
X129965000Y-82130000D01*
X129115000Y-82130000D01*
X129073343Y-82127954D01*
X129032087Y-82121834D01*
X128991629Y-82111700D01*
X128952360Y-82097649D01*
X128914656Y-82079817D01*
X128878883Y-82058375D01*
X128845383Y-82033529D01*
X128814480Y-82005520D01*
X128786471Y-81974617D01*
X128761625Y-81941117D01*
X128740183Y-81905344D01*
X128722351Y-81867640D01*
X128708300Y-81828371D01*
X128698166Y-81787913D01*
X128692046Y-81746657D01*
X128690000Y-81705000D01*
X128690000Y-80855000D01*
X128692046Y-80813343D01*
X128698166Y-80772087D01*
X128708300Y-80731629D01*
X128722351Y-80692360D01*
X128740183Y-80654656D01*
X128761625Y-80618883D01*
X128786471Y-80585383D01*
X128814480Y-80554480D01*
X128845383Y-80526471D01*
X128878883Y-80501625D01*
X128914656Y-80480183D01*
X128952360Y-80462351D01*
X128991629Y-80448300D01*
X129032087Y-80438166D01*
X129073343Y-80432046D01*
X129115000Y-80430000D01*
X129965000Y-80430000D01*
X130006657Y-80432046D01*
X130006657Y-80432046D01*
G37*
D12*
X129540000Y-81280000D03*
D11*
G36*
X126376958Y-63180710D02*
X126391276Y-63182834D01*
X126405317Y-63186351D01*
X126418946Y-63191228D01*
X126432031Y-63197417D01*
X126444447Y-63204858D01*
X126456073Y-63213481D01*
X126466798Y-63223202D01*
X126476519Y-63233927D01*
X126485142Y-63245553D01*
X126492583Y-63257969D01*
X126498772Y-63271054D01*
X126503649Y-63284683D01*
X126507166Y-63298724D01*
X126509290Y-63313042D01*
X126510000Y-63327500D01*
X126510000Y-63672500D01*
X126509290Y-63686958D01*
X126507166Y-63701276D01*
X126503649Y-63715317D01*
X126498772Y-63728946D01*
X126492583Y-63742031D01*
X126485142Y-63754447D01*
X126476519Y-63766073D01*
X126466798Y-63776798D01*
X126456073Y-63786519D01*
X126444447Y-63795142D01*
X126432031Y-63802583D01*
X126418946Y-63808772D01*
X126405317Y-63813649D01*
X126391276Y-63817166D01*
X126376958Y-63819290D01*
X126362500Y-63820000D01*
X126067500Y-63820000D01*
X126053042Y-63819290D01*
X126038724Y-63817166D01*
X126024683Y-63813649D01*
X126011054Y-63808772D01*
X125997969Y-63802583D01*
X125985553Y-63795142D01*
X125973927Y-63786519D01*
X125963202Y-63776798D01*
X125953481Y-63766073D01*
X125944858Y-63754447D01*
X125937417Y-63742031D01*
X125931228Y-63728946D01*
X125926351Y-63715317D01*
X125922834Y-63701276D01*
X125920710Y-63686958D01*
X125920000Y-63672500D01*
X125920000Y-63327500D01*
X125920710Y-63313042D01*
X125922834Y-63298724D01*
X125926351Y-63284683D01*
X125931228Y-63271054D01*
X125937417Y-63257969D01*
X125944858Y-63245553D01*
X125953481Y-63233927D01*
X125963202Y-63223202D01*
X125973927Y-63213481D01*
X125985553Y-63204858D01*
X125997969Y-63197417D01*
X126011054Y-63191228D01*
X126024683Y-63186351D01*
X126038724Y-63182834D01*
X126053042Y-63180710D01*
X126067500Y-63180000D01*
X126362500Y-63180000D01*
X126376958Y-63180710D01*
X126376958Y-63180710D01*
G37*
D13*
X126215000Y-63500000D03*
D11*
G36*
X125406958Y-63180710D02*
X125421276Y-63182834D01*
X125435317Y-63186351D01*
X125448946Y-63191228D01*
X125462031Y-63197417D01*
X125474447Y-63204858D01*
X125486073Y-63213481D01*
X125496798Y-63223202D01*
X125506519Y-63233927D01*
X125515142Y-63245553D01*
X125522583Y-63257969D01*
X125528772Y-63271054D01*
X125533649Y-63284683D01*
X125537166Y-63298724D01*
X125539290Y-63313042D01*
X125540000Y-63327500D01*
X125540000Y-63672500D01*
X125539290Y-63686958D01*
X125537166Y-63701276D01*
X125533649Y-63715317D01*
X125528772Y-63728946D01*
X125522583Y-63742031D01*
X125515142Y-63754447D01*
X125506519Y-63766073D01*
X125496798Y-63776798D01*
X125486073Y-63786519D01*
X125474447Y-63795142D01*
X125462031Y-63802583D01*
X125448946Y-63808772D01*
X125435317Y-63813649D01*
X125421276Y-63817166D01*
X125406958Y-63819290D01*
X125392500Y-63820000D01*
X125097500Y-63820000D01*
X125083042Y-63819290D01*
X125068724Y-63817166D01*
X125054683Y-63813649D01*
X125041054Y-63808772D01*
X125027969Y-63802583D01*
X125015553Y-63795142D01*
X125003927Y-63786519D01*
X124993202Y-63776798D01*
X124983481Y-63766073D01*
X124974858Y-63754447D01*
X124967417Y-63742031D01*
X124961228Y-63728946D01*
X124956351Y-63715317D01*
X124952834Y-63701276D01*
X124950710Y-63686958D01*
X124950000Y-63672500D01*
X124950000Y-63327500D01*
X124950710Y-63313042D01*
X124952834Y-63298724D01*
X124956351Y-63284683D01*
X124961228Y-63271054D01*
X124967417Y-63257969D01*
X124974858Y-63245553D01*
X124983481Y-63233927D01*
X124993202Y-63223202D01*
X125003927Y-63213481D01*
X125015553Y-63204858D01*
X125027969Y-63197417D01*
X125041054Y-63191228D01*
X125054683Y-63186351D01*
X125068724Y-63182834D01*
X125083042Y-63180710D01*
X125097500Y-63180000D01*
X125392500Y-63180000D01*
X125406958Y-63180710D01*
X125406958Y-63180710D01*
G37*
D13*
X125245000Y-63500000D03*
D11*
G36*
X125406958Y-65720710D02*
X125421276Y-65722834D01*
X125435317Y-65726351D01*
X125448946Y-65731228D01*
X125462031Y-65737417D01*
X125474447Y-65744858D01*
X125486073Y-65753481D01*
X125496798Y-65763202D01*
X125506519Y-65773927D01*
X125515142Y-65785553D01*
X125522583Y-65797969D01*
X125528772Y-65811054D01*
X125533649Y-65824683D01*
X125537166Y-65838724D01*
X125539290Y-65853042D01*
X125540000Y-65867500D01*
X125540000Y-66212500D01*
X125539290Y-66226958D01*
X125537166Y-66241276D01*
X125533649Y-66255317D01*
X125528772Y-66268946D01*
X125522583Y-66282031D01*
X125515142Y-66294447D01*
X125506519Y-66306073D01*
X125496798Y-66316798D01*
X125486073Y-66326519D01*
X125474447Y-66335142D01*
X125462031Y-66342583D01*
X125448946Y-66348772D01*
X125435317Y-66353649D01*
X125421276Y-66357166D01*
X125406958Y-66359290D01*
X125392500Y-66360000D01*
X125097500Y-66360000D01*
X125083042Y-66359290D01*
X125068724Y-66357166D01*
X125054683Y-66353649D01*
X125041054Y-66348772D01*
X125027969Y-66342583D01*
X125015553Y-66335142D01*
X125003927Y-66326519D01*
X124993202Y-66316798D01*
X124983481Y-66306073D01*
X124974858Y-66294447D01*
X124967417Y-66282031D01*
X124961228Y-66268946D01*
X124956351Y-66255317D01*
X124952834Y-66241276D01*
X124950710Y-66226958D01*
X124950000Y-66212500D01*
X124950000Y-65867500D01*
X124950710Y-65853042D01*
X124952834Y-65838724D01*
X124956351Y-65824683D01*
X124961228Y-65811054D01*
X124967417Y-65797969D01*
X124974858Y-65785553D01*
X124983481Y-65773927D01*
X124993202Y-65763202D01*
X125003927Y-65753481D01*
X125015553Y-65744858D01*
X125027969Y-65737417D01*
X125041054Y-65731228D01*
X125054683Y-65726351D01*
X125068724Y-65722834D01*
X125083042Y-65720710D01*
X125097500Y-65720000D01*
X125392500Y-65720000D01*
X125406958Y-65720710D01*
X125406958Y-65720710D01*
G37*
D13*
X125245000Y-66040000D03*
D11*
G36*
X126376958Y-65720710D02*
X126391276Y-65722834D01*
X126405317Y-65726351D01*
X126418946Y-65731228D01*
X126432031Y-65737417D01*
X126444447Y-65744858D01*
X126456073Y-65753481D01*
X126466798Y-65763202D01*
X126476519Y-65773927D01*
X126485142Y-65785553D01*
X126492583Y-65797969D01*
X126498772Y-65811054D01*
X126503649Y-65824683D01*
X126507166Y-65838724D01*
X126509290Y-65853042D01*
X126510000Y-65867500D01*
X126510000Y-66212500D01*
X126509290Y-66226958D01*
X126507166Y-66241276D01*
X126503649Y-66255317D01*
X126498772Y-66268946D01*
X126492583Y-66282031D01*
X126485142Y-66294447D01*
X126476519Y-66306073D01*
X126466798Y-66316798D01*
X126456073Y-66326519D01*
X126444447Y-66335142D01*
X126432031Y-66342583D01*
X126418946Y-66348772D01*
X126405317Y-66353649D01*
X126391276Y-66357166D01*
X126376958Y-66359290D01*
X126362500Y-66360000D01*
X126067500Y-66360000D01*
X126053042Y-66359290D01*
X126038724Y-66357166D01*
X126024683Y-66353649D01*
X126011054Y-66348772D01*
X125997969Y-66342583D01*
X125985553Y-66335142D01*
X125973927Y-66326519D01*
X125963202Y-66316798D01*
X125953481Y-66306073D01*
X125944858Y-66294447D01*
X125937417Y-66282031D01*
X125931228Y-66268946D01*
X125926351Y-66255317D01*
X125922834Y-66241276D01*
X125920710Y-66226958D01*
X125920000Y-66212500D01*
X125920000Y-65867500D01*
X125920710Y-65853042D01*
X125922834Y-65838724D01*
X125926351Y-65824683D01*
X125931228Y-65811054D01*
X125937417Y-65797969D01*
X125944858Y-65785553D01*
X125953481Y-65773927D01*
X125963202Y-65763202D01*
X125973927Y-65753481D01*
X125985553Y-65744858D01*
X125997969Y-65737417D01*
X126011054Y-65731228D01*
X126024683Y-65726351D01*
X126038724Y-65722834D01*
X126053042Y-65720710D01*
X126067500Y-65720000D01*
X126362500Y-65720000D01*
X126376958Y-65720710D01*
X126376958Y-65720710D01*
G37*
D13*
X126215000Y-66040000D03*
D11*
G36*
X126376958Y-68260710D02*
X126391276Y-68262834D01*
X126405317Y-68266351D01*
X126418946Y-68271228D01*
X126432031Y-68277417D01*
X126444447Y-68284858D01*
X126456073Y-68293481D01*
X126466798Y-68303202D01*
X126476519Y-68313927D01*
X126485142Y-68325553D01*
X126492583Y-68337969D01*
X126498772Y-68351054D01*
X126503649Y-68364683D01*
X126507166Y-68378724D01*
X126509290Y-68393042D01*
X126510000Y-68407500D01*
X126510000Y-68752500D01*
X126509290Y-68766958D01*
X126507166Y-68781276D01*
X126503649Y-68795317D01*
X126498772Y-68808946D01*
X126492583Y-68822031D01*
X126485142Y-68834447D01*
X126476519Y-68846073D01*
X126466798Y-68856798D01*
X126456073Y-68866519D01*
X126444447Y-68875142D01*
X126432031Y-68882583D01*
X126418946Y-68888772D01*
X126405317Y-68893649D01*
X126391276Y-68897166D01*
X126376958Y-68899290D01*
X126362500Y-68900000D01*
X126067500Y-68900000D01*
X126053042Y-68899290D01*
X126038724Y-68897166D01*
X126024683Y-68893649D01*
X126011054Y-68888772D01*
X125997969Y-68882583D01*
X125985553Y-68875142D01*
X125973927Y-68866519D01*
X125963202Y-68856798D01*
X125953481Y-68846073D01*
X125944858Y-68834447D01*
X125937417Y-68822031D01*
X125931228Y-68808946D01*
X125926351Y-68795317D01*
X125922834Y-68781276D01*
X125920710Y-68766958D01*
X125920000Y-68752500D01*
X125920000Y-68407500D01*
X125920710Y-68393042D01*
X125922834Y-68378724D01*
X125926351Y-68364683D01*
X125931228Y-68351054D01*
X125937417Y-68337969D01*
X125944858Y-68325553D01*
X125953481Y-68313927D01*
X125963202Y-68303202D01*
X125973927Y-68293481D01*
X125985553Y-68284858D01*
X125997969Y-68277417D01*
X126011054Y-68271228D01*
X126024683Y-68266351D01*
X126038724Y-68262834D01*
X126053042Y-68260710D01*
X126067500Y-68260000D01*
X126362500Y-68260000D01*
X126376958Y-68260710D01*
X126376958Y-68260710D01*
G37*
D13*
X126215000Y-68580000D03*
D11*
G36*
X125406958Y-68260710D02*
X125421276Y-68262834D01*
X125435317Y-68266351D01*
X125448946Y-68271228D01*
X125462031Y-68277417D01*
X125474447Y-68284858D01*
X125486073Y-68293481D01*
X125496798Y-68303202D01*
X125506519Y-68313927D01*
X125515142Y-68325553D01*
X125522583Y-68337969D01*
X125528772Y-68351054D01*
X125533649Y-68364683D01*
X125537166Y-68378724D01*
X125539290Y-68393042D01*
X125540000Y-68407500D01*
X125540000Y-68752500D01*
X125539290Y-68766958D01*
X125537166Y-68781276D01*
X125533649Y-68795317D01*
X125528772Y-68808946D01*
X125522583Y-68822031D01*
X125515142Y-68834447D01*
X125506519Y-68846073D01*
X125496798Y-68856798D01*
X125486073Y-68866519D01*
X125474447Y-68875142D01*
X125462031Y-68882583D01*
X125448946Y-68888772D01*
X125435317Y-68893649D01*
X125421276Y-68897166D01*
X125406958Y-68899290D01*
X125392500Y-68900000D01*
X125097500Y-68900000D01*
X125083042Y-68899290D01*
X125068724Y-68897166D01*
X125054683Y-68893649D01*
X125041054Y-68888772D01*
X125027969Y-68882583D01*
X125015553Y-68875142D01*
X125003927Y-68866519D01*
X124993202Y-68856798D01*
X124983481Y-68846073D01*
X124974858Y-68834447D01*
X124967417Y-68822031D01*
X124961228Y-68808946D01*
X124956351Y-68795317D01*
X124952834Y-68781276D01*
X124950710Y-68766958D01*
X124950000Y-68752500D01*
X124950000Y-68407500D01*
X124950710Y-68393042D01*
X124952834Y-68378724D01*
X124956351Y-68364683D01*
X124961228Y-68351054D01*
X124967417Y-68337969D01*
X124974858Y-68325553D01*
X124983481Y-68313927D01*
X124993202Y-68303202D01*
X125003927Y-68293481D01*
X125015553Y-68284858D01*
X125027969Y-68277417D01*
X125041054Y-68271228D01*
X125054683Y-68266351D01*
X125068724Y-68262834D01*
X125083042Y-68260710D01*
X125097500Y-68260000D01*
X125392500Y-68260000D01*
X125406958Y-68260710D01*
X125406958Y-68260710D01*
G37*
D13*
X125245000Y-68580000D03*
D11*
G36*
X125406958Y-73340710D02*
X125421276Y-73342834D01*
X125435317Y-73346351D01*
X125448946Y-73351228D01*
X125462031Y-73357417D01*
X125474447Y-73364858D01*
X125486073Y-73373481D01*
X125496798Y-73383202D01*
X125506519Y-73393927D01*
X125515142Y-73405553D01*
X125522583Y-73417969D01*
X125528772Y-73431054D01*
X125533649Y-73444683D01*
X125537166Y-73458724D01*
X125539290Y-73473042D01*
X125540000Y-73487500D01*
X125540000Y-73832500D01*
X125539290Y-73846958D01*
X125537166Y-73861276D01*
X125533649Y-73875317D01*
X125528772Y-73888946D01*
X125522583Y-73902031D01*
X125515142Y-73914447D01*
X125506519Y-73926073D01*
X125496798Y-73936798D01*
X125486073Y-73946519D01*
X125474447Y-73955142D01*
X125462031Y-73962583D01*
X125448946Y-73968772D01*
X125435317Y-73973649D01*
X125421276Y-73977166D01*
X125406958Y-73979290D01*
X125392500Y-73980000D01*
X125097500Y-73980000D01*
X125083042Y-73979290D01*
X125068724Y-73977166D01*
X125054683Y-73973649D01*
X125041054Y-73968772D01*
X125027969Y-73962583D01*
X125015553Y-73955142D01*
X125003927Y-73946519D01*
X124993202Y-73936798D01*
X124983481Y-73926073D01*
X124974858Y-73914447D01*
X124967417Y-73902031D01*
X124961228Y-73888946D01*
X124956351Y-73875317D01*
X124952834Y-73861276D01*
X124950710Y-73846958D01*
X124950000Y-73832500D01*
X124950000Y-73487500D01*
X124950710Y-73473042D01*
X124952834Y-73458724D01*
X124956351Y-73444683D01*
X124961228Y-73431054D01*
X124967417Y-73417969D01*
X124974858Y-73405553D01*
X124983481Y-73393927D01*
X124993202Y-73383202D01*
X125003927Y-73373481D01*
X125015553Y-73364858D01*
X125027969Y-73357417D01*
X125041054Y-73351228D01*
X125054683Y-73346351D01*
X125068724Y-73342834D01*
X125083042Y-73340710D01*
X125097500Y-73340000D01*
X125392500Y-73340000D01*
X125406958Y-73340710D01*
X125406958Y-73340710D01*
G37*
D13*
X125245000Y-73660000D03*
D11*
G36*
X126376958Y-73340710D02*
X126391276Y-73342834D01*
X126405317Y-73346351D01*
X126418946Y-73351228D01*
X126432031Y-73357417D01*
X126444447Y-73364858D01*
X126456073Y-73373481D01*
X126466798Y-73383202D01*
X126476519Y-73393927D01*
X126485142Y-73405553D01*
X126492583Y-73417969D01*
X126498772Y-73431054D01*
X126503649Y-73444683D01*
X126507166Y-73458724D01*
X126509290Y-73473042D01*
X126510000Y-73487500D01*
X126510000Y-73832500D01*
X126509290Y-73846958D01*
X126507166Y-73861276D01*
X126503649Y-73875317D01*
X126498772Y-73888946D01*
X126492583Y-73902031D01*
X126485142Y-73914447D01*
X126476519Y-73926073D01*
X126466798Y-73936798D01*
X126456073Y-73946519D01*
X126444447Y-73955142D01*
X126432031Y-73962583D01*
X126418946Y-73968772D01*
X126405317Y-73973649D01*
X126391276Y-73977166D01*
X126376958Y-73979290D01*
X126362500Y-73980000D01*
X126067500Y-73980000D01*
X126053042Y-73979290D01*
X126038724Y-73977166D01*
X126024683Y-73973649D01*
X126011054Y-73968772D01*
X125997969Y-73962583D01*
X125985553Y-73955142D01*
X125973927Y-73946519D01*
X125963202Y-73936798D01*
X125953481Y-73926073D01*
X125944858Y-73914447D01*
X125937417Y-73902031D01*
X125931228Y-73888946D01*
X125926351Y-73875317D01*
X125922834Y-73861276D01*
X125920710Y-73846958D01*
X125920000Y-73832500D01*
X125920000Y-73487500D01*
X125920710Y-73473042D01*
X125922834Y-73458724D01*
X125926351Y-73444683D01*
X125931228Y-73431054D01*
X125937417Y-73417969D01*
X125944858Y-73405553D01*
X125953481Y-73393927D01*
X125963202Y-73383202D01*
X125973927Y-73373481D01*
X125985553Y-73364858D01*
X125997969Y-73357417D01*
X126011054Y-73351228D01*
X126024683Y-73346351D01*
X126038724Y-73342834D01*
X126053042Y-73340710D01*
X126067500Y-73340000D01*
X126362500Y-73340000D01*
X126376958Y-73340710D01*
X126376958Y-73340710D01*
G37*
D13*
X126215000Y-73660000D03*
D11*
G36*
X126376958Y-75880710D02*
X126391276Y-75882834D01*
X126405317Y-75886351D01*
X126418946Y-75891228D01*
X126432031Y-75897417D01*
X126444447Y-75904858D01*
X126456073Y-75913481D01*
X126466798Y-75923202D01*
X126476519Y-75933927D01*
X126485142Y-75945553D01*
X126492583Y-75957969D01*
X126498772Y-75971054D01*
X126503649Y-75984683D01*
X126507166Y-75998724D01*
X126509290Y-76013042D01*
X126510000Y-76027500D01*
X126510000Y-76372500D01*
X126509290Y-76386958D01*
X126507166Y-76401276D01*
X126503649Y-76415317D01*
X126498772Y-76428946D01*
X126492583Y-76442031D01*
X126485142Y-76454447D01*
X126476519Y-76466073D01*
X126466798Y-76476798D01*
X126456073Y-76486519D01*
X126444447Y-76495142D01*
X126432031Y-76502583D01*
X126418946Y-76508772D01*
X126405317Y-76513649D01*
X126391276Y-76517166D01*
X126376958Y-76519290D01*
X126362500Y-76520000D01*
X126067500Y-76520000D01*
X126053042Y-76519290D01*
X126038724Y-76517166D01*
X126024683Y-76513649D01*
X126011054Y-76508772D01*
X125997969Y-76502583D01*
X125985553Y-76495142D01*
X125973927Y-76486519D01*
X125963202Y-76476798D01*
X125953481Y-76466073D01*
X125944858Y-76454447D01*
X125937417Y-76442031D01*
X125931228Y-76428946D01*
X125926351Y-76415317D01*
X125922834Y-76401276D01*
X125920710Y-76386958D01*
X125920000Y-76372500D01*
X125920000Y-76027500D01*
X125920710Y-76013042D01*
X125922834Y-75998724D01*
X125926351Y-75984683D01*
X125931228Y-75971054D01*
X125937417Y-75957969D01*
X125944858Y-75945553D01*
X125953481Y-75933927D01*
X125963202Y-75923202D01*
X125973927Y-75913481D01*
X125985553Y-75904858D01*
X125997969Y-75897417D01*
X126011054Y-75891228D01*
X126024683Y-75886351D01*
X126038724Y-75882834D01*
X126053042Y-75880710D01*
X126067500Y-75880000D01*
X126362500Y-75880000D01*
X126376958Y-75880710D01*
X126376958Y-75880710D01*
G37*
D13*
X126215000Y-76200000D03*
D11*
G36*
X125406958Y-75880710D02*
X125421276Y-75882834D01*
X125435317Y-75886351D01*
X125448946Y-75891228D01*
X125462031Y-75897417D01*
X125474447Y-75904858D01*
X125486073Y-75913481D01*
X125496798Y-75923202D01*
X125506519Y-75933927D01*
X125515142Y-75945553D01*
X125522583Y-75957969D01*
X125528772Y-75971054D01*
X125533649Y-75984683D01*
X125537166Y-75998724D01*
X125539290Y-76013042D01*
X125540000Y-76027500D01*
X125540000Y-76372500D01*
X125539290Y-76386958D01*
X125537166Y-76401276D01*
X125533649Y-76415317D01*
X125528772Y-76428946D01*
X125522583Y-76442031D01*
X125515142Y-76454447D01*
X125506519Y-76466073D01*
X125496798Y-76476798D01*
X125486073Y-76486519D01*
X125474447Y-76495142D01*
X125462031Y-76502583D01*
X125448946Y-76508772D01*
X125435317Y-76513649D01*
X125421276Y-76517166D01*
X125406958Y-76519290D01*
X125392500Y-76520000D01*
X125097500Y-76520000D01*
X125083042Y-76519290D01*
X125068724Y-76517166D01*
X125054683Y-76513649D01*
X125041054Y-76508772D01*
X125027969Y-76502583D01*
X125015553Y-76495142D01*
X125003927Y-76486519D01*
X124993202Y-76476798D01*
X124983481Y-76466073D01*
X124974858Y-76454447D01*
X124967417Y-76442031D01*
X124961228Y-76428946D01*
X124956351Y-76415317D01*
X124952834Y-76401276D01*
X124950710Y-76386958D01*
X124950000Y-76372500D01*
X124950000Y-76027500D01*
X124950710Y-76013042D01*
X124952834Y-75998724D01*
X124956351Y-75984683D01*
X124961228Y-75971054D01*
X124967417Y-75957969D01*
X124974858Y-75945553D01*
X124983481Y-75933927D01*
X124993202Y-75923202D01*
X125003927Y-75913481D01*
X125015553Y-75904858D01*
X125027969Y-75897417D01*
X125041054Y-75891228D01*
X125054683Y-75886351D01*
X125068724Y-75882834D01*
X125083042Y-75880710D01*
X125097500Y-75880000D01*
X125392500Y-75880000D01*
X125406958Y-75880710D01*
X125406958Y-75880710D01*
G37*
D13*
X125245000Y-76200000D03*
D11*
G36*
X125406958Y-80960710D02*
X125421276Y-80962834D01*
X125435317Y-80966351D01*
X125448946Y-80971228D01*
X125462031Y-80977417D01*
X125474447Y-80984858D01*
X125486073Y-80993481D01*
X125496798Y-81003202D01*
X125506519Y-81013927D01*
X125515142Y-81025553D01*
X125522583Y-81037969D01*
X125528772Y-81051054D01*
X125533649Y-81064683D01*
X125537166Y-81078724D01*
X125539290Y-81093042D01*
X125540000Y-81107500D01*
X125540000Y-81452500D01*
X125539290Y-81466958D01*
X125537166Y-81481276D01*
X125533649Y-81495317D01*
X125528772Y-81508946D01*
X125522583Y-81522031D01*
X125515142Y-81534447D01*
X125506519Y-81546073D01*
X125496798Y-81556798D01*
X125486073Y-81566519D01*
X125474447Y-81575142D01*
X125462031Y-81582583D01*
X125448946Y-81588772D01*
X125435317Y-81593649D01*
X125421276Y-81597166D01*
X125406958Y-81599290D01*
X125392500Y-81600000D01*
X125097500Y-81600000D01*
X125083042Y-81599290D01*
X125068724Y-81597166D01*
X125054683Y-81593649D01*
X125041054Y-81588772D01*
X125027969Y-81582583D01*
X125015553Y-81575142D01*
X125003927Y-81566519D01*
X124993202Y-81556798D01*
X124983481Y-81546073D01*
X124974858Y-81534447D01*
X124967417Y-81522031D01*
X124961228Y-81508946D01*
X124956351Y-81495317D01*
X124952834Y-81481276D01*
X124950710Y-81466958D01*
X124950000Y-81452500D01*
X124950000Y-81107500D01*
X124950710Y-81093042D01*
X124952834Y-81078724D01*
X124956351Y-81064683D01*
X124961228Y-81051054D01*
X124967417Y-81037969D01*
X124974858Y-81025553D01*
X124983481Y-81013927D01*
X124993202Y-81003202D01*
X125003927Y-80993481D01*
X125015553Y-80984858D01*
X125027969Y-80977417D01*
X125041054Y-80971228D01*
X125054683Y-80966351D01*
X125068724Y-80962834D01*
X125083042Y-80960710D01*
X125097500Y-80960000D01*
X125392500Y-80960000D01*
X125406958Y-80960710D01*
X125406958Y-80960710D01*
G37*
D13*
X125245000Y-81280000D03*
D11*
G36*
X126376958Y-80960710D02*
X126391276Y-80962834D01*
X126405317Y-80966351D01*
X126418946Y-80971228D01*
X126432031Y-80977417D01*
X126444447Y-80984858D01*
X126456073Y-80993481D01*
X126466798Y-81003202D01*
X126476519Y-81013927D01*
X126485142Y-81025553D01*
X126492583Y-81037969D01*
X126498772Y-81051054D01*
X126503649Y-81064683D01*
X126507166Y-81078724D01*
X126509290Y-81093042D01*
X126510000Y-81107500D01*
X126510000Y-81452500D01*
X126509290Y-81466958D01*
X126507166Y-81481276D01*
X126503649Y-81495317D01*
X126498772Y-81508946D01*
X126492583Y-81522031D01*
X126485142Y-81534447D01*
X126476519Y-81546073D01*
X126466798Y-81556798D01*
X126456073Y-81566519D01*
X126444447Y-81575142D01*
X126432031Y-81582583D01*
X126418946Y-81588772D01*
X126405317Y-81593649D01*
X126391276Y-81597166D01*
X126376958Y-81599290D01*
X126362500Y-81600000D01*
X126067500Y-81600000D01*
X126053042Y-81599290D01*
X126038724Y-81597166D01*
X126024683Y-81593649D01*
X126011054Y-81588772D01*
X125997969Y-81582583D01*
X125985553Y-81575142D01*
X125973927Y-81566519D01*
X125963202Y-81556798D01*
X125953481Y-81546073D01*
X125944858Y-81534447D01*
X125937417Y-81522031D01*
X125931228Y-81508946D01*
X125926351Y-81495317D01*
X125922834Y-81481276D01*
X125920710Y-81466958D01*
X125920000Y-81452500D01*
X125920000Y-81107500D01*
X125920710Y-81093042D01*
X125922834Y-81078724D01*
X125926351Y-81064683D01*
X125931228Y-81051054D01*
X125937417Y-81037969D01*
X125944858Y-81025553D01*
X125953481Y-81013927D01*
X125963202Y-81003202D01*
X125973927Y-80993481D01*
X125985553Y-80984858D01*
X125997969Y-80977417D01*
X126011054Y-80971228D01*
X126024683Y-80966351D01*
X126038724Y-80962834D01*
X126053042Y-80960710D01*
X126067500Y-80960000D01*
X126362500Y-80960000D01*
X126376958Y-80960710D01*
X126376958Y-80960710D01*
G37*
D13*
X126215000Y-81280000D03*
D11*
G36*
X126376958Y-70800710D02*
X126391276Y-70802834D01*
X126405317Y-70806351D01*
X126418946Y-70811228D01*
X126432031Y-70817417D01*
X126444447Y-70824858D01*
X126456073Y-70833481D01*
X126466798Y-70843202D01*
X126476519Y-70853927D01*
X126485142Y-70865553D01*
X126492583Y-70877969D01*
X126498772Y-70891054D01*
X126503649Y-70904683D01*
X126507166Y-70918724D01*
X126509290Y-70933042D01*
X126510000Y-70947500D01*
X126510000Y-71292500D01*
X126509290Y-71306958D01*
X126507166Y-71321276D01*
X126503649Y-71335317D01*
X126498772Y-71348946D01*
X126492583Y-71362031D01*
X126485142Y-71374447D01*
X126476519Y-71386073D01*
X126466798Y-71396798D01*
X126456073Y-71406519D01*
X126444447Y-71415142D01*
X126432031Y-71422583D01*
X126418946Y-71428772D01*
X126405317Y-71433649D01*
X126391276Y-71437166D01*
X126376958Y-71439290D01*
X126362500Y-71440000D01*
X126067500Y-71440000D01*
X126053042Y-71439290D01*
X126038724Y-71437166D01*
X126024683Y-71433649D01*
X126011054Y-71428772D01*
X125997969Y-71422583D01*
X125985553Y-71415142D01*
X125973927Y-71406519D01*
X125963202Y-71396798D01*
X125953481Y-71386073D01*
X125944858Y-71374447D01*
X125937417Y-71362031D01*
X125931228Y-71348946D01*
X125926351Y-71335317D01*
X125922834Y-71321276D01*
X125920710Y-71306958D01*
X125920000Y-71292500D01*
X125920000Y-70947500D01*
X125920710Y-70933042D01*
X125922834Y-70918724D01*
X125926351Y-70904683D01*
X125931228Y-70891054D01*
X125937417Y-70877969D01*
X125944858Y-70865553D01*
X125953481Y-70853927D01*
X125963202Y-70843202D01*
X125973927Y-70833481D01*
X125985553Y-70824858D01*
X125997969Y-70817417D01*
X126011054Y-70811228D01*
X126024683Y-70806351D01*
X126038724Y-70802834D01*
X126053042Y-70800710D01*
X126067500Y-70800000D01*
X126362500Y-70800000D01*
X126376958Y-70800710D01*
X126376958Y-70800710D01*
G37*
D13*
X126215000Y-71120000D03*
D11*
G36*
X125406958Y-70800710D02*
X125421276Y-70802834D01*
X125435317Y-70806351D01*
X125448946Y-70811228D01*
X125462031Y-70817417D01*
X125474447Y-70824858D01*
X125486073Y-70833481D01*
X125496798Y-70843202D01*
X125506519Y-70853927D01*
X125515142Y-70865553D01*
X125522583Y-70877969D01*
X125528772Y-70891054D01*
X125533649Y-70904683D01*
X125537166Y-70918724D01*
X125539290Y-70933042D01*
X125540000Y-70947500D01*
X125540000Y-71292500D01*
X125539290Y-71306958D01*
X125537166Y-71321276D01*
X125533649Y-71335317D01*
X125528772Y-71348946D01*
X125522583Y-71362031D01*
X125515142Y-71374447D01*
X125506519Y-71386073D01*
X125496798Y-71396798D01*
X125486073Y-71406519D01*
X125474447Y-71415142D01*
X125462031Y-71422583D01*
X125448946Y-71428772D01*
X125435317Y-71433649D01*
X125421276Y-71437166D01*
X125406958Y-71439290D01*
X125392500Y-71440000D01*
X125097500Y-71440000D01*
X125083042Y-71439290D01*
X125068724Y-71437166D01*
X125054683Y-71433649D01*
X125041054Y-71428772D01*
X125027969Y-71422583D01*
X125015553Y-71415142D01*
X125003927Y-71406519D01*
X124993202Y-71396798D01*
X124983481Y-71386073D01*
X124974858Y-71374447D01*
X124967417Y-71362031D01*
X124961228Y-71348946D01*
X124956351Y-71335317D01*
X124952834Y-71321276D01*
X124950710Y-71306958D01*
X124950000Y-71292500D01*
X124950000Y-70947500D01*
X124950710Y-70933042D01*
X124952834Y-70918724D01*
X124956351Y-70904683D01*
X124961228Y-70891054D01*
X124967417Y-70877969D01*
X124974858Y-70865553D01*
X124983481Y-70853927D01*
X124993202Y-70843202D01*
X125003927Y-70833481D01*
X125015553Y-70824858D01*
X125027969Y-70817417D01*
X125041054Y-70811228D01*
X125054683Y-70806351D01*
X125068724Y-70802834D01*
X125083042Y-70800710D01*
X125097500Y-70800000D01*
X125392500Y-70800000D01*
X125406958Y-70800710D01*
X125406958Y-70800710D01*
G37*
D13*
X125245000Y-71120000D03*
D11*
G36*
X125406958Y-78420710D02*
X125421276Y-78422834D01*
X125435317Y-78426351D01*
X125448946Y-78431228D01*
X125462031Y-78437417D01*
X125474447Y-78444858D01*
X125486073Y-78453481D01*
X125496798Y-78463202D01*
X125506519Y-78473927D01*
X125515142Y-78485553D01*
X125522583Y-78497969D01*
X125528772Y-78511054D01*
X125533649Y-78524683D01*
X125537166Y-78538724D01*
X125539290Y-78553042D01*
X125540000Y-78567500D01*
X125540000Y-78912500D01*
X125539290Y-78926958D01*
X125537166Y-78941276D01*
X125533649Y-78955317D01*
X125528772Y-78968946D01*
X125522583Y-78982031D01*
X125515142Y-78994447D01*
X125506519Y-79006073D01*
X125496798Y-79016798D01*
X125486073Y-79026519D01*
X125474447Y-79035142D01*
X125462031Y-79042583D01*
X125448946Y-79048772D01*
X125435317Y-79053649D01*
X125421276Y-79057166D01*
X125406958Y-79059290D01*
X125392500Y-79060000D01*
X125097500Y-79060000D01*
X125083042Y-79059290D01*
X125068724Y-79057166D01*
X125054683Y-79053649D01*
X125041054Y-79048772D01*
X125027969Y-79042583D01*
X125015553Y-79035142D01*
X125003927Y-79026519D01*
X124993202Y-79016798D01*
X124983481Y-79006073D01*
X124974858Y-78994447D01*
X124967417Y-78982031D01*
X124961228Y-78968946D01*
X124956351Y-78955317D01*
X124952834Y-78941276D01*
X124950710Y-78926958D01*
X124950000Y-78912500D01*
X124950000Y-78567500D01*
X124950710Y-78553042D01*
X124952834Y-78538724D01*
X124956351Y-78524683D01*
X124961228Y-78511054D01*
X124967417Y-78497969D01*
X124974858Y-78485553D01*
X124983481Y-78473927D01*
X124993202Y-78463202D01*
X125003927Y-78453481D01*
X125015553Y-78444858D01*
X125027969Y-78437417D01*
X125041054Y-78431228D01*
X125054683Y-78426351D01*
X125068724Y-78422834D01*
X125083042Y-78420710D01*
X125097500Y-78420000D01*
X125392500Y-78420000D01*
X125406958Y-78420710D01*
X125406958Y-78420710D01*
G37*
D13*
X125245000Y-78740000D03*
D11*
G36*
X126376958Y-78420710D02*
X126391276Y-78422834D01*
X126405317Y-78426351D01*
X126418946Y-78431228D01*
X126432031Y-78437417D01*
X126444447Y-78444858D01*
X126456073Y-78453481D01*
X126466798Y-78463202D01*
X126476519Y-78473927D01*
X126485142Y-78485553D01*
X126492583Y-78497969D01*
X126498772Y-78511054D01*
X126503649Y-78524683D01*
X126507166Y-78538724D01*
X126509290Y-78553042D01*
X126510000Y-78567500D01*
X126510000Y-78912500D01*
X126509290Y-78926958D01*
X126507166Y-78941276D01*
X126503649Y-78955317D01*
X126498772Y-78968946D01*
X126492583Y-78982031D01*
X126485142Y-78994447D01*
X126476519Y-79006073D01*
X126466798Y-79016798D01*
X126456073Y-79026519D01*
X126444447Y-79035142D01*
X126432031Y-79042583D01*
X126418946Y-79048772D01*
X126405317Y-79053649D01*
X126391276Y-79057166D01*
X126376958Y-79059290D01*
X126362500Y-79060000D01*
X126067500Y-79060000D01*
X126053042Y-79059290D01*
X126038724Y-79057166D01*
X126024683Y-79053649D01*
X126011054Y-79048772D01*
X125997969Y-79042583D01*
X125985553Y-79035142D01*
X125973927Y-79026519D01*
X125963202Y-79016798D01*
X125953481Y-79006073D01*
X125944858Y-78994447D01*
X125937417Y-78982031D01*
X125931228Y-78968946D01*
X125926351Y-78955317D01*
X125922834Y-78941276D01*
X125920710Y-78926958D01*
X125920000Y-78912500D01*
X125920000Y-78567500D01*
X125920710Y-78553042D01*
X125922834Y-78538724D01*
X125926351Y-78524683D01*
X125931228Y-78511054D01*
X125937417Y-78497969D01*
X125944858Y-78485553D01*
X125953481Y-78473927D01*
X125963202Y-78463202D01*
X125973927Y-78453481D01*
X125985553Y-78444858D01*
X125997969Y-78437417D01*
X126011054Y-78431228D01*
X126024683Y-78426351D01*
X126038724Y-78422834D01*
X126053042Y-78420710D01*
X126067500Y-78420000D01*
X126362500Y-78420000D01*
X126376958Y-78420710D01*
X126376958Y-78420710D01*
G37*
D13*
X126215000Y-78740000D03*
D11*
G36*
X126757691Y-75726053D02*
X126778926Y-75729203D01*
X126799750Y-75734419D01*
X126819962Y-75741651D01*
X126839368Y-75750830D01*
X126857781Y-75761866D01*
X126875024Y-75774654D01*
X126890930Y-75789070D01*
X126905346Y-75804976D01*
X126918134Y-75822219D01*
X126929170Y-75840632D01*
X126938349Y-75860038D01*
X126945581Y-75880250D01*
X126950797Y-75901074D01*
X126953947Y-75922309D01*
X126955000Y-75943750D01*
X126955000Y-76456250D01*
X126953947Y-76477691D01*
X126950797Y-76498926D01*
X126945581Y-76519750D01*
X126938349Y-76539962D01*
X126929170Y-76559368D01*
X126918134Y-76577781D01*
X126905346Y-76595024D01*
X126890930Y-76610930D01*
X126875024Y-76625346D01*
X126857781Y-76638134D01*
X126839368Y-76649170D01*
X126819962Y-76658349D01*
X126799750Y-76665581D01*
X126778926Y-76670797D01*
X126757691Y-76673947D01*
X126736250Y-76675000D01*
X126298750Y-76675000D01*
X126277309Y-76673947D01*
X126256074Y-76670797D01*
X126235250Y-76665581D01*
X126215038Y-76658349D01*
X126195632Y-76649170D01*
X126177219Y-76638134D01*
X126159976Y-76625346D01*
X126144070Y-76610930D01*
X126129654Y-76595024D01*
X126116866Y-76577781D01*
X126105830Y-76559368D01*
X126096651Y-76539962D01*
X126089419Y-76519750D01*
X126084203Y-76498926D01*
X126081053Y-76477691D01*
X126080000Y-76456250D01*
X126080000Y-75943750D01*
X126081053Y-75922309D01*
X126084203Y-75901074D01*
X126089419Y-75880250D01*
X126096651Y-75860038D01*
X126105830Y-75840632D01*
X126116866Y-75822219D01*
X126129654Y-75804976D01*
X126144070Y-75789070D01*
X126159976Y-75774654D01*
X126177219Y-75761866D01*
X126195632Y-75750830D01*
X126215038Y-75741651D01*
X126235250Y-75734419D01*
X126256074Y-75729203D01*
X126277309Y-75726053D01*
X126298750Y-75725000D01*
X126736250Y-75725000D01*
X126757691Y-75726053D01*
X126757691Y-75726053D01*
G37*
D14*
X126517500Y-76200000D03*
D11*
G36*
X125182691Y-75726053D02*
X125203926Y-75729203D01*
X125224750Y-75734419D01*
X125244962Y-75741651D01*
X125264368Y-75750830D01*
X125282781Y-75761866D01*
X125300024Y-75774654D01*
X125315930Y-75789070D01*
X125330346Y-75804976D01*
X125343134Y-75822219D01*
X125354170Y-75840632D01*
X125363349Y-75860038D01*
X125370581Y-75880250D01*
X125375797Y-75901074D01*
X125378947Y-75922309D01*
X125380000Y-75943750D01*
X125380000Y-76456250D01*
X125378947Y-76477691D01*
X125375797Y-76498926D01*
X125370581Y-76519750D01*
X125363349Y-76539962D01*
X125354170Y-76559368D01*
X125343134Y-76577781D01*
X125330346Y-76595024D01*
X125315930Y-76610930D01*
X125300024Y-76625346D01*
X125282781Y-76638134D01*
X125264368Y-76649170D01*
X125244962Y-76658349D01*
X125224750Y-76665581D01*
X125203926Y-76670797D01*
X125182691Y-76673947D01*
X125161250Y-76675000D01*
X124723750Y-76675000D01*
X124702309Y-76673947D01*
X124681074Y-76670797D01*
X124660250Y-76665581D01*
X124640038Y-76658349D01*
X124620632Y-76649170D01*
X124602219Y-76638134D01*
X124584976Y-76625346D01*
X124569070Y-76610930D01*
X124554654Y-76595024D01*
X124541866Y-76577781D01*
X124530830Y-76559368D01*
X124521651Y-76539962D01*
X124514419Y-76519750D01*
X124509203Y-76498926D01*
X124506053Y-76477691D01*
X124505000Y-76456250D01*
X124505000Y-75943750D01*
X124506053Y-75922309D01*
X124509203Y-75901074D01*
X124514419Y-75880250D01*
X124521651Y-75860038D01*
X124530830Y-75840632D01*
X124541866Y-75822219D01*
X124554654Y-75804976D01*
X124569070Y-75789070D01*
X124584976Y-75774654D01*
X124602219Y-75761866D01*
X124620632Y-75750830D01*
X124640038Y-75741651D01*
X124660250Y-75734419D01*
X124681074Y-75729203D01*
X124702309Y-75726053D01*
X124723750Y-75725000D01*
X125161250Y-75725000D01*
X125182691Y-75726053D01*
X125182691Y-75726053D01*
G37*
D14*
X124942500Y-76200000D03*
D11*
G36*
X125182691Y-80806053D02*
X125203926Y-80809203D01*
X125224750Y-80814419D01*
X125244962Y-80821651D01*
X125264368Y-80830830D01*
X125282781Y-80841866D01*
X125300024Y-80854654D01*
X125315930Y-80869070D01*
X125330346Y-80884976D01*
X125343134Y-80902219D01*
X125354170Y-80920632D01*
X125363349Y-80940038D01*
X125370581Y-80960250D01*
X125375797Y-80981074D01*
X125378947Y-81002309D01*
X125380000Y-81023750D01*
X125380000Y-81536250D01*
X125378947Y-81557691D01*
X125375797Y-81578926D01*
X125370581Y-81599750D01*
X125363349Y-81619962D01*
X125354170Y-81639368D01*
X125343134Y-81657781D01*
X125330346Y-81675024D01*
X125315930Y-81690930D01*
X125300024Y-81705346D01*
X125282781Y-81718134D01*
X125264368Y-81729170D01*
X125244962Y-81738349D01*
X125224750Y-81745581D01*
X125203926Y-81750797D01*
X125182691Y-81753947D01*
X125161250Y-81755000D01*
X124723750Y-81755000D01*
X124702309Y-81753947D01*
X124681074Y-81750797D01*
X124660250Y-81745581D01*
X124640038Y-81738349D01*
X124620632Y-81729170D01*
X124602219Y-81718134D01*
X124584976Y-81705346D01*
X124569070Y-81690930D01*
X124554654Y-81675024D01*
X124541866Y-81657781D01*
X124530830Y-81639368D01*
X124521651Y-81619962D01*
X124514419Y-81599750D01*
X124509203Y-81578926D01*
X124506053Y-81557691D01*
X124505000Y-81536250D01*
X124505000Y-81023750D01*
X124506053Y-81002309D01*
X124509203Y-80981074D01*
X124514419Y-80960250D01*
X124521651Y-80940038D01*
X124530830Y-80920632D01*
X124541866Y-80902219D01*
X124554654Y-80884976D01*
X124569070Y-80869070D01*
X124584976Y-80854654D01*
X124602219Y-80841866D01*
X124620632Y-80830830D01*
X124640038Y-80821651D01*
X124660250Y-80814419D01*
X124681074Y-80809203D01*
X124702309Y-80806053D01*
X124723750Y-80805000D01*
X125161250Y-80805000D01*
X125182691Y-80806053D01*
X125182691Y-80806053D01*
G37*
D14*
X124942500Y-81280000D03*
D11*
G36*
X126757691Y-80806053D02*
X126778926Y-80809203D01*
X126799750Y-80814419D01*
X126819962Y-80821651D01*
X126839368Y-80830830D01*
X126857781Y-80841866D01*
X126875024Y-80854654D01*
X126890930Y-80869070D01*
X126905346Y-80884976D01*
X126918134Y-80902219D01*
X126929170Y-80920632D01*
X126938349Y-80940038D01*
X126945581Y-80960250D01*
X126950797Y-80981074D01*
X126953947Y-81002309D01*
X126955000Y-81023750D01*
X126955000Y-81536250D01*
X126953947Y-81557691D01*
X126950797Y-81578926D01*
X126945581Y-81599750D01*
X126938349Y-81619962D01*
X126929170Y-81639368D01*
X126918134Y-81657781D01*
X126905346Y-81675024D01*
X126890930Y-81690930D01*
X126875024Y-81705346D01*
X126857781Y-81718134D01*
X126839368Y-81729170D01*
X126819962Y-81738349D01*
X126799750Y-81745581D01*
X126778926Y-81750797D01*
X126757691Y-81753947D01*
X126736250Y-81755000D01*
X126298750Y-81755000D01*
X126277309Y-81753947D01*
X126256074Y-81750797D01*
X126235250Y-81745581D01*
X126215038Y-81738349D01*
X126195632Y-81729170D01*
X126177219Y-81718134D01*
X126159976Y-81705346D01*
X126144070Y-81690930D01*
X126129654Y-81675024D01*
X126116866Y-81657781D01*
X126105830Y-81639368D01*
X126096651Y-81619962D01*
X126089419Y-81599750D01*
X126084203Y-81578926D01*
X126081053Y-81557691D01*
X126080000Y-81536250D01*
X126080000Y-81023750D01*
X126081053Y-81002309D01*
X126084203Y-80981074D01*
X126089419Y-80960250D01*
X126096651Y-80940038D01*
X126105830Y-80920632D01*
X126116866Y-80902219D01*
X126129654Y-80884976D01*
X126144070Y-80869070D01*
X126159976Y-80854654D01*
X126177219Y-80841866D01*
X126195632Y-80830830D01*
X126215038Y-80821651D01*
X126235250Y-80814419D01*
X126256074Y-80809203D01*
X126277309Y-80806053D01*
X126298750Y-80805000D01*
X126736250Y-80805000D01*
X126757691Y-80806053D01*
X126757691Y-80806053D01*
G37*
D14*
X126517500Y-81280000D03*
D11*
G36*
X126757691Y-68106053D02*
X126778926Y-68109203D01*
X126799750Y-68114419D01*
X126819962Y-68121651D01*
X126839368Y-68130830D01*
X126857781Y-68141866D01*
X126875024Y-68154654D01*
X126890930Y-68169070D01*
X126905346Y-68184976D01*
X126918134Y-68202219D01*
X126929170Y-68220632D01*
X126938349Y-68240038D01*
X126945581Y-68260250D01*
X126950797Y-68281074D01*
X126953947Y-68302309D01*
X126955000Y-68323750D01*
X126955000Y-68836250D01*
X126953947Y-68857691D01*
X126950797Y-68878926D01*
X126945581Y-68899750D01*
X126938349Y-68919962D01*
X126929170Y-68939368D01*
X126918134Y-68957781D01*
X126905346Y-68975024D01*
X126890930Y-68990930D01*
X126875024Y-69005346D01*
X126857781Y-69018134D01*
X126839368Y-69029170D01*
X126819962Y-69038349D01*
X126799750Y-69045581D01*
X126778926Y-69050797D01*
X126757691Y-69053947D01*
X126736250Y-69055000D01*
X126298750Y-69055000D01*
X126277309Y-69053947D01*
X126256074Y-69050797D01*
X126235250Y-69045581D01*
X126215038Y-69038349D01*
X126195632Y-69029170D01*
X126177219Y-69018134D01*
X126159976Y-69005346D01*
X126144070Y-68990930D01*
X126129654Y-68975024D01*
X126116866Y-68957781D01*
X126105830Y-68939368D01*
X126096651Y-68919962D01*
X126089419Y-68899750D01*
X126084203Y-68878926D01*
X126081053Y-68857691D01*
X126080000Y-68836250D01*
X126080000Y-68323750D01*
X126081053Y-68302309D01*
X126084203Y-68281074D01*
X126089419Y-68260250D01*
X126096651Y-68240038D01*
X126105830Y-68220632D01*
X126116866Y-68202219D01*
X126129654Y-68184976D01*
X126144070Y-68169070D01*
X126159976Y-68154654D01*
X126177219Y-68141866D01*
X126195632Y-68130830D01*
X126215038Y-68121651D01*
X126235250Y-68114419D01*
X126256074Y-68109203D01*
X126277309Y-68106053D01*
X126298750Y-68105000D01*
X126736250Y-68105000D01*
X126757691Y-68106053D01*
X126757691Y-68106053D01*
G37*
D14*
X126517500Y-68580000D03*
D11*
G36*
X125182691Y-68106053D02*
X125203926Y-68109203D01*
X125224750Y-68114419D01*
X125244962Y-68121651D01*
X125264368Y-68130830D01*
X125282781Y-68141866D01*
X125300024Y-68154654D01*
X125315930Y-68169070D01*
X125330346Y-68184976D01*
X125343134Y-68202219D01*
X125354170Y-68220632D01*
X125363349Y-68240038D01*
X125370581Y-68260250D01*
X125375797Y-68281074D01*
X125378947Y-68302309D01*
X125380000Y-68323750D01*
X125380000Y-68836250D01*
X125378947Y-68857691D01*
X125375797Y-68878926D01*
X125370581Y-68899750D01*
X125363349Y-68919962D01*
X125354170Y-68939368D01*
X125343134Y-68957781D01*
X125330346Y-68975024D01*
X125315930Y-68990930D01*
X125300024Y-69005346D01*
X125282781Y-69018134D01*
X125264368Y-69029170D01*
X125244962Y-69038349D01*
X125224750Y-69045581D01*
X125203926Y-69050797D01*
X125182691Y-69053947D01*
X125161250Y-69055000D01*
X124723750Y-69055000D01*
X124702309Y-69053947D01*
X124681074Y-69050797D01*
X124660250Y-69045581D01*
X124640038Y-69038349D01*
X124620632Y-69029170D01*
X124602219Y-69018134D01*
X124584976Y-69005346D01*
X124569070Y-68990930D01*
X124554654Y-68975024D01*
X124541866Y-68957781D01*
X124530830Y-68939368D01*
X124521651Y-68919962D01*
X124514419Y-68899750D01*
X124509203Y-68878926D01*
X124506053Y-68857691D01*
X124505000Y-68836250D01*
X124505000Y-68323750D01*
X124506053Y-68302309D01*
X124509203Y-68281074D01*
X124514419Y-68260250D01*
X124521651Y-68240038D01*
X124530830Y-68220632D01*
X124541866Y-68202219D01*
X124554654Y-68184976D01*
X124569070Y-68169070D01*
X124584976Y-68154654D01*
X124602219Y-68141866D01*
X124620632Y-68130830D01*
X124640038Y-68121651D01*
X124660250Y-68114419D01*
X124681074Y-68109203D01*
X124702309Y-68106053D01*
X124723750Y-68105000D01*
X125161250Y-68105000D01*
X125182691Y-68106053D01*
X125182691Y-68106053D01*
G37*
D14*
X124942500Y-68580000D03*
D11*
G36*
X125182691Y-63026053D02*
X125203926Y-63029203D01*
X125224750Y-63034419D01*
X125244962Y-63041651D01*
X125264368Y-63050830D01*
X125282781Y-63061866D01*
X125300024Y-63074654D01*
X125315930Y-63089070D01*
X125330346Y-63104976D01*
X125343134Y-63122219D01*
X125354170Y-63140632D01*
X125363349Y-63160038D01*
X125370581Y-63180250D01*
X125375797Y-63201074D01*
X125378947Y-63222309D01*
X125380000Y-63243750D01*
X125380000Y-63756250D01*
X125378947Y-63777691D01*
X125375797Y-63798926D01*
X125370581Y-63819750D01*
X125363349Y-63839962D01*
X125354170Y-63859368D01*
X125343134Y-63877781D01*
X125330346Y-63895024D01*
X125315930Y-63910930D01*
X125300024Y-63925346D01*
X125282781Y-63938134D01*
X125264368Y-63949170D01*
X125244962Y-63958349D01*
X125224750Y-63965581D01*
X125203926Y-63970797D01*
X125182691Y-63973947D01*
X125161250Y-63975000D01*
X124723750Y-63975000D01*
X124702309Y-63973947D01*
X124681074Y-63970797D01*
X124660250Y-63965581D01*
X124640038Y-63958349D01*
X124620632Y-63949170D01*
X124602219Y-63938134D01*
X124584976Y-63925346D01*
X124569070Y-63910930D01*
X124554654Y-63895024D01*
X124541866Y-63877781D01*
X124530830Y-63859368D01*
X124521651Y-63839962D01*
X124514419Y-63819750D01*
X124509203Y-63798926D01*
X124506053Y-63777691D01*
X124505000Y-63756250D01*
X124505000Y-63243750D01*
X124506053Y-63222309D01*
X124509203Y-63201074D01*
X124514419Y-63180250D01*
X124521651Y-63160038D01*
X124530830Y-63140632D01*
X124541866Y-63122219D01*
X124554654Y-63104976D01*
X124569070Y-63089070D01*
X124584976Y-63074654D01*
X124602219Y-63061866D01*
X124620632Y-63050830D01*
X124640038Y-63041651D01*
X124660250Y-63034419D01*
X124681074Y-63029203D01*
X124702309Y-63026053D01*
X124723750Y-63025000D01*
X125161250Y-63025000D01*
X125182691Y-63026053D01*
X125182691Y-63026053D01*
G37*
D14*
X124942500Y-63500000D03*
D11*
G36*
X126757691Y-63026053D02*
X126778926Y-63029203D01*
X126799750Y-63034419D01*
X126819962Y-63041651D01*
X126839368Y-63050830D01*
X126857781Y-63061866D01*
X126875024Y-63074654D01*
X126890930Y-63089070D01*
X126905346Y-63104976D01*
X126918134Y-63122219D01*
X126929170Y-63140632D01*
X126938349Y-63160038D01*
X126945581Y-63180250D01*
X126950797Y-63201074D01*
X126953947Y-63222309D01*
X126955000Y-63243750D01*
X126955000Y-63756250D01*
X126953947Y-63777691D01*
X126950797Y-63798926D01*
X126945581Y-63819750D01*
X126938349Y-63839962D01*
X126929170Y-63859368D01*
X126918134Y-63877781D01*
X126905346Y-63895024D01*
X126890930Y-63910930D01*
X126875024Y-63925346D01*
X126857781Y-63938134D01*
X126839368Y-63949170D01*
X126819962Y-63958349D01*
X126799750Y-63965581D01*
X126778926Y-63970797D01*
X126757691Y-63973947D01*
X126736250Y-63975000D01*
X126298750Y-63975000D01*
X126277309Y-63973947D01*
X126256074Y-63970797D01*
X126235250Y-63965581D01*
X126215038Y-63958349D01*
X126195632Y-63949170D01*
X126177219Y-63938134D01*
X126159976Y-63925346D01*
X126144070Y-63910930D01*
X126129654Y-63895024D01*
X126116866Y-63877781D01*
X126105830Y-63859368D01*
X126096651Y-63839962D01*
X126089419Y-63819750D01*
X126084203Y-63798926D01*
X126081053Y-63777691D01*
X126080000Y-63756250D01*
X126080000Y-63243750D01*
X126081053Y-63222309D01*
X126084203Y-63201074D01*
X126089419Y-63180250D01*
X126096651Y-63160038D01*
X126105830Y-63140632D01*
X126116866Y-63122219D01*
X126129654Y-63104976D01*
X126144070Y-63089070D01*
X126159976Y-63074654D01*
X126177219Y-63061866D01*
X126195632Y-63050830D01*
X126215038Y-63041651D01*
X126235250Y-63034419D01*
X126256074Y-63029203D01*
X126277309Y-63026053D01*
X126298750Y-63025000D01*
X126736250Y-63025000D01*
X126757691Y-63026053D01*
X126757691Y-63026053D01*
G37*
D14*
X126517500Y-63500000D03*
D11*
G36*
X126757691Y-73186053D02*
X126778926Y-73189203D01*
X126799750Y-73194419D01*
X126819962Y-73201651D01*
X126839368Y-73210830D01*
X126857781Y-73221866D01*
X126875024Y-73234654D01*
X126890930Y-73249070D01*
X126905346Y-73264976D01*
X126918134Y-73282219D01*
X126929170Y-73300632D01*
X126938349Y-73320038D01*
X126945581Y-73340250D01*
X126950797Y-73361074D01*
X126953947Y-73382309D01*
X126955000Y-73403750D01*
X126955000Y-73916250D01*
X126953947Y-73937691D01*
X126950797Y-73958926D01*
X126945581Y-73979750D01*
X126938349Y-73999962D01*
X126929170Y-74019368D01*
X126918134Y-74037781D01*
X126905346Y-74055024D01*
X126890930Y-74070930D01*
X126875024Y-74085346D01*
X126857781Y-74098134D01*
X126839368Y-74109170D01*
X126819962Y-74118349D01*
X126799750Y-74125581D01*
X126778926Y-74130797D01*
X126757691Y-74133947D01*
X126736250Y-74135000D01*
X126298750Y-74135000D01*
X126277309Y-74133947D01*
X126256074Y-74130797D01*
X126235250Y-74125581D01*
X126215038Y-74118349D01*
X126195632Y-74109170D01*
X126177219Y-74098134D01*
X126159976Y-74085346D01*
X126144070Y-74070930D01*
X126129654Y-74055024D01*
X126116866Y-74037781D01*
X126105830Y-74019368D01*
X126096651Y-73999962D01*
X126089419Y-73979750D01*
X126084203Y-73958926D01*
X126081053Y-73937691D01*
X126080000Y-73916250D01*
X126080000Y-73403750D01*
X126081053Y-73382309D01*
X126084203Y-73361074D01*
X126089419Y-73340250D01*
X126096651Y-73320038D01*
X126105830Y-73300632D01*
X126116866Y-73282219D01*
X126129654Y-73264976D01*
X126144070Y-73249070D01*
X126159976Y-73234654D01*
X126177219Y-73221866D01*
X126195632Y-73210830D01*
X126215038Y-73201651D01*
X126235250Y-73194419D01*
X126256074Y-73189203D01*
X126277309Y-73186053D01*
X126298750Y-73185000D01*
X126736250Y-73185000D01*
X126757691Y-73186053D01*
X126757691Y-73186053D01*
G37*
D14*
X126517500Y-73660000D03*
D11*
G36*
X125182691Y-73186053D02*
X125203926Y-73189203D01*
X125224750Y-73194419D01*
X125244962Y-73201651D01*
X125264368Y-73210830D01*
X125282781Y-73221866D01*
X125300024Y-73234654D01*
X125315930Y-73249070D01*
X125330346Y-73264976D01*
X125343134Y-73282219D01*
X125354170Y-73300632D01*
X125363349Y-73320038D01*
X125370581Y-73340250D01*
X125375797Y-73361074D01*
X125378947Y-73382309D01*
X125380000Y-73403750D01*
X125380000Y-73916250D01*
X125378947Y-73937691D01*
X125375797Y-73958926D01*
X125370581Y-73979750D01*
X125363349Y-73999962D01*
X125354170Y-74019368D01*
X125343134Y-74037781D01*
X125330346Y-74055024D01*
X125315930Y-74070930D01*
X125300024Y-74085346D01*
X125282781Y-74098134D01*
X125264368Y-74109170D01*
X125244962Y-74118349D01*
X125224750Y-74125581D01*
X125203926Y-74130797D01*
X125182691Y-74133947D01*
X125161250Y-74135000D01*
X124723750Y-74135000D01*
X124702309Y-74133947D01*
X124681074Y-74130797D01*
X124660250Y-74125581D01*
X124640038Y-74118349D01*
X124620632Y-74109170D01*
X124602219Y-74098134D01*
X124584976Y-74085346D01*
X124569070Y-74070930D01*
X124554654Y-74055024D01*
X124541866Y-74037781D01*
X124530830Y-74019368D01*
X124521651Y-73999962D01*
X124514419Y-73979750D01*
X124509203Y-73958926D01*
X124506053Y-73937691D01*
X124505000Y-73916250D01*
X124505000Y-73403750D01*
X124506053Y-73382309D01*
X124509203Y-73361074D01*
X124514419Y-73340250D01*
X124521651Y-73320038D01*
X124530830Y-73300632D01*
X124541866Y-73282219D01*
X124554654Y-73264976D01*
X124569070Y-73249070D01*
X124584976Y-73234654D01*
X124602219Y-73221866D01*
X124620632Y-73210830D01*
X124640038Y-73201651D01*
X124660250Y-73194419D01*
X124681074Y-73189203D01*
X124702309Y-73186053D01*
X124723750Y-73185000D01*
X125161250Y-73185000D01*
X125182691Y-73186053D01*
X125182691Y-73186053D01*
G37*
D14*
X124942500Y-73660000D03*
D11*
G36*
X125182691Y-78266053D02*
X125203926Y-78269203D01*
X125224750Y-78274419D01*
X125244962Y-78281651D01*
X125264368Y-78290830D01*
X125282781Y-78301866D01*
X125300024Y-78314654D01*
X125315930Y-78329070D01*
X125330346Y-78344976D01*
X125343134Y-78362219D01*
X125354170Y-78380632D01*
X125363349Y-78400038D01*
X125370581Y-78420250D01*
X125375797Y-78441074D01*
X125378947Y-78462309D01*
X125380000Y-78483750D01*
X125380000Y-78996250D01*
X125378947Y-79017691D01*
X125375797Y-79038926D01*
X125370581Y-79059750D01*
X125363349Y-79079962D01*
X125354170Y-79099368D01*
X125343134Y-79117781D01*
X125330346Y-79135024D01*
X125315930Y-79150930D01*
X125300024Y-79165346D01*
X125282781Y-79178134D01*
X125264368Y-79189170D01*
X125244962Y-79198349D01*
X125224750Y-79205581D01*
X125203926Y-79210797D01*
X125182691Y-79213947D01*
X125161250Y-79215000D01*
X124723750Y-79215000D01*
X124702309Y-79213947D01*
X124681074Y-79210797D01*
X124660250Y-79205581D01*
X124640038Y-79198349D01*
X124620632Y-79189170D01*
X124602219Y-79178134D01*
X124584976Y-79165346D01*
X124569070Y-79150930D01*
X124554654Y-79135024D01*
X124541866Y-79117781D01*
X124530830Y-79099368D01*
X124521651Y-79079962D01*
X124514419Y-79059750D01*
X124509203Y-79038926D01*
X124506053Y-79017691D01*
X124505000Y-78996250D01*
X124505000Y-78483750D01*
X124506053Y-78462309D01*
X124509203Y-78441074D01*
X124514419Y-78420250D01*
X124521651Y-78400038D01*
X124530830Y-78380632D01*
X124541866Y-78362219D01*
X124554654Y-78344976D01*
X124569070Y-78329070D01*
X124584976Y-78314654D01*
X124602219Y-78301866D01*
X124620632Y-78290830D01*
X124640038Y-78281651D01*
X124660250Y-78274419D01*
X124681074Y-78269203D01*
X124702309Y-78266053D01*
X124723750Y-78265000D01*
X125161250Y-78265000D01*
X125182691Y-78266053D01*
X125182691Y-78266053D01*
G37*
D14*
X124942500Y-78740000D03*
D11*
G36*
X126757691Y-78266053D02*
X126778926Y-78269203D01*
X126799750Y-78274419D01*
X126819962Y-78281651D01*
X126839368Y-78290830D01*
X126857781Y-78301866D01*
X126875024Y-78314654D01*
X126890930Y-78329070D01*
X126905346Y-78344976D01*
X126918134Y-78362219D01*
X126929170Y-78380632D01*
X126938349Y-78400038D01*
X126945581Y-78420250D01*
X126950797Y-78441074D01*
X126953947Y-78462309D01*
X126955000Y-78483750D01*
X126955000Y-78996250D01*
X126953947Y-79017691D01*
X126950797Y-79038926D01*
X126945581Y-79059750D01*
X126938349Y-79079962D01*
X126929170Y-79099368D01*
X126918134Y-79117781D01*
X126905346Y-79135024D01*
X126890930Y-79150930D01*
X126875024Y-79165346D01*
X126857781Y-79178134D01*
X126839368Y-79189170D01*
X126819962Y-79198349D01*
X126799750Y-79205581D01*
X126778926Y-79210797D01*
X126757691Y-79213947D01*
X126736250Y-79215000D01*
X126298750Y-79215000D01*
X126277309Y-79213947D01*
X126256074Y-79210797D01*
X126235250Y-79205581D01*
X126215038Y-79198349D01*
X126195632Y-79189170D01*
X126177219Y-79178134D01*
X126159976Y-79165346D01*
X126144070Y-79150930D01*
X126129654Y-79135024D01*
X126116866Y-79117781D01*
X126105830Y-79099368D01*
X126096651Y-79079962D01*
X126089419Y-79059750D01*
X126084203Y-79038926D01*
X126081053Y-79017691D01*
X126080000Y-78996250D01*
X126080000Y-78483750D01*
X126081053Y-78462309D01*
X126084203Y-78441074D01*
X126089419Y-78420250D01*
X126096651Y-78400038D01*
X126105830Y-78380632D01*
X126116866Y-78362219D01*
X126129654Y-78344976D01*
X126144070Y-78329070D01*
X126159976Y-78314654D01*
X126177219Y-78301866D01*
X126195632Y-78290830D01*
X126215038Y-78281651D01*
X126235250Y-78274419D01*
X126256074Y-78269203D01*
X126277309Y-78266053D01*
X126298750Y-78265000D01*
X126736250Y-78265000D01*
X126757691Y-78266053D01*
X126757691Y-78266053D01*
G37*
D14*
X126517500Y-78740000D03*
D11*
G36*
X126757691Y-70646053D02*
X126778926Y-70649203D01*
X126799750Y-70654419D01*
X126819962Y-70661651D01*
X126839368Y-70670830D01*
X126857781Y-70681866D01*
X126875024Y-70694654D01*
X126890930Y-70709070D01*
X126905346Y-70724976D01*
X126918134Y-70742219D01*
X126929170Y-70760632D01*
X126938349Y-70780038D01*
X126945581Y-70800250D01*
X126950797Y-70821074D01*
X126953947Y-70842309D01*
X126955000Y-70863750D01*
X126955000Y-71376250D01*
X126953947Y-71397691D01*
X126950797Y-71418926D01*
X126945581Y-71439750D01*
X126938349Y-71459962D01*
X126929170Y-71479368D01*
X126918134Y-71497781D01*
X126905346Y-71515024D01*
X126890930Y-71530930D01*
X126875024Y-71545346D01*
X126857781Y-71558134D01*
X126839368Y-71569170D01*
X126819962Y-71578349D01*
X126799750Y-71585581D01*
X126778926Y-71590797D01*
X126757691Y-71593947D01*
X126736250Y-71595000D01*
X126298750Y-71595000D01*
X126277309Y-71593947D01*
X126256074Y-71590797D01*
X126235250Y-71585581D01*
X126215038Y-71578349D01*
X126195632Y-71569170D01*
X126177219Y-71558134D01*
X126159976Y-71545346D01*
X126144070Y-71530930D01*
X126129654Y-71515024D01*
X126116866Y-71497781D01*
X126105830Y-71479368D01*
X126096651Y-71459962D01*
X126089419Y-71439750D01*
X126084203Y-71418926D01*
X126081053Y-71397691D01*
X126080000Y-71376250D01*
X126080000Y-70863750D01*
X126081053Y-70842309D01*
X126084203Y-70821074D01*
X126089419Y-70800250D01*
X126096651Y-70780038D01*
X126105830Y-70760632D01*
X126116866Y-70742219D01*
X126129654Y-70724976D01*
X126144070Y-70709070D01*
X126159976Y-70694654D01*
X126177219Y-70681866D01*
X126195632Y-70670830D01*
X126215038Y-70661651D01*
X126235250Y-70654419D01*
X126256074Y-70649203D01*
X126277309Y-70646053D01*
X126298750Y-70645000D01*
X126736250Y-70645000D01*
X126757691Y-70646053D01*
X126757691Y-70646053D01*
G37*
D14*
X126517500Y-71120000D03*
D11*
G36*
X125182691Y-70646053D02*
X125203926Y-70649203D01*
X125224750Y-70654419D01*
X125244962Y-70661651D01*
X125264368Y-70670830D01*
X125282781Y-70681866D01*
X125300024Y-70694654D01*
X125315930Y-70709070D01*
X125330346Y-70724976D01*
X125343134Y-70742219D01*
X125354170Y-70760632D01*
X125363349Y-70780038D01*
X125370581Y-70800250D01*
X125375797Y-70821074D01*
X125378947Y-70842309D01*
X125380000Y-70863750D01*
X125380000Y-71376250D01*
X125378947Y-71397691D01*
X125375797Y-71418926D01*
X125370581Y-71439750D01*
X125363349Y-71459962D01*
X125354170Y-71479368D01*
X125343134Y-71497781D01*
X125330346Y-71515024D01*
X125315930Y-71530930D01*
X125300024Y-71545346D01*
X125282781Y-71558134D01*
X125264368Y-71569170D01*
X125244962Y-71578349D01*
X125224750Y-71585581D01*
X125203926Y-71590797D01*
X125182691Y-71593947D01*
X125161250Y-71595000D01*
X124723750Y-71595000D01*
X124702309Y-71593947D01*
X124681074Y-71590797D01*
X124660250Y-71585581D01*
X124640038Y-71578349D01*
X124620632Y-71569170D01*
X124602219Y-71558134D01*
X124584976Y-71545346D01*
X124569070Y-71530930D01*
X124554654Y-71515024D01*
X124541866Y-71497781D01*
X124530830Y-71479368D01*
X124521651Y-71459962D01*
X124514419Y-71439750D01*
X124509203Y-71418926D01*
X124506053Y-71397691D01*
X124505000Y-71376250D01*
X124505000Y-70863750D01*
X124506053Y-70842309D01*
X124509203Y-70821074D01*
X124514419Y-70800250D01*
X124521651Y-70780038D01*
X124530830Y-70760632D01*
X124541866Y-70742219D01*
X124554654Y-70724976D01*
X124569070Y-70709070D01*
X124584976Y-70694654D01*
X124602219Y-70681866D01*
X124620632Y-70670830D01*
X124640038Y-70661651D01*
X124660250Y-70654419D01*
X124681074Y-70649203D01*
X124702309Y-70646053D01*
X124723750Y-70645000D01*
X125161250Y-70645000D01*
X125182691Y-70646053D01*
X125182691Y-70646053D01*
G37*
D14*
X124942500Y-71120000D03*
D11*
G36*
X125182691Y-65566053D02*
X125203926Y-65569203D01*
X125224750Y-65574419D01*
X125244962Y-65581651D01*
X125264368Y-65590830D01*
X125282781Y-65601866D01*
X125300024Y-65614654D01*
X125315930Y-65629070D01*
X125330346Y-65644976D01*
X125343134Y-65662219D01*
X125354170Y-65680632D01*
X125363349Y-65700038D01*
X125370581Y-65720250D01*
X125375797Y-65741074D01*
X125378947Y-65762309D01*
X125380000Y-65783750D01*
X125380000Y-66296250D01*
X125378947Y-66317691D01*
X125375797Y-66338926D01*
X125370581Y-66359750D01*
X125363349Y-66379962D01*
X125354170Y-66399368D01*
X125343134Y-66417781D01*
X125330346Y-66435024D01*
X125315930Y-66450930D01*
X125300024Y-66465346D01*
X125282781Y-66478134D01*
X125264368Y-66489170D01*
X125244962Y-66498349D01*
X125224750Y-66505581D01*
X125203926Y-66510797D01*
X125182691Y-66513947D01*
X125161250Y-66515000D01*
X124723750Y-66515000D01*
X124702309Y-66513947D01*
X124681074Y-66510797D01*
X124660250Y-66505581D01*
X124640038Y-66498349D01*
X124620632Y-66489170D01*
X124602219Y-66478134D01*
X124584976Y-66465346D01*
X124569070Y-66450930D01*
X124554654Y-66435024D01*
X124541866Y-66417781D01*
X124530830Y-66399368D01*
X124521651Y-66379962D01*
X124514419Y-66359750D01*
X124509203Y-66338926D01*
X124506053Y-66317691D01*
X124505000Y-66296250D01*
X124505000Y-65783750D01*
X124506053Y-65762309D01*
X124509203Y-65741074D01*
X124514419Y-65720250D01*
X124521651Y-65700038D01*
X124530830Y-65680632D01*
X124541866Y-65662219D01*
X124554654Y-65644976D01*
X124569070Y-65629070D01*
X124584976Y-65614654D01*
X124602219Y-65601866D01*
X124620632Y-65590830D01*
X124640038Y-65581651D01*
X124660250Y-65574419D01*
X124681074Y-65569203D01*
X124702309Y-65566053D01*
X124723750Y-65565000D01*
X125161250Y-65565000D01*
X125182691Y-65566053D01*
X125182691Y-65566053D01*
G37*
D14*
X124942500Y-66040000D03*
D11*
G36*
X126757691Y-65566053D02*
X126778926Y-65569203D01*
X126799750Y-65574419D01*
X126819962Y-65581651D01*
X126839368Y-65590830D01*
X126857781Y-65601866D01*
X126875024Y-65614654D01*
X126890930Y-65629070D01*
X126905346Y-65644976D01*
X126918134Y-65662219D01*
X126929170Y-65680632D01*
X126938349Y-65700038D01*
X126945581Y-65720250D01*
X126950797Y-65741074D01*
X126953947Y-65762309D01*
X126955000Y-65783750D01*
X126955000Y-66296250D01*
X126953947Y-66317691D01*
X126950797Y-66338926D01*
X126945581Y-66359750D01*
X126938349Y-66379962D01*
X126929170Y-66399368D01*
X126918134Y-66417781D01*
X126905346Y-66435024D01*
X126890930Y-66450930D01*
X126875024Y-66465346D01*
X126857781Y-66478134D01*
X126839368Y-66489170D01*
X126819962Y-66498349D01*
X126799750Y-66505581D01*
X126778926Y-66510797D01*
X126757691Y-66513947D01*
X126736250Y-66515000D01*
X126298750Y-66515000D01*
X126277309Y-66513947D01*
X126256074Y-66510797D01*
X126235250Y-66505581D01*
X126215038Y-66498349D01*
X126195632Y-66489170D01*
X126177219Y-66478134D01*
X126159976Y-66465346D01*
X126144070Y-66450930D01*
X126129654Y-66435024D01*
X126116866Y-66417781D01*
X126105830Y-66399368D01*
X126096651Y-66379962D01*
X126089419Y-66359750D01*
X126084203Y-66338926D01*
X126081053Y-66317691D01*
X126080000Y-66296250D01*
X126080000Y-65783750D01*
X126081053Y-65762309D01*
X126084203Y-65741074D01*
X126089419Y-65720250D01*
X126096651Y-65700038D01*
X126105830Y-65680632D01*
X126116866Y-65662219D01*
X126129654Y-65644976D01*
X126144070Y-65629070D01*
X126159976Y-65614654D01*
X126177219Y-65601866D01*
X126195632Y-65590830D01*
X126215038Y-65581651D01*
X126235250Y-65574419D01*
X126256074Y-65569203D01*
X126277309Y-65566053D01*
X126298750Y-65565000D01*
X126736250Y-65565000D01*
X126757691Y-65566053D01*
X126757691Y-65566053D01*
G37*
D14*
X126517500Y-66040000D03*
D11*
G36*
X126935142Y-80581174D02*
X126958803Y-80584684D01*
X126982007Y-80590496D01*
X127004529Y-80598554D01*
X127026153Y-80608782D01*
X127046670Y-80621079D01*
X127065883Y-80635329D01*
X127083607Y-80651393D01*
X127099671Y-80669117D01*
X127113921Y-80688330D01*
X127126218Y-80708847D01*
X127136446Y-80730471D01*
X127144504Y-80752993D01*
X127150316Y-80776197D01*
X127153826Y-80799858D01*
X127155000Y-80823750D01*
X127155000Y-81736250D01*
X127153826Y-81760142D01*
X127150316Y-81783803D01*
X127144504Y-81807007D01*
X127136446Y-81829529D01*
X127126218Y-81851153D01*
X127113921Y-81871670D01*
X127099671Y-81890883D01*
X127083607Y-81908607D01*
X127065883Y-81924671D01*
X127046670Y-81938921D01*
X127026153Y-81951218D01*
X127004529Y-81961446D01*
X126982007Y-81969504D01*
X126958803Y-81975316D01*
X126935142Y-81978826D01*
X126911250Y-81980000D01*
X126423750Y-81980000D01*
X126399858Y-81978826D01*
X126376197Y-81975316D01*
X126352993Y-81969504D01*
X126330471Y-81961446D01*
X126308847Y-81951218D01*
X126288330Y-81938921D01*
X126269117Y-81924671D01*
X126251393Y-81908607D01*
X126235329Y-81890883D01*
X126221079Y-81871670D01*
X126208782Y-81851153D01*
X126198554Y-81829529D01*
X126190496Y-81807007D01*
X126184684Y-81783803D01*
X126181174Y-81760142D01*
X126180000Y-81736250D01*
X126180000Y-80823750D01*
X126181174Y-80799858D01*
X126184684Y-80776197D01*
X126190496Y-80752993D01*
X126198554Y-80730471D01*
X126208782Y-80708847D01*
X126221079Y-80688330D01*
X126235329Y-80669117D01*
X126251393Y-80651393D01*
X126269117Y-80635329D01*
X126288330Y-80621079D01*
X126308847Y-80608782D01*
X126330471Y-80598554D01*
X126352993Y-80590496D01*
X126376197Y-80584684D01*
X126399858Y-80581174D01*
X126423750Y-80580000D01*
X126911250Y-80580000D01*
X126935142Y-80581174D01*
X126935142Y-80581174D01*
G37*
D15*
X126667500Y-81280000D03*
D11*
G36*
X125060142Y-80581174D02*
X125083803Y-80584684D01*
X125107007Y-80590496D01*
X125129529Y-80598554D01*
X125151153Y-80608782D01*
X125171670Y-80621079D01*
X125190883Y-80635329D01*
X125208607Y-80651393D01*
X125224671Y-80669117D01*
X125238921Y-80688330D01*
X125251218Y-80708847D01*
X125261446Y-80730471D01*
X125269504Y-80752993D01*
X125275316Y-80776197D01*
X125278826Y-80799858D01*
X125280000Y-80823750D01*
X125280000Y-81736250D01*
X125278826Y-81760142D01*
X125275316Y-81783803D01*
X125269504Y-81807007D01*
X125261446Y-81829529D01*
X125251218Y-81851153D01*
X125238921Y-81871670D01*
X125224671Y-81890883D01*
X125208607Y-81908607D01*
X125190883Y-81924671D01*
X125171670Y-81938921D01*
X125151153Y-81951218D01*
X125129529Y-81961446D01*
X125107007Y-81969504D01*
X125083803Y-81975316D01*
X125060142Y-81978826D01*
X125036250Y-81980000D01*
X124548750Y-81980000D01*
X124524858Y-81978826D01*
X124501197Y-81975316D01*
X124477993Y-81969504D01*
X124455471Y-81961446D01*
X124433847Y-81951218D01*
X124413330Y-81938921D01*
X124394117Y-81924671D01*
X124376393Y-81908607D01*
X124360329Y-81890883D01*
X124346079Y-81871670D01*
X124333782Y-81851153D01*
X124323554Y-81829529D01*
X124315496Y-81807007D01*
X124309684Y-81783803D01*
X124306174Y-81760142D01*
X124305000Y-81736250D01*
X124305000Y-80823750D01*
X124306174Y-80799858D01*
X124309684Y-80776197D01*
X124315496Y-80752993D01*
X124323554Y-80730471D01*
X124333782Y-80708847D01*
X124346079Y-80688330D01*
X124360329Y-80669117D01*
X124376393Y-80651393D01*
X124394117Y-80635329D01*
X124413330Y-80621079D01*
X124433847Y-80608782D01*
X124455471Y-80598554D01*
X124477993Y-80590496D01*
X124501197Y-80584684D01*
X124524858Y-80581174D01*
X124548750Y-80580000D01*
X125036250Y-80580000D01*
X125060142Y-80581174D01*
X125060142Y-80581174D01*
G37*
D15*
X124792500Y-81280000D03*
D11*
G36*
X125060142Y-72961174D02*
X125083803Y-72964684D01*
X125107007Y-72970496D01*
X125129529Y-72978554D01*
X125151153Y-72988782D01*
X125171670Y-73001079D01*
X125190883Y-73015329D01*
X125208607Y-73031393D01*
X125224671Y-73049117D01*
X125238921Y-73068330D01*
X125251218Y-73088847D01*
X125261446Y-73110471D01*
X125269504Y-73132993D01*
X125275316Y-73156197D01*
X125278826Y-73179858D01*
X125280000Y-73203750D01*
X125280000Y-74116250D01*
X125278826Y-74140142D01*
X125275316Y-74163803D01*
X125269504Y-74187007D01*
X125261446Y-74209529D01*
X125251218Y-74231153D01*
X125238921Y-74251670D01*
X125224671Y-74270883D01*
X125208607Y-74288607D01*
X125190883Y-74304671D01*
X125171670Y-74318921D01*
X125151153Y-74331218D01*
X125129529Y-74341446D01*
X125107007Y-74349504D01*
X125083803Y-74355316D01*
X125060142Y-74358826D01*
X125036250Y-74360000D01*
X124548750Y-74360000D01*
X124524858Y-74358826D01*
X124501197Y-74355316D01*
X124477993Y-74349504D01*
X124455471Y-74341446D01*
X124433847Y-74331218D01*
X124413330Y-74318921D01*
X124394117Y-74304671D01*
X124376393Y-74288607D01*
X124360329Y-74270883D01*
X124346079Y-74251670D01*
X124333782Y-74231153D01*
X124323554Y-74209529D01*
X124315496Y-74187007D01*
X124309684Y-74163803D01*
X124306174Y-74140142D01*
X124305000Y-74116250D01*
X124305000Y-73203750D01*
X124306174Y-73179858D01*
X124309684Y-73156197D01*
X124315496Y-73132993D01*
X124323554Y-73110471D01*
X124333782Y-73088847D01*
X124346079Y-73068330D01*
X124360329Y-73049117D01*
X124376393Y-73031393D01*
X124394117Y-73015329D01*
X124413330Y-73001079D01*
X124433847Y-72988782D01*
X124455471Y-72978554D01*
X124477993Y-72970496D01*
X124501197Y-72964684D01*
X124524858Y-72961174D01*
X124548750Y-72960000D01*
X125036250Y-72960000D01*
X125060142Y-72961174D01*
X125060142Y-72961174D01*
G37*
D15*
X124792500Y-73660000D03*
D11*
G36*
X126935142Y-72961174D02*
X126958803Y-72964684D01*
X126982007Y-72970496D01*
X127004529Y-72978554D01*
X127026153Y-72988782D01*
X127046670Y-73001079D01*
X127065883Y-73015329D01*
X127083607Y-73031393D01*
X127099671Y-73049117D01*
X127113921Y-73068330D01*
X127126218Y-73088847D01*
X127136446Y-73110471D01*
X127144504Y-73132993D01*
X127150316Y-73156197D01*
X127153826Y-73179858D01*
X127155000Y-73203750D01*
X127155000Y-74116250D01*
X127153826Y-74140142D01*
X127150316Y-74163803D01*
X127144504Y-74187007D01*
X127136446Y-74209529D01*
X127126218Y-74231153D01*
X127113921Y-74251670D01*
X127099671Y-74270883D01*
X127083607Y-74288607D01*
X127065883Y-74304671D01*
X127046670Y-74318921D01*
X127026153Y-74331218D01*
X127004529Y-74341446D01*
X126982007Y-74349504D01*
X126958803Y-74355316D01*
X126935142Y-74358826D01*
X126911250Y-74360000D01*
X126423750Y-74360000D01*
X126399858Y-74358826D01*
X126376197Y-74355316D01*
X126352993Y-74349504D01*
X126330471Y-74341446D01*
X126308847Y-74331218D01*
X126288330Y-74318921D01*
X126269117Y-74304671D01*
X126251393Y-74288607D01*
X126235329Y-74270883D01*
X126221079Y-74251670D01*
X126208782Y-74231153D01*
X126198554Y-74209529D01*
X126190496Y-74187007D01*
X126184684Y-74163803D01*
X126181174Y-74140142D01*
X126180000Y-74116250D01*
X126180000Y-73203750D01*
X126181174Y-73179858D01*
X126184684Y-73156197D01*
X126190496Y-73132993D01*
X126198554Y-73110471D01*
X126208782Y-73088847D01*
X126221079Y-73068330D01*
X126235329Y-73049117D01*
X126251393Y-73031393D01*
X126269117Y-73015329D01*
X126288330Y-73001079D01*
X126308847Y-72988782D01*
X126330471Y-72978554D01*
X126352993Y-72970496D01*
X126376197Y-72964684D01*
X126399858Y-72961174D01*
X126423750Y-72960000D01*
X126911250Y-72960000D01*
X126935142Y-72961174D01*
X126935142Y-72961174D01*
G37*
D15*
X126667500Y-73660000D03*
D11*
G36*
X126935142Y-70421174D02*
X126958803Y-70424684D01*
X126982007Y-70430496D01*
X127004529Y-70438554D01*
X127026153Y-70448782D01*
X127046670Y-70461079D01*
X127065883Y-70475329D01*
X127083607Y-70491393D01*
X127099671Y-70509117D01*
X127113921Y-70528330D01*
X127126218Y-70548847D01*
X127136446Y-70570471D01*
X127144504Y-70592993D01*
X127150316Y-70616197D01*
X127153826Y-70639858D01*
X127155000Y-70663750D01*
X127155000Y-71576250D01*
X127153826Y-71600142D01*
X127150316Y-71623803D01*
X127144504Y-71647007D01*
X127136446Y-71669529D01*
X127126218Y-71691153D01*
X127113921Y-71711670D01*
X127099671Y-71730883D01*
X127083607Y-71748607D01*
X127065883Y-71764671D01*
X127046670Y-71778921D01*
X127026153Y-71791218D01*
X127004529Y-71801446D01*
X126982007Y-71809504D01*
X126958803Y-71815316D01*
X126935142Y-71818826D01*
X126911250Y-71820000D01*
X126423750Y-71820000D01*
X126399858Y-71818826D01*
X126376197Y-71815316D01*
X126352993Y-71809504D01*
X126330471Y-71801446D01*
X126308847Y-71791218D01*
X126288330Y-71778921D01*
X126269117Y-71764671D01*
X126251393Y-71748607D01*
X126235329Y-71730883D01*
X126221079Y-71711670D01*
X126208782Y-71691153D01*
X126198554Y-71669529D01*
X126190496Y-71647007D01*
X126184684Y-71623803D01*
X126181174Y-71600142D01*
X126180000Y-71576250D01*
X126180000Y-70663750D01*
X126181174Y-70639858D01*
X126184684Y-70616197D01*
X126190496Y-70592993D01*
X126198554Y-70570471D01*
X126208782Y-70548847D01*
X126221079Y-70528330D01*
X126235329Y-70509117D01*
X126251393Y-70491393D01*
X126269117Y-70475329D01*
X126288330Y-70461079D01*
X126308847Y-70448782D01*
X126330471Y-70438554D01*
X126352993Y-70430496D01*
X126376197Y-70424684D01*
X126399858Y-70421174D01*
X126423750Y-70420000D01*
X126911250Y-70420000D01*
X126935142Y-70421174D01*
X126935142Y-70421174D01*
G37*
D15*
X126667500Y-71120000D03*
D11*
G36*
X125060142Y-70421174D02*
X125083803Y-70424684D01*
X125107007Y-70430496D01*
X125129529Y-70438554D01*
X125151153Y-70448782D01*
X125171670Y-70461079D01*
X125190883Y-70475329D01*
X125208607Y-70491393D01*
X125224671Y-70509117D01*
X125238921Y-70528330D01*
X125251218Y-70548847D01*
X125261446Y-70570471D01*
X125269504Y-70592993D01*
X125275316Y-70616197D01*
X125278826Y-70639858D01*
X125280000Y-70663750D01*
X125280000Y-71576250D01*
X125278826Y-71600142D01*
X125275316Y-71623803D01*
X125269504Y-71647007D01*
X125261446Y-71669529D01*
X125251218Y-71691153D01*
X125238921Y-71711670D01*
X125224671Y-71730883D01*
X125208607Y-71748607D01*
X125190883Y-71764671D01*
X125171670Y-71778921D01*
X125151153Y-71791218D01*
X125129529Y-71801446D01*
X125107007Y-71809504D01*
X125083803Y-71815316D01*
X125060142Y-71818826D01*
X125036250Y-71820000D01*
X124548750Y-71820000D01*
X124524858Y-71818826D01*
X124501197Y-71815316D01*
X124477993Y-71809504D01*
X124455471Y-71801446D01*
X124433847Y-71791218D01*
X124413330Y-71778921D01*
X124394117Y-71764671D01*
X124376393Y-71748607D01*
X124360329Y-71730883D01*
X124346079Y-71711670D01*
X124333782Y-71691153D01*
X124323554Y-71669529D01*
X124315496Y-71647007D01*
X124309684Y-71623803D01*
X124306174Y-71600142D01*
X124305000Y-71576250D01*
X124305000Y-70663750D01*
X124306174Y-70639858D01*
X124309684Y-70616197D01*
X124315496Y-70592993D01*
X124323554Y-70570471D01*
X124333782Y-70548847D01*
X124346079Y-70528330D01*
X124360329Y-70509117D01*
X124376393Y-70491393D01*
X124394117Y-70475329D01*
X124413330Y-70461079D01*
X124433847Y-70448782D01*
X124455471Y-70438554D01*
X124477993Y-70430496D01*
X124501197Y-70424684D01*
X124524858Y-70421174D01*
X124548750Y-70420000D01*
X125036250Y-70420000D01*
X125060142Y-70421174D01*
X125060142Y-70421174D01*
G37*
D15*
X124792500Y-71120000D03*
D11*
G36*
X125060142Y-75501174D02*
X125083803Y-75504684D01*
X125107007Y-75510496D01*
X125129529Y-75518554D01*
X125151153Y-75528782D01*
X125171670Y-75541079D01*
X125190883Y-75555329D01*
X125208607Y-75571393D01*
X125224671Y-75589117D01*
X125238921Y-75608330D01*
X125251218Y-75628847D01*
X125261446Y-75650471D01*
X125269504Y-75672993D01*
X125275316Y-75696197D01*
X125278826Y-75719858D01*
X125280000Y-75743750D01*
X125280000Y-76656250D01*
X125278826Y-76680142D01*
X125275316Y-76703803D01*
X125269504Y-76727007D01*
X125261446Y-76749529D01*
X125251218Y-76771153D01*
X125238921Y-76791670D01*
X125224671Y-76810883D01*
X125208607Y-76828607D01*
X125190883Y-76844671D01*
X125171670Y-76858921D01*
X125151153Y-76871218D01*
X125129529Y-76881446D01*
X125107007Y-76889504D01*
X125083803Y-76895316D01*
X125060142Y-76898826D01*
X125036250Y-76900000D01*
X124548750Y-76900000D01*
X124524858Y-76898826D01*
X124501197Y-76895316D01*
X124477993Y-76889504D01*
X124455471Y-76881446D01*
X124433847Y-76871218D01*
X124413330Y-76858921D01*
X124394117Y-76844671D01*
X124376393Y-76828607D01*
X124360329Y-76810883D01*
X124346079Y-76791670D01*
X124333782Y-76771153D01*
X124323554Y-76749529D01*
X124315496Y-76727007D01*
X124309684Y-76703803D01*
X124306174Y-76680142D01*
X124305000Y-76656250D01*
X124305000Y-75743750D01*
X124306174Y-75719858D01*
X124309684Y-75696197D01*
X124315496Y-75672993D01*
X124323554Y-75650471D01*
X124333782Y-75628847D01*
X124346079Y-75608330D01*
X124360329Y-75589117D01*
X124376393Y-75571393D01*
X124394117Y-75555329D01*
X124413330Y-75541079D01*
X124433847Y-75528782D01*
X124455471Y-75518554D01*
X124477993Y-75510496D01*
X124501197Y-75504684D01*
X124524858Y-75501174D01*
X124548750Y-75500000D01*
X125036250Y-75500000D01*
X125060142Y-75501174D01*
X125060142Y-75501174D01*
G37*
D15*
X124792500Y-76200000D03*
D11*
G36*
X126935142Y-75501174D02*
X126958803Y-75504684D01*
X126982007Y-75510496D01*
X127004529Y-75518554D01*
X127026153Y-75528782D01*
X127046670Y-75541079D01*
X127065883Y-75555329D01*
X127083607Y-75571393D01*
X127099671Y-75589117D01*
X127113921Y-75608330D01*
X127126218Y-75628847D01*
X127136446Y-75650471D01*
X127144504Y-75672993D01*
X127150316Y-75696197D01*
X127153826Y-75719858D01*
X127155000Y-75743750D01*
X127155000Y-76656250D01*
X127153826Y-76680142D01*
X127150316Y-76703803D01*
X127144504Y-76727007D01*
X127136446Y-76749529D01*
X127126218Y-76771153D01*
X127113921Y-76791670D01*
X127099671Y-76810883D01*
X127083607Y-76828607D01*
X127065883Y-76844671D01*
X127046670Y-76858921D01*
X127026153Y-76871218D01*
X127004529Y-76881446D01*
X126982007Y-76889504D01*
X126958803Y-76895316D01*
X126935142Y-76898826D01*
X126911250Y-76900000D01*
X126423750Y-76900000D01*
X126399858Y-76898826D01*
X126376197Y-76895316D01*
X126352993Y-76889504D01*
X126330471Y-76881446D01*
X126308847Y-76871218D01*
X126288330Y-76858921D01*
X126269117Y-76844671D01*
X126251393Y-76828607D01*
X126235329Y-76810883D01*
X126221079Y-76791670D01*
X126208782Y-76771153D01*
X126198554Y-76749529D01*
X126190496Y-76727007D01*
X126184684Y-76703803D01*
X126181174Y-76680142D01*
X126180000Y-76656250D01*
X126180000Y-75743750D01*
X126181174Y-75719858D01*
X126184684Y-75696197D01*
X126190496Y-75672993D01*
X126198554Y-75650471D01*
X126208782Y-75628847D01*
X126221079Y-75608330D01*
X126235329Y-75589117D01*
X126251393Y-75571393D01*
X126269117Y-75555329D01*
X126288330Y-75541079D01*
X126308847Y-75528782D01*
X126330471Y-75518554D01*
X126352993Y-75510496D01*
X126376197Y-75504684D01*
X126399858Y-75501174D01*
X126423750Y-75500000D01*
X126911250Y-75500000D01*
X126935142Y-75501174D01*
X126935142Y-75501174D01*
G37*
D15*
X126667500Y-76200000D03*
D11*
G36*
X126935142Y-67881174D02*
X126958803Y-67884684D01*
X126982007Y-67890496D01*
X127004529Y-67898554D01*
X127026153Y-67908782D01*
X127046670Y-67921079D01*
X127065883Y-67935329D01*
X127083607Y-67951393D01*
X127099671Y-67969117D01*
X127113921Y-67988330D01*
X127126218Y-68008847D01*
X127136446Y-68030471D01*
X127144504Y-68052993D01*
X127150316Y-68076197D01*
X127153826Y-68099858D01*
X127155000Y-68123750D01*
X127155000Y-69036250D01*
X127153826Y-69060142D01*
X127150316Y-69083803D01*
X127144504Y-69107007D01*
X127136446Y-69129529D01*
X127126218Y-69151153D01*
X127113921Y-69171670D01*
X127099671Y-69190883D01*
X127083607Y-69208607D01*
X127065883Y-69224671D01*
X127046670Y-69238921D01*
X127026153Y-69251218D01*
X127004529Y-69261446D01*
X126982007Y-69269504D01*
X126958803Y-69275316D01*
X126935142Y-69278826D01*
X126911250Y-69280000D01*
X126423750Y-69280000D01*
X126399858Y-69278826D01*
X126376197Y-69275316D01*
X126352993Y-69269504D01*
X126330471Y-69261446D01*
X126308847Y-69251218D01*
X126288330Y-69238921D01*
X126269117Y-69224671D01*
X126251393Y-69208607D01*
X126235329Y-69190883D01*
X126221079Y-69171670D01*
X126208782Y-69151153D01*
X126198554Y-69129529D01*
X126190496Y-69107007D01*
X126184684Y-69083803D01*
X126181174Y-69060142D01*
X126180000Y-69036250D01*
X126180000Y-68123750D01*
X126181174Y-68099858D01*
X126184684Y-68076197D01*
X126190496Y-68052993D01*
X126198554Y-68030471D01*
X126208782Y-68008847D01*
X126221079Y-67988330D01*
X126235329Y-67969117D01*
X126251393Y-67951393D01*
X126269117Y-67935329D01*
X126288330Y-67921079D01*
X126308847Y-67908782D01*
X126330471Y-67898554D01*
X126352993Y-67890496D01*
X126376197Y-67884684D01*
X126399858Y-67881174D01*
X126423750Y-67880000D01*
X126911250Y-67880000D01*
X126935142Y-67881174D01*
X126935142Y-67881174D01*
G37*
D15*
X126667500Y-68580000D03*
D11*
G36*
X125060142Y-67881174D02*
X125083803Y-67884684D01*
X125107007Y-67890496D01*
X125129529Y-67898554D01*
X125151153Y-67908782D01*
X125171670Y-67921079D01*
X125190883Y-67935329D01*
X125208607Y-67951393D01*
X125224671Y-67969117D01*
X125238921Y-67988330D01*
X125251218Y-68008847D01*
X125261446Y-68030471D01*
X125269504Y-68052993D01*
X125275316Y-68076197D01*
X125278826Y-68099858D01*
X125280000Y-68123750D01*
X125280000Y-69036250D01*
X125278826Y-69060142D01*
X125275316Y-69083803D01*
X125269504Y-69107007D01*
X125261446Y-69129529D01*
X125251218Y-69151153D01*
X125238921Y-69171670D01*
X125224671Y-69190883D01*
X125208607Y-69208607D01*
X125190883Y-69224671D01*
X125171670Y-69238921D01*
X125151153Y-69251218D01*
X125129529Y-69261446D01*
X125107007Y-69269504D01*
X125083803Y-69275316D01*
X125060142Y-69278826D01*
X125036250Y-69280000D01*
X124548750Y-69280000D01*
X124524858Y-69278826D01*
X124501197Y-69275316D01*
X124477993Y-69269504D01*
X124455471Y-69261446D01*
X124433847Y-69251218D01*
X124413330Y-69238921D01*
X124394117Y-69224671D01*
X124376393Y-69208607D01*
X124360329Y-69190883D01*
X124346079Y-69171670D01*
X124333782Y-69151153D01*
X124323554Y-69129529D01*
X124315496Y-69107007D01*
X124309684Y-69083803D01*
X124306174Y-69060142D01*
X124305000Y-69036250D01*
X124305000Y-68123750D01*
X124306174Y-68099858D01*
X124309684Y-68076197D01*
X124315496Y-68052993D01*
X124323554Y-68030471D01*
X124333782Y-68008847D01*
X124346079Y-67988330D01*
X124360329Y-67969117D01*
X124376393Y-67951393D01*
X124394117Y-67935329D01*
X124413330Y-67921079D01*
X124433847Y-67908782D01*
X124455471Y-67898554D01*
X124477993Y-67890496D01*
X124501197Y-67884684D01*
X124524858Y-67881174D01*
X124548750Y-67880000D01*
X125036250Y-67880000D01*
X125060142Y-67881174D01*
X125060142Y-67881174D01*
G37*
D15*
X124792500Y-68580000D03*
D11*
G36*
X125060142Y-78041174D02*
X125083803Y-78044684D01*
X125107007Y-78050496D01*
X125129529Y-78058554D01*
X125151153Y-78068782D01*
X125171670Y-78081079D01*
X125190883Y-78095329D01*
X125208607Y-78111393D01*
X125224671Y-78129117D01*
X125238921Y-78148330D01*
X125251218Y-78168847D01*
X125261446Y-78190471D01*
X125269504Y-78212993D01*
X125275316Y-78236197D01*
X125278826Y-78259858D01*
X125280000Y-78283750D01*
X125280000Y-79196250D01*
X125278826Y-79220142D01*
X125275316Y-79243803D01*
X125269504Y-79267007D01*
X125261446Y-79289529D01*
X125251218Y-79311153D01*
X125238921Y-79331670D01*
X125224671Y-79350883D01*
X125208607Y-79368607D01*
X125190883Y-79384671D01*
X125171670Y-79398921D01*
X125151153Y-79411218D01*
X125129529Y-79421446D01*
X125107007Y-79429504D01*
X125083803Y-79435316D01*
X125060142Y-79438826D01*
X125036250Y-79440000D01*
X124548750Y-79440000D01*
X124524858Y-79438826D01*
X124501197Y-79435316D01*
X124477993Y-79429504D01*
X124455471Y-79421446D01*
X124433847Y-79411218D01*
X124413330Y-79398921D01*
X124394117Y-79384671D01*
X124376393Y-79368607D01*
X124360329Y-79350883D01*
X124346079Y-79331670D01*
X124333782Y-79311153D01*
X124323554Y-79289529D01*
X124315496Y-79267007D01*
X124309684Y-79243803D01*
X124306174Y-79220142D01*
X124305000Y-79196250D01*
X124305000Y-78283750D01*
X124306174Y-78259858D01*
X124309684Y-78236197D01*
X124315496Y-78212993D01*
X124323554Y-78190471D01*
X124333782Y-78168847D01*
X124346079Y-78148330D01*
X124360329Y-78129117D01*
X124376393Y-78111393D01*
X124394117Y-78095329D01*
X124413330Y-78081079D01*
X124433847Y-78068782D01*
X124455471Y-78058554D01*
X124477993Y-78050496D01*
X124501197Y-78044684D01*
X124524858Y-78041174D01*
X124548750Y-78040000D01*
X125036250Y-78040000D01*
X125060142Y-78041174D01*
X125060142Y-78041174D01*
G37*
D15*
X124792500Y-78740000D03*
D11*
G36*
X126935142Y-78041174D02*
X126958803Y-78044684D01*
X126982007Y-78050496D01*
X127004529Y-78058554D01*
X127026153Y-78068782D01*
X127046670Y-78081079D01*
X127065883Y-78095329D01*
X127083607Y-78111393D01*
X127099671Y-78129117D01*
X127113921Y-78148330D01*
X127126218Y-78168847D01*
X127136446Y-78190471D01*
X127144504Y-78212993D01*
X127150316Y-78236197D01*
X127153826Y-78259858D01*
X127155000Y-78283750D01*
X127155000Y-79196250D01*
X127153826Y-79220142D01*
X127150316Y-79243803D01*
X127144504Y-79267007D01*
X127136446Y-79289529D01*
X127126218Y-79311153D01*
X127113921Y-79331670D01*
X127099671Y-79350883D01*
X127083607Y-79368607D01*
X127065883Y-79384671D01*
X127046670Y-79398921D01*
X127026153Y-79411218D01*
X127004529Y-79421446D01*
X126982007Y-79429504D01*
X126958803Y-79435316D01*
X126935142Y-79438826D01*
X126911250Y-79440000D01*
X126423750Y-79440000D01*
X126399858Y-79438826D01*
X126376197Y-79435316D01*
X126352993Y-79429504D01*
X126330471Y-79421446D01*
X126308847Y-79411218D01*
X126288330Y-79398921D01*
X126269117Y-79384671D01*
X126251393Y-79368607D01*
X126235329Y-79350883D01*
X126221079Y-79331670D01*
X126208782Y-79311153D01*
X126198554Y-79289529D01*
X126190496Y-79267007D01*
X126184684Y-79243803D01*
X126181174Y-79220142D01*
X126180000Y-79196250D01*
X126180000Y-78283750D01*
X126181174Y-78259858D01*
X126184684Y-78236197D01*
X126190496Y-78212993D01*
X126198554Y-78190471D01*
X126208782Y-78168847D01*
X126221079Y-78148330D01*
X126235329Y-78129117D01*
X126251393Y-78111393D01*
X126269117Y-78095329D01*
X126288330Y-78081079D01*
X126308847Y-78068782D01*
X126330471Y-78058554D01*
X126352993Y-78050496D01*
X126376197Y-78044684D01*
X126399858Y-78041174D01*
X126423750Y-78040000D01*
X126911250Y-78040000D01*
X126935142Y-78041174D01*
X126935142Y-78041174D01*
G37*
D15*
X126667500Y-78740000D03*
D11*
G36*
X126935142Y-65341174D02*
X126958803Y-65344684D01*
X126982007Y-65350496D01*
X127004529Y-65358554D01*
X127026153Y-65368782D01*
X127046670Y-65381079D01*
X127065883Y-65395329D01*
X127083607Y-65411393D01*
X127099671Y-65429117D01*
X127113921Y-65448330D01*
X127126218Y-65468847D01*
X127136446Y-65490471D01*
X127144504Y-65512993D01*
X127150316Y-65536197D01*
X127153826Y-65559858D01*
X127155000Y-65583750D01*
X127155000Y-66496250D01*
X127153826Y-66520142D01*
X127150316Y-66543803D01*
X127144504Y-66567007D01*
X127136446Y-66589529D01*
X127126218Y-66611153D01*
X127113921Y-66631670D01*
X127099671Y-66650883D01*
X127083607Y-66668607D01*
X127065883Y-66684671D01*
X127046670Y-66698921D01*
X127026153Y-66711218D01*
X127004529Y-66721446D01*
X126982007Y-66729504D01*
X126958803Y-66735316D01*
X126935142Y-66738826D01*
X126911250Y-66740000D01*
X126423750Y-66740000D01*
X126399858Y-66738826D01*
X126376197Y-66735316D01*
X126352993Y-66729504D01*
X126330471Y-66721446D01*
X126308847Y-66711218D01*
X126288330Y-66698921D01*
X126269117Y-66684671D01*
X126251393Y-66668607D01*
X126235329Y-66650883D01*
X126221079Y-66631670D01*
X126208782Y-66611153D01*
X126198554Y-66589529D01*
X126190496Y-66567007D01*
X126184684Y-66543803D01*
X126181174Y-66520142D01*
X126180000Y-66496250D01*
X126180000Y-65583750D01*
X126181174Y-65559858D01*
X126184684Y-65536197D01*
X126190496Y-65512993D01*
X126198554Y-65490471D01*
X126208782Y-65468847D01*
X126221079Y-65448330D01*
X126235329Y-65429117D01*
X126251393Y-65411393D01*
X126269117Y-65395329D01*
X126288330Y-65381079D01*
X126308847Y-65368782D01*
X126330471Y-65358554D01*
X126352993Y-65350496D01*
X126376197Y-65344684D01*
X126399858Y-65341174D01*
X126423750Y-65340000D01*
X126911250Y-65340000D01*
X126935142Y-65341174D01*
X126935142Y-65341174D01*
G37*
D15*
X126667500Y-66040000D03*
D11*
G36*
X125060142Y-65341174D02*
X125083803Y-65344684D01*
X125107007Y-65350496D01*
X125129529Y-65358554D01*
X125151153Y-65368782D01*
X125171670Y-65381079D01*
X125190883Y-65395329D01*
X125208607Y-65411393D01*
X125224671Y-65429117D01*
X125238921Y-65448330D01*
X125251218Y-65468847D01*
X125261446Y-65490471D01*
X125269504Y-65512993D01*
X125275316Y-65536197D01*
X125278826Y-65559858D01*
X125280000Y-65583750D01*
X125280000Y-66496250D01*
X125278826Y-66520142D01*
X125275316Y-66543803D01*
X125269504Y-66567007D01*
X125261446Y-66589529D01*
X125251218Y-66611153D01*
X125238921Y-66631670D01*
X125224671Y-66650883D01*
X125208607Y-66668607D01*
X125190883Y-66684671D01*
X125171670Y-66698921D01*
X125151153Y-66711218D01*
X125129529Y-66721446D01*
X125107007Y-66729504D01*
X125083803Y-66735316D01*
X125060142Y-66738826D01*
X125036250Y-66740000D01*
X124548750Y-66740000D01*
X124524858Y-66738826D01*
X124501197Y-66735316D01*
X124477993Y-66729504D01*
X124455471Y-66721446D01*
X124433847Y-66711218D01*
X124413330Y-66698921D01*
X124394117Y-66684671D01*
X124376393Y-66668607D01*
X124360329Y-66650883D01*
X124346079Y-66631670D01*
X124333782Y-66611153D01*
X124323554Y-66589529D01*
X124315496Y-66567007D01*
X124309684Y-66543803D01*
X124306174Y-66520142D01*
X124305000Y-66496250D01*
X124305000Y-65583750D01*
X124306174Y-65559858D01*
X124309684Y-65536197D01*
X124315496Y-65512993D01*
X124323554Y-65490471D01*
X124333782Y-65468847D01*
X124346079Y-65448330D01*
X124360329Y-65429117D01*
X124376393Y-65411393D01*
X124394117Y-65395329D01*
X124413330Y-65381079D01*
X124433847Y-65368782D01*
X124455471Y-65358554D01*
X124477993Y-65350496D01*
X124501197Y-65344684D01*
X124524858Y-65341174D01*
X124548750Y-65340000D01*
X125036250Y-65340000D01*
X125060142Y-65341174D01*
X125060142Y-65341174D01*
G37*
D15*
X124792500Y-66040000D03*
D11*
G36*
X125060142Y-62801174D02*
X125083803Y-62804684D01*
X125107007Y-62810496D01*
X125129529Y-62818554D01*
X125151153Y-62828782D01*
X125171670Y-62841079D01*
X125190883Y-62855329D01*
X125208607Y-62871393D01*
X125224671Y-62889117D01*
X125238921Y-62908330D01*
X125251218Y-62928847D01*
X125261446Y-62950471D01*
X125269504Y-62972993D01*
X125275316Y-62996197D01*
X125278826Y-63019858D01*
X125280000Y-63043750D01*
X125280000Y-63956250D01*
X125278826Y-63980142D01*
X125275316Y-64003803D01*
X125269504Y-64027007D01*
X125261446Y-64049529D01*
X125251218Y-64071153D01*
X125238921Y-64091670D01*
X125224671Y-64110883D01*
X125208607Y-64128607D01*
X125190883Y-64144671D01*
X125171670Y-64158921D01*
X125151153Y-64171218D01*
X125129529Y-64181446D01*
X125107007Y-64189504D01*
X125083803Y-64195316D01*
X125060142Y-64198826D01*
X125036250Y-64200000D01*
X124548750Y-64200000D01*
X124524858Y-64198826D01*
X124501197Y-64195316D01*
X124477993Y-64189504D01*
X124455471Y-64181446D01*
X124433847Y-64171218D01*
X124413330Y-64158921D01*
X124394117Y-64144671D01*
X124376393Y-64128607D01*
X124360329Y-64110883D01*
X124346079Y-64091670D01*
X124333782Y-64071153D01*
X124323554Y-64049529D01*
X124315496Y-64027007D01*
X124309684Y-64003803D01*
X124306174Y-63980142D01*
X124305000Y-63956250D01*
X124305000Y-63043750D01*
X124306174Y-63019858D01*
X124309684Y-62996197D01*
X124315496Y-62972993D01*
X124323554Y-62950471D01*
X124333782Y-62928847D01*
X124346079Y-62908330D01*
X124360329Y-62889117D01*
X124376393Y-62871393D01*
X124394117Y-62855329D01*
X124413330Y-62841079D01*
X124433847Y-62828782D01*
X124455471Y-62818554D01*
X124477993Y-62810496D01*
X124501197Y-62804684D01*
X124524858Y-62801174D01*
X124548750Y-62800000D01*
X125036250Y-62800000D01*
X125060142Y-62801174D01*
X125060142Y-62801174D01*
G37*
D15*
X124792500Y-63500000D03*
D11*
G36*
X126935142Y-62801174D02*
X126958803Y-62804684D01*
X126982007Y-62810496D01*
X127004529Y-62818554D01*
X127026153Y-62828782D01*
X127046670Y-62841079D01*
X127065883Y-62855329D01*
X127083607Y-62871393D01*
X127099671Y-62889117D01*
X127113921Y-62908330D01*
X127126218Y-62928847D01*
X127136446Y-62950471D01*
X127144504Y-62972993D01*
X127150316Y-62996197D01*
X127153826Y-63019858D01*
X127155000Y-63043750D01*
X127155000Y-63956250D01*
X127153826Y-63980142D01*
X127150316Y-64003803D01*
X127144504Y-64027007D01*
X127136446Y-64049529D01*
X127126218Y-64071153D01*
X127113921Y-64091670D01*
X127099671Y-64110883D01*
X127083607Y-64128607D01*
X127065883Y-64144671D01*
X127046670Y-64158921D01*
X127026153Y-64171218D01*
X127004529Y-64181446D01*
X126982007Y-64189504D01*
X126958803Y-64195316D01*
X126935142Y-64198826D01*
X126911250Y-64200000D01*
X126423750Y-64200000D01*
X126399858Y-64198826D01*
X126376197Y-64195316D01*
X126352993Y-64189504D01*
X126330471Y-64181446D01*
X126308847Y-64171218D01*
X126288330Y-64158921D01*
X126269117Y-64144671D01*
X126251393Y-64128607D01*
X126235329Y-64110883D01*
X126221079Y-64091670D01*
X126208782Y-64071153D01*
X126198554Y-64049529D01*
X126190496Y-64027007D01*
X126184684Y-64003803D01*
X126181174Y-63980142D01*
X126180000Y-63956250D01*
X126180000Y-63043750D01*
X126181174Y-63019858D01*
X126184684Y-62996197D01*
X126190496Y-62972993D01*
X126198554Y-62950471D01*
X126208782Y-62928847D01*
X126221079Y-62908330D01*
X126235329Y-62889117D01*
X126251393Y-62871393D01*
X126269117Y-62855329D01*
X126288330Y-62841079D01*
X126308847Y-62828782D01*
X126330471Y-62818554D01*
X126352993Y-62810496D01*
X126376197Y-62804684D01*
X126399858Y-62801174D01*
X126423750Y-62800000D01*
X126911250Y-62800000D01*
X126935142Y-62801174D01*
X126935142Y-62801174D01*
G37*
D15*
X126667500Y-63500000D03*
D11*
G36*
X127529504Y-77866204D02*
X127553773Y-77869804D01*
X127577571Y-77875765D01*
X127600671Y-77884030D01*
X127622849Y-77894520D01*
X127643893Y-77907133D01*
X127663598Y-77921747D01*
X127681777Y-77938223D01*
X127698253Y-77956402D01*
X127712867Y-77976107D01*
X127725480Y-77997151D01*
X127735970Y-78019329D01*
X127744235Y-78042429D01*
X127750196Y-78066227D01*
X127753796Y-78090496D01*
X127755000Y-78115000D01*
X127755000Y-79365000D01*
X127753796Y-79389504D01*
X127750196Y-79413773D01*
X127744235Y-79437571D01*
X127735970Y-79460671D01*
X127725480Y-79482849D01*
X127712867Y-79503893D01*
X127698253Y-79523598D01*
X127681777Y-79541777D01*
X127663598Y-79558253D01*
X127643893Y-79572867D01*
X127622849Y-79585480D01*
X127600671Y-79595970D01*
X127577571Y-79604235D01*
X127553773Y-79610196D01*
X127529504Y-79613796D01*
X127505000Y-79615000D01*
X126755000Y-79615000D01*
X126730496Y-79613796D01*
X126706227Y-79610196D01*
X126682429Y-79604235D01*
X126659329Y-79595970D01*
X126637151Y-79585480D01*
X126616107Y-79572867D01*
X126596402Y-79558253D01*
X126578223Y-79541777D01*
X126561747Y-79523598D01*
X126547133Y-79503893D01*
X126534520Y-79482849D01*
X126524030Y-79460671D01*
X126515765Y-79437571D01*
X126509804Y-79413773D01*
X126506204Y-79389504D01*
X126505000Y-79365000D01*
X126505000Y-78115000D01*
X126506204Y-78090496D01*
X126509804Y-78066227D01*
X126515765Y-78042429D01*
X126524030Y-78019329D01*
X126534520Y-77997151D01*
X126547133Y-77976107D01*
X126561747Y-77956402D01*
X126578223Y-77938223D01*
X126596402Y-77921747D01*
X126616107Y-77907133D01*
X126637151Y-77894520D01*
X126659329Y-77884030D01*
X126682429Y-77875765D01*
X126706227Y-77869804D01*
X126730496Y-77866204D01*
X126755000Y-77865000D01*
X127505000Y-77865000D01*
X127529504Y-77866204D01*
X127529504Y-77866204D01*
G37*
D16*
X127130000Y-78740000D03*
D11*
G36*
X124729504Y-77866204D02*
X124753773Y-77869804D01*
X124777571Y-77875765D01*
X124800671Y-77884030D01*
X124822849Y-77894520D01*
X124843893Y-77907133D01*
X124863598Y-77921747D01*
X124881777Y-77938223D01*
X124898253Y-77956402D01*
X124912867Y-77976107D01*
X124925480Y-77997151D01*
X124935970Y-78019329D01*
X124944235Y-78042429D01*
X124950196Y-78066227D01*
X124953796Y-78090496D01*
X124955000Y-78115000D01*
X124955000Y-79365000D01*
X124953796Y-79389504D01*
X124950196Y-79413773D01*
X124944235Y-79437571D01*
X124935970Y-79460671D01*
X124925480Y-79482849D01*
X124912867Y-79503893D01*
X124898253Y-79523598D01*
X124881777Y-79541777D01*
X124863598Y-79558253D01*
X124843893Y-79572867D01*
X124822849Y-79585480D01*
X124800671Y-79595970D01*
X124777571Y-79604235D01*
X124753773Y-79610196D01*
X124729504Y-79613796D01*
X124705000Y-79615000D01*
X123955000Y-79615000D01*
X123930496Y-79613796D01*
X123906227Y-79610196D01*
X123882429Y-79604235D01*
X123859329Y-79595970D01*
X123837151Y-79585480D01*
X123816107Y-79572867D01*
X123796402Y-79558253D01*
X123778223Y-79541777D01*
X123761747Y-79523598D01*
X123747133Y-79503893D01*
X123734520Y-79482849D01*
X123724030Y-79460671D01*
X123715765Y-79437571D01*
X123709804Y-79413773D01*
X123706204Y-79389504D01*
X123705000Y-79365000D01*
X123705000Y-78115000D01*
X123706204Y-78090496D01*
X123709804Y-78066227D01*
X123715765Y-78042429D01*
X123724030Y-78019329D01*
X123734520Y-77997151D01*
X123747133Y-77976107D01*
X123761747Y-77956402D01*
X123778223Y-77938223D01*
X123796402Y-77921747D01*
X123816107Y-77907133D01*
X123837151Y-77894520D01*
X123859329Y-77884030D01*
X123882429Y-77875765D01*
X123906227Y-77869804D01*
X123930496Y-77866204D01*
X123955000Y-77865000D01*
X124705000Y-77865000D01*
X124729504Y-77866204D01*
X124729504Y-77866204D01*
G37*
D16*
X124330000Y-78740000D03*
D11*
G36*
X124729504Y-80406204D02*
X124753773Y-80409804D01*
X124777571Y-80415765D01*
X124800671Y-80424030D01*
X124822849Y-80434520D01*
X124843893Y-80447133D01*
X124863598Y-80461747D01*
X124881777Y-80478223D01*
X124898253Y-80496402D01*
X124912867Y-80516107D01*
X124925480Y-80537151D01*
X124935970Y-80559329D01*
X124944235Y-80582429D01*
X124950196Y-80606227D01*
X124953796Y-80630496D01*
X124955000Y-80655000D01*
X124955000Y-81905000D01*
X124953796Y-81929504D01*
X124950196Y-81953773D01*
X124944235Y-81977571D01*
X124935970Y-82000671D01*
X124925480Y-82022849D01*
X124912867Y-82043893D01*
X124898253Y-82063598D01*
X124881777Y-82081777D01*
X124863598Y-82098253D01*
X124843893Y-82112867D01*
X124822849Y-82125480D01*
X124800671Y-82135970D01*
X124777571Y-82144235D01*
X124753773Y-82150196D01*
X124729504Y-82153796D01*
X124705000Y-82155000D01*
X123955000Y-82155000D01*
X123930496Y-82153796D01*
X123906227Y-82150196D01*
X123882429Y-82144235D01*
X123859329Y-82135970D01*
X123837151Y-82125480D01*
X123816107Y-82112867D01*
X123796402Y-82098253D01*
X123778223Y-82081777D01*
X123761747Y-82063598D01*
X123747133Y-82043893D01*
X123734520Y-82022849D01*
X123724030Y-82000671D01*
X123715765Y-81977571D01*
X123709804Y-81953773D01*
X123706204Y-81929504D01*
X123705000Y-81905000D01*
X123705000Y-80655000D01*
X123706204Y-80630496D01*
X123709804Y-80606227D01*
X123715765Y-80582429D01*
X123724030Y-80559329D01*
X123734520Y-80537151D01*
X123747133Y-80516107D01*
X123761747Y-80496402D01*
X123778223Y-80478223D01*
X123796402Y-80461747D01*
X123816107Y-80447133D01*
X123837151Y-80434520D01*
X123859329Y-80424030D01*
X123882429Y-80415765D01*
X123906227Y-80409804D01*
X123930496Y-80406204D01*
X123955000Y-80405000D01*
X124705000Y-80405000D01*
X124729504Y-80406204D01*
X124729504Y-80406204D01*
G37*
D16*
X124330000Y-81280000D03*
D11*
G36*
X127529504Y-80406204D02*
X127553773Y-80409804D01*
X127577571Y-80415765D01*
X127600671Y-80424030D01*
X127622849Y-80434520D01*
X127643893Y-80447133D01*
X127663598Y-80461747D01*
X127681777Y-80478223D01*
X127698253Y-80496402D01*
X127712867Y-80516107D01*
X127725480Y-80537151D01*
X127735970Y-80559329D01*
X127744235Y-80582429D01*
X127750196Y-80606227D01*
X127753796Y-80630496D01*
X127755000Y-80655000D01*
X127755000Y-81905000D01*
X127753796Y-81929504D01*
X127750196Y-81953773D01*
X127744235Y-81977571D01*
X127735970Y-82000671D01*
X127725480Y-82022849D01*
X127712867Y-82043893D01*
X127698253Y-82063598D01*
X127681777Y-82081777D01*
X127663598Y-82098253D01*
X127643893Y-82112867D01*
X127622849Y-82125480D01*
X127600671Y-82135970D01*
X127577571Y-82144235D01*
X127553773Y-82150196D01*
X127529504Y-82153796D01*
X127505000Y-82155000D01*
X126755000Y-82155000D01*
X126730496Y-82153796D01*
X126706227Y-82150196D01*
X126682429Y-82144235D01*
X126659329Y-82135970D01*
X126637151Y-82125480D01*
X126616107Y-82112867D01*
X126596402Y-82098253D01*
X126578223Y-82081777D01*
X126561747Y-82063598D01*
X126547133Y-82043893D01*
X126534520Y-82022849D01*
X126524030Y-82000671D01*
X126515765Y-81977571D01*
X126509804Y-81953773D01*
X126506204Y-81929504D01*
X126505000Y-81905000D01*
X126505000Y-80655000D01*
X126506204Y-80630496D01*
X126509804Y-80606227D01*
X126515765Y-80582429D01*
X126524030Y-80559329D01*
X126534520Y-80537151D01*
X126547133Y-80516107D01*
X126561747Y-80496402D01*
X126578223Y-80478223D01*
X126596402Y-80461747D01*
X126616107Y-80447133D01*
X126637151Y-80434520D01*
X126659329Y-80424030D01*
X126682429Y-80415765D01*
X126706227Y-80409804D01*
X126730496Y-80406204D01*
X126755000Y-80405000D01*
X127505000Y-80405000D01*
X127529504Y-80406204D01*
X127529504Y-80406204D01*
G37*
D16*
X127130000Y-81280000D03*
D11*
G36*
X127529504Y-65166204D02*
X127553773Y-65169804D01*
X127577571Y-65175765D01*
X127600671Y-65184030D01*
X127622849Y-65194520D01*
X127643893Y-65207133D01*
X127663598Y-65221747D01*
X127681777Y-65238223D01*
X127698253Y-65256402D01*
X127712867Y-65276107D01*
X127725480Y-65297151D01*
X127735970Y-65319329D01*
X127744235Y-65342429D01*
X127750196Y-65366227D01*
X127753796Y-65390496D01*
X127755000Y-65415000D01*
X127755000Y-66665000D01*
X127753796Y-66689504D01*
X127750196Y-66713773D01*
X127744235Y-66737571D01*
X127735970Y-66760671D01*
X127725480Y-66782849D01*
X127712867Y-66803893D01*
X127698253Y-66823598D01*
X127681777Y-66841777D01*
X127663598Y-66858253D01*
X127643893Y-66872867D01*
X127622849Y-66885480D01*
X127600671Y-66895970D01*
X127577571Y-66904235D01*
X127553773Y-66910196D01*
X127529504Y-66913796D01*
X127505000Y-66915000D01*
X126755000Y-66915000D01*
X126730496Y-66913796D01*
X126706227Y-66910196D01*
X126682429Y-66904235D01*
X126659329Y-66895970D01*
X126637151Y-66885480D01*
X126616107Y-66872867D01*
X126596402Y-66858253D01*
X126578223Y-66841777D01*
X126561747Y-66823598D01*
X126547133Y-66803893D01*
X126534520Y-66782849D01*
X126524030Y-66760671D01*
X126515765Y-66737571D01*
X126509804Y-66713773D01*
X126506204Y-66689504D01*
X126505000Y-66665000D01*
X126505000Y-65415000D01*
X126506204Y-65390496D01*
X126509804Y-65366227D01*
X126515765Y-65342429D01*
X126524030Y-65319329D01*
X126534520Y-65297151D01*
X126547133Y-65276107D01*
X126561747Y-65256402D01*
X126578223Y-65238223D01*
X126596402Y-65221747D01*
X126616107Y-65207133D01*
X126637151Y-65194520D01*
X126659329Y-65184030D01*
X126682429Y-65175765D01*
X126706227Y-65169804D01*
X126730496Y-65166204D01*
X126755000Y-65165000D01*
X127505000Y-65165000D01*
X127529504Y-65166204D01*
X127529504Y-65166204D01*
G37*
D16*
X127130000Y-66040000D03*
D11*
G36*
X124729504Y-65166204D02*
X124753773Y-65169804D01*
X124777571Y-65175765D01*
X124800671Y-65184030D01*
X124822849Y-65194520D01*
X124843893Y-65207133D01*
X124863598Y-65221747D01*
X124881777Y-65238223D01*
X124898253Y-65256402D01*
X124912867Y-65276107D01*
X124925480Y-65297151D01*
X124935970Y-65319329D01*
X124944235Y-65342429D01*
X124950196Y-65366227D01*
X124953796Y-65390496D01*
X124955000Y-65415000D01*
X124955000Y-66665000D01*
X124953796Y-66689504D01*
X124950196Y-66713773D01*
X124944235Y-66737571D01*
X124935970Y-66760671D01*
X124925480Y-66782849D01*
X124912867Y-66803893D01*
X124898253Y-66823598D01*
X124881777Y-66841777D01*
X124863598Y-66858253D01*
X124843893Y-66872867D01*
X124822849Y-66885480D01*
X124800671Y-66895970D01*
X124777571Y-66904235D01*
X124753773Y-66910196D01*
X124729504Y-66913796D01*
X124705000Y-66915000D01*
X123955000Y-66915000D01*
X123930496Y-66913796D01*
X123906227Y-66910196D01*
X123882429Y-66904235D01*
X123859329Y-66895970D01*
X123837151Y-66885480D01*
X123816107Y-66872867D01*
X123796402Y-66858253D01*
X123778223Y-66841777D01*
X123761747Y-66823598D01*
X123747133Y-66803893D01*
X123734520Y-66782849D01*
X123724030Y-66760671D01*
X123715765Y-66737571D01*
X123709804Y-66713773D01*
X123706204Y-66689504D01*
X123705000Y-66665000D01*
X123705000Y-65415000D01*
X123706204Y-65390496D01*
X123709804Y-65366227D01*
X123715765Y-65342429D01*
X123724030Y-65319329D01*
X123734520Y-65297151D01*
X123747133Y-65276107D01*
X123761747Y-65256402D01*
X123778223Y-65238223D01*
X123796402Y-65221747D01*
X123816107Y-65207133D01*
X123837151Y-65194520D01*
X123859329Y-65184030D01*
X123882429Y-65175765D01*
X123906227Y-65169804D01*
X123930496Y-65166204D01*
X123955000Y-65165000D01*
X124705000Y-65165000D01*
X124729504Y-65166204D01*
X124729504Y-65166204D01*
G37*
D16*
X124330000Y-66040000D03*
D11*
G36*
X124729504Y-62626204D02*
X124753773Y-62629804D01*
X124777571Y-62635765D01*
X124800671Y-62644030D01*
X124822849Y-62654520D01*
X124843893Y-62667133D01*
X124863598Y-62681747D01*
X124881777Y-62698223D01*
X124898253Y-62716402D01*
X124912867Y-62736107D01*
X124925480Y-62757151D01*
X124935970Y-62779329D01*
X124944235Y-62802429D01*
X124950196Y-62826227D01*
X124953796Y-62850496D01*
X124955000Y-62875000D01*
X124955000Y-64125000D01*
X124953796Y-64149504D01*
X124950196Y-64173773D01*
X124944235Y-64197571D01*
X124935970Y-64220671D01*
X124925480Y-64242849D01*
X124912867Y-64263893D01*
X124898253Y-64283598D01*
X124881777Y-64301777D01*
X124863598Y-64318253D01*
X124843893Y-64332867D01*
X124822849Y-64345480D01*
X124800671Y-64355970D01*
X124777571Y-64364235D01*
X124753773Y-64370196D01*
X124729504Y-64373796D01*
X124705000Y-64375000D01*
X123955000Y-64375000D01*
X123930496Y-64373796D01*
X123906227Y-64370196D01*
X123882429Y-64364235D01*
X123859329Y-64355970D01*
X123837151Y-64345480D01*
X123816107Y-64332867D01*
X123796402Y-64318253D01*
X123778223Y-64301777D01*
X123761747Y-64283598D01*
X123747133Y-64263893D01*
X123734520Y-64242849D01*
X123724030Y-64220671D01*
X123715765Y-64197571D01*
X123709804Y-64173773D01*
X123706204Y-64149504D01*
X123705000Y-64125000D01*
X123705000Y-62875000D01*
X123706204Y-62850496D01*
X123709804Y-62826227D01*
X123715765Y-62802429D01*
X123724030Y-62779329D01*
X123734520Y-62757151D01*
X123747133Y-62736107D01*
X123761747Y-62716402D01*
X123778223Y-62698223D01*
X123796402Y-62681747D01*
X123816107Y-62667133D01*
X123837151Y-62654520D01*
X123859329Y-62644030D01*
X123882429Y-62635765D01*
X123906227Y-62629804D01*
X123930496Y-62626204D01*
X123955000Y-62625000D01*
X124705000Y-62625000D01*
X124729504Y-62626204D01*
X124729504Y-62626204D01*
G37*
D16*
X124330000Y-63500000D03*
D11*
G36*
X127529504Y-62626204D02*
X127553773Y-62629804D01*
X127577571Y-62635765D01*
X127600671Y-62644030D01*
X127622849Y-62654520D01*
X127643893Y-62667133D01*
X127663598Y-62681747D01*
X127681777Y-62698223D01*
X127698253Y-62716402D01*
X127712867Y-62736107D01*
X127725480Y-62757151D01*
X127735970Y-62779329D01*
X127744235Y-62802429D01*
X127750196Y-62826227D01*
X127753796Y-62850496D01*
X127755000Y-62875000D01*
X127755000Y-64125000D01*
X127753796Y-64149504D01*
X127750196Y-64173773D01*
X127744235Y-64197571D01*
X127735970Y-64220671D01*
X127725480Y-64242849D01*
X127712867Y-64263893D01*
X127698253Y-64283598D01*
X127681777Y-64301777D01*
X127663598Y-64318253D01*
X127643893Y-64332867D01*
X127622849Y-64345480D01*
X127600671Y-64355970D01*
X127577571Y-64364235D01*
X127553773Y-64370196D01*
X127529504Y-64373796D01*
X127505000Y-64375000D01*
X126755000Y-64375000D01*
X126730496Y-64373796D01*
X126706227Y-64370196D01*
X126682429Y-64364235D01*
X126659329Y-64355970D01*
X126637151Y-64345480D01*
X126616107Y-64332867D01*
X126596402Y-64318253D01*
X126578223Y-64301777D01*
X126561747Y-64283598D01*
X126547133Y-64263893D01*
X126534520Y-64242849D01*
X126524030Y-64220671D01*
X126515765Y-64197571D01*
X126509804Y-64173773D01*
X126506204Y-64149504D01*
X126505000Y-64125000D01*
X126505000Y-62875000D01*
X126506204Y-62850496D01*
X126509804Y-62826227D01*
X126515765Y-62802429D01*
X126524030Y-62779329D01*
X126534520Y-62757151D01*
X126547133Y-62736107D01*
X126561747Y-62716402D01*
X126578223Y-62698223D01*
X126596402Y-62681747D01*
X126616107Y-62667133D01*
X126637151Y-62654520D01*
X126659329Y-62644030D01*
X126682429Y-62635765D01*
X126706227Y-62629804D01*
X126730496Y-62626204D01*
X126755000Y-62625000D01*
X127505000Y-62625000D01*
X127529504Y-62626204D01*
X127529504Y-62626204D01*
G37*
D16*
X127130000Y-63500000D03*
D11*
G36*
X127529504Y-67706204D02*
X127553773Y-67709804D01*
X127577571Y-67715765D01*
X127600671Y-67724030D01*
X127622849Y-67734520D01*
X127643893Y-67747133D01*
X127663598Y-67761747D01*
X127681777Y-67778223D01*
X127698253Y-67796402D01*
X127712867Y-67816107D01*
X127725480Y-67837151D01*
X127735970Y-67859329D01*
X127744235Y-67882429D01*
X127750196Y-67906227D01*
X127753796Y-67930496D01*
X127755000Y-67955000D01*
X127755000Y-69205000D01*
X127753796Y-69229504D01*
X127750196Y-69253773D01*
X127744235Y-69277571D01*
X127735970Y-69300671D01*
X127725480Y-69322849D01*
X127712867Y-69343893D01*
X127698253Y-69363598D01*
X127681777Y-69381777D01*
X127663598Y-69398253D01*
X127643893Y-69412867D01*
X127622849Y-69425480D01*
X127600671Y-69435970D01*
X127577571Y-69444235D01*
X127553773Y-69450196D01*
X127529504Y-69453796D01*
X127505000Y-69455000D01*
X126755000Y-69455000D01*
X126730496Y-69453796D01*
X126706227Y-69450196D01*
X126682429Y-69444235D01*
X126659329Y-69435970D01*
X126637151Y-69425480D01*
X126616107Y-69412867D01*
X126596402Y-69398253D01*
X126578223Y-69381777D01*
X126561747Y-69363598D01*
X126547133Y-69343893D01*
X126534520Y-69322849D01*
X126524030Y-69300671D01*
X126515765Y-69277571D01*
X126509804Y-69253773D01*
X126506204Y-69229504D01*
X126505000Y-69205000D01*
X126505000Y-67955000D01*
X126506204Y-67930496D01*
X126509804Y-67906227D01*
X126515765Y-67882429D01*
X126524030Y-67859329D01*
X126534520Y-67837151D01*
X126547133Y-67816107D01*
X126561747Y-67796402D01*
X126578223Y-67778223D01*
X126596402Y-67761747D01*
X126616107Y-67747133D01*
X126637151Y-67734520D01*
X126659329Y-67724030D01*
X126682429Y-67715765D01*
X126706227Y-67709804D01*
X126730496Y-67706204D01*
X126755000Y-67705000D01*
X127505000Y-67705000D01*
X127529504Y-67706204D01*
X127529504Y-67706204D01*
G37*
D16*
X127130000Y-68580000D03*
D11*
G36*
X124729504Y-67706204D02*
X124753773Y-67709804D01*
X124777571Y-67715765D01*
X124800671Y-67724030D01*
X124822849Y-67734520D01*
X124843893Y-67747133D01*
X124863598Y-67761747D01*
X124881777Y-67778223D01*
X124898253Y-67796402D01*
X124912867Y-67816107D01*
X124925480Y-67837151D01*
X124935970Y-67859329D01*
X124944235Y-67882429D01*
X124950196Y-67906227D01*
X124953796Y-67930496D01*
X124955000Y-67955000D01*
X124955000Y-69205000D01*
X124953796Y-69229504D01*
X124950196Y-69253773D01*
X124944235Y-69277571D01*
X124935970Y-69300671D01*
X124925480Y-69322849D01*
X124912867Y-69343893D01*
X124898253Y-69363598D01*
X124881777Y-69381777D01*
X124863598Y-69398253D01*
X124843893Y-69412867D01*
X124822849Y-69425480D01*
X124800671Y-69435970D01*
X124777571Y-69444235D01*
X124753773Y-69450196D01*
X124729504Y-69453796D01*
X124705000Y-69455000D01*
X123955000Y-69455000D01*
X123930496Y-69453796D01*
X123906227Y-69450196D01*
X123882429Y-69444235D01*
X123859329Y-69435970D01*
X123837151Y-69425480D01*
X123816107Y-69412867D01*
X123796402Y-69398253D01*
X123778223Y-69381777D01*
X123761747Y-69363598D01*
X123747133Y-69343893D01*
X123734520Y-69322849D01*
X123724030Y-69300671D01*
X123715765Y-69277571D01*
X123709804Y-69253773D01*
X123706204Y-69229504D01*
X123705000Y-69205000D01*
X123705000Y-67955000D01*
X123706204Y-67930496D01*
X123709804Y-67906227D01*
X123715765Y-67882429D01*
X123724030Y-67859329D01*
X123734520Y-67837151D01*
X123747133Y-67816107D01*
X123761747Y-67796402D01*
X123778223Y-67778223D01*
X123796402Y-67761747D01*
X123816107Y-67747133D01*
X123837151Y-67734520D01*
X123859329Y-67724030D01*
X123882429Y-67715765D01*
X123906227Y-67709804D01*
X123930496Y-67706204D01*
X123955000Y-67705000D01*
X124705000Y-67705000D01*
X124729504Y-67706204D01*
X124729504Y-67706204D01*
G37*
D16*
X124330000Y-68580000D03*
D11*
G36*
X124729504Y-70246204D02*
X124753773Y-70249804D01*
X124777571Y-70255765D01*
X124800671Y-70264030D01*
X124822849Y-70274520D01*
X124843893Y-70287133D01*
X124863598Y-70301747D01*
X124881777Y-70318223D01*
X124898253Y-70336402D01*
X124912867Y-70356107D01*
X124925480Y-70377151D01*
X124935970Y-70399329D01*
X124944235Y-70422429D01*
X124950196Y-70446227D01*
X124953796Y-70470496D01*
X124955000Y-70495000D01*
X124955000Y-71745000D01*
X124953796Y-71769504D01*
X124950196Y-71793773D01*
X124944235Y-71817571D01*
X124935970Y-71840671D01*
X124925480Y-71862849D01*
X124912867Y-71883893D01*
X124898253Y-71903598D01*
X124881777Y-71921777D01*
X124863598Y-71938253D01*
X124843893Y-71952867D01*
X124822849Y-71965480D01*
X124800671Y-71975970D01*
X124777571Y-71984235D01*
X124753773Y-71990196D01*
X124729504Y-71993796D01*
X124705000Y-71995000D01*
X123955000Y-71995000D01*
X123930496Y-71993796D01*
X123906227Y-71990196D01*
X123882429Y-71984235D01*
X123859329Y-71975970D01*
X123837151Y-71965480D01*
X123816107Y-71952867D01*
X123796402Y-71938253D01*
X123778223Y-71921777D01*
X123761747Y-71903598D01*
X123747133Y-71883893D01*
X123734520Y-71862849D01*
X123724030Y-71840671D01*
X123715765Y-71817571D01*
X123709804Y-71793773D01*
X123706204Y-71769504D01*
X123705000Y-71745000D01*
X123705000Y-70495000D01*
X123706204Y-70470496D01*
X123709804Y-70446227D01*
X123715765Y-70422429D01*
X123724030Y-70399329D01*
X123734520Y-70377151D01*
X123747133Y-70356107D01*
X123761747Y-70336402D01*
X123778223Y-70318223D01*
X123796402Y-70301747D01*
X123816107Y-70287133D01*
X123837151Y-70274520D01*
X123859329Y-70264030D01*
X123882429Y-70255765D01*
X123906227Y-70249804D01*
X123930496Y-70246204D01*
X123955000Y-70245000D01*
X124705000Y-70245000D01*
X124729504Y-70246204D01*
X124729504Y-70246204D01*
G37*
D16*
X124330000Y-71120000D03*
D11*
G36*
X127529504Y-70246204D02*
X127553773Y-70249804D01*
X127577571Y-70255765D01*
X127600671Y-70264030D01*
X127622849Y-70274520D01*
X127643893Y-70287133D01*
X127663598Y-70301747D01*
X127681777Y-70318223D01*
X127698253Y-70336402D01*
X127712867Y-70356107D01*
X127725480Y-70377151D01*
X127735970Y-70399329D01*
X127744235Y-70422429D01*
X127750196Y-70446227D01*
X127753796Y-70470496D01*
X127755000Y-70495000D01*
X127755000Y-71745000D01*
X127753796Y-71769504D01*
X127750196Y-71793773D01*
X127744235Y-71817571D01*
X127735970Y-71840671D01*
X127725480Y-71862849D01*
X127712867Y-71883893D01*
X127698253Y-71903598D01*
X127681777Y-71921777D01*
X127663598Y-71938253D01*
X127643893Y-71952867D01*
X127622849Y-71965480D01*
X127600671Y-71975970D01*
X127577571Y-71984235D01*
X127553773Y-71990196D01*
X127529504Y-71993796D01*
X127505000Y-71995000D01*
X126755000Y-71995000D01*
X126730496Y-71993796D01*
X126706227Y-71990196D01*
X126682429Y-71984235D01*
X126659329Y-71975970D01*
X126637151Y-71965480D01*
X126616107Y-71952867D01*
X126596402Y-71938253D01*
X126578223Y-71921777D01*
X126561747Y-71903598D01*
X126547133Y-71883893D01*
X126534520Y-71862849D01*
X126524030Y-71840671D01*
X126515765Y-71817571D01*
X126509804Y-71793773D01*
X126506204Y-71769504D01*
X126505000Y-71745000D01*
X126505000Y-70495000D01*
X126506204Y-70470496D01*
X126509804Y-70446227D01*
X126515765Y-70422429D01*
X126524030Y-70399329D01*
X126534520Y-70377151D01*
X126547133Y-70356107D01*
X126561747Y-70336402D01*
X126578223Y-70318223D01*
X126596402Y-70301747D01*
X126616107Y-70287133D01*
X126637151Y-70274520D01*
X126659329Y-70264030D01*
X126682429Y-70255765D01*
X126706227Y-70249804D01*
X126730496Y-70246204D01*
X126755000Y-70245000D01*
X127505000Y-70245000D01*
X127529504Y-70246204D01*
X127529504Y-70246204D01*
G37*
D16*
X127130000Y-71120000D03*
D11*
G36*
X127529504Y-72786204D02*
X127553773Y-72789804D01*
X127577571Y-72795765D01*
X127600671Y-72804030D01*
X127622849Y-72814520D01*
X127643893Y-72827133D01*
X127663598Y-72841747D01*
X127681777Y-72858223D01*
X127698253Y-72876402D01*
X127712867Y-72896107D01*
X127725480Y-72917151D01*
X127735970Y-72939329D01*
X127744235Y-72962429D01*
X127750196Y-72986227D01*
X127753796Y-73010496D01*
X127755000Y-73035000D01*
X127755000Y-74285000D01*
X127753796Y-74309504D01*
X127750196Y-74333773D01*
X127744235Y-74357571D01*
X127735970Y-74380671D01*
X127725480Y-74402849D01*
X127712867Y-74423893D01*
X127698253Y-74443598D01*
X127681777Y-74461777D01*
X127663598Y-74478253D01*
X127643893Y-74492867D01*
X127622849Y-74505480D01*
X127600671Y-74515970D01*
X127577571Y-74524235D01*
X127553773Y-74530196D01*
X127529504Y-74533796D01*
X127505000Y-74535000D01*
X126755000Y-74535000D01*
X126730496Y-74533796D01*
X126706227Y-74530196D01*
X126682429Y-74524235D01*
X126659329Y-74515970D01*
X126637151Y-74505480D01*
X126616107Y-74492867D01*
X126596402Y-74478253D01*
X126578223Y-74461777D01*
X126561747Y-74443598D01*
X126547133Y-74423893D01*
X126534520Y-74402849D01*
X126524030Y-74380671D01*
X126515765Y-74357571D01*
X126509804Y-74333773D01*
X126506204Y-74309504D01*
X126505000Y-74285000D01*
X126505000Y-73035000D01*
X126506204Y-73010496D01*
X126509804Y-72986227D01*
X126515765Y-72962429D01*
X126524030Y-72939329D01*
X126534520Y-72917151D01*
X126547133Y-72896107D01*
X126561747Y-72876402D01*
X126578223Y-72858223D01*
X126596402Y-72841747D01*
X126616107Y-72827133D01*
X126637151Y-72814520D01*
X126659329Y-72804030D01*
X126682429Y-72795765D01*
X126706227Y-72789804D01*
X126730496Y-72786204D01*
X126755000Y-72785000D01*
X127505000Y-72785000D01*
X127529504Y-72786204D01*
X127529504Y-72786204D01*
G37*
D16*
X127130000Y-73660000D03*
D11*
G36*
X124729504Y-72786204D02*
X124753773Y-72789804D01*
X124777571Y-72795765D01*
X124800671Y-72804030D01*
X124822849Y-72814520D01*
X124843893Y-72827133D01*
X124863598Y-72841747D01*
X124881777Y-72858223D01*
X124898253Y-72876402D01*
X124912867Y-72896107D01*
X124925480Y-72917151D01*
X124935970Y-72939329D01*
X124944235Y-72962429D01*
X124950196Y-72986227D01*
X124953796Y-73010496D01*
X124955000Y-73035000D01*
X124955000Y-74285000D01*
X124953796Y-74309504D01*
X124950196Y-74333773D01*
X124944235Y-74357571D01*
X124935970Y-74380671D01*
X124925480Y-74402849D01*
X124912867Y-74423893D01*
X124898253Y-74443598D01*
X124881777Y-74461777D01*
X124863598Y-74478253D01*
X124843893Y-74492867D01*
X124822849Y-74505480D01*
X124800671Y-74515970D01*
X124777571Y-74524235D01*
X124753773Y-74530196D01*
X124729504Y-74533796D01*
X124705000Y-74535000D01*
X123955000Y-74535000D01*
X123930496Y-74533796D01*
X123906227Y-74530196D01*
X123882429Y-74524235D01*
X123859329Y-74515970D01*
X123837151Y-74505480D01*
X123816107Y-74492867D01*
X123796402Y-74478253D01*
X123778223Y-74461777D01*
X123761747Y-74443598D01*
X123747133Y-74423893D01*
X123734520Y-74402849D01*
X123724030Y-74380671D01*
X123715765Y-74357571D01*
X123709804Y-74333773D01*
X123706204Y-74309504D01*
X123705000Y-74285000D01*
X123705000Y-73035000D01*
X123706204Y-73010496D01*
X123709804Y-72986227D01*
X123715765Y-72962429D01*
X123724030Y-72939329D01*
X123734520Y-72917151D01*
X123747133Y-72896107D01*
X123761747Y-72876402D01*
X123778223Y-72858223D01*
X123796402Y-72841747D01*
X123816107Y-72827133D01*
X123837151Y-72814520D01*
X123859329Y-72804030D01*
X123882429Y-72795765D01*
X123906227Y-72789804D01*
X123930496Y-72786204D01*
X123955000Y-72785000D01*
X124705000Y-72785000D01*
X124729504Y-72786204D01*
X124729504Y-72786204D01*
G37*
D16*
X124330000Y-73660000D03*
D11*
G36*
X124729504Y-75326204D02*
X124753773Y-75329804D01*
X124777571Y-75335765D01*
X124800671Y-75344030D01*
X124822849Y-75354520D01*
X124843893Y-75367133D01*
X124863598Y-75381747D01*
X124881777Y-75398223D01*
X124898253Y-75416402D01*
X124912867Y-75436107D01*
X124925480Y-75457151D01*
X124935970Y-75479329D01*
X124944235Y-75502429D01*
X124950196Y-75526227D01*
X124953796Y-75550496D01*
X124955000Y-75575000D01*
X124955000Y-76825000D01*
X124953796Y-76849504D01*
X124950196Y-76873773D01*
X124944235Y-76897571D01*
X124935970Y-76920671D01*
X124925480Y-76942849D01*
X124912867Y-76963893D01*
X124898253Y-76983598D01*
X124881777Y-77001777D01*
X124863598Y-77018253D01*
X124843893Y-77032867D01*
X124822849Y-77045480D01*
X124800671Y-77055970D01*
X124777571Y-77064235D01*
X124753773Y-77070196D01*
X124729504Y-77073796D01*
X124705000Y-77075000D01*
X123955000Y-77075000D01*
X123930496Y-77073796D01*
X123906227Y-77070196D01*
X123882429Y-77064235D01*
X123859329Y-77055970D01*
X123837151Y-77045480D01*
X123816107Y-77032867D01*
X123796402Y-77018253D01*
X123778223Y-77001777D01*
X123761747Y-76983598D01*
X123747133Y-76963893D01*
X123734520Y-76942849D01*
X123724030Y-76920671D01*
X123715765Y-76897571D01*
X123709804Y-76873773D01*
X123706204Y-76849504D01*
X123705000Y-76825000D01*
X123705000Y-75575000D01*
X123706204Y-75550496D01*
X123709804Y-75526227D01*
X123715765Y-75502429D01*
X123724030Y-75479329D01*
X123734520Y-75457151D01*
X123747133Y-75436107D01*
X123761747Y-75416402D01*
X123778223Y-75398223D01*
X123796402Y-75381747D01*
X123816107Y-75367133D01*
X123837151Y-75354520D01*
X123859329Y-75344030D01*
X123882429Y-75335765D01*
X123906227Y-75329804D01*
X123930496Y-75326204D01*
X123955000Y-75325000D01*
X124705000Y-75325000D01*
X124729504Y-75326204D01*
X124729504Y-75326204D01*
G37*
D16*
X124330000Y-76200000D03*
D11*
G36*
X127529504Y-75326204D02*
X127553773Y-75329804D01*
X127577571Y-75335765D01*
X127600671Y-75344030D01*
X127622849Y-75354520D01*
X127643893Y-75367133D01*
X127663598Y-75381747D01*
X127681777Y-75398223D01*
X127698253Y-75416402D01*
X127712867Y-75436107D01*
X127725480Y-75457151D01*
X127735970Y-75479329D01*
X127744235Y-75502429D01*
X127750196Y-75526227D01*
X127753796Y-75550496D01*
X127755000Y-75575000D01*
X127755000Y-76825000D01*
X127753796Y-76849504D01*
X127750196Y-76873773D01*
X127744235Y-76897571D01*
X127735970Y-76920671D01*
X127725480Y-76942849D01*
X127712867Y-76963893D01*
X127698253Y-76983598D01*
X127681777Y-77001777D01*
X127663598Y-77018253D01*
X127643893Y-77032867D01*
X127622849Y-77045480D01*
X127600671Y-77055970D01*
X127577571Y-77064235D01*
X127553773Y-77070196D01*
X127529504Y-77073796D01*
X127505000Y-77075000D01*
X126755000Y-77075000D01*
X126730496Y-77073796D01*
X126706227Y-77070196D01*
X126682429Y-77064235D01*
X126659329Y-77055970D01*
X126637151Y-77045480D01*
X126616107Y-77032867D01*
X126596402Y-77018253D01*
X126578223Y-77001777D01*
X126561747Y-76983598D01*
X126547133Y-76963893D01*
X126534520Y-76942849D01*
X126524030Y-76920671D01*
X126515765Y-76897571D01*
X126509804Y-76873773D01*
X126506204Y-76849504D01*
X126505000Y-76825000D01*
X126505000Y-75575000D01*
X126506204Y-75550496D01*
X126509804Y-75526227D01*
X126515765Y-75502429D01*
X126524030Y-75479329D01*
X126534520Y-75457151D01*
X126547133Y-75436107D01*
X126561747Y-75416402D01*
X126578223Y-75398223D01*
X126596402Y-75381747D01*
X126616107Y-75367133D01*
X126637151Y-75354520D01*
X126659329Y-75344030D01*
X126682429Y-75335765D01*
X126706227Y-75329804D01*
X126730496Y-75326204D01*
X126755000Y-75325000D01*
X127505000Y-75325000D01*
X127529504Y-75326204D01*
X127529504Y-75326204D01*
G37*
D16*
X127130000Y-76200000D03*
D17*
X124792500Y-68580000D02*
X121920000Y-68580000D01*
X126667500Y-68580000D02*
X129540000Y-68580000D01*
X126517500Y-71120000D02*
X129540000Y-71120000D01*
X124792500Y-71120000D02*
X121920000Y-71120000D01*
X124792500Y-63500000D02*
X121920000Y-63500000D01*
X126667500Y-63500000D02*
X129540000Y-63500000D01*
X126517500Y-63500000D02*
X129540000Y-63500000D01*
X126667500Y-66040000D02*
X129540000Y-66040000D01*
X124792500Y-66040000D02*
X121920000Y-66040000D01*
X126667500Y-73660000D02*
X129540000Y-73660000D01*
X126667500Y-76200000D02*
X129540000Y-76200000D01*
X127130000Y-78740000D02*
X129540000Y-78740000D01*
X126667500Y-81280000D02*
X129540000Y-81280000D01*
X124942500Y-81280000D02*
X121920000Y-81280000D01*
X124792500Y-78740000D02*
X121920000Y-78740000D01*
X124792500Y-76200000D02*
X121920000Y-76200000D01*
X124792500Y-73660000D02*
X121920000Y-73660000D01*
M02*
